<svg width="973" height="1213" viewBox="0 0 973 1213" fill="none" xmlns="http://www.w3.org/2000/svg">
<rect x="1" y="1" width="786" height="1211" stroke="black" stroke-width="2"/>
<path d="M939.983 119.165H941.432L951.545 125.557V126.608H949.301V125.898L941.659 121.068H941.545V129.676H939.983V119.165ZM937 126.011H940.423H941.098H951.545V127.687H937V126.011ZM945.054 138.616H943.491V132.252H945.054V138.616ZM937 141.793H951.545V146.707C951.545 147.848 951.339 148.781 950.928 149.506C950.52 150.235 949.969 150.775 949.273 151.125C948.577 151.475 947.8 151.651 946.943 151.651C946.086 151.651 945.307 151.475 944.607 151.125C943.906 150.779 943.347 150.244 942.93 149.52C942.518 148.795 942.313 147.867 942.313 146.736V143.213H943.875V146.679C943.875 147.46 944.01 148.088 944.28 148.561C944.55 149.035 944.914 149.378 945.374 149.591C945.838 149.809 946.361 149.918 946.943 149.918C947.526 149.918 948.046 149.809 948.506 149.591C948.965 149.378 949.325 149.032 949.585 148.554C949.85 148.076 949.983 147.441 949.983 146.651V143.554H937V141.793ZM937 158.977V154.488H951.545V159.175C951.545 160.586 951.254 161.794 950.672 162.798C950.094 163.801 949.263 164.571 948.179 165.106C947.099 165.641 945.807 165.908 944.301 165.908C942.786 165.908 941.482 165.638 940.388 165.099C939.299 164.559 938.461 163.773 937.874 162.741C937.291 161.709 937 160.454 937 158.977ZM938.563 156.249V158.863C938.563 160.066 938.795 161.062 939.259 161.853C939.723 162.644 940.383 163.233 941.24 163.621C942.097 164.01 943.117 164.204 944.301 164.204C945.475 164.204 946.486 164.012 947.334 163.629C948.186 163.245 948.839 162.672 949.294 161.91C949.753 161.147 949.983 160.198 949.983 159.062V156.249H938.563ZM951.545 178.408V180.17H941.915C940.92 180.17 940.033 179.935 939.251 179.467C938.475 179.003 937.862 178.347 937.412 177.499C936.967 176.652 936.744 175.657 936.744 174.516C936.744 173.375 936.967 172.381 937.412 171.533C937.862 170.686 938.475 170.028 939.251 169.559C940.033 169.095 940.92 168.863 941.915 168.863H951.545V170.624H942.057C941.347 170.624 940.714 170.781 940.161 171.093C939.611 171.406 939.178 171.851 938.861 172.428C938.548 173.011 938.392 173.707 938.392 174.516C938.392 175.326 938.548 176.022 938.861 176.604C939.178 177.187 939.611 177.632 940.161 177.94C940.714 178.252 941.347 178.408 942.057 178.408H951.545ZM945.054 189.71H943.491V183.346H945.054V189.71ZM937 192.636L949.869 199.142H949.983V191.642H951.545V200.96H949.898L937 194.483V192.636Z" fill="#DF0808"/>
<rect x="859.75" y="607.75" width="55.5" height="160.5" stroke="black" stroke-width="1.5"/>
<rect x="916.75" y="239.75" width="55.5" height="155.5" stroke="black" stroke-width="1.5"/>
<rect x="916.75" y="85.75" width="55.5" height="152.5" stroke="black" stroke-width="1.5"/>
<path d="M939.983 274.165H941.432L951.545 280.557V281.608H949.301V280.898L941.659 276.068H941.545V284.676H939.983V274.165ZM937 281.011H940.423H941.098H951.545V282.687H937V281.011ZM945.054 293.616H943.491V287.252H945.054V293.616ZM937 296.793H951.545V301.707C951.545 302.848 951.339 303.781 950.928 304.506C950.52 305.235 949.969 305.775 949.273 306.125C948.577 306.475 947.8 306.651 946.943 306.651C946.086 306.651 945.307 306.475 944.607 306.125C943.906 305.779 943.347 305.244 942.93 304.52C942.518 303.795 942.313 302.867 942.313 301.736V298.213H943.875V301.679C943.875 302.46 944.01 303.088 944.28 303.561C944.55 304.035 944.914 304.378 945.374 304.591C945.838 304.809 946.361 304.918 946.943 304.918C947.526 304.918 948.046 304.809 948.506 304.591C948.965 304.378 949.325 304.032 949.585 303.554C949.85 303.076 949.983 302.441 949.983 301.651V298.554H937V296.793ZM937 313.977V309.488H951.545V314.175C951.545 315.586 951.254 316.794 950.672 317.798C950.094 318.801 949.263 319.571 948.179 320.106C947.099 320.641 945.807 320.908 944.301 320.908C942.786 320.908 941.482 320.638 940.388 320.099C939.299 319.559 938.461 318.773 937.874 317.741C937.291 316.709 937 315.454 937 313.977ZM938.563 311.249V313.863C938.563 315.066 938.795 316.062 939.259 316.853C939.723 317.644 940.383 318.233 941.24 318.621C942.097 319.01 943.117 319.204 944.301 319.204C945.475 319.204 946.486 319.012 947.334 318.629C948.186 318.245 948.839 317.672 949.294 316.91C949.753 316.147 949.983 315.198 949.983 314.062V311.249H938.563ZM951.545 333.408V335.17H941.915C940.92 335.17 940.033 334.935 939.251 334.467C938.475 334.003 937.862 333.347 937.412 332.499C936.967 331.652 936.744 330.657 936.744 329.516C936.744 328.375 936.967 327.381 937.412 326.533C937.862 325.686 938.475 325.028 939.251 324.559C940.033 324.095 940.92 323.863 941.915 323.863H951.545V325.624H942.057C941.347 325.624 940.714 325.781 940.161 326.093C939.611 326.406 939.178 326.851 938.861 327.428C938.548 328.011 938.392 328.707 938.392 329.516C938.392 330.326 938.548 331.022 938.861 331.604C939.178 332.187 939.611 332.632 940.161 332.94C940.714 333.252 941.347 333.408 942.057 333.408H951.545ZM945.054 344.71H943.491V338.346H945.054V344.71ZM936.801 352.29C936.801 351.314 936.974 350.453 937.32 349.705C937.67 348.961 938.151 348.381 938.761 347.964C939.377 347.548 940.078 347.342 940.864 347.347C941.479 347.342 942.047 347.463 942.568 347.709C943.094 347.955 943.532 348.291 943.882 348.717C944.237 349.148 944.462 349.629 944.557 350.159H944.642C944.822 349.463 945.213 348.909 945.814 348.497C946.42 348.085 947.109 347.882 947.881 347.886C948.619 347.882 949.28 348.069 949.862 348.447C950.445 348.826 950.904 349.347 951.24 350.01C951.576 350.678 951.744 351.437 951.744 352.29C951.744 353.133 951.576 353.885 951.24 354.548C950.904 355.211 950.445 355.732 949.862 356.111C949.28 356.494 948.619 356.688 947.881 356.693C947.109 356.688 946.42 356.478 945.814 356.061C945.213 355.649 944.822 355.102 944.642 354.42H944.557C944.462 354.946 944.237 355.42 943.882 355.841C943.532 356.262 943.094 356.598 942.568 356.849C942.047 357.1 941.479 357.228 940.864 357.233C940.078 357.228 939.377 357.015 938.761 356.594C938.151 356.177 937.67 355.597 937.32 354.854C936.974 354.115 936.801 353.26 936.801 352.29ZM938.364 352.29C938.364 352.948 938.47 353.516 938.683 353.994C938.896 354.473 939.197 354.842 939.585 355.102C939.973 355.363 940.428 355.495 940.949 355.5C941.498 355.495 941.983 355.353 942.405 355.074C942.826 354.795 943.158 354.413 943.399 353.93C943.641 353.452 943.761 352.905 943.761 352.29C943.761 351.67 943.641 351.116 943.399 350.628C943.158 350.145 942.826 349.764 942.405 349.484C941.983 349.21 941.498 349.075 940.949 349.08C940.428 349.075 939.973 349.2 939.585 349.456C939.197 349.716 938.896 350.088 938.683 350.571C938.47 351.054 938.364 351.627 938.364 352.29ZM945.267 352.29C945.267 352.811 945.371 353.272 945.58 353.675C945.788 354.082 946.079 354.402 946.453 354.634C946.827 354.866 947.265 354.984 947.767 354.989C948.259 354.984 948.688 354.868 949.053 354.641C949.422 354.413 949.706 354.098 949.905 353.696C950.108 353.294 950.21 352.825 950.21 352.29C950.21 351.745 950.108 351.269 949.905 350.862C949.706 350.455 949.422 350.14 949.053 349.918C948.688 349.695 948.259 349.586 947.767 349.591C947.265 349.586 946.827 349.697 946.453 349.925C946.079 350.157 945.788 350.476 945.58 350.884C945.371 351.291 945.267 351.759 945.267 352.29Z" fill="#DF0808"/>
<path d="M127.874 410.763V409.676L132.668 402.091H133.456V403.774H132.923L129.301 409.506V409.591H135.757V410.763H127.874ZM133.009 413V410.433V409.926V402.091H134.266V413H133.009ZM142.164 413V402.091H145.85C146.702 402.091 147.402 402.237 147.949 402.528C148.495 402.815 148.9 403.211 149.163 403.716C149.426 404.22 149.557 404.793 149.557 405.436C149.557 406.079 149.426 406.649 149.163 407.146C148.9 407.643 148.497 408.034 147.954 408.318C147.411 408.598 146.716 408.739 145.871 408.739H142.888V407.545H145.829C146.411 407.545 146.88 407.46 147.235 407.29C147.593 407.119 147.853 406.878 148.013 406.565C148.176 406.249 148.258 405.873 148.258 405.436C148.258 404.999 148.176 404.618 148.013 404.291C147.849 403.964 147.588 403.712 147.229 403.534C146.871 403.353 146.397 403.263 145.807 403.263H143.485V413H142.164ZM147.299 408.099L149.983 413H148.449L145.807 408.099H147.299ZM151.759 413V402.091H155.445C156.3 402.091 157 402.245 157.543 402.554C158.09 402.86 158.495 403.273 158.758 403.795C159.021 404.317 159.152 404.9 159.152 405.543C159.152 406.185 159.021 406.77 158.758 407.295C158.499 407.821 158.097 408.24 157.554 408.552C157.011 408.861 156.315 409.016 155.466 409.016H152.824V407.844H155.423C156.009 407.844 156.48 407.743 156.835 407.54C157.19 407.338 157.447 407.064 157.607 406.72C157.771 406.372 157.852 405.979 157.852 405.543C157.852 405.106 157.771 404.715 157.607 404.371C157.447 404.026 157.188 403.756 156.83 403.561C156.471 403.362 155.995 403.263 155.402 403.263H153.08V413H151.759ZM161.28 413V402.091H164.966C165.822 402.091 166.521 402.245 167.065 402.554C167.612 402.86 168.017 403.273 168.279 403.795C168.542 404.317 168.673 404.9 168.673 405.543C168.673 406.185 168.542 406.77 168.279 407.295C168.02 407.821 167.619 408.24 167.075 408.552C166.532 408.861 165.836 409.016 164.987 409.016H162.345V407.844H164.945C165.531 407.844 166.001 407.743 166.356 407.54C166.711 407.338 166.969 407.064 167.129 406.72C167.292 406.372 167.374 405.979 167.374 405.543C167.374 405.106 167.292 404.715 167.129 404.371C166.969 404.026 166.71 403.756 166.351 403.561C165.992 403.362 165.517 403.263 164.923 403.263H162.601V413H161.28ZM178.664 402.091V413H177.343V403.476H177.279L174.615 405.244V403.902L177.343 402.091H178.664ZM186.51 406.96V408.131H181.737V406.96H186.51ZM188.705 413L193.584 403.348V403.263H187.959V402.091H194.947V403.327L190.089 413H188.705Z" fill="#DB0707"/>
<rect x="116.5" y="394.5" width="90" height="26" stroke="black"/>
<path d="M880 652.761H894.545V657.676C894.545 658.817 894.339 659.75 893.928 660.474C893.52 661.204 892.969 661.743 892.273 662.094C891.577 662.444 890.8 662.619 889.943 662.619C889.086 662.619 888.307 662.444 887.607 662.094C886.906 661.748 886.347 661.213 885.93 660.489C885.518 659.764 885.313 658.836 885.313 657.705V654.182H886.875V657.648C886.875 658.429 887.01 659.056 887.28 659.53C887.55 660.003 887.914 660.347 888.374 660.56C888.838 660.777 889.361 660.886 889.943 660.886C890.526 660.886 891.046 660.777 891.506 660.56C891.965 660.347 892.325 660.001 892.585 659.523C892.85 659.045 892.983 658.41 892.983 657.619V654.523H880V652.761ZM880 669.945V665.457H894.545V670.144C894.545 671.555 894.254 672.763 893.672 673.766C893.094 674.77 892.263 675.54 891.179 676.075C890.099 676.61 888.807 676.877 887.301 676.877C885.786 676.877 884.482 676.607 883.388 676.067C882.299 675.528 881.461 674.742 880.874 673.71C880.291 672.677 880 671.423 880 669.945ZM881.563 667.218V669.832C881.563 671.034 881.795 672.031 882.259 672.822C882.723 673.612 883.383 674.202 884.24 674.59C885.097 674.978 886.117 675.173 887.301 675.173C888.475 675.173 889.486 674.981 890.334 674.597C891.186 674.214 891.839 673.641 892.294 672.879C892.753 672.116 892.983 671.167 892.983 670.031V667.218H881.563ZM888.054 685.854H886.491V679.491H888.054V685.854ZM882.983 688.434H884.432L894.545 694.826V695.877H892.301V695.167L884.659 690.338H884.545V698.946H882.983V688.434ZM880 695.281H883.423H884.098H894.545V696.957H880V695.281ZM888.054 707.886H886.491V701.522H888.054V707.886ZM880 710.123H881.278L886.534 714.924C887.15 715.487 887.685 715.951 888.139 716.316C888.598 716.681 889.029 716.951 889.432 717.126C889.839 717.306 890.265 717.396 890.71 717.396C891.222 717.396 891.664 717.272 892.038 717.026C892.412 716.785 892.701 716.453 892.905 716.032C893.108 715.611 893.21 715.137 893.21 714.612C893.21 714.053 893.094 713.565 892.862 713.148C892.635 712.737 892.315 712.417 891.903 712.19C891.491 711.967 891.009 711.856 890.455 711.856V710.18C891.307 710.18 892.055 710.376 892.699 710.769C893.343 711.162 893.845 711.697 894.205 712.374C894.564 713.056 894.744 713.821 894.744 714.668C894.744 715.521 894.564 716.276 894.205 716.934C893.845 717.592 893.359 718.108 892.749 718.482C892.138 718.856 891.458 719.043 890.71 719.043C890.175 719.043 889.652 718.946 889.141 718.752C888.634 718.563 888.068 718.231 887.443 717.758C886.823 717.289 886.065 716.638 885.17 715.805L881.676 712.538H881.563V719.299H880V710.123Z" fill="#DF0808"/>
<rect x="206.5" y="394.5" width="90" height="26" stroke="black"/>
<path d="M218.874 410.763V409.676L223.668 402.091H224.456V403.774H223.923L220.301 409.506V409.591H226.757V410.763H218.874ZM224.009 413V410.433V409.926V402.091H225.266V413H224.009ZM233.164 413V402.091H236.85C237.702 402.091 238.402 402.237 238.949 402.528C239.495 402.815 239.9 403.211 240.163 403.716C240.426 404.22 240.557 404.793 240.557 405.436C240.557 406.079 240.426 406.649 240.163 407.146C239.9 407.643 239.497 408.034 238.954 408.318C238.411 408.598 237.716 408.739 236.871 408.739H233.888V407.545H236.829C237.411 407.545 237.88 407.46 238.235 407.29C238.593 407.119 238.853 406.878 239.013 406.565C239.176 406.249 239.258 405.873 239.258 405.436C239.258 404.999 239.176 404.618 239.013 404.291C238.849 403.964 238.588 403.712 238.229 403.534C237.871 403.353 237.397 403.263 236.807 403.263H234.485V413H233.164ZM238.299 408.099L240.983 413H239.449L236.807 408.099H238.299ZM242.759 413V402.091H246.445C247.3 402.091 248 402.245 248.543 402.554C249.09 402.86 249.495 403.273 249.758 403.795C250.021 404.317 250.152 404.9 250.152 405.543C250.152 406.185 250.021 406.77 249.758 407.295C249.499 407.821 249.097 408.24 248.554 408.552C248.011 408.861 247.315 409.016 246.466 409.016H243.824V407.844H246.423C247.009 407.844 247.48 407.743 247.835 407.54C248.19 407.338 248.447 407.064 248.607 406.72C248.771 406.372 248.852 405.979 248.852 405.543C248.852 405.106 248.771 404.715 248.607 404.371C248.447 404.026 248.188 403.756 247.83 403.561C247.471 403.362 246.995 403.263 246.402 403.263H244.08V413H242.759ZM252.28 413V402.091H255.966C256.822 402.091 257.521 402.245 258.065 402.554C258.612 402.86 259.017 403.273 259.279 403.795C259.542 404.317 259.673 404.9 259.673 405.543C259.673 406.185 259.542 406.77 259.279 407.295C259.02 407.821 258.619 408.24 258.075 408.552C257.532 408.861 256.836 409.016 255.987 409.016H253.345V407.844H255.945C256.531 407.844 257.001 407.743 257.356 407.54C257.711 407.338 257.969 407.064 258.129 406.72C258.292 406.372 258.374 405.979 258.374 405.543C258.374 405.106 258.292 404.715 258.129 404.371C257.969 404.026 257.71 403.756 257.351 403.561C256.992 403.362 256.517 403.263 255.923 403.263H253.601V413H252.28ZM269.664 402.091V413H268.343V403.476H268.279L265.615 405.244V403.902L268.343 402.091H269.664ZM277.51 406.96V408.131H272.737V406.96H277.51ZM283.195 413.149C282.463 413.149 281.817 413.02 281.256 412.76C280.698 412.498 280.263 412.137 279.951 411.679C279.638 411.217 279.484 410.692 279.487 410.102C279.484 409.641 279.574 409.214 279.759 408.824C279.944 408.43 280.196 408.101 280.516 407.838C280.839 407.572 281.199 407.403 281.597 407.332V407.268C281.075 407.134 280.659 406.841 280.35 406.39C280.041 405.935 279.889 405.418 279.892 404.839C279.889 404.286 280.029 403.79 280.313 403.353C280.597 402.917 280.988 402.572 281.485 402.32C281.986 402.068 282.556 401.942 283.195 401.942C283.827 401.942 284.392 402.068 284.889 402.32C285.386 402.572 285.777 402.917 286.061 403.353C286.348 403.79 286.494 404.286 286.497 404.839C286.494 405.418 286.336 405.935 286.023 406.39C285.714 406.841 285.304 407.134 284.793 407.268V407.332C285.187 407.403 285.542 407.572 285.858 407.838C286.174 408.101 286.426 408.43 286.615 408.824C286.803 409.214 286.899 409.641 286.902 410.102C286.899 410.692 286.739 411.217 286.423 411.679C286.11 412.137 285.675 412.498 285.118 412.76C284.564 413.02 283.923 413.149 283.195 413.149ZM283.195 411.977C283.688 411.977 284.115 411.897 284.473 411.738C284.832 411.578 285.109 411.352 285.304 411.061C285.5 410.77 285.599 410.429 285.603 410.038C285.599 409.626 285.492 409.262 285.283 408.946C285.073 408.63 284.788 408.382 284.425 408.201C284.067 408.02 283.657 407.929 283.195 407.929C282.73 407.929 282.314 408.02 281.948 408.201C281.586 408.382 281.3 408.63 281.091 408.946C280.885 409.262 280.784 409.626 280.787 410.038C280.784 410.429 280.878 410.77 281.07 411.061C281.265 411.352 281.544 411.578 281.906 411.738C282.268 411.897 282.698 411.977 283.195 411.977ZM283.195 406.8C283.585 406.8 283.932 406.722 284.234 406.565C284.539 406.409 284.779 406.191 284.953 405.91C285.127 405.63 285.215 405.301 285.219 404.925C285.215 404.555 285.128 404.234 284.958 403.961C284.788 403.684 284.551 403.471 284.25 403.321C283.948 403.169 283.596 403.092 283.195 403.092C282.786 403.092 282.43 403.169 282.124 403.321C281.819 403.471 281.583 403.684 281.416 403.961C281.249 404.234 281.167 404.555 281.171 404.925C281.167 405.301 281.251 405.63 281.421 405.91C281.595 406.191 281.835 406.409 282.14 406.565C282.446 406.722 282.797 406.8 283.195 406.8Z" fill="#DB0707"/>
<rect x="484.5" y="394.5" width="92" height="26" stroke="black"/>
<rect x="576.5" y="394.5" width="90" height="26" stroke="black"/>
<path d="M496.874 410.763V409.676L501.668 402.091H502.456V403.774H501.923L498.301 409.506V409.591H504.757V410.763H496.874ZM502.009 413V410.433V409.926V402.091H503.266V413H502.009ZM511.164 413V402.091H514.85C515.702 402.091 516.402 402.237 516.949 402.528C517.495 402.815 517.9 403.211 518.163 403.716C518.426 404.22 518.557 404.793 518.557 405.436C518.557 406.079 518.426 406.649 518.163 407.146C517.9 407.643 517.497 408.034 516.954 408.318C516.411 408.598 515.716 408.739 514.871 408.739H511.888V407.545H514.829C515.411 407.545 515.88 407.46 516.235 407.29C516.593 407.119 516.853 406.878 517.013 406.565C517.176 406.249 517.258 405.873 517.258 405.436C517.258 404.999 517.176 404.618 517.013 404.291C516.849 403.964 516.588 403.712 516.229 403.534C515.871 403.353 515.397 403.263 514.807 403.263H512.485V413H511.164ZM516.299 408.099L518.983 413H517.449L514.807 408.099H516.299ZM520.759 413V402.091H524.445C525.3 402.091 526 402.245 526.543 402.554C527.09 402.86 527.495 403.273 527.758 403.795C528.021 404.317 528.152 404.9 528.152 405.543C528.152 406.185 528.021 406.77 527.758 407.295C527.499 407.821 527.097 408.24 526.554 408.552C526.011 408.861 525.315 409.016 524.466 409.016H521.824V407.844H524.423C525.009 407.844 525.48 407.743 525.835 407.54C526.19 407.338 526.447 407.064 526.607 406.72C526.771 406.372 526.852 405.979 526.852 405.543C526.852 405.106 526.771 404.715 526.607 404.371C526.447 404.026 526.188 403.756 525.83 403.561C525.471 403.362 524.995 403.263 524.402 403.263H522.08V413H520.759ZM530.28 413V402.091H533.966C534.822 402.091 535.521 402.245 536.065 402.554C536.612 402.86 537.017 403.273 537.279 403.795C537.542 404.317 537.673 404.9 537.673 405.543C537.673 406.185 537.542 406.77 537.279 407.295C537.02 407.821 536.619 408.24 536.075 408.552C535.532 408.861 534.836 409.016 533.987 409.016H531.345V407.844H533.945C534.531 407.844 535.001 407.743 535.356 407.54C535.711 407.338 535.969 407.064 536.129 406.72C536.292 406.372 536.374 405.979 536.374 405.543C536.374 405.106 536.292 404.715 536.129 404.371C535.969 404.026 535.71 403.756 535.351 403.561C534.992 403.362 534.517 403.263 533.923 403.263H531.601V413H530.28ZM543.828 413V412.041L547.429 408.099C547.852 407.638 548.2 407.237 548.473 406.896C548.747 406.551 548.949 406.228 549.081 405.926C549.216 405.621 549.283 405.301 549.283 404.967C549.283 404.584 549.191 404.252 549.006 403.971C548.825 403.691 548.576 403.474 548.26 403.321C547.944 403.169 547.589 403.092 547.195 403.092C546.776 403.092 546.41 403.179 546.098 403.353C545.789 403.524 545.549 403.763 545.379 404.072C545.212 404.381 545.128 404.744 545.128 405.159H543.871C543.871 404.52 544.018 403.959 544.313 403.476C544.608 402.993 545.009 402.616 545.517 402.347C546.028 402.077 546.602 401.942 547.238 401.942C547.877 401.942 548.443 402.077 548.937 402.347C549.43 402.616 549.817 402.98 550.098 403.439C550.379 403.897 550.519 404.406 550.519 404.967C550.519 405.369 550.446 405.761 550.3 406.145C550.158 406.525 549.91 406.949 549.555 407.418C549.203 407.883 548.715 408.451 548.09 409.122L545.64 411.743V411.828H550.711V413H543.828ZM557.619 406.96V408.131H552.847V406.96H557.619ZM563.219 413.149C562.594 413.149 562.031 413.025 561.53 412.776C561.03 412.528 560.628 412.187 560.327 411.754C560.025 411.32 559.86 410.827 559.831 410.273H561.11C561.159 410.766 561.383 411.175 561.781 411.498C562.182 411.817 562.661 411.977 563.219 411.977C563.666 411.977 564.064 411.873 564.412 411.663C564.764 411.453 565.039 411.166 565.238 410.8C565.44 410.431 565.541 410.013 565.541 409.548C565.541 409.072 565.437 408.648 565.227 408.275C565.021 407.899 564.737 407.602 564.375 407.386C564.013 407.169 563.599 407.059 563.134 407.055C562.8 407.052 562.457 407.103 562.106 407.21C561.754 407.313 561.465 407.446 561.237 407.609L560.002 407.46L560.662 402.091H566.33V403.263H561.77L561.387 406.48H561.451C561.674 406.303 561.955 406.155 562.292 406.038C562.63 405.921 562.981 405.862 563.347 405.862C564.014 405.862 564.609 406.022 565.131 406.342C565.657 406.658 566.069 407.091 566.367 407.641C566.669 408.192 566.82 408.82 566.82 409.527C566.82 410.223 566.664 410.844 566.351 411.391C566.042 411.935 565.616 412.364 565.073 412.68C564.529 412.993 563.911 413.149 563.219 413.149Z" fill="#DB0707"/>
<path d="M585.874 410.763V409.676L590.668 402.091H591.456V403.774H590.923L587.301 409.506V409.591H593.757V410.763H585.874ZM591.009 413V410.433V409.926V402.091H592.266V413H591.009ZM600.164 413V402.091H603.85C604.702 402.091 605.402 402.237 605.949 402.528C606.495 402.815 606.9 403.211 607.163 403.716C607.426 404.22 607.557 404.793 607.557 405.436C607.557 406.079 607.426 406.649 607.163 407.146C606.9 407.643 606.497 408.034 605.954 408.318C605.411 408.598 604.716 408.739 603.871 408.739H600.888V407.545H603.829C604.411 407.545 604.88 407.46 605.235 407.29C605.593 407.119 605.853 406.878 606.013 406.565C606.176 406.249 606.258 405.873 606.258 405.436C606.258 404.999 606.176 404.618 606.013 404.291C605.849 403.964 605.588 403.712 605.229 403.534C604.871 403.353 604.397 403.263 603.807 403.263H601.485V413H600.164ZM605.299 408.099L607.983 413H606.449L603.807 408.099H605.299ZM609.759 413V402.091H613.445C614.3 402.091 615 402.245 615.543 402.554C616.09 402.86 616.495 403.273 616.758 403.795C617.021 404.317 617.152 404.9 617.152 405.543C617.152 406.185 617.021 406.77 616.758 407.295C616.499 407.821 616.097 408.24 615.554 408.552C615.011 408.861 614.315 409.016 613.466 409.016H610.824V407.844H613.423C614.009 407.844 614.48 407.743 614.835 407.54C615.19 407.338 615.447 407.064 615.607 406.72C615.771 406.372 615.852 405.979 615.852 405.543C615.852 405.106 615.771 404.715 615.607 404.371C615.447 404.026 615.188 403.756 614.83 403.561C614.471 403.362 613.995 403.263 613.402 403.263H611.08V413H609.759ZM619.28 413V402.091H622.966C623.822 402.091 624.521 402.245 625.065 402.554C625.612 402.86 626.017 403.273 626.279 403.795C626.542 404.317 626.673 404.9 626.673 405.543C626.673 406.185 626.542 406.77 626.279 407.295C626.02 407.821 625.619 408.24 625.075 408.552C624.532 408.861 623.836 409.016 622.987 409.016H620.345V407.844H622.945C623.531 407.844 624.001 407.743 624.356 407.54C624.711 407.338 624.969 407.064 625.129 406.72C625.292 406.372 625.374 405.979 625.374 405.543C625.374 405.106 625.292 404.715 625.129 404.371C624.969 404.026 624.71 403.756 624.351 403.561C623.992 403.362 623.517 403.263 622.923 403.263H620.601V413H619.28ZM632.828 413V412.041L636.429 408.099C636.852 407.638 637.2 407.237 637.473 406.896C637.747 406.551 637.949 406.228 638.081 405.926C638.216 405.621 638.283 405.301 638.283 404.967C638.283 404.584 638.191 404.252 638.006 403.971C637.825 403.691 637.576 403.474 637.26 403.321C636.944 403.169 636.589 403.092 636.195 403.092C635.776 403.092 635.41 403.179 635.098 403.353C634.789 403.524 634.549 403.763 634.379 404.072C634.212 404.381 634.128 404.744 634.128 405.159H632.871C632.871 404.52 633.018 403.959 633.313 403.476C633.608 402.993 634.009 402.616 634.517 402.347C635.028 402.077 635.602 401.942 636.238 401.942C636.877 401.942 637.443 402.077 637.937 402.347C638.43 402.616 638.817 402.98 639.098 403.439C639.379 403.897 639.519 404.406 639.519 404.967C639.519 405.369 639.446 405.761 639.3 406.145C639.158 406.525 638.91 406.949 638.555 407.418C638.203 407.883 637.715 408.451 637.09 409.122L634.64 411.743V411.828H639.711V413H632.828ZM646.619 406.96V408.131H641.847V406.96H646.619ZM652.432 413.149C651.985 413.142 651.537 413.057 651.09 412.893C650.642 412.73 650.234 412.455 649.865 412.068C649.495 411.677 649.199 411.15 648.975 410.486C648.751 409.818 648.639 408.98 648.639 407.972C648.639 407.006 648.73 406.15 648.911 405.404C649.092 404.655 649.355 404.025 649.699 403.513C650.044 402.998 650.459 402.608 650.946 402.341C651.436 402.075 651.988 401.942 652.603 401.942C653.213 401.942 653.757 402.064 654.233 402.309C654.712 402.551 655.103 402.888 655.404 403.321C655.706 403.755 655.902 404.254 655.99 404.818H654.691C654.57 404.328 654.335 403.922 653.987 403.598C653.639 403.275 653.178 403.114 652.603 403.114C651.757 403.114 651.092 403.481 650.605 404.216C650.122 404.951 649.879 405.983 649.875 407.311H649.96C650.159 407.009 650.396 406.752 650.669 406.539C650.946 406.322 651.251 406.155 651.585 406.038C651.919 405.921 652.272 405.862 652.645 405.862C653.27 405.862 653.842 406.018 654.36 406.331C654.879 406.64 655.294 407.068 655.607 407.615C655.919 408.158 656.076 408.781 656.076 409.484C656.076 410.159 655.925 410.777 655.623 411.338C655.321 411.896 654.897 412.339 654.35 412.67C653.806 412.996 653.167 413.156 652.432 413.149ZM652.432 411.977C652.88 411.977 653.281 411.865 653.636 411.642C653.995 411.418 654.277 411.118 654.483 410.741C654.692 410.365 654.797 409.946 654.797 409.484C654.797 409.033 654.696 408.623 654.494 408.254C654.295 407.881 654.019 407.585 653.668 407.364C653.32 407.144 652.922 407.034 652.475 407.034C652.137 407.034 651.823 407.102 651.532 407.237C651.241 407.368 650.985 407.549 650.765 407.78C650.548 408.011 650.378 408.275 650.253 408.574C650.129 408.868 650.067 409.179 650.067 409.506C650.067 409.939 650.168 410.344 650.371 410.72C650.577 411.097 650.857 411.4 651.212 411.631C651.571 411.862 651.978 411.977 652.432 411.977Z" fill="#DB0707"/>
<rect x="116.5" y="636.5" width="90" height="26" stroke="black"/>
<rect x="206.5" y="636.5" width="90" height="26" stroke="black"/>
<rect x="484.5" y="636.5" width="92" height="26" stroke="black"/>
<rect x="576.5" y="636.5" width="90" height="26" stroke="black"/>
<path d="M127.874 651.763V650.676L132.668 643.091H133.456V644.774H132.923L129.301 650.506V650.591H135.757V651.763H127.874ZM133.009 654V651.433V650.926V643.091H134.266V654H133.009ZM142.164 654V643.091H145.85C146.702 643.091 147.402 643.237 147.949 643.528C148.495 643.815 148.9 644.211 149.163 644.716C149.426 645.22 149.557 645.793 149.557 646.436C149.557 647.079 149.426 647.649 149.163 648.146C148.9 648.643 148.497 649.034 147.954 649.318C147.411 649.598 146.716 649.739 145.871 649.739H142.888V648.545H145.829C146.411 648.545 146.88 648.46 147.235 648.29C147.593 648.119 147.853 647.878 148.013 647.565C148.176 647.249 148.258 646.873 148.258 646.436C148.258 645.999 148.176 645.618 148.013 645.291C147.849 644.964 147.588 644.712 147.229 644.534C146.871 644.353 146.397 644.263 145.807 644.263H143.485V654H142.164ZM147.299 649.099L149.983 654H148.449L145.807 649.099H147.299ZM151.759 654V643.091H155.445C156.3 643.091 157 643.245 157.543 643.554C158.09 643.86 158.495 644.273 158.758 644.795C159.021 645.317 159.152 645.9 159.152 646.543C159.152 647.185 159.021 647.77 158.758 648.295C158.499 648.821 158.097 649.24 157.554 649.552C157.011 649.861 156.315 650.016 155.466 650.016H152.824V648.844H155.423C156.009 648.844 156.48 648.743 156.835 648.54C157.19 648.338 157.447 648.064 157.607 647.72C157.771 647.372 157.852 646.979 157.852 646.543C157.852 646.106 157.771 645.715 157.607 645.371C157.447 645.026 157.188 644.756 156.83 644.561C156.471 644.362 155.995 644.263 155.402 644.263H153.08V654H151.759ZM161.28 654V643.091H164.966C165.822 643.091 166.521 643.245 167.065 643.554C167.612 643.86 168.017 644.273 168.279 644.795C168.542 645.317 168.673 645.9 168.673 646.543C168.673 647.185 168.542 647.77 168.279 648.295C168.02 648.821 167.619 649.24 167.075 649.552C166.532 649.861 165.836 650.016 164.987 650.016H162.345V648.844H164.945C165.531 648.844 166.001 648.743 166.356 648.54C166.711 648.338 166.969 648.064 167.129 647.72C167.292 647.372 167.374 646.979 167.374 646.543C167.374 646.106 167.292 645.715 167.129 645.371C166.969 645.026 166.71 644.756 166.351 644.561C165.992 644.362 165.517 644.263 164.923 644.263H162.601V654H161.28ZM178.664 643.091V654H177.343V644.476H177.279L174.615 646.244V644.902L177.343 643.091H178.664ZM186.51 647.96V649.131H181.737V647.96H186.51ZM192.11 654.149C191.485 654.149 190.922 654.025 190.421 653.776C189.92 653.528 189.519 653.187 189.217 652.754C188.915 652.32 188.75 651.827 188.722 651.273H190C190.05 651.766 190.274 652.175 190.671 652.498C191.073 652.817 191.552 652.977 192.11 652.977C192.557 652.977 192.955 652.873 193.303 652.663C193.654 652.453 193.93 652.166 194.128 651.8C194.331 651.431 194.432 651.013 194.432 650.548C194.432 650.072 194.327 649.648 194.118 649.275C193.912 648.899 193.628 648.602 193.266 648.386C192.903 648.169 192.49 648.059 192.024 648.055C191.691 648.052 191.348 648.103 190.996 648.21C190.645 648.313 190.355 648.446 190.128 648.609L188.892 648.46L189.553 643.091H195.22V644.263H190.661L190.277 647.48H190.341C190.565 647.303 190.845 647.155 191.183 647.038C191.52 646.921 191.872 646.862 192.237 646.862C192.905 646.862 193.5 647.022 194.022 647.342C194.547 647.658 194.959 648.091 195.258 648.641C195.56 649.192 195.71 649.82 195.71 650.527C195.71 651.223 195.554 651.844 195.242 652.391C194.933 652.935 194.507 653.364 193.963 653.68C193.42 653.993 192.802 654.149 192.11 654.149Z" fill="#DB0707"/>
<path d="M216.874 651.763V650.676L221.668 643.091H222.456V644.774H221.923L218.301 650.506V650.591H224.757V651.763H216.874ZM222.009 654V651.433V650.926V643.091H223.266V654H222.009ZM231.164 654V643.091H234.85C235.702 643.091 236.402 643.237 236.949 643.528C237.495 643.815 237.9 644.211 238.163 644.716C238.426 645.22 238.557 645.793 238.557 646.436C238.557 647.079 238.426 647.649 238.163 648.146C237.9 648.643 237.497 649.034 236.954 649.318C236.411 649.598 235.716 649.739 234.871 649.739H231.888V648.545H234.829C235.411 648.545 235.88 648.46 236.235 648.29C236.593 648.119 236.853 647.878 237.013 647.565C237.176 647.249 237.258 646.873 237.258 646.436C237.258 645.999 237.176 645.618 237.013 645.291C236.849 644.964 236.588 644.712 236.229 644.534C235.871 644.353 235.397 644.263 234.807 644.263H232.485V654H231.164ZM236.299 649.099L238.983 654H237.449L234.807 649.099H236.299ZM240.759 654V643.091H244.445C245.3 643.091 246 643.245 246.543 643.554C247.09 643.86 247.495 644.273 247.758 644.795C248.021 645.317 248.152 645.9 248.152 646.543C248.152 647.185 248.021 647.77 247.758 648.295C247.499 648.821 247.097 649.24 246.554 649.552C246.011 649.861 245.315 650.016 244.466 650.016H241.824V648.844H244.423C245.009 648.844 245.48 648.743 245.835 648.54C246.19 648.338 246.447 648.064 246.607 647.72C246.771 647.372 246.852 646.979 246.852 646.543C246.852 646.106 246.771 645.715 246.607 645.371C246.447 645.026 246.188 644.756 245.83 644.561C245.471 644.362 244.995 644.263 244.402 644.263H242.08V654H240.759ZM250.28 654V643.091H253.966C254.822 643.091 255.521 643.245 256.065 643.554C256.612 643.86 257.017 644.273 257.279 644.795C257.542 645.317 257.673 645.9 257.673 646.543C257.673 647.185 257.542 647.77 257.279 648.295C257.02 648.821 256.619 649.24 256.075 649.552C255.532 649.861 254.836 650.016 253.987 650.016H251.345V648.844H253.945C254.531 648.844 255.001 648.743 255.356 648.54C255.711 648.338 255.969 648.064 256.129 647.72C256.292 647.372 256.374 646.979 256.374 646.543C256.374 646.106 256.292 645.715 256.129 645.371C255.969 645.026 255.71 644.756 255.351 644.561C254.992 644.362 254.517 644.263 253.923 644.263H251.601V654H250.28ZM267.664 643.091V654H266.343V644.476H266.279L263.615 646.244V644.902L266.343 643.091H267.664ZM275.51 647.96V649.131H270.737V647.96H275.51ZM281.323 654.149C280.875 654.142 280.428 654.057 279.98 653.893C279.533 653.73 279.125 653.455 278.755 653.068C278.386 652.677 278.089 652.15 277.866 651.486C277.642 650.818 277.53 649.98 277.53 648.972C277.53 648.006 277.621 647.15 277.802 646.404C277.983 645.655 278.246 645.025 278.59 644.513C278.935 643.998 279.35 643.608 279.837 643.341C280.327 643.075 280.879 642.942 281.493 642.942C282.104 642.942 282.647 643.064 283.123 643.309C283.603 643.551 283.993 643.888 284.295 644.321C284.597 644.755 284.792 645.254 284.881 645.818H283.581C283.46 645.328 283.226 644.922 282.878 644.598C282.53 644.275 282.068 644.114 281.493 644.114C280.648 644.114 279.982 644.481 279.496 645.216C279.013 645.951 278.769 646.983 278.766 648.311H278.851C279.05 648.009 279.286 647.752 279.56 647.539C279.837 647.322 280.142 647.155 280.476 647.038C280.81 646.921 281.163 646.862 281.536 646.862C282.161 646.862 282.733 647.018 283.251 647.331C283.769 647.64 284.185 648.068 284.497 648.615C284.81 649.158 284.966 649.781 284.966 650.484C284.966 651.159 284.815 651.777 284.513 652.338C284.212 652.896 283.787 653.339 283.24 653.67C282.697 653.996 282.058 654.156 281.323 654.149ZM281.323 652.977C281.77 652.977 282.171 652.865 282.527 652.642C282.885 652.418 283.168 652.118 283.373 651.741C283.583 651.365 283.688 650.946 283.688 650.484C283.688 650.033 283.587 649.623 283.384 649.254C283.185 648.881 282.91 648.585 282.559 648.364C282.21 648.144 281.813 648.034 281.365 648.034C281.028 648.034 280.714 648.102 280.422 648.237C280.131 648.368 279.876 648.549 279.655 648.78C279.439 649.011 279.268 649.275 279.144 649.574C279.02 649.868 278.958 650.179 278.958 650.506C278.958 650.939 279.059 651.344 279.261 651.72C279.467 652.097 279.748 652.4 280.103 652.631C280.462 652.862 280.868 652.977 281.323 652.977Z" fill="#DB0707"/>
<path d="M496.874 652.763V651.676L501.668 644.091H502.456V645.774H501.923L498.301 651.506V651.591H504.757V652.763H496.874ZM502.009 655V652.433V651.926V644.091H503.266V655H502.009ZM511.164 655V644.091H514.85C515.702 644.091 516.402 644.237 516.949 644.528C517.495 644.815 517.9 645.211 518.163 645.716C518.426 646.22 518.557 646.793 518.557 647.436C518.557 648.079 518.426 648.649 518.163 649.146C517.9 649.643 517.497 650.034 516.954 650.318C516.411 650.598 515.716 650.739 514.871 650.739H511.888V649.545H514.829C515.411 649.545 515.88 649.46 516.235 649.29C516.593 649.119 516.853 648.878 517.013 648.565C517.176 648.249 517.258 647.873 517.258 647.436C517.258 646.999 517.176 646.618 517.013 646.291C516.849 645.964 516.588 645.712 516.229 645.534C515.871 645.353 515.397 645.263 514.807 645.263H512.485V655H511.164ZM516.299 650.099L518.983 655H517.449L514.807 650.099H516.299ZM520.759 655V644.091H524.445C525.3 644.091 526 644.245 526.543 644.554C527.09 644.86 527.495 645.273 527.758 645.795C528.021 646.317 528.152 646.9 528.152 647.543C528.152 648.185 528.021 648.77 527.758 649.295C527.499 649.821 527.097 650.24 526.554 650.552C526.011 650.861 525.315 651.016 524.466 651.016H521.824V649.844H524.423C525.009 649.844 525.48 649.743 525.835 649.54C526.19 649.338 526.447 649.064 526.607 648.72C526.771 648.372 526.852 647.979 526.852 647.543C526.852 647.106 526.771 646.715 526.607 646.371C526.447 646.026 526.188 645.756 525.83 645.561C525.471 645.362 524.995 645.263 524.402 645.263H522.08V655H520.759ZM530.28 655V644.091H533.966C534.822 644.091 535.521 644.245 536.065 644.554C536.612 644.86 537.017 645.273 537.279 645.795C537.542 646.317 537.673 646.9 537.673 647.543C537.673 648.185 537.542 648.77 537.279 649.295C537.02 649.821 536.619 650.24 536.075 650.552C535.532 650.861 534.836 651.016 533.987 651.016H531.345V649.844H533.945C534.531 649.844 535.001 649.743 535.356 649.54C535.711 649.338 535.969 649.064 536.129 648.72C536.292 648.372 536.374 647.979 536.374 647.543C536.374 647.106 536.292 646.715 536.129 646.371C535.969 646.026 535.71 645.756 535.351 645.561C534.992 645.362 534.517 645.263 533.923 645.263H531.601V655H530.28ZM543.828 655V654.041L547.429 650.099C547.852 649.638 548.2 649.237 548.473 648.896C548.747 648.551 548.949 648.228 549.081 647.926C549.216 647.621 549.283 647.301 549.283 646.967C549.283 646.584 549.191 646.252 549.006 645.971C548.825 645.691 548.576 645.474 548.26 645.321C547.944 645.169 547.589 645.092 547.195 645.092C546.776 645.092 546.41 645.179 546.098 645.353C545.789 645.524 545.549 645.763 545.379 646.072C545.212 646.381 545.128 646.744 545.128 647.159H543.871C543.871 646.52 544.018 645.959 544.313 645.476C544.608 644.993 545.009 644.616 545.517 644.347C546.028 644.077 546.602 643.942 547.238 643.942C547.877 643.942 548.443 644.077 548.937 644.347C549.43 644.616 549.817 644.98 550.098 645.439C550.379 645.897 550.519 646.406 550.519 646.967C550.519 647.369 550.446 647.761 550.3 648.145C550.158 648.525 549.91 648.949 549.555 649.418C549.203 649.883 548.715 650.451 548.09 651.122L545.64 653.743V653.828H550.711V655H543.828ZM557.619 648.96V650.131H552.847V648.96H557.619ZM563.32 655.149C562.617 655.149 561.99 655.028 561.44 654.787C560.893 654.545 560.458 654.21 560.135 653.78C559.815 653.347 559.641 652.844 559.613 652.273H560.955C560.984 652.624 561.104 652.928 561.317 653.184C561.53 653.436 561.809 653.631 562.154 653.77C562.498 653.908 562.88 653.977 563.299 653.977C563.768 653.977 564.183 653.896 564.545 653.732C564.908 653.569 565.192 653.342 565.398 653.05C565.604 652.759 565.707 652.422 565.707 652.038C565.707 651.637 565.607 651.284 565.408 650.978C565.209 650.669 564.918 650.428 564.535 650.254C564.151 650.08 563.682 649.993 563.128 649.993H562.255V648.821H563.128C563.562 648.821 563.942 648.743 564.268 648.587C564.599 648.43 564.856 648.21 565.041 647.926C565.229 647.642 565.323 647.308 565.323 646.925C565.323 646.555 565.241 646.234 565.078 645.961C564.915 645.687 564.684 645.474 564.386 645.321C564.091 645.169 563.743 645.092 563.342 645.092C562.965 645.092 562.61 645.162 562.276 645.3C561.946 645.435 561.676 645.632 561.467 645.891C561.257 646.147 561.143 646.456 561.126 646.818H559.847C559.869 646.246 560.041 645.746 560.364 645.316C560.687 644.883 561.11 644.545 561.632 644.304C562.157 644.062 562.734 643.942 563.363 643.942C564.038 643.942 564.616 644.078 565.099 644.352C565.582 644.622 565.953 644.979 566.213 645.423C566.472 645.866 566.601 646.346 566.601 646.861C566.601 647.475 566.44 647.999 566.117 648.432C565.797 648.865 565.362 649.165 564.812 649.332V649.418C565.501 649.531 566.039 649.824 566.426 650.297C566.813 650.765 567.006 651.346 567.006 652.038C567.006 652.631 566.845 653.164 566.522 653.636C566.202 654.105 565.765 654.474 565.211 654.744C564.657 655.014 564.027 655.149 563.32 655.149Z" fill="#DB0707"/>
<path d="M586.874 652.763V651.676L591.668 644.091H592.456V645.774H591.923L588.301 651.506V651.591H594.757V652.763H586.874ZM592.009 655V652.433V651.926V644.091H593.266V655H592.009ZM601.164 655V644.091H604.85C605.702 644.091 606.402 644.237 606.949 644.528C607.495 644.815 607.9 645.211 608.163 645.716C608.426 646.22 608.557 646.793 608.557 647.436C608.557 648.079 608.426 648.649 608.163 649.146C607.9 649.643 607.497 650.034 606.954 650.318C606.411 650.598 605.716 650.739 604.871 650.739H601.888V649.545H604.829C605.411 649.545 605.88 649.46 606.235 649.29C606.593 649.119 606.853 648.878 607.013 648.565C607.176 648.249 607.258 647.873 607.258 647.436C607.258 646.999 607.176 646.618 607.013 646.291C606.849 645.964 606.588 645.712 606.229 645.534C605.871 645.353 605.397 645.263 604.807 645.263H602.485V655H601.164ZM606.299 650.099L608.983 655H607.449L604.807 650.099H606.299ZM610.759 655V644.091H614.445C615.3 644.091 616 644.245 616.543 644.554C617.09 644.86 617.495 645.273 617.758 645.795C618.021 646.317 618.152 646.9 618.152 647.543C618.152 648.185 618.021 648.77 617.758 649.295C617.499 649.821 617.097 650.24 616.554 650.552C616.011 650.861 615.315 651.016 614.466 651.016H611.824V649.844H614.423C615.009 649.844 615.48 649.743 615.835 649.54C616.19 649.338 616.447 649.064 616.607 648.72C616.771 648.372 616.852 647.979 616.852 647.543C616.852 647.106 616.771 646.715 616.607 646.371C616.447 646.026 616.188 645.756 615.83 645.561C615.471 645.362 614.995 645.263 614.402 645.263H612.08V655H610.759ZM620.28 655V644.091H623.966C624.822 644.091 625.521 644.245 626.065 644.554C626.612 644.86 627.017 645.273 627.279 645.795C627.542 646.317 627.673 646.9 627.673 647.543C627.673 648.185 627.542 648.77 627.279 649.295C627.02 649.821 626.619 650.24 626.075 650.552C625.532 650.861 624.836 651.016 623.987 651.016H621.345V649.844H623.945C624.531 649.844 625.001 649.743 625.356 649.54C625.711 649.338 625.969 649.064 626.129 648.72C626.292 648.372 626.374 647.979 626.374 647.543C626.374 647.106 626.292 646.715 626.129 646.371C625.969 646.026 625.71 645.756 625.351 645.561C624.992 645.362 624.517 645.263 623.923 645.263H621.601V655H620.28ZM633.828 655V654.041L637.429 650.099C637.852 649.638 638.2 649.237 638.473 648.896C638.747 648.551 638.949 648.228 639.081 647.926C639.216 647.621 639.283 647.301 639.283 646.967C639.283 646.584 639.191 646.252 639.006 645.971C638.825 645.691 638.576 645.474 638.26 645.321C637.944 645.169 637.589 645.092 637.195 645.092C636.776 645.092 636.41 645.179 636.098 645.353C635.789 645.524 635.549 645.763 635.379 646.072C635.212 646.381 635.128 646.744 635.128 647.159H633.871C633.871 646.52 634.018 645.959 634.313 645.476C634.608 644.993 635.009 644.616 635.517 644.347C636.028 644.077 636.602 643.942 637.238 643.942C637.877 643.942 638.443 644.077 638.937 644.347C639.43 644.616 639.817 644.98 640.098 645.439C640.379 645.897 640.519 646.406 640.519 646.967C640.519 647.369 640.446 647.761 640.3 648.145C640.158 648.525 639.91 648.949 639.555 649.418C639.203 649.883 638.715 650.451 638.09 651.122L635.64 653.743V653.828H640.711V655H633.828ZM647.619 648.96V650.131H642.847V648.96H647.619ZM649.554 652.763V651.676L654.348 644.091H655.137V645.774H654.604L650.982 651.506V651.591H657.438V652.763H649.554ZM654.689 655V652.433V651.926V644.091H655.946V655H654.689Z" fill="#DB0707"/>
</svg>
