<svg width="50" height="50" viewBox="0 0 50 50" fill="none" xmlns="http://www.w3.org/2000/svg">
<circle cx="25" cy="25" r="25" fill="white"/>
<path d="M23.5195 11.9378H12.6461C12.2373 11.9369 11.8324 12.0198 11.4546 12.1818C11.0767 12.3437 10.7333 12.5816 10.444 12.8818C10.1546 13.1819 9.9251 13.5385 9.76848 13.931C9.61186 14.3235 9.53125 14.7443 9.53125 15.1693V37.7942C9.53125 38.6512 9.8587 39.4731 10.4416 40.0792C11.0244 40.6852 11.815 41.0256 12.6393 41.0256H34.3998C35.2241 41.0256 36.0147 40.6852 36.5975 40.0792C37.1804 39.4731 37.5078 38.6512 37.5078 37.7942V26.4888" stroke="#1A7CDE" stroke-width="2.5" stroke-linecap="round" stroke-linejoin="round"/>
<path d="M34.8665 9.18919C35.5688 8.46053 36.5208 8.05178 37.513 8.05289C38.5052 8.05399 39.4563 8.46485 40.1571 9.19508C40.858 9.92531 41.2511 10.9151 41.25 11.9467C41.249 12.9783 40.8538 13.9672 40.1515 14.6959L23.4131 32.0991L16.3657 33.9197L18.1281 26.5924L34.8665 9.18919Z" stroke="#1A7CDE" stroke-width="2.5" stroke-linecap="round" stroke-linejoin="round"/>
</svg>
