<svg width="25" height="25" viewBox="0 0 25 25" fill="none" xmlns="http://www.w3.org/2000/svg">
<circle cx="12.5" cy="12.5" r="12.5" fill="white"/>
<path d="M11.7598 5.96891H6.32303C6.11867 5.96844 5.91622 6.00989 5.72729 6.09088C5.53836 6.17187 5.36665 6.29081 5.22198 6.44089C5.07732 6.59097 4.96255 6.76925 4.88424 6.96551C4.80593 7.16177 4.76562 7.37216 4.76563 7.58464V18.8971C4.76563 19.3256 4.92935 19.7366 5.22078 20.0396C5.51221 20.3426 5.90748 20.5128 6.31963 20.5128H17.1999C17.6121 20.5128 18.0073 20.3426 18.2988 20.0396C18.5902 19.7366 18.7539 19.3256 18.7539 18.8971V13.2444" stroke="#1A7CDE" stroke-width="2.5" stroke-linecap="round" stroke-linejoin="round"/>
<path d="M17.4333 4.59458C17.7844 4.23025 18.2604 4.02588 18.7565 4.02643C19.2526 4.02698 19.7282 4.23241 20.0786 4.59753C20.429 4.96264 20.6255 5.45753 20.625 5.97333C20.6245 6.48913 20.4269 6.98358 20.0757 7.34791L11.7066 16.0495L8.18286 16.9599L9.06407 13.2962L17.4333 4.59458Z" stroke="#1A7CDE" stroke-width="2.5" stroke-linecap="round" stroke-linejoin="round"/>
</svg>
