<svg xmlns="http://www.w3.org/2000/svg" width="316.508" height="155.645" viewBox="0 0 316.508 155.645">
  <g id="layout-157" transform="translate(2160.157 9240.15)">
    <g id="layout-157-2" data-name="layout-157" transform="translate(4889.2 -3390.656)">
      <g id="layout-157-3" data-name="layout-157" transform="translate(50 164)">
        <path id="Path_79" data-name="Path 79" d="M-4676.67-7261.19v60.094h36.917" transform="translate(-2143.25 1247.85)" fill="none" stroke="#000" stroke-width="0.3"/>
        <path id="Path_80" data-name="Path 80" d="M-4760.67-7048.8v95.246h36.917" transform="translate(-2059.25 1095.554)" fill="none" stroke="#000" stroke-width="0.3"/>
        <g id="Group_52" data-name="Group 52" transform="translate(-7098.2 -5900.825) rotate(-90)">
          <path id="Path_62" data-name="Path 62" d="M9.62,7.188a5.547,5.547,0,0,0-.166-.966A7.017,7.017,0,0,0,7.872,3.359,9.546,9.546,0,0,0,4.963,1.191,13.22,13.22,0,0,0,0,0L.063,7.171Z" transform="translate(-10.888 -1)" fill="none" stroke="#1a1818" stroke-miterlimit="10" stroke-width="0.3"/>
          <path id="Path_63" data-name="Path 63" d="M0,7.188a5.574,5.574,0,0,1,.168-.966A7.1,7.1,0,0,1,1.749,3.347,9.358,9.358,0,0,1,4.636,1.2,13.094,13.094,0,0,1,9.571,0L9.508,7.172Z" transform="translate(-1.052 -1)" fill="none" stroke="#1a1818" stroke-miterlimit="10" stroke-width="0.3"/>
        </g>
        <g id="Group_53" data-name="Group 53" transform="translate(-6816.425 -5965.242)">
          <path id="Path_62-2" data-name="Path 62" d="M9.008,8.671a8.47,8.47,0,0,0-.156-1.165A9.378,9.378,0,0,0,7.371,4.052,9.532,9.532,0,0,0,4.643,1.437,10.183,10.183,0,0,0,0,0L.059,8.652Z" transform="translate(0 3.325)" fill="none" stroke="#1a1818" stroke-miterlimit="10" stroke-width="0.3"/>
        </g>
        <path id="Path_83" data-name="Path 83" d="M-7092-5858v-155.344h309V-5858Z" transform="translate(0.001)" fill="none" stroke="#000" stroke-width="0.3"/>
      </g>
      <g id="Group_55" data-name="Group 55" transform="translate(6 164)">
        <path id="Path_84" data-name="Path 84" d="M-6910-5859.17V-5861" transform="translate(0 0.167)" fill="none" stroke="#000" stroke-width="0.5"/>
        <path id="Path_85" data-name="Path 85" d="M-6910-5859.17V-5861" transform="translate(0 -2.833)" fill="none" stroke="#000" stroke-width="0.5"/>
        <path id="Path_86" data-name="Path 86" d="M-6910-5859.17V-5861" transform="translate(0 -5.833)" fill="none" stroke="#000" stroke-width="0.5"/>
        <path id="Path_87" data-name="Path 87" d="M-6910-5859.17V-5861" transform="translate(0 -8.833)" fill="none" stroke="#000" stroke-width="0.5"/>
        <path id="Path_88" data-name="Path 88" d="M-6910-5859.17V-5861" transform="translate(0 -11.833)" fill="none" stroke="#000" stroke-width="0.5"/>
        <path id="Path_89" data-name="Path 89" d="M-6910-5859.17V-5861" transform="translate(0 -14.833)" fill="none" stroke="#000" stroke-width="0.5"/>
        <path id="Path_90" data-name="Path 90" d="M-6910-5859.17V-5861" transform="translate(0 -17.833)" fill="none" stroke="#000" stroke-width="0.5"/>
        <path id="Path_91" data-name="Path 91" d="M-6910-5859.17V-5861" transform="translate(0 -20.833)" fill="none" stroke="#000" stroke-width="0.5"/>
        <path id="Path_92" data-name="Path 92" d="M-6910-5859.17V-5861" transform="translate(0 -23.833)" fill="none" stroke="#000" stroke-width="0.5"/>
        <path id="Path_93" data-name="Path 93" d="M-6910-5859.17V-5861" transform="translate(0 -26.833)" fill="none" stroke="#000" stroke-width="0.5"/>
        <path id="Path_94" data-name="Path 94" d="M-6910-5859.17V-5861" transform="translate(0 -29.833)" fill="none" stroke="#000" stroke-width="0.5"/>
        <path id="Path_95" data-name="Path 95" d="M-6910-5859.17V-5861" transform="translate(0 -32.833)" fill="none" stroke="#000" stroke-width="0.5"/>
        <path id="Path_96" data-name="Path 96" d="M-6910-5859.17V-5861" transform="translate(0 -35.833)" fill="none" stroke="#000" stroke-width="0.5"/>
        <path id="Path_97" data-name="Path 97" d="M-6910-5859.17V-5861" transform="translate(0 -38.833)" fill="none" stroke="#000" stroke-width="0.5"/>
        <path id="Path_103" data-name="Path 103" d="M-6910-5859.17V-5861" transform="translate(0 -41.833)" fill="none" stroke="#000" stroke-width="0.5"/>
        <path id="Path_104" data-name="Path 104" d="M-6910-5859.17V-5861" transform="translate(0 -44.833)" fill="none" stroke="#000" stroke-width="0.5"/>
        <path id="Path_105" data-name="Path 105" d="M-6910-5859.17V-5861" transform="translate(0 -47.833)" fill="none" stroke="#000" stroke-width="0.5"/>
        <path id="Path_106" data-name="Path 106" d="M-6910-5859.17V-5861" transform="translate(0 -50.833)" fill="none" stroke="#000" stroke-width="0.5"/>
        <path id="Path_107" data-name="Path 107" d="M-6910-5859.17V-5861" transform="translate(0 -53.833)" fill="none" stroke="#000" stroke-width="0.5"/>
        <path id="Path_107-2" data-name="Path 107" d="M-6910-5859.17V-5861" transform="translate(0 -56.833)" fill="none" stroke="#000" stroke-width="0.5"/>
        <path id="Path_107-3" data-name="Path 107" d="M-6910-5859.17V-5861" transform="translate(0 -59.833)" fill="none" stroke="#000" stroke-width="0.5"/>
      </g>
      <g id="Group_56" data-name="Group 56" transform="translate(84 164)">
        <path id="Path_84-2" data-name="Path 84" d="M-6910-5859.17V-5861" transform="translate(0 0.167)" fill="none" stroke="#000" stroke-width="0.5"/>
        <path id="Path_85-2" data-name="Path 85" d="M-6910-5859.17V-5861" transform="translate(0 -2.833)" fill="none" stroke="#000" stroke-width="0.5"/>
        <path id="Path_86-2" data-name="Path 86" d="M-6910-5859.17V-5861" transform="translate(0 -5.833)" fill="none" stroke="#000" stroke-width="0.5"/>
        <path id="Path_87-2" data-name="Path 87" d="M-6910-5859.17V-5861" transform="translate(0 -8.833)" fill="none" stroke="#000" stroke-width="0.5"/>
        <path id="Path_88-2" data-name="Path 88" d="M-6910-5859.17V-5861" transform="translate(0 -11.833)" fill="none" stroke="#000" stroke-width="0.5"/>
        <path id="Path_89-2" data-name="Path 89" d="M-6910-5859.17V-5861" transform="translate(0 -14.833)" fill="none" stroke="#000" stroke-width="0.5"/>
        <path id="Path_90-2" data-name="Path 90" d="M-6910-5859.17V-5861" transform="translate(0 -17.833)" fill="none" stroke="#000" stroke-width="0.5"/>
        <path id="Path_91-2" data-name="Path 91" d="M-6910-5859.17V-5861" transform="translate(0 -20.833)" fill="none" stroke="#000" stroke-width="0.5"/>
        <path id="Path_92-2" data-name="Path 92" d="M-6910-5859.17V-5861" transform="translate(0 -23.833)" fill="none" stroke="#000" stroke-width="0.5"/>
        <path id="Path_93-2" data-name="Path 93" d="M-6910-5859.17V-5861" transform="translate(0 -26.833)" fill="none" stroke="#000" stroke-width="0.5"/>
        <path id="Path_94-2" data-name="Path 94" d="M-6910-5859.17V-5861" transform="translate(0 -29.833)" fill="none" stroke="#000" stroke-width="0.5"/>
        <path id="Path_95-2" data-name="Path 95" d="M-6910-5859.17V-5861" transform="translate(0 -32.833)" fill="none" stroke="#000" stroke-width="0.5"/>
        <path id="Path_96-2" data-name="Path 96" d="M-6910-5859.17V-5861" transform="translate(0 -35.833)" fill="none" stroke="#000" stroke-width="0.5"/>
        <path id="Path_97-2" data-name="Path 97" d="M-6910-5859.17V-5861" transform="translate(0 -38.833)" fill="none" stroke="#000" stroke-width="0.5"/>
        <path id="Path_108" data-name="Path 108" d="M-6910-5859.17V-5861" transform="translate(0 -41.833)" fill="none" stroke="#000" stroke-width="0.5"/>
        <path id="Path_109" data-name="Path 109" d="M-6910-5859.17V-5861" transform="translate(0 -44.833)" fill="none" stroke="#000" stroke-width="0.5"/>
        <path id="Path_110" data-name="Path 110" d="M-6910-5859.17V-5861" transform="translate(0 -47.833)" fill="none" stroke="#000" stroke-width="0.5"/>
        <path id="Path_111" data-name="Path 111" d="M-6910-5859.17V-5861" transform="translate(0 -50.833)" fill="none" stroke="#000" stroke-width="0.5"/>
        <path id="Path_112" data-name="Path 112" d="M-6910-5859.17V-5861" transform="translate(0 -53.833)" fill="none" stroke="#000" stroke-width="0.5"/>
        <path id="Path_112-2" data-name="Path 112" d="M-6910-5859.17V-5861" transform="translate(0 -56.833)" fill="none" stroke="#000" stroke-width="0.5"/>
        <path id="Path_112-3" data-name="Path 112" d="M-6910-5859.17V-5861" transform="translate(0 -59.833)" fill="none" stroke="#000" stroke-width="0.5"/>
      </g>
      <g id="Group_57" data-name="Group 57" transform="translate(-12763.034 1152.656) rotate(90)">
        <path id="Path_84-3" data-name="Path 84" d="M-6910-5859.17V-5861" transform="translate(0 -0.727)" fill="none" stroke="#000" stroke-width="0.5"/>
        <path id="Path_85-3" data-name="Path 85" d="M-6910-5859.17V-5861" transform="translate(0 -3.727)" fill="none" stroke="#000" stroke-width="0.5"/>
        <path id="Path_86-3" data-name="Path 86" d="M-6910-5859.17V-5861" transform="translate(0 -6.727)" fill="none" stroke="#000" stroke-width="0.5"/>
        <path id="Path_87-3" data-name="Path 87" d="M-6910-5859.17V-5861" transform="translate(0 -9.727)" fill="none" stroke="#000" stroke-width="0.5"/>
        <path id="Path_88-3" data-name="Path 88" d="M-6910-5859.17V-5861" transform="translate(0 -12.727)" fill="none" stroke="#000" stroke-width="0.5"/>
        <path id="Path_89-3" data-name="Path 89" d="M-6910-5859.17V-5861" transform="translate(0 -15.548)" fill="none" stroke="#000" stroke-width="0.5"/>
        <path id="Path_90-3" data-name="Path 90" d="M-6910-5859.17V-5861" transform="translate(0 -18.512)" fill="none" stroke="#000" stroke-width="0.5"/>
        <path id="Path_91-3" data-name="Path 91" d="M-6910-5859.17V-5861" transform="translate(0 -21.476)" fill="none" stroke="#000" stroke-width="0.5"/>
        <path id="Path_92-3" data-name="Path 92" d="M-6910-5859.17V-5861" transform="translate(0 -24.441)" fill="none" stroke="#000" stroke-width="0.5"/>
        <path id="Path_93-3" data-name="Path 93" d="M-6910-5859.17V-5861" transform="translate(0 -27.405)" fill="none" stroke="#000" stroke-width="0.5"/>
        <path id="Path_94-3" data-name="Path 94" d="M-6910-5859.17V-5861" transform="translate(0 -30.369)" fill="none" stroke="#000" stroke-width="0.5"/>
        <path id="Path_95-3" data-name="Path 95" d="M-6910-5859.17V-5861" transform="translate(0 -33.333)" fill="none" stroke="#000" stroke-width="0.5"/>
        <path id="Path_96-3" data-name="Path 96" d="M-6910-5859.17V-5861" transform="translate(0 -36.298)" fill="none" stroke="#000" stroke-width="0.5"/>
        <path id="Path_97-3" data-name="Path 97" d="M-6910-5859.17V-5861" transform="translate(0 -39.262)" fill="none" stroke="#000" stroke-width="0.5"/>
        <path id="Path_98" data-name="Path 98" d="M-6910-5859.17V-5861" transform="translate(0 -42.227)" fill="none" stroke="#000" stroke-width="0.5"/>
        <path id="Path_99" data-name="Path 99" d="M-6910-5859.17V-5861" transform="translate(0 -45.191)" fill="none" stroke="#000" stroke-width="0.5"/>
        <path id="Path_100" data-name="Path 100" d="M-6910-5859.17V-5861" transform="translate(0 -48.156)" fill="none" stroke="#000" stroke-width="0.5"/>
        <path id="Path_101" data-name="Path 101" d="M-6910-5859.17V-5861" transform="translate(0 -51.12)" fill="none" stroke="#000" stroke-width="0.5"/>
        <path id="Path_102" data-name="Path 102" d="M-6910-5859.17V-5861" transform="translate(0 -54.084)" fill="none" stroke="#000" stroke-width="0.5"/>
        <path id="Path_113" data-name="Path 113" d="M-6910-5859.17V-5861" transform="translate(0 -57.048)" fill="none" stroke="#000" stroke-width="0.5"/>
        <path id="Path_114" data-name="Path 114" d="M-6910-5859.17V-5861" transform="translate(0 -60.013)" fill="none" stroke="#000" stroke-width="0.5"/>
        <path id="Path_115" data-name="Path 115" d="M-6910-5859.17V-5861" transform="translate(0 -62.834)" fill="none" stroke="#000" stroke-width="0.5"/>
        <path id="Path_116" data-name="Path 116" d="M-6910-5859.17V-5861" transform="translate(0 -65.834)" fill="none" stroke="#000" stroke-width="0.5"/>
        <path id="Path_117" data-name="Path 117" d="M-6910-5859.17V-5861" transform="translate(0 -68.834)" fill="none" stroke="#000" stroke-width="0.5"/>
        <path id="Path_118" data-name="Path 118" d="M-6910-5859.17V-5861" transform="translate(0 -71.834)" fill="none" stroke="#000" stroke-width="0.5"/>
        <path id="Path_119" data-name="Path 119" d="M-6910-5859.17V-5861" transform="translate(0 -74.834)" fill="none" stroke="#000" stroke-width="0.5"/>
      </g>
    </g>
    <text id="Battery" transform="translate(-1872 -9131)" font-size="6.11" font-family="SegoeUI, Segoe UI"><tspan x="0" y="0">Battery</tspan></text>
    <text id="UPS" transform="translate(-1868 -9208)" font-size="6.11" font-family="SegoeUI, Segoe UI"><tspan x="0" y="0">UPS</tspan></text>
  </g>
</svg>
