<svg xmlns="http://www.w3.org/2000/svg" width="1200" height="551.391" viewBox="0 0 1200 551.391">
  <g id="Group_20" data-name="Group 20" transform="translate(-2704.583 16.885)">
    <g id="Group_19" data-name="Group 19" transform="translate(2704.583 -16.355)">
      <path id="Path_8" data-name="Path 8" d="M3093.333-8Z" transform="translate(-2009.833 16.355)" fill="none" stroke="#000" stroke-width="1"/>
      <path id="Path_2" data-name="Path 2" d="M246.178,569.5a5.736,5.736,0,0,1-.112.81,6.549,6.549,0,0,1-3,4.213,7.418,7.418,0,0,1-3.312,1l.042-6.009Z" transform="translate(-228.178 -96.944)" fill="none" stroke="#1a1818" stroke-miterlimit="10" stroke-width="1"/>
      <path id="Path_4" data-name="Path 4" d="M6.738,6.022a5.489,5.489,0,0,0-.118-.81A6.54,6.54,0,0,0,3.472,1,8.057,8.057,0,0,0,0,0L.044,6.01Z" transform="translate(25.572 478.574) rotate(180)" fill="none" stroke="#1a1818" stroke-miterlimit="10" stroke-width="1"/>
      <path id="Path_9" data-name="Path 9" d="M11.808,9.5A7.847,7.847,0,0,0,11.6,8.22,10.382,10.382,0,0,0,6.084,1.577,15.341,15.341,0,0,0,0,0L.078,9.477Z" transform="translate(18 512.074) rotate(-90)" fill="none" stroke="#1a1818" stroke-miterlimit="10" stroke-width="1"/>
      <g id="Group_6" data-name="Group 6" transform="translate(27.348 488.468) rotate(90)">
        <path id="Path_2-2" data-name="Path 2" d="M11.428,0a7.843,7.843,0,0,1-.2,1.257A10.2,10.2,0,0,1,5.888,7.8,14.645,14.645,0,0,1,0,9.348L.075.02Z" transform="translate(0)" fill="none" stroke="#1a1818" stroke-miterlimit="10" stroke-width="1"/>
      </g>
      <rect id="Rectangle_4" data-name="Rectangle 4" width="21" height="14" transform="translate(0 238.995)"/>
      <rect id="Rectangle_5" data-name="Rectangle 5" width="9" height="9" transform="translate(6 8.355)"/>
      <path id="Path_11" data-name="Path 11" d="M2301.5-8V6.75h10.25V-8Z" transform="translate(-2221 16.355)" fill="none" stroke="#000" stroke-width="1"/>
      <path id="Path_12" data-name="Path 12" d="M2311.75,6.75h38V-7.75h-38Z" transform="translate(-2221 16.355)" fill="none" stroke="#000" stroke-width="1"/>
      <path id="Path_13" data-name="Path 13" d="M2350.75-7.75v10h47v-10Z" transform="translate(-2221 16.355)" fill="#44546a" stroke="#070707" stroke-width="1"/>
      <path id="Path_14" data-name="Path 14" d="M2397.75-8V2.25h118.455V-8Z" transform="translate(-2221 16.355)" fill="none" stroke="#000" stroke-width="1"/>
      <path id="Path_15" data-name="Path 15" d="M2397.75-4.5h8V2h-8Z" transform="translate(-2221 16.355)" stroke="#000" stroke-width="1"/>
      <path id="Path_16" data-name="Path 16" d="M2350.75-7.75v10h55.927v-10Z" transform="translate(-2026.594 16.855)" fill="#44546a" stroke="#000" stroke-width="1"/>
      <path id="Path_17" data-name="Path 17" d="M2552.833-8V2.667h8.5V-8Z" transform="translate(-2144.522 16.355)" stroke="#000" stroke-width="1"/>
      <path id="Path_18" data-name="Path 18" d="M2561.333-8V2.667h54.724V-8Z" transform="translate(-2144.641 16.355)" fill="#44546a" stroke="#000" stroke-width="1"/>
      <path id="Path_19" data-name="Path 19" d="M2609-8.014V2.667l236.515-.319V-8.333Z" transform="translate(-2137.583 16.355)" fill="none" stroke="#000" stroke-width="1"/>
      <path id="Path_20" data-name="Path 20" d="M2847-8.333V2.75h176.333V-8.333Z" transform="translate(-2084.25 16.355)" fill="#44546a" stroke="#000" stroke-width="1"/>
      <path id="Path_22" data-name="Path 22" d="M2552.833-8V1.8h8.5V-8Z" transform="translate(-1934.396 16.355)" stroke="#000" stroke-width="1"/>
      <path id="Path_23" data-name="Path 23" d="M2552.833-8V1.8h30.916V-8Z" transform="translate(-1718.253 16.355)" stroke="#000" stroke-width="1"/>
      <path id="Path_24" data-name="Path 24" d="M2397.75-4.5h8V2h-8Z" transform="translate(-2210 548.004)" stroke="#000" stroke-width="1"/>
      <path id="Path_25" data-name="Path 25" d="M2397.75-4.5h8V2h-8Z" transform="translate(-1966.625 547.004)" stroke="#000" stroke-width="1"/>
      <path id="Path_26" data-name="Path 26" d="M2397.75-4.5h8V2h-8Z" transform="translate(-1765.101 547.004)" stroke="#000" stroke-width="1"/>
      <path id="Path_27" data-name="Path 27" d="M2397.75-4.5h8V2h-8Z" transform="translate(-1564.363 547.004)" stroke="#000" stroke-width="1"/>
      <g id="Group_8" data-name="Group 8" transform="translate(128.391 0) rotate(90)">
        <path id="Path_28" data-name="Path 28" d="M10.238,8.5a7.228,7.228,0,0,0-.179-1.142A9.257,9.257,0,0,0,5.275,1.411,12.971,12.971,0,0,0,0,0L.067,8.479Z" transform="translate(0 21.036) rotate(-90)" fill="none" stroke="#1a1818" stroke-miterlimit="10" stroke-width="1"/>
        <g id="Group_7" data-name="Group 7" transform="translate(8.348) rotate(90)">
          <path id="Path_2-3" data-name="Path 2" d="M10.8,0a6.649,6.649,0,0,1-.189,1.122,9.182,9.182,0,0,1-5.045,5.84A14.484,14.484,0,0,1,0,8.348L.071.018Z" fill="none" stroke="#1a1818" stroke-miterlimit="10" stroke-width="1"/>
        </g>
      </g>
      <g id="Group_9" data-name="Group 9" transform="translate(249.29 0) rotate(90)">
        <path id="Path_28-2" data-name="Path 28" d="M10.238,8.5a7.228,7.228,0,0,0-.179-1.142A9.257,9.257,0,0,0,5.275,1.411,12.971,12.971,0,0,0,0,0L.067,8.479Z" transform="translate(0 21.036) rotate(-90)" fill="none" stroke="#1a1818" stroke-miterlimit="10" stroke-width="1"/>
        <g id="Group_7-2" data-name="Group 7" transform="translate(8.348) rotate(90)">
          <path id="Path_2-4" data-name="Path 2" d="M10.8,0a6.649,6.649,0,0,1-.189,1.122,9.182,9.182,0,0,1-5.045,5.84A14.484,14.484,0,0,1,0,8.348L.071.018Z" fill="none" stroke="#1a1818" stroke-miterlimit="10" stroke-width="1"/>
        </g>
      </g>
      <g id="Group_10" data-name="Group 10" transform="translate(570.274 0) rotate(90)">
        <path id="Path_28-3" data-name="Path 28" d="M10.238,8.5a7.228,7.228,0,0,0-.179-1.142A9.257,9.257,0,0,0,5.275,1.411,12.971,12.971,0,0,0,0,0L.067,8.479Z" transform="translate(0 21.036) rotate(-90)" fill="none" stroke="#1a1818" stroke-miterlimit="10" stroke-width="1"/>
        <g id="Group_7-3" data-name="Group 7" transform="translate(8.348) rotate(90)">
          <path id="Path_2-5" data-name="Path 2" d="M10.8,0a6.649,6.649,0,0,1-.189,1.122,9.182,9.182,0,0,1-5.045,5.84A14.484,14.484,0,0,1,0,8.348L.071.018Z" fill="none" stroke="#1a1818" stroke-miterlimit="10" stroke-width="1"/>
        </g>
      </g>
      <g id="Group_11" data-name="Group 11" transform="translate(696.348 0) rotate(90)">
        <path id="Path_28-4" data-name="Path 28" d="M10.238,8.5a7.228,7.228,0,0,0-.179-1.142A9.257,9.257,0,0,0,5.275,1.411,12.971,12.971,0,0,0,0,0L.067,8.479Z" transform="translate(0 21.036) rotate(-90)" fill="none" stroke="#1a1818" stroke-miterlimit="10" stroke-width="1"/>
        <g id="Group_7-4" data-name="Group 7" transform="translate(8.348) rotate(90)">
          <path id="Path_2-6" data-name="Path 2" d="M10.8,0a6.649,6.649,0,0,1-.189,1.122,9.182,9.182,0,0,1-5.045,5.84A14.484,14.484,0,0,1,0,8.348L.071.018Z" fill="none" stroke="#1a1818" stroke-miterlimit="10" stroke-width="1"/>
        </g>
      </g>
      <g id="Group_12" data-name="Group 12" transform="translate(1043.558 0) rotate(90)">
        <path id="Path_28-5" data-name="Path 28" d="M10.238,8.5a7.228,7.228,0,0,0-.179-1.142A9.257,9.257,0,0,0,5.275,1.411,12.971,12.971,0,0,0,0,0L.067,8.479Z" transform="translate(0 21.036) rotate(-90)" fill="none" stroke="#1a1818" stroke-miterlimit="10" stroke-width="1"/>
        <g id="Group_7-5" data-name="Group 7" transform="translate(8.348) rotate(90)">
          <path id="Path_2-7" data-name="Path 2" d="M10.8,0a6.649,6.649,0,0,1-.189,1.122,9.182,9.182,0,0,1-5.045,5.84A14.484,14.484,0,0,1,0,8.348L.071.018Z" fill="none" stroke="#1a1818" stroke-miterlimit="10" stroke-width="1"/>
        </g>
      </g>
      <path id="Path_30" data-name="Path 30" d="M3404.617,409.874l-646.7.709-5.353.006-504.218.553V333.7l1156.269-.7" transform="translate(-2221 139.219)" fill="none" stroke="#000" stroke-width="1"/>
      <g id="Group_14" data-name="Group 14" transform="translate(1181.167 34.689)">
        <g id="Group_15" data-name="Group 15">
          <path id="Path_33" data-name="Path 33" d="M3217.5,48.333H3199v3.833h18.5" transform="translate(-3199 -48.333)" fill="none" stroke="#000" stroke-width="1"/>
          <path id="Path_34" data-name="Path 34" d="M3199,52.167V56.5h18.286" transform="translate(-3199 -48.333)" fill="none" stroke="#000" stroke-width="1"/>
          <path id="Path_35" data-name="Path 35" d="M3199,56.5v4h18.833" transform="translate(-3199 -48.333)" fill="none" stroke="#000" stroke-width="1"/>
          <path id="Path_36" data-name="Path 36" d="M3199,60.5v4.167h18.5" transform="translate(-3199 -48.333)" fill="none" stroke="#000" stroke-width="1"/>
        </g>
      </g>
      <g id="Group_13" data-name="Group 13" transform="translate(990.667 8.105)">
        <path id="Path_31" data-name="Path 31" d="M3009,22.5v10h150v-10Z" transform="translate(-3009 -22.5)" fill="none" stroke="#000" stroke-width="1"/>
        <path id="Path_32" data-name="Path 32" d="M3082,32.5v16h135.5v-26h-59v10Z" transform="translate(-3009 -22.5)" fill="none" stroke="#000" stroke-width="1"/>
      </g>
      <path id="Path_37" data-name="Path 37" d="M2185,478.5V465.92l0-5.472,0-4.752,0-2.711.393-439.318,1189.095.442V109.22h-16.616l.533,445.285" transform="translate(-2175 -5.645)" fill="none" stroke="#000" stroke-width="1"/>
      <g id="Group_16" data-name="Group 16" transform="matrix(0.017, -1, 1, 0.017, 1161.45, 480.175)">
        <path id="Path_28-6" data-name="Path 28" d="M10.238,8.5a7.228,7.228,0,0,0-.179-1.142A9.257,9.257,0,0,0,5.275,1.411,12.971,12.971,0,0,0,0,0L.067,8.479Z" transform="translate(0 21.036) rotate(-90)" fill="none" stroke="#1a1818" stroke-miterlimit="10" stroke-width="1"/>
        <g id="Group_7-6" data-name="Group 7" transform="translate(8.348 0) rotate(90)">
          <path id="Path_2-8" data-name="Path 2" d="M10.8,0a6.649,6.649,0,0,1-.189,1.122,9.182,9.182,0,0,1-5.045,5.84A14.484,14.484,0,0,1,0,8.348L.071.018Z" transform="translate(0 0)" fill="none" stroke="#1a1818" stroke-miterlimit="10" stroke-width="1"/>
        </g>
      </g>
      <g id="Group_17" data-name="Group 17" transform="translate(1172.041 498.074) rotate(-1)">
        <path id="Path_28-7" data-name="Path 28" d="M12.361,10.521a9.162,9.162,0,0,0-.216-1.414,11.442,11.442,0,0,0-5.776-7.36A15.352,15.352,0,0,0,0,0L.081,10.5Z" transform="translate(0 12.361) rotate(-90)" fill="none" stroke="#1a1818" stroke-miterlimit="10" stroke-width="1"/>
      </g>
      <path id="Path_38" data-name="Path 38" d="M2397.75-4.5h8V2h-8Z" transform="translate(-1352.833 547.004)" stroke="#000" stroke-width="1"/>
      <path id="Path_39" data-name="Path 39" d="M2397.75-4.5h8V4.159h-8Z" transform="translate(-1334.833 12.997)" stroke="#000" stroke-width="1"/>
      <path id="Path_40" data-name="Path 40" d="M2162.667,371.333H2181" transform="translate(-2153 101.219)" fill="none" stroke="#000" stroke-width="1"/>
    </g>
  </g>
</svg>
