<svg width="2551" height="1369" viewBox="0 0 2551 1369" fill="none" xmlns="http://www.w3.org/2000/svg">
<g clip-path="url(#clip0_1_102)">
<path d="M0.652344 959.684V1367.51L2435.65 1368.5V0H866.317V358.798L1590.65 358.128L1589.32 955.679L0.652344 959.684Z" stroke="black"/>
<path d="M1843.52 634.732C1843.59 635.88 1843.75 637.019 1843.98 638.139C1844.76 641.833 1846.25 645.282 1848.34 648.237C1850.55 651.363 1853.27 653.96 1856.36 655.88C1860.59 658.383 1865.24 659.816 1870 660.081L1869.83 634.785L1843.52 634.732Z" stroke="#1A1818" stroke-miterlimit="10"/>
<path d="M1843.09 634.732C1843.01 635.882 1842.84 637.022 1842.6 638.14C1841.74 641.88 1840.15 645.347 1837.95 648.277C1835.59 651.421 1832.71 654.002 1829.47 655.874C1824.95 658.39 1820.02 659.821 1815 660.081L1815.19 634.786L1843.09 634.732Z" stroke="#1A1818" stroke-miterlimit="10"/>
<rect x="2389.1" y="412.751" width="47.8" height="29.811" fill="#0000FF" fill-opacity="0.1" stroke="black" stroke-width="0.2"/>
<path d="M2404.08 418.651H2403.02C2402.96 418.347 2402.85 418.08 2402.69 417.85C2402.54 417.62 2402.35 417.426 2402.13 417.27C2401.91 417.111 2401.67 416.992 2401.4 416.912C2401.14 416.833 2400.86 416.793 2400.57 416.793C2400.04 416.793 2399.56 416.926 2399.13 417.193C2398.71 417.46 2398.37 417.854 2398.11 418.374C2397.86 418.894 2397.74 419.531 2397.74 420.287C2397.74 421.043 2397.86 421.681 2398.11 422.2C2398.37 422.72 2398.71 423.114 2399.13 423.381C2399.56 423.648 2400.04 423.781 2400.57 423.781C2400.86 423.781 2401.14 423.742 2401.4 423.662C2401.67 423.583 2401.91 423.465 2402.13 423.308C2402.35 423.149 2402.54 422.955 2402.69 422.725C2402.85 422.492 2402.96 422.225 2403.02 421.923H2404.08C2404 422.37 2403.86 422.769 2403.64 423.121C2403.43 423.473 2403.17 423.773 2402.86 424.02C2402.55 424.264 2402.2 424.45 2401.81 424.578C2401.42 424.706 2401.01 424.77 2400.57 424.77C2399.82 424.77 2399.16 424.588 2398.58 424.225C2398 423.861 2397.55 423.344 2397.21 422.673C2396.88 422.003 2396.72 421.208 2396.72 420.287C2396.72 419.367 2396.88 418.571 2397.21 417.901C2397.55 417.23 2398 416.713 2398.58 416.35C2399.16 415.986 2399.82 415.804 2400.57 415.804C2401.01 415.804 2401.42 415.868 2401.81 415.996C2402.2 416.124 2402.55 416.311 2402.86 416.558C2403.17 416.803 2403.43 417.101 2403.64 417.453C2403.86 417.803 2404 418.202 2404.08 418.651ZM2405.79 424.651V415.923H2408.74C2409.42 415.923 2409.98 416.04 2410.42 416.273C2410.85 416.503 2411.18 416.82 2411.39 417.223C2411.6 417.627 2411.7 418.085 2411.7 418.6C2411.7 419.114 2411.6 419.57 2411.39 419.968C2411.18 420.365 2410.85 420.678 2410.42 420.905C2409.98 421.129 2409.43 421.242 2408.75 421.242H2406.37V420.287H2408.72C2409.19 420.287 2409.56 420.219 2409.84 420.083C2410.13 419.946 2410.34 419.753 2410.47 419.503C2410.6 419.25 2410.66 418.949 2410.66 418.6C2410.66 418.25 2410.6 417.945 2410.47 417.683C2410.34 417.422 2410.13 417.22 2409.84 417.078C2409.55 416.933 2409.17 416.861 2408.7 416.861H2406.84V424.651H2405.79ZM2409.9 420.73L2412.04 424.651H2410.82L2408.7 420.73H2409.9ZM2413.82 424.651H2412.71L2415.92 415.923H2417.01L2420.21 424.651H2419.11L2416.5 417.304H2416.43L2413.82 424.651ZM2414.23 421.242H2418.7V422.179H2414.23V421.242ZM2421.57 424.651V415.923H2422.63V419.81H2427.28V415.923H2428.34V424.651H2427.28V420.747H2422.63V424.651H2421.57ZM2413.47 430.923V439.651H2412.41V432.031H2412.36L2410.23 433.446V432.372L2412.41 430.923H2413.47ZM2418.83 439.77C2418.19 439.77 2417.64 439.595 2417.19 439.246C2416.74 438.894 2416.39 438.384 2416.15 437.716C2415.91 437.046 2415.79 436.236 2415.79 435.287C2415.79 434.344 2415.91 433.539 2416.15 432.871C2416.39 432.2 2416.74 431.689 2417.19 431.337C2417.65 430.982 2418.19 430.804 2418.83 430.804C2419.46 430.804 2420.01 430.982 2420.46 431.337C2420.91 431.689 2421.26 432.2 2421.5 432.871C2421.74 433.539 2421.86 434.344 2421.86 435.287C2421.86 436.236 2421.74 437.046 2421.5 437.716C2421.27 438.384 2420.92 438.894 2420.47 439.246C2420.02 439.595 2419.47 439.77 2418.83 439.77ZM2418.83 438.833C2419.46 438.833 2419.96 438.526 2420.31 437.912C2420.66 437.298 2420.84 436.423 2420.84 435.287C2420.84 434.531 2420.76 433.888 2420.6 433.357C2420.44 432.825 2420.21 432.421 2419.91 432.142C2419.61 431.864 2419.25 431.725 2418.83 431.725C2418.2 431.725 2417.7 432.036 2417.35 432.658C2416.99 433.277 2416.82 434.154 2416.82 435.287C2416.82 436.043 2416.9 436.685 2417.06 437.213C2417.21 437.742 2417.44 438.144 2417.74 438.419C2418.04 438.695 2418.4 438.833 2418.83 438.833Z" fill="black"/>
<rect x="1590.1" y="906.931" width="53.8" height="23.8088" fill="#0000FF" fill-opacity="0.1" stroke="black" stroke-width="0.2"/>
<rect x="1590.1" y="882.922" width="53.8" height="23.8088" fill="#0000FF" fill-opacity="0.1" stroke="black" stroke-width="0.2"/>
<rect x="1590.1" y="858.914" width="53.8" height="23.8088" fill="#0000FF" fill-opacity="0.25" stroke="black" stroke-width="0.2"/>
<path d="M1596.06 779.78V771.053H1597.11V775.383H1597.22L1601.14 771.053H1602.52L1598.85 774.991L1602.52 779.78H1601.24L1598.2 775.724L1597.11 776.951V779.78H1596.06ZM1603.88 779.78V771.053H1609.15V771.991H1604.94V774.939H1608.88V775.877H1604.94V778.843H1609.22V779.78H1603.88ZM1617.98 771.053V779.78H1616.95L1612.2 772.928H1612.11V779.78H1611.06V771.053H1612.08L1616.85 777.922H1616.94V771.053H1617.98ZM1626.11 779.9C1625.52 779.9 1625.01 779.796 1624.56 779.589C1624.11 779.378 1623.76 779.09 1623.51 778.724C1623.26 778.354 1623.14 777.934 1623.14 777.462C1623.14 777.093 1623.21 776.752 1623.36 776.439C1623.51 776.124 1623.71 775.861 1623.97 775.651C1624.22 775.438 1624.51 775.303 1624.83 775.246V775.195C1624.41 775.087 1624.08 774.853 1623.83 774.492C1623.59 774.128 1623.46 773.715 1623.47 773.252C1623.46 772.809 1623.58 772.412 1623.8 772.063C1624.03 771.714 1624.34 771.438 1624.74 771.236C1625.14 771.035 1625.6 770.934 1626.11 770.934C1626.61 770.934 1627.07 771.035 1627.46 771.236C1627.86 771.438 1628.17 771.714 1628.4 772.063C1628.63 772.412 1628.75 772.809 1628.75 773.252C1628.75 773.715 1628.62 774.128 1628.37 774.492C1628.12 774.853 1627.8 775.087 1627.39 775.195V775.246C1627.7 775.303 1627.99 775.438 1628.24 775.651C1628.49 775.861 1628.69 776.124 1628.84 776.439C1629 776.752 1629.07 777.093 1629.07 777.462C1629.07 777.934 1628.94 778.354 1628.69 778.724C1628.44 779.09 1628.09 779.378 1627.65 779.589C1627.2 779.796 1626.69 779.9 1626.11 779.9ZM1626.11 778.962C1626.5 778.962 1626.84 778.898 1627.13 778.77C1627.42 778.643 1627.64 778.462 1627.8 778.229C1627.95 777.996 1628.03 777.724 1628.04 777.411C1628.03 777.082 1627.95 776.79 1627.78 776.537C1627.61 776.285 1627.38 776.086 1627.09 775.941C1626.81 775.796 1626.48 775.724 1626.11 775.724C1625.74 775.724 1625.4 775.796 1625.11 775.941C1624.82 776.086 1624.59 776.285 1624.43 776.537C1624.26 776.79 1624.18 777.082 1624.18 777.411C1624.18 777.724 1624.26 777.996 1624.41 778.229C1624.56 778.462 1624.79 778.643 1625.08 778.77C1625.37 778.898 1625.71 778.962 1626.11 778.962ZM1626.11 774.82C1626.42 774.82 1626.7 774.758 1626.94 774.633C1627.18 774.508 1627.38 774.333 1627.52 774.109C1627.65 773.884 1627.73 773.621 1627.73 773.32C1627.73 773.025 1627.66 772.768 1627.52 772.549C1627.38 772.327 1627.19 772.157 1626.95 772.037C1626.71 771.915 1626.43 771.854 1626.11 771.854C1625.78 771.854 1625.5 771.915 1625.25 772.037C1625.01 772.157 1624.82 772.327 1624.69 772.549C1624.55 772.768 1624.49 773.025 1624.49 773.32C1624.49 773.621 1624.55 773.884 1624.69 774.109C1624.83 774.333 1625.02 774.508 1625.27 774.633C1625.51 774.758 1625.79 774.82 1626.11 774.82Z" fill="black"/>
<rect x="1590.1" y="834.905" width="53.8" height="23.8088" fill="#0000FF" fill-opacity="0.25" stroke="black" stroke-width="0.2"/>
<rect x="1590.1" y="810.896" width="53.8" height="23.8088" fill="#0000FF" fill-opacity="0.1" stroke="black" stroke-width="0.2"/>
<rect x="1590.1" y="786.887" width="53.8" height="23.8088" fill="#0000FF" fill-opacity="0.1" stroke="black" stroke-width="0.2"/>
<rect x="1590.1" y="762.879" width="53.8" height="23.8088" fill="#0000FF" fill-opacity="0.1" stroke="black" stroke-width="0.2"/>
<path d="M1595.06 899.824V891.097H1596.11V895.427H1596.22L1600.14 891.097H1601.52L1597.85 895.035L1601.52 899.824H1600.24L1597.2 895.767L1596.11 896.995V899.824H1595.06ZM1602.88 899.824V891.097H1608.15V892.035H1603.94V894.983H1607.88V895.921H1603.94V898.887H1608.22V899.824H1602.88ZM1616.98 891.097V899.824H1615.95L1611.2 892.972H1611.11V899.824H1610.06V891.097H1611.08L1615.85 897.966H1615.94V891.097H1616.98ZM1625.26 899.944C1624.7 899.944 1624.2 899.847 1623.76 899.654C1623.32 899.461 1622.97 899.192 1622.71 898.848C1622.46 898.502 1622.32 898.1 1622.3 897.642H1623.37C1623.39 897.924 1623.49 898.167 1623.66 898.371C1623.83 898.573 1624.05 898.729 1624.33 898.84C1624.6 898.951 1624.91 899.006 1625.25 899.006C1625.62 899.006 1625.95 898.941 1626.24 898.81C1626.53 898.679 1626.76 898.498 1626.92 898.265C1627.09 898.032 1627.17 897.762 1627.17 897.455C1627.17 897.134 1627.09 896.851 1626.93 896.607C1626.77 896.36 1626.54 896.167 1626.23 896.027C1625.93 895.888 1625.55 895.819 1625.11 895.819H1624.41V894.881H1625.11C1625.46 894.881 1625.76 894.819 1626.02 894.694C1626.29 894.569 1626.49 894.392 1626.64 894.165C1626.79 893.938 1626.86 893.671 1626.86 893.364C1626.86 893.069 1626.8 892.811 1626.67 892.593C1626.54 892.374 1626.35 892.204 1626.11 892.081C1625.88 891.959 1625.6 891.898 1625.28 891.898C1624.98 891.898 1624.69 891.954 1624.43 892.064C1624.16 892.172 1623.95 892.33 1623.78 892.537C1623.61 892.742 1623.52 892.989 1623.51 893.279H1622.48C1622.5 892.821 1622.64 892.421 1622.9 892.077C1623.16 891.731 1623.49 891.461 1623.91 891.267C1624.33 891.074 1624.79 890.978 1625.3 890.978C1625.84 890.978 1626.3 891.087 1626.69 891.306C1627.07 891.522 1627.37 891.807 1627.58 892.162C1627.78 892.517 1627.89 892.901 1627.89 893.313C1627.89 893.804 1627.76 894.223 1627.5 894.57C1627.24 894.917 1626.9 895.157 1626.46 895.29V895.358C1627.01 895.449 1627.44 895.684 1627.75 896.061C1628.06 896.436 1628.21 896.901 1628.21 897.455C1628.21 897.929 1628.08 898.356 1627.82 898.733C1627.57 899.108 1627.22 899.404 1626.78 899.62C1626.33 899.836 1625.83 899.944 1625.26 899.944Z" fill="black"/>
<path d="M1595.06 922.833V914.105H1596.11V918.435H1596.22L1600.14 914.105H1601.52L1597.85 918.043L1601.52 922.833H1600.24L1597.2 918.776L1596.11 920.003V922.833H1595.06ZM1602.88 922.833V914.105H1608.15V915.043H1603.94V917.992H1607.88V918.929H1603.94V921.895H1608.22V922.833H1602.88ZM1616.98 914.105V922.833H1615.95L1611.2 915.98H1611.11V922.833H1610.06V914.105H1611.08L1615.85 920.975H1615.94V914.105H1616.98ZM1622.31 922.833V922.066L1625.19 918.912C1625.53 918.543 1625.81 918.222 1626.03 917.949C1626.25 917.674 1626.41 917.415 1626.52 917.174C1626.62 916.929 1626.68 916.674 1626.68 916.407C1626.68 916.1 1626.6 915.834 1626.46 915.61C1626.31 915.385 1626.11 915.212 1625.86 915.09C1625.61 914.968 1625.32 914.907 1625.01 914.907C1624.67 914.907 1624.38 914.976 1624.13 915.115C1623.88 915.252 1623.69 915.443 1623.55 915.691C1623.42 915.938 1623.35 916.228 1623.35 916.56H1622.35C1622.35 916.049 1622.47 915.6 1622.7 915.213C1622.94 914.827 1623.26 914.526 1623.66 914.31C1624.07 914.094 1624.53 913.986 1625.04 913.986C1625.55 913.986 1626.01 914.094 1626.4 914.31C1626.8 914.526 1627.1 914.817 1627.33 915.183C1627.55 915.55 1627.67 915.958 1627.67 916.407C1627.67 916.728 1627.61 917.041 1627.49 917.348C1627.38 917.652 1627.18 917.992 1626.89 918.367C1626.61 918.739 1626.22 919.193 1625.72 919.73L1623.76 921.827V921.895H1627.82V922.833H1622.31Z" fill="black"/>
<path d="M1596.06 946.841V938.114H1597.11V942.444H1597.22L1601.14 938.114H1602.52L1598.85 942.052L1602.52 946.841H1601.24L1598.2 942.785L1597.11 944.012V946.841H1596.06ZM1603.88 946.841V938.114H1609.15V939.052H1604.94V942.001H1608.88V942.938H1604.94V945.904H1609.22V946.841H1603.88ZM1617.98 938.114V946.841H1616.95L1612.2 939.989H1612.11V946.841H1611.06V938.114H1612.08L1616.85 944.983H1616.94V938.114H1617.98ZM1626.38 938.114V946.841H1625.32V939.222H1625.27L1623.14 940.637V939.563L1625.32 938.114H1626.38Z" fill="black"/>
<rect x="1733.1" y="1343.09" width="64.8" height="25.8095" fill="#0000FF" fill-opacity="0.1" stroke="black" stroke-width="0.2"/>
<path d="M1985.08 1353.99H1984.02C1983.96 1353.69 1983.85 1353.42 1983.69 1353.19C1983.54 1352.96 1983.35 1352.77 1983.13 1352.61C1982.91 1352.45 1982.67 1352.33 1982.4 1352.25C1982.14 1352.17 1981.86 1352.13 1981.57 1352.13C1981.04 1352.13 1980.56 1352.27 1980.13 1352.53C1979.71 1352.8 1979.37 1353.2 1979.11 1353.72C1978.86 1354.24 1978.74 1354.87 1978.74 1355.63C1978.74 1356.38 1978.86 1357.02 1979.11 1357.54C1979.37 1358.06 1979.71 1358.46 1980.13 1358.72C1980.56 1358.99 1981.04 1359.12 1981.57 1359.12C1981.86 1359.12 1982.14 1359.08 1982.4 1359C1982.67 1358.92 1982.91 1358.81 1983.13 1358.65C1983.35 1358.49 1983.54 1358.3 1983.69 1358.07C1983.85 1357.83 1983.96 1357.57 1984.02 1357.27H1985.08C1985 1357.71 1984.86 1358.11 1984.64 1358.46C1984.43 1358.81 1984.17 1359.11 1983.86 1359.36C1983.55 1359.61 1983.2 1359.79 1982.81 1359.92C1982.42 1360.05 1982.01 1360.11 1981.57 1360.11C1980.82 1360.11 1980.16 1359.93 1979.58 1359.57C1979 1359.2 1978.55 1358.69 1978.21 1358.02C1977.88 1357.34 1977.72 1356.55 1977.72 1355.63C1977.72 1354.71 1977.88 1353.91 1978.21 1353.24C1978.55 1352.57 1979 1352.05 1979.58 1351.69C1980.16 1351.33 1980.82 1351.15 1981.57 1351.15C1982.01 1351.15 1982.42 1351.21 1982.81 1351.34C1983.2 1351.47 1983.55 1351.65 1983.86 1351.9C1984.17 1352.14 1984.43 1352.44 1984.64 1352.79C1984.86 1353.14 1985 1353.54 1985.08 1353.99ZM1986.79 1359.99V1351.27H1989.74C1990.42 1351.27 1990.98 1351.38 1991.42 1351.61C1991.85 1351.84 1992.18 1352.16 1992.39 1352.56C1992.6 1352.97 1992.7 1353.43 1992.7 1353.94C1992.7 1354.46 1992.6 1354.91 1992.39 1355.31C1992.18 1355.71 1991.85 1356.02 1991.42 1356.25C1990.98 1356.47 1990.43 1356.58 1989.75 1356.58H1987.37V1355.63H1989.72C1990.19 1355.63 1990.56 1355.56 1990.84 1355.42C1991.13 1355.29 1991.34 1355.09 1991.47 1354.84C1991.6 1354.59 1991.66 1354.29 1991.66 1353.94C1991.66 1353.59 1991.6 1353.29 1991.47 1353.02C1991.34 1352.76 1991.13 1352.56 1990.84 1352.42C1990.55 1352.27 1990.17 1352.2 1989.7 1352.2H1987.84V1359.99H1986.79ZM1990.9 1356.07L1993.04 1359.99H1991.82L1989.7 1356.07H1990.9ZM1994.82 1359.99H1993.71L1996.92 1351.27H1998.01L2001.21 1359.99H2000.11L1997.5 1352.65H1997.43L1994.82 1359.99ZM1995.23 1356.58H1999.7V1357.52H1995.23V1356.58ZM2002.57 1359.99V1351.27H2003.63V1355.15H2008.28V1351.27H2009.34V1359.99H2008.28V1356.09H2003.63V1359.99H2002.57ZM2017.4 1360.11C2016.9 1360.11 2016.45 1360.01 2016.05 1359.81C2015.65 1359.61 2015.33 1359.34 2015.09 1359C2014.85 1358.65 2014.72 1358.25 2014.69 1357.81H2015.72C2015.76 1358.21 2015.94 1358.53 2016.25 1358.79C2016.57 1359.05 2016.96 1359.17 2017.4 1359.17C2017.76 1359.17 2018.08 1359.09 2018.36 1358.92C2018.64 1358.76 2018.86 1358.52 2019.02 1358.23C2019.18 1357.94 2019.26 1357.6 2019.26 1357.23C2019.26 1356.85 2019.18 1356.51 2019.01 1356.21C2018.85 1355.91 2018.62 1355.67 2018.33 1355.5C2018.04 1355.33 2017.71 1355.24 2017.34 1355.24C2017.07 1355.23 2016.79 1355.27 2016.51 1355.36C2016.23 1355.44 2016 1355.55 2015.82 1355.68L2014.83 1355.56L2015.36 1351.27H2019.89V1352.2H2016.25L2015.94 1354.78H2015.99C2016.17 1354.63 2016.39 1354.52 2016.66 1354.42C2016.93 1354.33 2017.21 1354.28 2017.51 1354.28C2018.04 1354.28 2018.52 1354.41 2018.93 1354.67C2019.35 1354.92 2019.68 1355.27 2019.92 1355.71C2020.16 1356.15 2020.28 1356.65 2020.28 1357.21C2020.28 1357.77 2020.16 1358.27 2019.91 1358.71C2019.66 1359.14 2019.32 1359.48 2018.89 1359.74C2018.45 1359.99 2017.96 1360.11 2017.4 1360.11Z" fill="black"/>
<path d="M0.650391 958.85L1027.32 956.349L1026.55 1367.51H0.650391V958.85Z" stroke="black" stroke-width="1.3"/>
<path d="M2006.32 188.069H2544.65V412.951H2006.32V188.069Z" stroke="black"/>
<path d="M2006.32 412.948V634.529H2544.65V412.948H2006.32Z" stroke="black"/>
<path d="M1660.15 634.899V500.183H2006.32V634.548L1660.15 634.899Z" stroke="black"/>
<path d="M1590.12 674.278C1588.7 674.404 1587.3 674.662 1585.93 675.048C1581.27 676.417 1577.01 678.901 1573.53 682.284C1569.58 686.091 1566.4 690.609 1564.13 695.6C1561.03 702.77 1559.28 710.454 1558.98 718.262L1590.05 717.975L1590.12 674.278Z" stroke="#1A1818" stroke-miterlimit="10"/>
<path d="M1590.12 674.278C1588.7 674.148 1587.3 673.882 1585.93 673.484C1581.23 672.037 1576.95 669.459 1573.48 665.975C1569.53 662.04 1566.36 657.395 1564.14 652.284C1561.03 644.863 1559.28 636.94 1558.98 628.897L1590.05 629.197L1590.12 674.278Z" stroke="#1A1818" stroke-miterlimit="10"/>
<path d="M2077.98 634.328C2078.07 635.476 2078.25 636.615 2078.51 637.735C2079.41 641.429 2081.12 644.877 2083.51 647.833C2086.03 650.959 2089.16 653.556 2092.69 655.475C2097.54 657.979 2102.87 659.411 2108.32 659.677L2108.12 634.381L2077.98 634.328Z" stroke="#1A1818" stroke-miterlimit="10"/>
<path d="M2077.49 634.328C2077.4 635.478 2077.21 636.618 2076.93 637.736C2075.95 641.476 2074.12 644.943 2071.6 647.873C2068.9 651.017 2065.6 653.598 2061.9 655.469C2056.71 657.985 2051.07 659.417 2045.32 659.677L2045.53 634.382L2077.49 634.328Z" stroke="#1A1818" stroke-miterlimit="10"/>
<rect x="1955.1" y="1343.09" width="89.8" height="25.8095" fill="#0000FF" fill-opacity="0.1" stroke="black" stroke-width="0.2"/>
<path d="M2006.1 384.14C2006.77 384.091 2007.44 383.991 2008.09 383.84C2010.24 383.344 2012.25 382.388 2013.99 381.039C2015.8 379.637 2017.32 377.889 2018.45 375.896C2019.91 373.193 2020.74 370.2 2020.9 367.134L2006.13 367.245L2006.1 384.14Z" stroke="#1A1818" stroke-miterlimit="10"/>
<path d="M2006.1 383.473C2006.77 383.516 2007.43 383.604 2008.09 383.738C2010.21 384.173 2012.23 385.027 2014.01 386.249C2015.79 387.459 2017.3 389.016 2018.45 390.826C2019.89 393.193 2020.73 395.878 2020.9 398.646L2006.13 398.546L2006.1 383.473Z" stroke="#1A1818" stroke-miterlimit="10"/>
<path d="M1027.29 989.112C1027.98 989.058 1028.65 988.946 1029.32 988.778C1031.53 988.203 1033.57 987.129 1035.3 985.637C1037.17 984.023 1038.71 982.059 1039.83 979.857C1041.32 976.781 1042.16 973.434 1042.32 970.02L1027.33 970.145L1027.29 989.112Z" stroke="#1A1818" stroke-miterlimit="10"/>
<path d="M1027.3 989.985C1027.98 990.04 1028.66 990.154 1029.32 990.325C1031.54 990.919 1033.59 992.016 1035.33 993.532C1037.19 995.168 1038.73 997.154 1039.83 999.379C1041.32 1002.51 1042.17 1005.91 1042.32 1009.37L1027.33 1009.24L1027.3 989.985Z" stroke="#1A1818" stroke-miterlimit="10"/>
<path d="M1102.42 911.879C1104.05 912.007 1105.66 912.271 1107.24 912.668C1112.51 914.025 1117.39 916.568 1121.52 920.102C1125.98 923.915 1129.66 928.561 1132.34 933.781C1135.89 941.053 1137.91 948.977 1138.28 957.061L1102.5 956.761L1102.42 911.879Z" stroke="#1A1818" stroke-miterlimit="10"/>
<path d="M919.35 393.83C917.89 393.733 916.439 393.532 915.008 393.23C910.377 392.249 905.997 390.328 902.138 387.586C898.23 384.809 894.917 381.279 892.393 377.203C889.234 371.82 887.4 365.763 887.042 359.532L919.282 359.756L919.35 393.83Z" stroke="#1A1818" stroke-miterlimit="10"/>
<path d="M731.824 911.976C733.45 912.105 735.062 912.369 736.643 912.765C741.908 914.123 746.792 916.665 750.924 920.199C755.385 924.012 759.06 928.658 761.743 933.878C765.295 941.15 767.316 949.074 767.681 957.159L731.899 956.859L731.824 911.976Z" stroke="#1A1818" stroke-miterlimit="10"/>
<path d="M2550.65 163.06H2436.65V641.234H2550.65V163.06Z" fill="white"/>
<rect x="2389.1" y="635.1" width="46.8" height="24.8" fill="#0000FF" fill-opacity="0.1" stroke="black" stroke-width="0.2"/>
<path d="M2398.08 647H2397.02C2396.96 646.696 2396.85 646.429 2396.69 646.199C2396.54 645.969 2396.35 645.776 2396.13 645.619C2395.91 645.46 2395.67 645.341 2395.4 645.261C2395.14 645.182 2394.86 645.142 2394.57 645.142C2394.04 645.142 2393.56 645.276 2393.13 645.543C2392.71 645.81 2392.37 646.203 2392.11 646.723C2391.86 647.243 2391.74 647.881 2391.74 648.636C2391.74 649.392 2391.86 650.03 2392.11 650.55C2392.37 651.07 2392.71 651.463 2393.13 651.73C2393.56 651.997 2394.04 652.131 2394.57 652.131C2394.86 652.131 2395.14 652.091 2395.4 652.011C2395.67 651.932 2395.91 651.814 2396.13 651.658C2396.35 651.499 2396.54 651.304 2396.69 651.074C2396.85 650.841 2396.96 650.574 2397.02 650.273H2398.08C2398 650.719 2397.86 651.118 2397.64 651.47C2397.43 651.822 2397.17 652.122 2396.86 652.369C2396.55 652.614 2396.2 652.8 2395.81 652.928C2395.42 653.055 2395.01 653.119 2394.57 653.119C2393.82 653.119 2393.16 652.938 2392.58 652.574C2392 652.21 2391.55 651.693 2391.21 651.023C2390.88 650.352 2390.72 649.557 2390.72 648.636C2390.72 647.716 2390.88 646.92 2391.21 646.25C2391.55 645.58 2392 645.062 2392.58 644.699C2393.16 644.335 2393.82 644.153 2394.57 644.153C2395.01 644.153 2395.42 644.217 2395.81 644.345C2396.2 644.473 2396.55 644.661 2396.86 644.908C2397.17 645.152 2397.43 645.45 2397.64 645.803C2397.86 646.152 2398 646.551 2398.08 647ZM2399.79 653V644.273H2402.74C2403.42 644.273 2403.98 644.389 2404.42 644.622C2404.85 644.852 2405.18 645.169 2405.39 645.572C2405.6 645.976 2405.7 646.435 2405.7 646.949C2405.7 647.463 2405.6 647.919 2405.39 648.317C2405.18 648.714 2404.85 649.027 2404.42 649.254C2403.98 649.479 2403.43 649.591 2402.75 649.591H2400.37V648.636H2402.72C2403.19 648.636 2403.56 648.568 2403.84 648.432C2404.13 648.295 2404.34 648.102 2404.47 647.852C2404.6 647.599 2404.66 647.298 2404.66 646.949C2404.66 646.599 2404.6 646.294 2404.47 646.033C2404.34 645.771 2404.13 645.57 2403.84 645.428C2403.55 645.283 2403.17 645.21 2402.7 645.21H2400.84V653H2399.79ZM2403.9 649.08L2406.04 653H2404.82L2402.7 649.08H2403.9ZM2407.82 653H2406.71L2409.92 644.273H2411.01L2414.21 653H2413.11L2410.5 645.653H2410.43L2407.82 653ZM2408.23 649.591H2412.7V650.528H2408.23V649.591ZM2415.57 653V644.273H2416.63V648.159H2421.28V644.273H2422.34V653H2421.28V649.097H2416.63V653H2415.57ZM2430.4 653.119C2429.9 653.119 2429.45 653.02 2429.05 652.821C2428.65 652.622 2428.33 652.349 2428.09 652.003C2427.85 651.656 2427.72 651.261 2427.69 650.818H2428.72C2428.76 651.213 2428.94 651.54 2429.25 651.798C2429.57 652.054 2429.96 652.182 2430.4 652.182C2430.76 652.182 2431.08 652.098 2431.36 651.93C2431.64 651.763 2431.86 651.533 2432.02 651.24C2432.18 650.945 2432.26 650.611 2432.26 650.239C2432.26 649.858 2432.18 649.518 2432.01 649.22C2431.85 648.919 2431.62 648.682 2431.33 648.509C2431.04 648.335 2430.71 648.247 2430.34 648.244C2430.07 648.241 2429.79 648.283 2429.51 648.368C2429.23 648.45 2429 648.557 2428.82 648.688L2427.83 648.568L2428.36 644.273H2432.89V645.21H2429.25L2428.94 647.784H2428.99C2429.17 647.642 2429.39 647.524 2429.66 647.43C2429.93 647.337 2430.21 647.29 2430.51 647.29C2431.04 647.29 2431.52 647.418 2431.93 647.673C2432.35 647.926 2432.68 648.273 2432.92 648.713C2433.16 649.153 2433.28 649.656 2433.28 650.222C2433.28 650.778 2433.16 651.276 2432.91 651.713C2432.66 652.148 2432.32 652.491 2431.89 652.744C2431.45 652.994 2430.96 653.119 2430.4 653.119Z" fill="black"/>
<rect x="1590.1" y="931.1" width="53.8" height="23.8" fill="#0000FF" fill-opacity="0.1" stroke="black" stroke-width="0.2"/>
<path d="M1596.06 804V795.273H1597.11V799.602H1597.22L1601.14 795.273H1602.52L1598.85 799.21L1602.52 804H1601.24L1598.2 799.943L1597.11 801.17V804H1596.06ZM1603.88 804V795.273H1609.15V796.21H1604.94V799.159H1608.88V800.097H1604.94V803.062H1609.22V804H1603.88ZM1617.98 795.273V804H1616.95L1612.2 797.148H1612.11V804H1611.06V795.273H1612.08L1616.85 802.142H1616.94V795.273H1617.98ZM1623.59 804L1627.49 796.278V796.21H1622.99V795.273H1628.58V796.261L1624.69 804H1623.59Z" fill="black"/>
<path d="M1596.06 828V819.273H1597.11V823.602H1597.22L1601.14 819.273H1602.52L1598.85 823.21L1602.52 828H1601.24L1598.2 823.943L1597.11 825.17V828H1596.06ZM1603.88 828V819.273H1609.15V820.21H1604.94V823.159H1608.88V824.097H1604.94V827.062H1609.22V828H1603.88ZM1617.98 819.273V828H1616.95L1612.2 821.148H1612.11V828H1611.06V819.273H1612.08L1616.85 826.142H1616.94V819.273H1617.98ZM1626.21 828.119C1625.85 828.114 1625.5 828.045 1625.14 827.915C1624.78 827.784 1624.45 827.564 1624.16 827.254C1623.86 826.942 1623.62 826.52 1623.45 825.989C1623.27 825.455 1623.18 824.784 1623.18 823.977C1623.18 823.205 1623.25 822.52 1623.39 821.923C1623.54 821.324 1623.75 820.82 1624.03 820.411C1624.3 819.999 1624.63 819.686 1625.02 819.473C1625.41 819.26 1625.86 819.153 1626.35 819.153C1626.84 819.153 1627.27 819.251 1627.65 819.447C1628.04 819.641 1628.35 819.911 1628.59 820.257C1628.83 820.604 1628.99 821.003 1629.06 821.455H1628.02C1627.92 821.062 1627.73 820.737 1627.46 820.479C1627.18 820.22 1626.81 820.091 1626.35 820.091C1625.67 820.091 1625.14 820.385 1624.75 820.973C1624.36 821.561 1624.17 822.386 1624.17 823.449H1624.23C1624.39 823.207 1624.58 823.001 1624.8 822.831C1625.02 822.658 1625.27 822.524 1625.53 822.43C1625.8 822.337 1626.08 822.29 1626.38 822.29C1626.88 822.29 1627.34 822.415 1627.75 822.665C1628.17 822.912 1628.5 823.254 1628.75 823.692C1629 824.126 1629.13 824.625 1629.13 825.188C1629.13 825.727 1629.01 826.222 1628.76 826.67C1628.52 827.116 1628.18 827.472 1627.75 827.736C1627.31 827.997 1626.8 828.125 1626.21 828.119ZM1626.21 827.182C1626.57 827.182 1626.89 827.092 1627.17 826.913C1627.46 826.734 1627.69 826.494 1627.85 826.193C1628.02 825.892 1628.1 825.557 1628.1 825.188C1628.1 824.827 1628.02 824.499 1627.86 824.203C1627.7 823.905 1627.48 823.668 1627.2 823.491C1626.92 823.315 1626.6 823.227 1626.25 823.227C1625.98 823.227 1625.72 823.281 1625.49 823.389C1625.26 823.494 1625.05 823.639 1624.88 823.824C1624.7 824.009 1624.57 824.22 1624.47 824.459C1624.37 824.695 1624.32 824.943 1624.32 825.205C1624.32 825.551 1624.4 825.875 1624.56 826.176C1624.73 826.477 1624.95 826.72 1625.24 826.905C1625.52 827.089 1625.85 827.182 1626.21 827.182Z" fill="black"/>
<path d="M1751.08 1354H1750.02C1749.96 1353.7 1749.85 1353.43 1749.69 1353.2C1749.54 1352.97 1749.35 1352.78 1749.13 1352.62C1748.91 1352.46 1748.67 1352.34 1748.4 1352.26C1748.14 1352.18 1747.86 1352.14 1747.57 1352.14C1747.04 1352.14 1746.56 1352.28 1746.13 1352.54C1745.71 1352.81 1745.37 1353.2 1745.11 1353.72C1744.86 1354.24 1744.74 1354.88 1744.74 1355.64C1744.74 1356.39 1744.86 1357.03 1745.11 1357.55C1745.37 1358.07 1745.71 1358.46 1746.13 1358.73C1746.56 1359 1747.04 1359.13 1747.57 1359.13C1747.86 1359.13 1748.14 1359.09 1748.4 1359.01C1748.67 1358.93 1748.91 1358.81 1749.13 1358.66C1749.35 1358.5 1749.54 1358.3 1749.69 1358.07C1749.85 1357.84 1749.96 1357.57 1750.02 1357.27H1751.08C1751 1357.72 1750.86 1358.12 1750.64 1358.47C1750.43 1358.82 1750.17 1359.12 1749.86 1359.37C1749.55 1359.61 1749.2 1359.8 1748.81 1359.93C1748.42 1360.06 1748.01 1360.12 1747.57 1360.12C1746.82 1360.12 1746.16 1359.94 1745.58 1359.57C1745 1359.21 1744.55 1358.69 1744.21 1358.02C1743.88 1357.35 1743.72 1356.56 1743.72 1355.64C1743.72 1354.72 1743.88 1353.92 1744.21 1353.25C1744.55 1352.58 1745 1352.06 1745.58 1351.7C1746.16 1351.34 1746.82 1351.15 1747.57 1351.15C1748.01 1351.15 1748.42 1351.22 1748.81 1351.35C1749.2 1351.47 1749.55 1351.66 1749.86 1351.91C1750.17 1352.15 1750.43 1352.45 1750.64 1352.8C1750.86 1353.15 1751 1353.55 1751.08 1354ZM1752.79 1360V1351.27H1755.74C1756.42 1351.27 1756.98 1351.39 1757.42 1351.62C1757.85 1351.85 1758.18 1352.17 1758.39 1352.57C1758.6 1352.98 1758.7 1353.43 1758.7 1353.95C1758.7 1354.46 1758.6 1354.92 1758.39 1355.32C1758.18 1355.71 1757.85 1356.03 1757.42 1356.25C1756.98 1356.48 1756.43 1356.59 1755.75 1356.59H1753.37V1355.64H1755.72C1756.19 1355.64 1756.56 1355.57 1756.84 1355.43C1757.13 1355.3 1757.34 1355.1 1757.47 1354.85C1757.6 1354.6 1757.66 1354.3 1757.66 1353.95C1757.66 1353.6 1757.6 1353.29 1757.47 1353.03C1757.34 1352.77 1757.13 1352.57 1756.84 1352.43C1756.55 1352.28 1756.17 1352.21 1755.7 1352.21H1753.84V1360H1752.79ZM1756.9 1356.08L1759.04 1360H1757.82L1755.7 1356.08H1756.9ZM1760.82 1360H1759.71L1762.92 1351.27H1764.01L1767.21 1360H1766.11L1763.5 1352.65H1763.43L1760.82 1360ZM1761.23 1356.59H1765.7V1357.53H1761.23V1356.59ZM1768.57 1360V1351.27H1769.63V1355.16H1774.28V1351.27H1775.34V1360H1774.28V1356.1H1769.63V1360H1768.57ZM1783.4 1360.12C1782.9 1360.12 1782.45 1360.02 1782.05 1359.82C1781.65 1359.62 1781.33 1359.35 1781.09 1359C1780.85 1358.66 1780.72 1358.26 1780.69 1357.82H1781.72C1781.76 1358.21 1781.94 1358.54 1782.25 1358.8C1782.57 1359.05 1782.96 1359.18 1783.4 1359.18C1783.76 1359.18 1784.08 1359.1 1784.36 1358.93C1784.64 1358.76 1784.86 1358.53 1785.02 1358.24C1785.18 1357.94 1785.26 1357.61 1785.26 1357.24C1785.26 1356.86 1785.18 1356.52 1785.01 1356.22C1784.85 1355.92 1784.62 1355.68 1784.33 1355.51C1784.04 1355.34 1783.71 1355.25 1783.34 1355.24C1783.07 1355.24 1782.79 1355.28 1782.51 1355.37C1782.23 1355.45 1782 1355.56 1781.82 1355.69L1780.83 1355.57L1781.36 1351.27H1785.89V1352.21H1782.25L1781.94 1354.78H1781.99C1782.17 1354.64 1782.39 1354.52 1782.66 1354.43C1782.93 1354.34 1783.21 1354.29 1783.51 1354.29C1784.04 1354.29 1784.52 1354.42 1784.93 1354.67C1785.35 1354.93 1785.68 1355.27 1785.92 1355.71C1786.16 1356.15 1786.28 1356.66 1786.28 1357.22C1786.28 1357.78 1786.16 1358.28 1785.91 1358.71C1785.66 1359.15 1785.32 1359.49 1784.89 1359.74C1784.45 1359.99 1783.96 1360.12 1783.4 1360.12Z" fill="black"/>
</g>
<defs>
<clipPath id="clip0_1_102">
<rect width="2550.65" height="1369" fill="white"/>
</clipPath>
</defs>
</svg>
