<svg width="421" height="287" viewBox="0 0 421 287" fill="none" xmlns="http://www.w3.org/2000/svg">
<g clip-path="url(#clip0_1_2)">
<path d="M13 76V-2H234V98.4878H390V285L-3 284.735V194.685H193.5V76H13Z" stroke="black" stroke-width="0.3"/>
<path d="M193.5 161H282.5V194.414H193.5V161Z" stroke="black" stroke-width="0.3"/>
<path d="M297 161H417V232H297V161Z" stroke="black" stroke-width="0.3"/>
<path d="M297 232H417V285L297 284.717V232Z" stroke="black" stroke-width="0.3"/>
<path d="M390 155H420.975L421 285L390.239 284.887L390 155Z" fill="white"/>
<path d="M13 31H87.2004V25.5H117.2V15H147.5V9.5H234" stroke="black" stroke-width="0.3"/>
<path d="M234.042 71.2989C234.248 71.2823 234.452 71.2488 234.653 71.1989C235.318 71.032 235.937 70.7172 236.463 70.2779C237.026 69.8062 237.492 69.2287 237.833 68.5779C238.281 67.681 238.538 66.7004 238.585 65.6989L234.052 65.7359L234.042 71.2989Z" stroke="#1A1818" stroke-width="0.3" stroke-miterlimit="10"/>
<path d="M234.042 71.1109C234.252 71.1252 234.461 71.155 234.667 71.1999C235.339 71.3493 235.973 71.6375 236.527 72.0459C237.091 72.4608 237.565 72.9853 237.921 73.5879C238.378 74.3944 238.642 75.2955 238.693 76.2209L234.052 76.1879L234.042 71.1109Z" stroke="#1A1818" stroke-width="0.3" stroke-miterlimit="10"/>
<path d="M234.043 51.1669C234.249 51.1501 234.453 51.1166 234.654 51.0669C235.318 50.9026 235.936 50.5916 236.464 50.1569C237.026 49.6948 237.491 49.1271 237.834 48.4859C238.283 47.5995 238.539 46.6283 238.586 45.6359L234.053 45.6719L234.043 51.1669Z" stroke="#1A1818" stroke-width="0.3" stroke-miterlimit="10"/>
<path d="M234.043 51.1669C234.254 51.1832 234.463 51.2167 234.668 51.2669C235.35 51.4383 235.986 51.7597 236.528 52.2079C237.101 52.6817 237.575 53.2647 237.922 53.9229C238.383 54.8351 238.646 55.8341 238.694 56.8549L234.053 56.8169L234.043 51.1669Z" stroke="#1A1818" stroke-width="0.3" stroke-miterlimit="10"/>
<path d="M193.5 143.696C193.7 143.679 193.567 143.746 193.762 143.696C194.41 143.53 195.012 143.219 195.522 142.786C196.07 142.321 196.523 141.753 196.854 141.115C197.292 140.225 197.541 139.255 197.586 138.265H193.5V143.696Z" stroke="#1A1818" stroke-width="0.3" stroke-miterlimit="10"/>
<path d="M193.5 144C193.705 144.016 193.577 143.846 193.777 143.896C194.444 144.069 195.063 144.39 195.587 144.837C196.147 145.314 196.608 145.897 196.943 146.552C197.392 147.467 197.648 148.465 197.694 149.484L193.5 149.5V144Z" stroke="#1A1818" stroke-width="0.3" stroke-miterlimit="10"/>
<path d="M305.29 160.889C305.273 160.69 305.24 160.492 305.19 160.299C305.024 159.654 304.713 159.057 304.28 158.551C303.814 158.005 303.247 157.556 302.609 157.227C301.719 156.792 300.749 156.545 299.759 156.5L299.795 160.879L305.29 160.889Z" stroke="#1A1818" stroke-width="0.3" stroke-miterlimit="10"/>
<path d="M305.29 161C305.307 160.797 305.34 160.597 305.39 160.4C305.557 159.739 305.871 159.124 306.307 158.6C306.768 158.043 307.336 157.582 307.976 157.246C308.865 156.801 309.838 156.546 310.832 156.5L310.796 160.987L305.29 161Z" stroke="#1A1818" stroke-width="0.3" stroke-miterlimit="10"/>
<path d="M296.975 269.58C296.786 269.593 296.599 269.621 296.414 269.662C295.811 269.798 295.244 270.061 294.751 270.433C294.241 270.818 293.813 271.3 293.492 271.852C293.082 272.594 292.845 273.42 292.8 274.267L296.967 274.236L296.975 269.58Z" stroke="#1A1818" stroke-width="0.3" stroke-miterlimit="10"/>
<path d="M296.983 269.583C296.789 269.57 296.597 269.543 296.407 269.503C295.79 269.37 295.208 269.111 294.695 268.744C294.178 268.374 293.741 267.904 293.411 267.362C292.991 266.642 292.748 265.832 292.7 265L296.974 265.03L296.983 269.583Z" stroke="#1A1818" stroke-width="0.3" stroke-miterlimit="10"/>
<path d="M65.688 200.36C65.4505 200.344 65.2146 200.31 64.982 200.26C64.2252 200.093 63.5117 199.77 62.888 199.31C62.2512 198.841 61.7141 198.25 61.308 197.572C60.7932 196.665 60.4954 195.651 60.438 194.61L65.677 194.648L65.688 200.36Z" stroke="#1A1818" stroke-width="0.3" stroke-miterlimit="10"/>
<path d="M27.688 81.3749C27.4506 81.3577 27.2148 81.3243 26.982 81.2749C26.2326 81.1259 25.5206 80.8283 24.888 80.3999C24.258 79.9681 23.7207 79.4145 23.308 78.7719C22.7958 77.9328 22.4971 76.9811 22.438 75.9999L27.677 76.0349L27.688 81.3749Z" stroke="#1A1818" stroke-width="0.3" stroke-miterlimit="10"/>
<path d="M215.69 167.28C215.452 167.263 215.216 167.228 214.984 167.175C214.223 167 213.509 166.662 212.89 166.185C212.248 165.689 211.711 165.071 211.31 164.367C210.793 163.411 210.496 162.352 210.44 161.267L215.679 161.306L215.69 167.28Z" stroke="#1A1818" stroke-width="0.3" stroke-miterlimit="10"/>
<path d="M371.16 229.61H370.16V230.61H371.16V229.61Z" fill="white"/>
<path d="M371.16 283.91H370.16V284.91H371.16V283.91Z" fill="white"/>
<path d="M297 279H283V281.5V285H297V279Z" fill="#0000FF" fill-opacity="0.1" stroke="black" stroke-width="0.2"/>
<path d="M283 220V221.844" stroke="black" stroke-width="0.5"/>
<path d="M283 223V224.844" stroke="black" stroke-width="0.5"/>
<path d="M283 226V227.844" stroke="black" stroke-width="0.5"/>
<path d="M283 229V230.844" stroke="black" stroke-width="0.5"/>
<path d="M283 232V233.844" stroke="black" stroke-width="0.5"/>
<path d="M283 235V236.844" stroke="black" stroke-width="0.5"/>
<path d="M283 238V239.844" stroke="black" stroke-width="0.5"/>
<path d="M283 241V242.844" stroke="black" stroke-width="0.5"/>
<path d="M283 244V245.844" stroke="black" stroke-width="0.5"/>
<path d="M283 247V248.844" stroke="black" stroke-width="0.5"/>
<path d="M283 250V251.844" stroke="black" stroke-width="0.5"/>
<path d="M283 253V254.844" stroke="black" stroke-width="0.5"/>
<path d="M283 256V257.844" stroke="black" stroke-width="0.5"/>
<path d="M283 259V260.844" stroke="black" stroke-width="0.5"/>
<path d="M283 262V263.844" stroke="black" stroke-width="0.5"/>
<path d="M283 265V266.844" stroke="black" stroke-width="0.5"/>
<path d="M283 268V269.844" stroke="black" stroke-width="0.5"/>
<path d="M283 271V272.844" stroke="black" stroke-width="0.5"/>
<path d="M283 274V275.844" stroke="black" stroke-width="0.5"/>
<path d="M283 277V278.844" stroke="black" stroke-width="0.5"/>
<path d="M283 280V281.844" stroke="black" stroke-width="0.5"/>
<path d="M283 283V284.6" stroke="black" stroke-width="0.5"/>
<path d="M100.69 220L100.69 222.348" stroke="black" stroke-width="0.5"/>
<path d="M100.69 223.504V225.348" stroke="black" stroke-width="0.5"/>
<path d="M100.69 226.504V228.348" stroke="black" stroke-width="0.5"/>
<path d="M100.69 229.378V231.222" stroke="black" stroke-width="0.5"/>
<path d="M100.69 229.378V231.222" stroke="black" stroke-width="0.5"/>
<path d="M100.69 232.347V234.191" stroke="black" stroke-width="0.5"/>
<path d="M100.69 235.316V237.16" stroke="black" stroke-width="0.5"/>
<path d="M100.69 238.284V240.128" stroke="black" stroke-width="0.5"/>
<path d="M100.69 241.253V243.097" stroke="black" stroke-width="0.5"/>
<path d="M100.69 244.222V246.066" stroke="black" stroke-width="0.5"/>
<path d="M100.69 247.19V249.034" stroke="black" stroke-width="0.5"/>
<path d="M100.69 250.159V252.003" stroke="black" stroke-width="0.5"/>
<path d="M100.69 253.127V254.971" stroke="black" stroke-width="0.5"/>
<path d="M100.69 256.096V257.94" stroke="black" stroke-width="0.5"/>
<path d="M100.69 259.065V260.909" stroke="black" stroke-width="0.5"/>
<path d="M100.69 262.034V263.878" stroke="black" stroke-width="0.5"/>
<path d="M100.69 265.002V266.846" stroke="black" stroke-width="0.5"/>
<path d="M100.69 267.971V269.815" stroke="black" stroke-width="0.5"/>
<path d="M100.69 270.939V272.783" stroke="black" stroke-width="0.5"/>
<path d="M100.69 273.816V275.66" stroke="black" stroke-width="0.5"/>
<path d="M100.69 276.816V278.66" stroke="black" stroke-width="0.5"/>
<path d="M100.69 279.816V281.66" stroke="black" stroke-width="0.5"/>
<path d="M100.69 282.816V284.416" stroke="black" stroke-width="0.5"/>
<path d="M200.844 218H199" stroke="black" stroke-width="0.5"/>
<path d="M197.844 218H196" stroke="black" stroke-width="0.5"/>
<path d="M194.844 218H193" stroke="black" stroke-width="0.5"/>
<path d="M191.844 218H190" stroke="black" stroke-width="0.5"/>
<path d="M179.844 218H178" stroke="black" stroke-width="0.5"/>
<path d="M188.844 218H187" stroke="black" stroke-width="0.5"/>
<path d="M185.5 218H183.656" stroke="black" stroke-width="0.5"/>
<path d="M182.844 218H181" stroke="black" stroke-width="0.5"/>
<path d="M176.844 218H175" stroke="black" stroke-width="0.5"/>
<path d="M170.844 218H169" stroke="black" stroke-width="0.5"/>
<path d="M173.844 218H172" stroke="black" stroke-width="0.5"/>
<path d="M167.844 218H166" stroke="black" stroke-width="0.5"/>
<path d="M164.844 218H163" stroke="black" stroke-width="0.5"/>
<path d="M161.844 218H160" stroke="black" stroke-width="0.5"/>
<path d="M158.844 218H157" stroke="black" stroke-width="0.5"/>
<path d="M155.844 218H154" stroke="black" stroke-width="0.5"/>
<path d="M152.844 218H151" stroke="black" stroke-width="0.5"/>
<path d="M149.844 218H148" stroke="black" stroke-width="0.5"/>
<path d="M146.844 218H145" stroke="black" stroke-width="0.5"/>
<path d="M143.844 218H142" stroke="black" stroke-width="0.5"/>
<path d="M140.844 218H139" stroke="black" stroke-width="0.5"/>
<path d="M137.844 218H136" stroke="black" stroke-width="0.5"/>
<path d="M134.844 218H133" stroke="black" stroke-width="0.5"/>
<path d="M131.844 218H130" stroke="black" stroke-width="0.5"/>
<path d="M128.844 218H127" stroke="black" stroke-width="0.5"/>
<path d="M125.844 218H124" stroke="black" stroke-width="0.5"/>
<path d="M122.605 218H121" stroke="black" stroke-width="0.5"/>
<path d="M119.605 218H118" stroke="black" stroke-width="0.5"/>
<path d="M115.605 218H114" stroke="black" stroke-width="0.5"/>
<path d="M112.605 218H111" stroke="black" stroke-width="0.5"/>
<path d="M109.605 218H108" stroke="black" stroke-width="0.5"/>
<path d="M106.605 218H105" stroke="black" stroke-width="0.5"/>
<path d="M103.605 218H102" stroke="black" stroke-width="0.5"/>
<path d="M278.844 218H277" stroke="black" stroke-width="0.5"/>
<path d="M275.844 218H274" stroke="black" stroke-width="0.5"/>
<path d="M272.844 218H271" stroke="black" stroke-width="0.5"/>
<path d="M269.844 218H268" stroke="black" stroke-width="0.5"/>
<path d="M266.844 218H265" stroke="black" stroke-width="0.5"/>
<path d="M263.844 218H262" stroke="black" stroke-width="0.5"/>
<path d="M260.844 218H259" stroke="black" stroke-width="0.5"/>
<path d="M257.844 218H256" stroke="black" stroke-width="0.5"/>
<path d="M254.844 218H253" stroke="black" stroke-width="0.5"/>
<path d="M251.844 218H250" stroke="black" stroke-width="0.5"/>
<path d="M248.844 218H247" stroke="black" stroke-width="0.5"/>
<path d="M245.844 218H244" stroke="black" stroke-width="0.5"/>
<path d="M242.844 218H241" stroke="black" stroke-width="0.5"/>
<path d="M239.844 218H238" stroke="black" stroke-width="0.5"/>
<path d="M236.844 218H235" stroke="black" stroke-width="0.5"/>
<path d="M233.844 218H232" stroke="black" stroke-width="0.5"/>
<path d="M230.844 218H229" stroke="black" stroke-width="0.5"/>
<path d="M227.844 218H226" stroke="black" stroke-width="0.5"/>
<path d="M224.844 218H223" stroke="black" stroke-width="0.5"/>
<path d="M221.844 218H220" stroke="black" stroke-width="0.5"/>
<path d="M218.844 218H217" stroke="black" stroke-width="0.5"/>
<path d="M215.844 218H214" stroke="black" stroke-width="0.5"/>
<path d="M212.844 218H211" stroke="black" stroke-width="0.5"/>
<path d="M209.844 218H208" stroke="black" stroke-width="0.5"/>
<path d="M206.844 218H205" stroke="black" stroke-width="0.5"/>
<path d="M203.605 218H202" stroke="black" stroke-width="0.5"/>
<path d="M315 279H328.8V284.8H315V279Z" fill="#0000FF" fill-opacity="0.1" stroke="black" stroke-width="0.2"/>
<path d="M356.8 279H343V284.8H356.8V279Z" fill="#0000FF" fill-opacity="0.1" stroke="black" stroke-width="0.2"/>
<path d="M329 226H342.8V231.8H329V226Z" fill="#0000FF" fill-opacity="0.1" stroke="black" stroke-width="0.2"/>
<path d="M329 161H342.8V167.3H329V161Z" fill="#0000FF" fill-opacity="0.1" stroke="black" stroke-width="0.2"/>
<path d="M319.228 281.474H319.051C319.041 281.423 319.023 281.379 318.997 281.34C318.971 281.302 318.94 281.27 318.903 281.244C318.867 281.217 318.826 281.197 318.782 281.184C318.737 281.171 318.691 281.164 318.642 281.164C318.554 281.164 318.475 281.187 318.403 281.231C318.332 281.276 318.275 281.341 318.233 281.428C318.192 281.514 318.171 281.621 318.171 281.747C318.171 281.873 318.192 281.979 318.233 282.066C318.275 282.152 318.332 282.218 318.403 282.262C318.475 282.307 318.554 282.329 318.642 282.329C318.691 282.329 318.737 282.322 318.782 282.309C318.826 282.296 318.867 282.276 318.903 282.25C318.94 282.224 318.971 282.191 318.997 282.153C319.023 282.114 319.041 282.07 319.051 282.019H319.228C319.214 282.094 319.19 282.16 319.155 282.219C319.12 282.278 319.077 282.328 319.024 282.369C318.972 282.41 318.914 282.441 318.849 282.462C318.785 282.483 318.716 282.494 318.642 282.494C318.518 282.494 318.408 282.464 318.311 282.403C318.215 282.342 318.139 282.256 318.083 282.144C318.028 282.033 318 281.9 318 281.747C318 281.593 318.028 281.461 318.083 281.349C318.139 281.237 318.215 281.151 318.311 281.09C318.408 281.03 318.518 281 318.642 281C318.716 281 318.785 281.01 318.849 281.032C318.914 281.053 318.972 281.084 319.024 281.125C319.077 281.166 319.12 281.216 319.155 281.274C319.19 281.333 319.214 281.399 319.228 281.474ZM319.512 282.474V281.019H320.004C320.117 281.019 320.211 281.039 320.284 281.078C320.356 281.116 320.41 281.169 320.445 281.236C320.48 281.303 320.498 281.38 320.498 281.465C320.498 281.551 320.48 281.627 320.445 281.693C320.41 281.76 320.357 281.812 320.284 281.85C320.212 281.887 320.119 281.906 320.007 281.906H319.609V281.747H320.001C320.079 281.747 320.141 281.735 320.188 281.713C320.236 281.69 320.271 281.658 320.292 281.616C320.314 281.574 320.325 281.524 320.325 281.465C320.325 281.407 320.314 281.356 320.292 281.313C320.27 281.269 320.235 281.236 320.188 281.212C320.14 281.188 320.077 281.176 319.998 281.176H319.688V282.474H319.512ZM320.197 281.821L320.555 282.474H320.35L319.998 281.821H320.197ZM320.851 282.474H320.667L321.201 281.019H321.382L321.917 282.474H321.732L321.297 281.25H321.286L320.851 282.474ZM320.919 281.906H321.664V282.062H320.919V281.906ZM322.143 282.474V281.019H322.319V281.667H323.095V281.019H323.271V282.474H323.095V281.823H322.319V282.474H322.143ZM324.206 282.474L324.856 281.187V281.176H324.106V281.019H325.038V281.184L324.391 282.474H324.206ZM325.178 282.485C325.143 282.485 325.113 282.473 325.088 282.448C325.063 282.423 325.05 282.393 325.05 282.358C325.05 282.322 325.063 282.292 325.088 282.267C325.113 282.242 325.143 282.23 325.178 282.23C325.213 282.23 325.243 282.242 325.268 282.267C325.293 282.292 325.306 282.322 325.306 282.358C325.306 282.381 325.3 282.402 325.288 282.421C325.277 282.441 325.261 282.456 325.242 282.468C325.223 282.48 325.202 282.485 325.178 282.485ZM326.029 282.494C325.946 282.494 325.871 282.477 325.804 282.444C325.737 282.411 325.684 282.366 325.643 282.308C325.603 282.25 325.581 282.184 325.577 282.11H325.748C325.754 282.176 325.784 282.231 325.837 282.274C325.891 282.316 325.955 282.338 326.029 282.338C326.089 282.338 326.142 282.324 326.188 282.296C326.235 282.268 326.272 282.229 326.298 282.181C326.325 282.131 326.339 282.076 326.339 282.014C326.339 281.95 326.325 281.894 326.297 281.844C326.269 281.794 326.231 281.754 326.183 281.725C326.135 281.697 326.08 281.682 326.018 281.681C325.973 281.681 325.928 281.688 325.881 281.702C325.834 281.716 325.795 281.733 325.765 281.755L325.6 281.735L325.688 281.019H326.444V281.176H325.836L325.785 281.605H325.793C325.823 281.581 325.861 281.561 325.906 281.546C325.95 281.53 325.997 281.522 326.046 281.522C326.135 281.522 326.214 281.544 326.284 281.586C326.354 281.628 326.409 281.686 326.449 281.76C326.489 281.833 326.509 281.917 326.509 282.011C326.509 282.104 326.488 282.187 326.447 282.26C326.406 282.332 326.349 282.389 326.276 282.431C326.204 282.473 326.121 282.494 326.029 282.494Z" fill="black"/>
<path d="M347.228 281.474H347.051C347.041 281.423 347.023 281.379 346.997 281.34C346.971 281.302 346.94 281.27 346.903 281.244C346.867 281.217 346.826 281.197 346.782 281.184C346.737 281.171 346.691 281.164 346.642 281.164C346.554 281.164 346.475 281.187 346.403 281.231C346.332 281.276 346.275 281.341 346.233 281.428C346.192 281.514 346.171 281.621 346.171 281.747C346.171 281.873 346.192 281.979 346.233 282.066C346.275 282.152 346.332 282.218 346.403 282.262C346.475 282.307 346.554 282.329 346.642 282.329C346.691 282.329 346.737 282.322 346.782 282.309C346.826 282.296 346.867 282.276 346.903 282.25C346.94 282.224 346.971 282.191 346.997 282.153C347.023 282.114 347.041 282.07 347.051 282.019H347.228C347.214 282.094 347.19 282.16 347.155 282.219C347.12 282.278 347.077 282.328 347.024 282.369C346.972 282.41 346.914 282.441 346.849 282.462C346.785 282.483 346.716 282.494 346.642 282.494C346.518 282.494 346.408 282.464 346.311 282.403C346.215 282.342 346.139 282.256 346.083 282.144C346.028 282.033 346 281.9 346 281.747C346 281.593 346.028 281.461 346.083 281.349C346.139 281.237 346.215 281.151 346.311 281.09C346.408 281.03 346.518 281 346.642 281C346.716 281 346.785 281.01 346.849 281.032C346.914 281.053 346.972 281.084 347.024 281.125C347.077 281.166 347.12 281.216 347.155 281.274C347.19 281.333 347.214 281.399 347.228 281.474ZM347.512 282.474V281.019H348.004C348.117 281.019 348.211 281.039 348.284 281.078C348.356 281.116 348.41 281.169 348.445 281.236C348.48 281.303 348.498 281.38 348.498 281.465C348.498 281.551 348.48 281.627 348.445 281.693C348.41 281.76 348.357 281.812 348.284 281.85C348.212 281.887 348.119 281.906 348.007 281.906H347.609V281.747H348.001C348.079 281.747 348.141 281.735 348.188 281.713C348.236 281.69 348.271 281.658 348.292 281.616C348.314 281.574 348.325 281.524 348.325 281.465C348.325 281.407 348.314 281.356 348.292 281.313C348.27 281.269 348.235 281.236 348.188 281.212C348.14 281.188 348.077 281.176 347.998 281.176H347.688V282.474H347.512ZM348.197 281.821L348.555 282.474H348.35L347.998 281.821H348.197ZM348.851 282.474H348.667L349.201 281.019H349.382L349.917 282.474H349.732L349.297 281.25H349.286L348.851 282.474ZM348.919 281.906H349.664V282.062H348.919V281.906ZM350.143 282.474V281.019H350.319V281.667H351.095V281.019H351.271V282.474H351.095V281.823H350.319V282.474H350.143ZM352.206 282.474L352.856 281.187V281.176H352.106V281.019H353.038V281.184L352.391 282.474H352.206ZM353.178 282.485C353.143 282.485 353.113 282.473 353.088 282.448C353.063 282.423 353.05 282.393 353.05 282.358C353.05 282.322 353.063 282.292 353.088 282.267C353.113 282.242 353.143 282.23 353.178 282.23C353.213 282.23 353.243 282.242 353.268 282.267C353.293 282.292 353.306 282.322 353.306 282.358C353.306 282.381 353.3 282.402 353.288 282.421C353.277 282.441 353.261 282.456 353.242 282.468C353.223 282.48 353.202 282.485 353.178 282.485ZM354.029 282.494C353.946 282.494 353.871 282.477 353.804 282.444C353.737 282.411 353.684 282.366 353.643 282.308C353.603 282.25 353.581 282.184 353.577 282.11H353.748C353.754 282.176 353.784 282.231 353.837 282.274C353.891 282.316 353.955 282.338 354.029 282.338C354.089 282.338 354.142 282.324 354.188 282.296C354.235 282.268 354.272 282.229 354.298 282.181C354.325 282.131 354.339 282.076 354.339 282.014C354.339 281.95 354.325 281.894 354.297 281.844C354.269 281.794 354.231 281.754 354.183 281.725C354.135 281.697 354.08 281.682 354.018 281.681C353.973 281.681 353.928 281.688 353.881 281.702C353.834 281.716 353.795 281.733 353.765 281.755L353.6 281.735L353.688 281.019H354.444V281.176H353.836L353.785 281.605H353.793C353.823 281.581 353.861 281.561 353.906 281.546C353.95 281.53 353.997 281.522 354.046 281.522C354.135 281.522 354.214 281.544 354.284 281.586C354.354 281.628 354.409 281.686 354.449 281.76C354.489 281.833 354.509 281.917 354.509 282.011C354.509 282.104 354.488 282.187 354.447 282.26C354.406 282.332 354.349 282.389 354.276 282.431C354.204 282.473 354.121 282.494 354.029 282.494Z" fill="black"/>
<path d="M333.228 228.474H333.051C333.041 228.423 333.023 228.379 332.997 228.34C332.971 228.302 332.94 228.27 332.903 228.244C332.867 228.217 332.826 228.197 332.782 228.184C332.737 228.171 332.691 228.164 332.642 228.164C332.554 228.164 332.475 228.187 332.403 228.231C332.332 228.276 332.275 228.341 332.233 228.428C332.192 228.514 332.171 228.621 332.171 228.747C332.171 228.873 332.192 228.979 332.233 229.066C332.275 229.152 332.332 229.218 332.403 229.262C332.475 229.307 332.554 229.329 332.642 229.329C332.691 229.329 332.737 229.322 332.782 229.309C332.826 229.296 332.867 229.276 332.903 229.25C332.94 229.224 332.971 229.191 332.997 229.153C333.023 229.114 333.041 229.07 333.051 229.019H333.228C333.214 229.094 333.19 229.16 333.155 229.219C333.12 229.278 333.077 229.328 333.024 229.369C332.972 229.41 332.914 229.441 332.849 229.462C332.785 229.483 332.716 229.494 332.642 229.494C332.518 229.494 332.408 229.464 332.311 229.403C332.215 229.342 332.139 229.256 332.083 229.144C332.028 229.033 332 228.9 332 228.747C332 228.593 332.028 228.461 332.083 228.349C332.139 228.237 332.215 228.151 332.311 228.09C332.408 228.03 332.518 228 332.642 228C332.716 228 332.785 228.01 332.849 228.032C332.914 228.053 332.972 228.084 333.024 228.125C333.077 228.166 333.12 228.216 333.155 228.274C333.19 228.333 333.214 228.399 333.228 228.474ZM333.512 229.474V228.019H334.004C334.117 228.019 334.211 228.039 334.284 228.078C334.356 228.116 334.41 228.169 334.445 228.236C334.48 228.303 334.498 228.38 334.498 228.465C334.498 228.551 334.48 228.627 334.445 228.693C334.41 228.76 334.357 228.812 334.284 228.85C334.212 228.887 334.119 228.906 334.007 228.906H333.609V228.747H334.001C334.079 228.747 334.141 228.735 334.188 228.713C334.236 228.69 334.271 228.658 334.292 228.616C334.314 228.574 334.325 228.524 334.325 228.465C334.325 228.407 334.314 228.356 334.292 228.313C334.27 228.269 334.235 228.236 334.188 228.212C334.14 228.188 334.077 228.176 333.998 228.176H333.688V229.474H333.512ZM334.197 228.821L334.555 229.474H334.35L333.998 228.821H334.197ZM334.851 229.474H334.667L335.201 228.019H335.382L335.917 229.474H335.732L335.297 228.25H335.286L334.851 229.474ZM334.919 228.906H335.664V229.062H334.919V228.906ZM336.143 229.474V228.019H336.319V228.667H337.095V228.019H337.271V229.474H337.095V228.823H336.319V229.474H336.143ZM338.672 228.019V229.474H338.496V228.204H338.487L338.132 228.44V228.261L338.496 228.019H338.672ZM339.565 229.494C339.458 229.494 339.366 229.465 339.291 229.407C339.216 229.348 339.158 229.263 339.119 229.152C339.079 229.04 339.059 228.905 339.059 228.747C339.059 228.59 339.079 228.455 339.119 228.344C339.159 228.232 339.217 228.147 339.292 228.088C339.368 228.029 339.459 228 339.565 228C339.671 228 339.761 228.029 339.837 228.088C339.912 228.147 339.97 228.232 340.01 228.344C340.05 228.455 340.07 228.59 340.07 228.747C340.07 228.905 340.05 229.04 340.011 229.152C339.971 229.263 339.913 229.348 339.838 229.407C339.763 229.465 339.672 229.494 339.565 229.494ZM339.565 229.338C339.671 229.338 339.753 229.286 339.812 229.184C339.87 229.082 339.9 228.936 339.9 228.747C339.9 228.621 339.886 228.514 339.859 228.425C339.833 228.336 339.794 228.269 339.744 228.223C339.695 228.176 339.635 228.153 339.565 228.153C339.459 228.153 339.377 228.205 339.318 228.309C339.259 228.412 339.229 228.558 339.229 228.747C339.229 228.873 339.243 228.98 339.269 229.068C339.296 229.156 339.334 229.223 339.383 229.269C339.434 229.315 339.494 229.338 339.565 229.338Z" fill="black"/>
<path d="M333.228 163.474H333.051C333.041 163.423 333.023 163.379 332.997 163.34C332.971 163.302 332.94 163.27 332.903 163.244C332.867 163.217 332.826 163.197 332.782 163.184C332.737 163.171 332.691 163.164 332.642 163.164C332.554 163.164 332.475 163.187 332.403 163.231C332.332 163.276 332.275 163.341 332.233 163.428C332.192 163.514 332.171 163.621 332.171 163.747C332.171 163.873 332.192 163.979 332.233 164.066C332.275 164.152 332.332 164.218 332.403 164.262C332.475 164.307 332.554 164.329 332.642 164.329C332.691 164.329 332.737 164.322 332.782 164.309C332.826 164.296 332.867 164.276 332.903 164.25C332.94 164.224 332.971 164.191 332.997 164.153C333.023 164.114 333.041 164.07 333.051 164.019H333.228C333.214 164.094 333.19 164.16 333.155 164.219C333.12 164.278 333.077 164.328 333.024 164.369C332.972 164.41 332.914 164.441 332.849 164.462C332.785 164.483 332.716 164.494 332.642 164.494C332.518 164.494 332.408 164.464 332.311 164.403C332.215 164.342 332.139 164.256 332.083 164.144C332.028 164.033 332 163.9 332 163.747C332 163.593 332.028 163.461 332.083 163.349C332.139 163.237 332.215 163.151 332.311 163.09C332.408 163.03 332.518 163 332.642 163C332.716 163 332.785 163.01 332.849 163.032C332.914 163.053 332.972 163.084 333.024 163.125C333.077 163.166 333.12 163.216 333.155 163.274C333.19 163.333 333.214 163.399 333.228 163.474ZM333.512 164.474V163.019H334.004C334.117 163.019 334.211 163.039 334.284 163.078C334.356 163.116 334.41 163.169 334.445 163.236C334.48 163.303 334.498 163.38 334.498 163.465C334.498 163.551 334.48 163.627 334.445 163.693C334.41 163.76 334.357 163.812 334.284 163.85C334.212 163.887 334.119 163.906 334.007 163.906H333.609V163.747H334.001C334.079 163.747 334.141 163.735 334.188 163.713C334.236 163.69 334.271 163.658 334.292 163.616C334.314 163.574 334.325 163.524 334.325 163.465C334.325 163.407 334.314 163.356 334.292 163.313C334.27 163.269 334.235 163.236 334.188 163.212C334.14 163.188 334.077 163.176 333.998 163.176H333.688V164.474H333.512ZM334.197 163.821L334.555 164.474H334.35L333.998 163.821H334.197ZM334.851 164.474H334.667L335.201 163.019H335.382L335.917 164.474H335.732L335.297 163.25H335.286L334.851 164.474ZM334.919 163.906H335.664V164.062H334.919V163.906ZM336.143 164.474V163.019H336.319V163.667H337.095V163.019H337.271V164.474H337.095V163.823H336.319V164.474H336.143ZM338.672 163.019V164.474H338.496V163.204H338.487L338.132 163.44V163.261L338.496 163.019H338.672ZM339.565 164.494C339.458 164.494 339.366 164.465 339.291 164.407C339.216 164.348 339.158 164.263 339.119 164.152C339.079 164.04 339.059 163.905 339.059 163.747C339.059 163.59 339.079 163.455 339.119 163.344C339.159 163.232 339.217 163.147 339.292 163.088C339.368 163.029 339.459 163 339.565 163C339.671 163 339.761 163.029 339.837 163.088C339.912 163.147 339.97 163.232 340.01 163.344C340.05 163.455 340.07 163.59 340.07 163.747C340.07 163.905 340.05 164.04 340.011 164.152C339.971 164.263 339.913 164.348 339.838 164.407C339.763 164.465 339.672 164.494 339.565 164.494ZM339.565 164.338C339.671 164.338 339.753 164.286 339.812 164.184C339.87 164.082 339.9 163.936 339.9 163.747C339.9 163.621 339.886 163.514 339.859 163.425C339.833 163.336 339.794 163.269 339.744 163.223C339.695 163.176 339.635 163.153 339.565 163.153C339.459 163.153 339.377 163.205 339.318 163.309C339.259 163.412 339.229 163.558 339.229 163.747C339.229 163.873 339.243 163.98 339.269 164.068C339.296 164.156 339.334 164.223 339.383 164.269C339.434 164.315 339.494 164.338 339.565 164.338Z" fill="black"/>
<path d="M252 279H221V285H252V279Z" fill="#0000FF" fill-opacity="0.1" stroke="black" stroke-width="0.2"/>
<path d="M206 285H176V282V279H206V285Z" fill="#0000FF" fill-opacity="0.1" stroke="black" stroke-width="0.2"/>
<path d="M161 279H130V285H161V279Z" fill="#0000FF" fill-opacity="0.1" stroke="black" stroke-width="0.2"/>
<path d="M179.841 281.712H179.577C179.561 281.636 179.534 281.569 179.495 281.512C179.456 281.454 179.409 281.406 179.354 281.367C179.299 281.327 179.239 281.297 179.172 281.277C179.105 281.257 179.035 281.248 178.963 281.248C178.831 281.248 178.711 281.281 178.604 281.348C178.497 281.414 178.413 281.513 178.349 281.643C178.287 281.773 178.256 281.932 178.256 282.121C178.256 282.31 178.287 282.469 178.349 282.599C178.413 282.729 178.497 282.828 178.604 282.895C178.711 282.961 178.831 282.995 178.963 282.995C179.035 282.995 179.105 282.985 179.172 282.965C179.239 282.945 179.299 282.915 179.354 282.876C179.409 282.837 179.456 282.788 179.495 282.73C179.534 282.672 179.561 282.605 179.577 282.53H179.841C179.821 282.642 179.785 282.741 179.732 282.83C179.68 282.918 179.614 282.993 179.536 283.054C179.458 283.115 179.37 283.162 179.273 283.194C179.176 283.226 179.073 283.242 178.963 283.242C178.777 283.242 178.611 283.196 178.467 283.105C178.322 283.015 178.208 282.885 178.125 282.718C178.042 282.55 178 282.351 178 282.121C178 281.891 178.042 281.692 178.125 281.524C178.208 281.357 178.322 281.228 178.467 281.137C178.611 281.046 178.777 281 178.963 281C179.073 281 179.176 281.016 179.273 281.048C179.37 281.08 179.458 281.127 179.536 281.189C179.614 281.25 179.68 281.325 179.732 281.413C179.785 281.5 179.821 281.6 179.841 281.712ZM180.268 283.212V281.03H181.005C181.175 281.03 181.315 281.059 181.425 281.118C181.534 281.175 181.615 281.254 181.668 281.355C181.72 281.456 181.747 281.571 181.747 281.699C181.747 281.828 181.72 281.942 181.668 282.041C181.615 282.141 181.535 282.219 181.426 282.276C181.317 282.332 181.178 282.36 181.009 282.36H180.413V282.121H181.001C181.117 282.121 181.211 282.104 181.282 282.07C181.354 282.036 181.406 281.988 181.438 281.925C181.47 281.862 181.487 281.787 181.487 281.699C181.487 281.612 181.47 281.536 181.438 281.47C181.405 281.405 181.353 281.354 181.281 281.319C181.209 281.283 181.114 281.265 180.997 281.265H180.532V283.212H180.268ZM181.295 282.232L181.832 283.212H181.525L180.997 282.232H181.295ZM182.276 283.212H181.999L182.8 281.03H183.073L183.874 283.212H183.597L182.945 281.375H182.928L182.276 283.212ZM182.379 282.36H183.495V282.594H182.379V282.36ZM184.214 283.212V281.03H184.478V282.002H185.642V281.03H185.906V283.212H185.642V282.236H184.478V283.212H184.214ZM188.007 281.03V283.212H187.743V281.307H187.73L187.198 281.661V281.392L187.743 281.03H188.007ZM189.346 283.242C189.186 283.242 189.049 283.198 188.936 283.111C188.823 283.023 188.737 282.895 188.677 282.728C188.618 282.561 188.588 282.358 188.588 282.121C188.588 281.885 188.618 281.684 188.677 281.517C188.738 281.349 188.824 281.222 188.937 281.134C189.051 281.045 189.187 281 189.346 281C189.505 281 189.641 281.045 189.754 281.134C189.868 281.222 189.955 281.349 190.014 281.517C190.075 281.684 190.105 281.885 190.105 282.121C190.105 282.358 190.075 282.561 190.015 282.728C189.956 282.895 189.869 283.023 189.757 283.111C189.644 283.198 189.507 283.242 189.346 283.242ZM189.346 283.007C189.505 283.007 189.629 282.931 189.717 282.777C189.805 282.624 189.849 282.405 189.849 282.121C189.849 281.932 189.829 281.771 189.789 281.638C189.749 281.506 189.691 281.404 189.616 281.335C189.541 281.265 189.452 281.23 189.346 281.23C189.189 281.23 189.065 281.308 188.977 281.464C188.888 281.619 188.844 281.838 188.844 282.121C188.844 282.31 188.863 282.471 188.903 282.603C188.943 282.735 189 282.835 189.075 282.904C189.15 282.973 189.241 283.007 189.346 283.007ZM193.148 281.712H192.883C192.868 281.636 192.84 281.569 192.801 281.512C192.763 281.454 192.716 281.406 192.661 281.367C192.606 281.327 192.545 281.297 192.478 281.277C192.412 281.257 192.342 281.248 192.27 281.248C192.138 281.248 192.018 281.281 191.911 281.348C191.804 281.414 191.719 281.513 191.656 281.643C191.594 281.773 191.562 281.932 191.562 282.121C191.562 282.31 191.594 282.469 191.656 282.599C191.719 282.729 191.804 282.828 191.911 282.895C192.018 282.961 192.138 282.995 192.27 282.995C192.342 282.995 192.412 282.985 192.478 282.965C192.545 282.945 192.606 282.915 192.661 282.876C192.716 282.837 192.763 282.788 192.801 282.73C192.84 282.672 192.868 282.605 192.883 282.53H193.148C193.128 282.642 193.091 282.741 193.039 282.83C192.986 282.918 192.921 282.993 192.843 283.054C192.765 283.115 192.677 283.162 192.58 283.194C192.483 283.226 192.38 283.242 192.27 283.242C192.084 283.242 191.918 283.196 191.773 283.105C191.628 283.015 191.514 282.885 191.431 282.718C191.348 282.55 191.307 282.351 191.307 282.121C191.307 281.891 191.348 281.692 191.431 281.524C191.514 281.357 191.628 281.228 191.773 281.137C191.918 281.046 192.084 281 192.27 281C192.38 281 192.483 281.016 192.58 281.048C192.677 281.08 192.765 281.127 192.843 281.189C192.921 281.25 192.986 281.325 193.039 281.413C193.091 281.5 193.128 281.6 193.148 281.712ZM193.574 283.212V281.03H194.312C194.482 281.03 194.622 281.059 194.731 281.118C194.841 281.175 194.922 281.254 194.974 281.355C195.027 281.456 195.053 281.571 195.053 281.699C195.053 281.828 195.027 281.942 194.974 282.041C194.922 282.141 194.841 282.219 194.732 282.276C194.624 282.332 194.485 282.36 194.316 282.36H193.719V282.121H194.307C194.424 282.121 194.518 282.104 194.589 282.07C194.66 282.036 194.712 281.988 194.744 281.925C194.777 281.862 194.793 281.787 194.793 281.699C194.793 281.612 194.777 281.536 194.744 281.47C194.712 281.405 194.659 281.354 194.588 281.319C194.516 281.283 194.421 281.265 194.303 281.265H193.839V283.212H193.574ZM194.601 282.232L195.138 283.212H194.832L194.303 282.232H194.601ZM195.583 283.212H195.306L196.107 281.03H196.38L197.181 283.212H196.904L196.252 281.375H196.235L195.583 283.212ZM195.685 282.36H196.802V282.594H195.685V282.36ZM197.521 283.212V281.03H197.785V282.002H198.948V281.03H199.213V283.212H198.948V282.236H197.785V283.212H197.521ZM201.314 281.03V283.212H201.05V281.307H201.037L200.504 281.661V281.392L201.05 281.03H201.314ZM202.653 283.242C202.493 283.242 202.356 283.198 202.243 283.111C202.13 283.023 202.044 282.895 201.984 282.728C201.924 282.561 201.895 282.358 201.895 282.121C201.895 281.885 201.924 281.684 201.984 281.517C202.044 281.349 202.131 281.222 202.244 281.134C202.358 281.045 202.494 281 202.653 281C202.812 281 202.948 281.045 203.061 281.134C203.175 281.222 203.261 281.349 203.321 281.517C203.381 281.684 203.412 281.885 203.412 282.121C203.412 282.358 203.382 282.561 203.322 282.728C203.262 282.895 203.176 283.023 203.063 283.111C202.95 283.198 202.814 283.242 202.653 283.242ZM202.653 283.007C202.812 283.007 202.936 282.931 203.024 282.777C203.112 282.624 203.156 282.405 203.156 282.121C203.156 281.932 203.136 281.771 203.095 281.638C203.055 281.506 202.998 281.404 202.923 281.335C202.848 281.265 202.758 281.23 202.653 281.23C202.495 281.23 202.372 281.308 202.283 281.464C202.195 281.619 202.15 281.838 202.15 282.121C202.15 282.31 202.17 282.471 202.21 282.603C202.25 282.735 202.307 282.835 202.381 282.904C202.457 282.973 202.547 283.007 202.653 283.007Z" fill="black"/>
<path d="M225.841 281.712H225.577C225.561 281.636 225.534 281.569 225.495 281.512C225.456 281.454 225.409 281.406 225.354 281.367C225.299 281.327 225.239 281.297 225.172 281.277C225.105 281.257 225.035 281.248 224.963 281.248C224.831 281.248 224.711 281.281 224.604 281.348C224.497 281.414 224.413 281.513 224.349 281.643C224.287 281.773 224.256 281.932 224.256 282.121C224.256 282.31 224.287 282.469 224.349 282.599C224.413 282.729 224.497 282.828 224.604 282.895C224.711 282.961 224.831 282.995 224.963 282.995C225.035 282.995 225.105 282.985 225.172 282.965C225.239 282.945 225.299 282.915 225.354 282.876C225.409 282.837 225.456 282.788 225.495 282.73C225.534 282.672 225.561 282.605 225.577 282.53H225.841C225.821 282.642 225.785 282.741 225.732 282.83C225.68 282.918 225.614 282.993 225.536 283.054C225.458 283.115 225.37 283.162 225.273 283.194C225.176 283.226 225.073 283.242 224.963 283.242C224.777 283.242 224.611 283.196 224.467 283.105C224.322 283.015 224.208 282.885 224.125 282.718C224.042 282.55 224 282.351 224 282.121C224 281.891 224.042 281.692 224.125 281.524C224.208 281.357 224.322 281.228 224.467 281.137C224.611 281.046 224.777 281 224.963 281C225.073 281 225.176 281.016 225.273 281.048C225.37 281.08 225.458 281.127 225.536 281.189C225.614 281.25 225.68 281.325 225.732 281.413C225.785 281.5 225.821 281.6 225.841 281.712ZM226.268 283.212V281.03H227.005C227.175 281.03 227.315 281.059 227.425 281.118C227.534 281.175 227.615 281.254 227.668 281.355C227.72 281.456 227.747 281.571 227.747 281.699C227.747 281.828 227.72 281.942 227.668 282.041C227.615 282.141 227.535 282.219 227.426 282.276C227.317 282.332 227.178 282.36 227.009 282.36H226.413V282.121H227.001C227.117 282.121 227.211 282.104 227.282 282.07C227.354 282.036 227.406 281.988 227.438 281.925C227.47 281.862 227.487 281.787 227.487 281.699C227.487 281.612 227.47 281.536 227.438 281.47C227.405 281.405 227.353 281.354 227.281 281.319C227.209 281.283 227.114 281.265 226.997 281.265H226.532V283.212H226.268ZM227.295 282.232L227.832 283.212H227.525L226.997 282.232H227.295ZM228.276 283.212H227.999L228.8 281.03H229.073L229.874 283.212H229.597L228.945 281.375H228.928L228.276 283.212ZM228.379 282.36H229.495V282.594H228.379V282.36ZM230.214 283.212V281.03H230.478V282.002H231.642V281.03H231.906V283.212H231.642V282.236H230.478V283.212H230.214ZM234.007 281.03V283.212H233.743V281.307H233.73L233.198 281.661V281.392L233.743 281.03H234.007ZM235.346 283.242C235.186 283.242 235.049 283.198 234.936 283.111C234.823 283.023 234.737 282.895 234.677 282.728C234.618 282.561 234.588 282.358 234.588 282.121C234.588 281.885 234.618 281.684 234.677 281.517C234.738 281.349 234.824 281.222 234.937 281.134C235.051 281.045 235.187 281 235.346 281C235.505 281 235.641 281.045 235.754 281.134C235.868 281.222 235.955 281.349 236.014 281.517C236.075 281.684 236.105 281.885 236.105 282.121C236.105 282.358 236.075 282.561 236.015 282.728C235.956 282.895 235.869 283.023 235.757 283.111C235.644 283.198 235.507 283.242 235.346 283.242ZM235.346 283.007C235.505 283.007 235.629 282.931 235.717 282.777C235.805 282.624 235.849 282.405 235.849 282.121C235.849 281.932 235.829 281.771 235.789 281.638C235.749 281.506 235.691 281.404 235.616 281.335C235.541 281.265 235.452 281.23 235.346 281.23C235.189 281.23 235.065 281.308 234.977 281.464C234.888 281.619 234.844 281.838 234.844 282.121C234.844 282.31 234.863 282.471 234.903 282.603C234.943 282.735 235 282.835 235.075 282.904C235.15 282.973 235.241 283.007 235.346 283.007ZM239.148 281.712H238.883C238.868 281.636 238.84 281.569 238.801 281.512C238.763 281.454 238.716 281.406 238.661 281.367C238.606 281.327 238.545 281.297 238.478 281.277C238.412 281.257 238.342 281.248 238.27 281.248C238.138 281.248 238.018 281.281 237.911 281.348C237.804 281.414 237.719 281.513 237.656 281.643C237.594 281.773 237.562 281.932 237.562 282.121C237.562 282.31 237.594 282.469 237.656 282.599C237.719 282.729 237.804 282.828 237.911 282.895C238.018 282.961 238.138 282.995 238.27 282.995C238.342 282.995 238.412 282.985 238.478 282.965C238.545 282.945 238.606 282.915 238.661 282.876C238.716 282.837 238.763 282.788 238.801 282.73C238.84 282.672 238.868 282.605 238.883 282.53H239.148C239.128 282.642 239.091 282.741 239.039 282.83C238.986 282.918 238.921 282.993 238.843 283.054C238.765 283.115 238.677 283.162 238.58 283.194C238.483 283.226 238.38 283.242 238.27 283.242C238.084 283.242 237.918 283.196 237.773 283.105C237.628 283.015 237.514 282.885 237.431 282.718C237.348 282.55 237.307 282.351 237.307 282.121C237.307 281.891 237.348 281.692 237.431 281.524C237.514 281.357 237.628 281.228 237.773 281.137C237.918 281.046 238.084 281 238.27 281C238.38 281 238.483 281.016 238.58 281.048C238.677 281.08 238.765 281.127 238.843 281.189C238.921 281.25 238.986 281.325 239.039 281.413C239.091 281.5 239.128 281.6 239.148 281.712ZM239.574 283.212V281.03H240.312C240.482 281.03 240.622 281.059 240.731 281.118C240.841 281.175 240.922 281.254 240.974 281.355C241.027 281.456 241.053 281.571 241.053 281.699C241.053 281.828 241.027 281.942 240.974 282.041C240.922 282.141 240.841 282.219 240.732 282.276C240.624 282.332 240.485 282.36 240.316 282.36H239.719V282.121H240.307C240.424 282.121 240.518 282.104 240.589 282.07C240.66 282.036 240.712 281.988 240.744 281.925C240.777 281.862 240.793 281.787 240.793 281.699C240.793 281.612 240.777 281.536 240.744 281.47C240.712 281.405 240.659 281.354 240.588 281.319C240.516 281.283 240.421 281.265 240.303 281.265H239.839V283.212H239.574ZM240.601 282.232L241.138 283.212H240.832L240.303 282.232H240.601ZM241.583 283.212H241.306L242.107 281.03H242.38L243.181 283.212H242.904L242.252 281.375H242.235L241.583 283.212ZM241.685 282.36H242.802V282.594H241.685V282.36ZM243.521 283.212V281.03H243.785V282.002H244.948V281.03H245.213V283.212H244.948V282.236H243.785V283.212H243.521ZM247.314 281.03V283.212H247.05V281.307H247.037L246.504 281.661V281.392L247.05 281.03H247.314ZM248.653 283.242C248.493 283.242 248.356 283.198 248.243 283.111C248.13 283.023 248.044 282.895 247.984 282.728C247.924 282.561 247.895 282.358 247.895 282.121C247.895 281.885 247.924 281.684 247.984 281.517C248.044 281.349 248.131 281.222 248.244 281.134C248.358 281.045 248.494 281 248.653 281C248.812 281 248.948 281.045 249.061 281.134C249.175 281.222 249.261 281.349 249.321 281.517C249.381 281.684 249.412 281.885 249.412 282.121C249.412 282.358 249.382 282.561 249.322 282.728C249.262 282.895 249.176 283.023 249.063 283.111C248.95 283.198 248.814 283.242 248.653 283.242ZM248.653 283.007C248.812 283.007 248.936 282.931 249.024 282.777C249.112 282.624 249.156 282.405 249.156 282.121C249.156 281.932 249.136 281.771 249.095 281.638C249.055 281.506 248.998 281.404 248.923 281.335C248.848 281.265 248.758 281.23 248.653 281.23C248.495 281.23 248.372 281.308 248.283 281.464C248.195 281.619 248.15 281.838 248.15 282.121C248.15 282.31 248.17 282.471 248.21 282.603C248.25 282.735 248.307 282.835 248.381 282.904C248.457 282.973 248.547 283.007 248.653 283.007Z" fill="black"/>
<path d="M134.841 281.712H134.577C134.561 281.636 134.534 281.569 134.495 281.512C134.456 281.454 134.409 281.406 134.354 281.367C134.299 281.327 134.239 281.297 134.172 281.277C134.105 281.257 134.035 281.248 133.963 281.248C133.831 281.248 133.711 281.281 133.604 281.348C133.497 281.414 133.413 281.513 133.349 281.643C133.287 281.773 133.256 281.932 133.256 282.121C133.256 282.31 133.287 282.469 133.349 282.599C133.413 282.729 133.497 282.828 133.604 282.895C133.711 282.961 133.831 282.995 133.963 282.995C134.035 282.995 134.105 282.985 134.172 282.965C134.239 282.945 134.299 282.915 134.354 282.876C134.409 282.837 134.456 282.788 134.495 282.73C134.534 282.672 134.561 282.605 134.577 282.53H134.841C134.821 282.642 134.785 282.741 134.732 282.83C134.68 282.918 134.614 282.993 134.536 283.054C134.458 283.115 134.37 283.162 134.273 283.194C134.176 283.226 134.073 283.242 133.963 283.242C133.777 283.242 133.611 283.196 133.467 283.105C133.322 283.015 133.208 282.885 133.125 282.718C133.042 282.55 133 282.351 133 282.121C133 281.891 133.042 281.692 133.125 281.524C133.208 281.357 133.322 281.228 133.467 281.137C133.611 281.046 133.777 281 133.963 281C134.073 281 134.176 281.016 134.273 281.048C134.37 281.08 134.458 281.127 134.536 281.189C134.614 281.25 134.68 281.325 134.732 281.413C134.785 281.5 134.821 281.6 134.841 281.712ZM135.268 283.212V281.03H136.005C136.175 281.03 136.315 281.059 136.425 281.118C136.534 281.175 136.615 281.254 136.668 281.355C136.72 281.456 136.747 281.571 136.747 281.699C136.747 281.828 136.72 281.942 136.668 282.041C136.615 282.141 136.535 282.219 136.426 282.276C136.317 282.332 136.178 282.36 136.009 282.36H135.413V282.121H136.001C136.117 282.121 136.211 282.104 136.282 282.07C136.354 282.036 136.406 281.988 136.438 281.925C136.47 281.862 136.487 281.787 136.487 281.699C136.487 281.612 136.47 281.536 136.438 281.47C136.405 281.405 136.353 281.354 136.281 281.319C136.209 281.283 136.114 281.265 135.997 281.265H135.532V283.212H135.268ZM136.295 282.232L136.832 283.212H136.525L135.997 282.232H136.295ZM137.276 283.212H136.999L137.8 281.03H138.073L138.874 283.212H138.597L137.945 281.375H137.928L137.276 283.212ZM137.379 282.36H138.495V282.594H137.379V282.36ZM139.214 283.212V281.03H139.478V282.002H140.642V281.03H140.906V283.212H140.642V282.236H139.478V283.212H139.214ZM143.007 281.03V283.212H142.743V281.307H142.73L142.198 281.661V281.392L142.743 281.03H143.007ZM144.346 283.242C144.186 283.242 144.049 283.198 143.936 283.111C143.823 283.023 143.737 282.895 143.677 282.728C143.618 282.561 143.588 282.358 143.588 282.121C143.588 281.885 143.618 281.684 143.677 281.517C143.738 281.349 143.824 281.222 143.937 281.134C144.051 281.045 144.187 281 144.346 281C144.505 281 144.641 281.045 144.754 281.134C144.868 281.222 144.955 281.349 145.014 281.517C145.075 281.684 145.105 281.885 145.105 282.121C145.105 282.358 145.075 282.561 145.015 282.728C144.956 282.895 144.869 283.023 144.757 283.111C144.644 283.198 144.507 283.242 144.346 283.242ZM144.346 283.007C144.505 283.007 144.629 282.931 144.717 282.777C144.805 282.624 144.849 282.405 144.849 282.121C144.849 281.932 144.829 281.771 144.789 281.638C144.749 281.506 144.691 281.404 144.616 281.335C144.541 281.265 144.452 281.23 144.346 281.23C144.189 281.23 144.065 281.308 143.977 281.464C143.888 281.619 143.844 281.838 143.844 282.121C143.844 282.31 143.863 282.471 143.903 282.603C143.943 282.735 144 282.835 144.075 282.904C144.15 282.973 144.241 283.007 144.346 283.007ZM148.148 281.712H147.883C147.868 281.636 147.84 281.569 147.801 281.512C147.763 281.454 147.716 281.406 147.661 281.367C147.606 281.327 147.545 281.297 147.478 281.277C147.412 281.257 147.342 281.248 147.27 281.248C147.138 281.248 147.018 281.281 146.911 281.348C146.804 281.414 146.719 281.513 146.656 281.643C146.594 281.773 146.562 281.932 146.562 282.121C146.562 282.31 146.594 282.469 146.656 282.599C146.719 282.729 146.804 282.828 146.911 282.895C147.018 282.961 147.138 282.995 147.27 282.995C147.342 282.995 147.412 282.985 147.478 282.965C147.545 282.945 147.606 282.915 147.661 282.876C147.716 282.837 147.763 282.788 147.801 282.73C147.84 282.672 147.868 282.605 147.883 282.53H148.148C148.128 282.642 148.091 282.741 148.039 282.83C147.986 282.918 147.921 282.993 147.843 283.054C147.765 283.115 147.677 283.162 147.58 283.194C147.483 283.226 147.38 283.242 147.27 283.242C147.084 283.242 146.918 283.196 146.773 283.105C146.628 283.015 146.514 282.885 146.431 282.718C146.348 282.55 146.307 282.351 146.307 282.121C146.307 281.891 146.348 281.692 146.431 281.524C146.514 281.357 146.628 281.228 146.773 281.137C146.918 281.046 147.084 281 147.27 281C147.38 281 147.483 281.016 147.58 281.048C147.677 281.08 147.765 281.127 147.843 281.189C147.921 281.25 147.986 281.325 148.039 281.413C148.091 281.5 148.128 281.6 148.148 281.712ZM148.574 283.212V281.03H149.312C149.482 281.03 149.622 281.059 149.731 281.118C149.841 281.175 149.922 281.254 149.974 281.355C150.027 281.456 150.053 281.571 150.053 281.699C150.053 281.828 150.027 281.942 149.974 282.041C149.922 282.141 149.841 282.219 149.732 282.276C149.624 282.332 149.485 282.36 149.316 282.36H148.719V282.121H149.307C149.424 282.121 149.518 282.104 149.589 282.07C149.66 282.036 149.712 281.988 149.744 281.925C149.777 281.862 149.793 281.787 149.793 281.699C149.793 281.612 149.777 281.536 149.744 281.47C149.712 281.405 149.659 281.354 149.588 281.319C149.516 281.283 149.421 281.265 149.303 281.265H148.839V283.212H148.574ZM149.601 282.232L150.138 283.212H149.832L149.303 282.232H149.601ZM150.583 283.212H150.306L151.107 281.03H151.38L152.181 283.212H151.904L151.252 281.375H151.235L150.583 283.212ZM150.685 282.36H151.802V282.594H150.685V282.36ZM152.521 283.212V281.03H152.785V282.002H153.948V281.03H154.213V283.212H153.948V282.236H152.785V283.212H152.521ZM156.314 281.03V283.212H156.05V281.307H156.037L155.504 281.661V281.392L156.05 281.03H156.314ZM157.653 283.242C157.493 283.242 157.356 283.198 157.243 283.111C157.13 283.023 157.044 282.895 156.984 282.728C156.924 282.561 156.895 282.358 156.895 282.121C156.895 281.885 156.924 281.684 156.984 281.517C157.044 281.349 157.131 281.222 157.244 281.134C157.358 281.045 157.494 281 157.653 281C157.812 281 157.948 281.045 158.061 281.134C158.175 281.222 158.261 281.349 158.321 281.517C158.381 281.684 158.412 281.885 158.412 282.121C158.412 282.358 158.382 282.561 158.322 282.728C158.262 282.895 158.176 283.023 158.063 283.111C157.95 283.198 157.814 283.242 157.653 283.242ZM157.653 283.007C157.812 283.007 157.936 282.931 158.024 282.777C158.112 282.624 158.156 282.405 158.156 282.121C158.156 281.932 158.136 281.771 158.095 281.638C158.055 281.506 157.998 281.404 157.923 281.335C157.848 281.265 157.758 281.23 157.653 281.23C157.495 281.23 157.372 281.308 157.283 281.464C157.195 281.619 157.15 281.838 157.15 282.121C157.15 282.31 157.17 282.471 157.21 282.603C157.25 282.735 157.307 282.835 157.381 282.904C157.457 282.973 157.547 283.007 157.653 283.007Z" fill="black"/>
<path d="M205.9 161.1H193.5V175.9H205.9V161.1Z" fill="#0000FF" fill-opacity="0.1" stroke="black" stroke-width="0.2"/>
<path d="M195.892 170.034C195.738 170.034 195.606 169.998 195.496 169.925C195.385 169.853 195.3 169.753 195.24 169.626C195.18 169.499 195.15 169.354 195.15 169.19C195.15 169.024 195.181 168.877 195.242 168.75C195.304 168.623 195.39 168.523 195.5 168.451C195.611 168.379 195.74 168.342 195.888 168.342C196.003 168.342 196.106 168.364 196.199 168.406C196.291 168.449 196.367 168.509 196.426 168.585C196.485 168.662 196.521 168.751 196.535 168.854H196.284C196.265 168.779 196.222 168.713 196.156 168.656C196.091 168.597 196.003 168.568 195.892 168.568C195.794 168.568 195.708 168.594 195.634 168.645C195.561 168.695 195.504 168.767 195.463 168.859C195.422 168.951 195.402 169.058 195.402 169.182C195.402 169.308 195.422 169.418 195.461 169.512C195.502 169.606 195.559 169.679 195.632 169.73C195.706 169.782 195.792 169.808 195.892 169.808C195.957 169.808 196.017 169.797 196.07 169.774C196.123 169.751 196.168 169.719 196.205 169.676C196.242 169.634 196.268 169.582 196.284 169.523H196.535C196.521 169.619 196.486 169.706 196.43 169.784C196.374 169.86 196.301 169.922 196.209 169.967C196.118 170.012 196.013 170.034 195.892 170.034ZM197.568 170.034C197.42 170.034 197.29 169.999 197.179 169.929C197.068 169.858 196.981 169.76 196.919 169.634C196.857 169.507 196.826 169.359 196.826 169.19C196.826 169.02 196.857 168.871 196.919 168.744C196.981 168.617 197.068 168.518 197.179 168.448C197.29 168.377 197.42 168.342 197.568 168.342C197.715 168.342 197.845 168.377 197.955 168.448C198.067 168.518 198.154 168.617 198.215 168.744C198.278 168.871 198.309 169.02 198.309 169.19C198.309 169.359 198.278 169.507 198.215 169.634C198.154 169.76 198.067 169.858 197.955 169.929C197.845 169.999 197.715 170.034 197.568 170.034ZM197.568 169.808C197.68 169.808 197.772 169.779 197.845 169.722C197.917 169.664 197.971 169.589 198.006 169.495C198.04 169.401 198.058 169.3 198.058 169.19C198.058 169.081 198.04 168.979 198.006 168.885C197.971 168.79 197.917 168.714 197.845 168.656C197.772 168.597 197.68 168.568 197.568 168.568C197.455 168.568 197.363 168.597 197.291 168.656C197.218 168.714 197.165 168.79 197.13 168.885C197.095 168.979 197.078 169.081 197.078 169.19C197.078 169.3 197.095 169.401 197.13 169.495C197.165 169.589 197.218 169.664 197.291 169.722C197.363 169.779 197.455 169.808 197.568 169.808ZM199.358 170.034C199.21 170.034 199.08 169.999 198.969 169.929C198.858 169.858 198.771 169.76 198.709 169.634C198.647 169.507 198.616 169.359 198.616 169.19C198.616 169.02 198.647 168.871 198.709 168.744C198.771 168.617 198.858 168.518 198.969 168.448C199.08 168.377 199.21 168.342 199.358 168.342C199.505 168.342 199.635 168.377 199.745 168.448C199.857 168.518 199.944 168.617 200.005 168.744C200.068 168.871 200.099 169.02 200.099 169.19C200.099 169.359 200.068 169.507 200.005 169.634C199.944 169.76 199.857 169.858 199.745 169.929C199.635 169.999 199.505 170.034 199.358 170.034ZM199.358 169.808C199.47 169.808 199.562 169.779 199.635 169.722C199.707 169.664 199.761 169.589 199.796 169.495C199.83 169.401 199.848 169.3 199.848 169.19C199.848 169.081 199.83 168.979 199.796 168.885C199.761 168.79 199.707 168.714 199.635 168.656C199.562 168.597 199.47 168.568 199.358 168.568C199.245 168.568 199.153 168.597 199.081 168.656C199.008 168.714 198.955 168.79 198.92 168.885C198.885 168.979 198.868 169.081 198.868 169.19C198.868 169.3 198.885 169.401 198.92 169.495C198.955 169.589 199.008 169.664 199.081 169.722C199.153 169.779 199.245 169.808 199.358 169.808ZM200.734 167.818V170H200.483V167.818H200.734ZM201.195 170V168.364H201.446V170H201.195ZM201.323 168.091C201.274 168.091 201.231 168.074 201.196 168.041C201.161 168.007 201.144 167.967 201.144 167.92C201.144 167.874 201.161 167.833 201.196 167.8C201.231 167.767 201.274 167.75 201.323 167.75C201.372 167.75 201.414 167.767 201.448 167.8C201.484 167.833 201.502 167.874 201.502 167.92C201.502 167.967 201.484 168.007 201.448 168.041C201.414 168.074 201.372 168.091 201.323 168.091ZM202.158 169.016V170H201.907V168.364H202.15V168.619H202.171C202.209 168.536 202.268 168.469 202.346 168.419C202.424 168.368 202.525 168.342 202.648 168.342C202.759 168.342 202.856 168.365 202.939 168.411C203.022 168.455 203.087 168.523 203.133 168.615C203.179 168.706 203.202 168.821 203.202 168.96V170H202.951V168.977C202.951 168.849 202.917 168.749 202.851 168.677C202.784 168.604 202.692 168.568 202.576 168.568C202.496 168.568 202.424 168.586 202.361 168.62C202.298 168.655 202.249 168.706 202.213 168.773C202.176 168.839 202.158 168.92 202.158 169.016ZM204.322 170.648C204.201 170.648 204.096 170.632 204.009 170.601C203.922 170.57 203.849 170.53 203.791 170.479C203.733 170.43 203.687 170.376 203.653 170.32L203.853 170.179C203.876 170.209 203.905 170.243 203.94 170.281C203.975 170.32 204.022 170.354 204.082 170.382C204.144 170.412 204.223 170.426 204.322 170.426C204.454 170.426 204.563 170.394 204.649 170.33C204.735 170.266 204.778 170.166 204.778 170.03V169.697H204.757C204.738 169.727 204.712 169.764 204.678 169.808C204.645 169.852 204.596 169.89 204.533 169.924C204.471 169.958 204.386 169.974 204.28 169.974C204.147 169.974 204.029 169.943 203.924 169.881C203.819 169.818 203.737 169.727 203.676 169.608C203.615 169.489 203.585 169.344 203.585 169.173C203.585 169.006 203.614 168.86 203.673 168.735C203.732 168.61 203.814 168.514 203.919 168.446C204.025 168.377 204.146 168.342 204.284 168.342C204.39 168.342 204.475 168.36 204.537 168.396C204.601 168.43 204.649 168.47 204.682 168.515C204.716 168.559 204.743 168.595 204.761 168.624H204.787V168.364H205.03V170.047C205.03 170.188 204.998 170.302 204.934 170.39C204.87 170.479 204.785 170.544 204.678 170.585C204.571 170.627 204.453 170.648 204.322 170.648ZM204.314 169.749C204.415 169.749 204.5 169.725 204.569 169.679C204.639 169.633 204.692 169.567 204.728 169.48C204.764 169.393 204.782 169.29 204.782 169.169C204.782 169.051 204.765 168.947 204.729 168.857C204.694 168.767 204.641 168.696 204.571 168.645C204.502 168.594 204.416 168.568 204.314 168.568C204.207 168.568 204.118 168.595 204.047 168.649C203.977 168.703 203.924 168.776 203.889 168.866C203.854 168.957 203.836 169.058 203.836 169.169C203.836 169.283 203.854 169.383 203.89 169.471C203.926 169.557 203.979 169.625 204.049 169.675C204.12 169.724 204.209 169.749 204.314 169.749Z" fill="black"/>
<path d="M206 89H193.5V104H206V89Z" fill="#0000FF" fill-opacity="0.1" stroke="black" stroke-width="0.2"/>
<path d="M195.892 97.0341C195.738 97.0341 195.606 96.9979 195.496 96.9254C195.385 96.853 195.3 96.7532 195.24 96.6261C195.18 96.4989 195.15 96.3537 195.15 96.1903C195.15 96.0241 195.181 95.8775 195.242 95.7504C195.304 95.6225 195.39 95.5227 195.5 95.451C195.611 95.3786 195.74 95.3423 195.888 95.3423C196.003 95.3423 196.106 95.3636 196.199 95.4062C196.291 95.4489 196.367 95.5085 196.426 95.5852C196.485 95.6619 196.521 95.7514 196.535 95.8537H196.284C196.265 95.7791 196.222 95.7131 196.156 95.6555C196.091 95.5973 196.003 95.5682 195.892 95.5682C195.794 95.5682 195.708 95.5937 195.634 95.6449C195.561 95.6953 195.504 95.7667 195.463 95.859C195.422 95.9506 195.402 96.0582 195.402 96.1818C195.402 96.3082 195.422 96.4183 195.461 96.5121C195.502 96.6058 195.559 96.6786 195.632 96.7305C195.706 96.7823 195.792 96.8082 195.892 96.8082C195.957 96.8082 196.017 96.7969 196.07 96.7741C196.123 96.7514 196.168 96.7188 196.205 96.6761C196.242 96.6335 196.268 96.5824 196.284 96.5227H196.535C196.521 96.6193 196.486 96.7063 196.43 96.7837C196.374 96.8604 196.301 96.9215 196.209 96.967C196.118 97.0117 196.013 97.0341 195.892 97.0341ZM197.568 97.0341C197.42 97.0341 197.29 96.9989 197.179 96.9286C197.068 96.8583 196.981 96.7599 196.919 96.6335C196.857 96.5071 196.826 96.3594 196.826 96.1903C196.826 96.0199 196.857 95.8711 196.919 95.744C196.981 95.6168 197.068 95.5181 197.179 95.4478C197.29 95.3775 197.42 95.3423 197.568 95.3423C197.715 95.3423 197.845 95.3775 197.955 95.4478C198.067 95.5181 198.154 95.6168 198.215 95.744C198.278 95.8711 198.309 96.0199 198.309 96.1903C198.309 96.3594 198.278 96.5071 198.215 96.6335C198.154 96.7599 198.067 96.8583 197.955 96.9286C197.845 96.9989 197.715 97.0341 197.568 97.0341ZM197.568 96.8082C197.68 96.8082 197.772 96.7795 197.845 96.7219C197.917 96.6644 197.971 96.5888 198.006 96.495C198.04 96.4013 198.058 96.2997 198.058 96.1903C198.058 96.081 198.04 95.979 198.006 95.8846C197.971 95.7901 197.917 95.7138 197.845 95.6555C197.772 95.5973 197.68 95.5682 197.568 95.5682C197.455 95.5682 197.363 95.5973 197.291 95.6555C197.218 95.7138 197.165 95.7901 197.13 95.8846C197.095 95.979 197.078 96.081 197.078 96.1903C197.078 96.2997 197.095 96.4013 197.13 96.495C197.165 96.5888 197.218 96.6644 197.291 96.7219C197.363 96.7795 197.455 96.8082 197.568 96.8082ZM199.358 97.0341C199.21 97.0341 199.08 96.9989 198.969 96.9286C198.858 96.8583 198.771 96.7599 198.709 96.6335C198.647 96.5071 198.616 96.3594 198.616 96.1903C198.616 96.0199 198.647 95.8711 198.709 95.744C198.771 95.6168 198.858 95.5181 198.969 95.4478C199.08 95.3775 199.21 95.3423 199.358 95.3423C199.505 95.3423 199.635 95.3775 199.745 95.4478C199.857 95.5181 199.944 95.6168 200.005 95.744C200.068 95.8711 200.099 96.0199 200.099 96.1903C200.099 96.3594 200.068 96.5071 200.005 96.6335C199.944 96.7599 199.857 96.8583 199.745 96.9286C199.635 96.9989 199.505 97.0341 199.358 97.0341ZM199.358 96.8082C199.47 96.8082 199.562 96.7795 199.635 96.7219C199.707 96.6644 199.761 96.5888 199.796 96.495C199.83 96.4013 199.848 96.2997 199.848 96.1903C199.848 96.081 199.83 95.979 199.796 95.8846C199.761 95.7901 199.707 95.7138 199.635 95.6555C199.562 95.5973 199.47 95.5682 199.358 95.5682C199.245 95.5682 199.153 95.5973 199.081 95.6555C199.008 95.7138 198.955 95.7901 198.92 95.8846C198.885 95.979 198.868 96.081 198.868 96.1903C198.868 96.2997 198.885 96.4013 198.92 96.495C198.955 96.5888 199.008 96.6644 199.081 96.7219C199.153 96.7795 199.245 96.8082 199.358 96.8082ZM200.734 94.8182V97H200.483V94.8182H200.734ZM201.195 97V95.3636H201.446V97H201.195ZM201.323 95.0909C201.274 95.0909 201.231 95.0742 201.196 95.0408C201.161 95.0075 201.144 94.9673 201.144 94.9205C201.144 94.8736 201.161 94.8335 201.196 94.8001C201.231 94.7667 201.274 94.75 201.323 94.75C201.372 94.75 201.414 94.7667 201.448 94.8001C201.484 94.8335 201.502 94.8736 201.502 94.9205C201.502 94.9673 201.484 95.0075 201.448 95.0408C201.414 95.0742 201.372 95.0909 201.323 95.0909ZM202.158 96.0156V97H201.907V95.3636H202.15V95.6193H202.171C202.209 95.5362 202.268 95.4695 202.346 95.419C202.424 95.3679 202.525 95.3423 202.648 95.3423C202.759 95.3423 202.856 95.3651 202.939 95.4105C203.022 95.4553 203.087 95.5234 203.133 95.6151C203.179 95.706 203.202 95.821 203.202 95.9602V97H202.951V95.9773C202.951 95.8487 202.917 95.7486 202.851 95.6768C202.784 95.6044 202.692 95.5682 202.576 95.5682C202.496 95.5682 202.424 95.5856 202.361 95.6204C202.298 95.6552 202.249 95.706 202.213 95.7727C202.176 95.8395 202.158 95.9205 202.158 96.0156ZM204.322 97.6477C204.201 97.6477 204.096 97.6321 204.009 97.6009C203.922 97.5703 203.849 97.5298 203.791 97.4794C203.733 97.4297 203.687 97.3764 203.653 97.3196L203.853 97.179C203.876 97.2088 203.905 97.2429 203.94 97.2812C203.975 97.3203 204.022 97.354 204.082 97.3825C204.144 97.4116 204.223 97.4261 204.322 97.4261C204.454 97.4261 204.563 97.3942 204.649 97.3303C204.735 97.2663 204.778 97.1662 204.778 97.0298V96.6974H204.757C204.738 96.7273 204.712 96.7642 204.678 96.8082C204.645 96.8516 204.596 96.8903 204.533 96.9244C204.471 96.9577 204.386 96.9744 204.28 96.9744C204.147 96.9744 204.029 96.9432 203.924 96.8807C203.819 96.8182 203.737 96.7273 203.676 96.608C203.615 96.4886 203.585 96.3437 203.585 96.1733C203.585 96.0057 203.614 95.8597 203.673 95.7354C203.732 95.6104 203.814 95.5138 203.919 95.4457C204.025 95.3768 204.146 95.3423 204.284 95.3423C204.39 95.3423 204.475 95.3601 204.537 95.3956C204.601 95.4304 204.649 95.4702 204.682 95.5149C204.716 95.5589 204.743 95.5952 204.761 95.6236H204.787V95.3636H205.03V97.0469C205.03 97.1875 204.998 97.3018 204.934 97.3899C204.87 97.4787 204.785 97.5437 204.678 97.5849C204.571 97.6268 204.453 97.6477 204.322 97.6477ZM204.314 96.7486C204.415 96.7486 204.5 96.7255 204.569 96.6793C204.639 96.6332 204.692 96.5668 204.728 96.4801C204.764 96.3935 204.782 96.2898 204.782 96.169C204.782 96.0511 204.765 95.9471 204.729 95.8569C204.694 95.7667 204.641 95.696 204.571 95.6449C204.502 95.5937 204.416 95.5682 204.314 95.5682C204.207 95.5682 204.118 95.5952 204.047 95.6491C203.977 95.7031 203.924 95.7756 203.889 95.8665C203.854 95.9574 203.836 96.0582 203.836 96.169C203.836 96.2827 203.854 96.3832 203.89 96.4705C203.926 96.5572 203.979 96.6254 204.049 96.6751C204.12 96.7241 204.209 96.7486 204.314 96.7486Z" fill="black"/>
<path d="M56 61H13V76H56V61Z" stroke="black" stroke-width="0.1"/>
<path d="M31.8523 67.3068L31.5511 67.392C31.5322 67.3419 31.5043 67.2931 31.4673 67.2457C31.4313 67.1974 31.3821 67.1577 31.3196 67.1264C31.2571 67.0952 31.1771 67.0795 31.0795 67.0795C30.946 67.0795 30.8348 67.1103 30.7457 67.1719C30.6577 67.2325 30.6136 67.3097 30.6136 67.4034C30.6136 67.4867 30.6439 67.5526 30.7045 67.6009C30.7652 67.6491 30.8598 67.6894 30.9886 67.7216L31.3125 67.8011C31.5076 67.8485 31.6529 67.9209 31.7486 68.0185C31.8442 68.1151 31.892 68.2396 31.892 68.392C31.892 68.517 31.8561 68.6288 31.7841 68.7273C31.7131 68.8258 31.6136 68.9034 31.4858 68.9602C31.358 69.017 31.2093 69.0455 31.0398 69.0455C30.8172 69.0455 30.633 68.9972 30.4872 68.9006C30.3414 68.804 30.2491 68.6629 30.2102 68.4773L30.5284 68.3977C30.5587 68.5152 30.616 68.6032 30.7003 68.6619C30.7855 68.7206 30.8968 68.75 31.0341 68.75C31.1903 68.75 31.3144 68.7169 31.4062 68.6506C31.4991 68.5833 31.5455 68.5028 31.5455 68.4091C31.5455 68.3333 31.5189 68.2699 31.4659 68.2188C31.4129 68.1667 31.3314 68.1278 31.2216 68.1023L30.858 68.017C30.6581 67.9697 30.5114 67.8963 30.4176 67.7969C30.3248 67.6965 30.2784 67.571 30.2784 67.4205C30.2784 67.2973 30.313 67.1884 30.3821 67.0938C30.4522 66.9991 30.5473 66.9247 30.6676 66.8707C30.7888 66.8168 30.9261 66.7898 31.0795 66.7898C31.2955 66.7898 31.465 66.8371 31.5881 66.9318C31.7121 67.0265 31.8002 67.1515 31.8523 67.3068ZM32.7319 66.0909V69H32.3967V66.0909H32.7319ZM34.2322 69.0455C34.0353 69.0455 33.8625 68.9986 33.7138 68.9048C33.5661 68.8111 33.4505 68.6799 33.3672 68.5114C33.2848 68.3428 33.2436 68.1458 33.2436 67.9205C33.2436 67.6932 33.2848 67.4948 33.3672 67.3253C33.4505 67.1558 33.5661 67.0241 33.7138 66.9304C33.8625 66.8366 34.0353 66.7898 34.2322 66.7898C34.4292 66.7898 34.6016 66.8366 34.7493 66.9304C34.898 67.0241 35.0135 67.1558 35.0959 67.3253C35.1792 67.4948 35.2209 67.6932 35.2209 67.9205C35.2209 68.1458 35.1792 68.3428 35.0959 68.5114C35.0135 68.6799 34.898 68.8111 34.7493 68.9048C34.6016 68.9986 34.4292 69.0455 34.2322 69.0455ZM34.2322 68.7443C34.3819 68.7443 34.505 68.706 34.6016 68.6293C34.6982 68.5526 34.7696 68.4517 34.8161 68.3267C34.8625 68.2017 34.8857 68.0663 34.8857 67.9205C34.8857 67.7746 34.8625 67.6387 34.8161 67.5128C34.7696 67.3868 34.6982 67.285 34.6016 67.2074C34.505 67.1297 34.3819 67.0909 34.2322 67.0909C34.0826 67.0909 33.9595 67.1297 33.8629 67.2074C33.7663 67.285 33.6948 67.3868 33.6484 67.5128C33.602 67.6387 33.5788 67.7746 33.5788 67.9205C33.5788 68.0663 33.602 68.2017 33.6484 68.3267C33.6948 68.4517 33.7663 68.5526 33.8629 68.6293C33.9595 68.706 34.0826 68.7443 34.2322 68.7443ZM35.7326 69.8182V66.8182H36.0565V67.1648H36.0962C36.1209 67.1269 36.1549 67.0786 36.1985 67.0199C36.243 66.9602 36.3065 66.9072 36.3888 66.8608C36.4722 66.8134 36.5849 66.7898 36.7269 66.7898C36.9106 66.7898 37.0726 66.8357 37.2127 66.9276C37.3529 67.0194 37.4622 67.1496 37.5408 67.3182C37.6194 67.4867 37.6587 67.6856 37.6587 67.9148C37.6587 68.1458 37.6194 68.3461 37.5408 68.5156C37.4622 68.6842 37.3533 68.8149 37.2141 68.9077C37.0749 68.9995 36.9144 69.0455 36.7326 69.0455C36.5924 69.0455 36.4802 69.0223 36.396 68.9759C36.3117 68.9285 36.2468 68.875 36.2013 68.8153C36.1559 68.7547 36.1209 68.7045 36.0962 68.6648H36.0678V69.8182H35.7326ZM36.0621 67.9091C36.0621 68.0739 36.0863 68.2192 36.1346 68.3452C36.1829 68.4702 36.2534 68.5682 36.3462 68.6392C36.439 68.7093 36.5527 68.7443 36.6871 68.7443C36.8273 68.7443 36.9442 68.7074 37.038 68.6335C37.1327 68.5587 37.2037 68.4583 37.2511 68.3324C37.2994 68.2055 37.3235 68.0644 37.3235 67.9091C37.3235 67.7557 37.2998 67.6174 37.2525 67.4943C37.2061 67.3703 37.1355 67.2723 37.0408 67.2003C36.9471 67.1274 36.8292 67.0909 36.6871 67.0909C36.5508 67.0909 36.4362 67.1255 36.3434 67.1946C36.2506 67.2628 36.1805 67.3584 36.1332 67.4815C36.0858 67.6037 36.0621 67.7462 36.0621 67.9091ZM39.0849 69.0455C38.8746 69.0455 38.6933 68.9991 38.5408 68.9062C38.3893 68.8125 38.2724 68.6818 38.19 68.5142C38.1085 68.3456 38.0678 68.1496 38.0678 67.9261C38.0678 67.7027 38.1085 67.5057 38.19 67.3352C38.2724 67.1638 38.387 67.0303 38.5337 66.9347C38.6815 66.8381 38.8538 66.7898 39.0508 66.7898C39.1644 66.7898 39.2766 66.8087 39.3874 66.8466C39.4982 66.8845 39.5991 66.946 39.69 67.0312C39.7809 67.1155 39.8533 67.2273 39.9073 67.3665C39.9613 67.5057 39.9883 67.6771 39.9883 67.8807V68.0227H38.3065V67.733H39.6474C39.6474 67.6098 39.6228 67.5 39.5735 67.4034C39.5252 67.3068 39.4561 67.2306 39.3661 67.1747C39.2771 67.1188 39.172 67.0909 39.0508 67.0909C38.9173 67.0909 38.8017 67.1241 38.7042 67.1903C38.6076 67.2557 38.5333 67.3409 38.4812 67.446C38.4291 67.5511 38.4031 67.6638 38.4031 67.7841V67.9773C38.4031 68.142 38.4315 68.2817 38.4883 68.3963C38.546 68.5099 38.6261 68.5966 38.7283 68.6562C38.8306 68.715 38.9495 68.7443 39.0849 68.7443C39.1729 68.7443 39.2525 68.732 39.3235 68.7074C39.3955 68.6818 39.4575 68.6439 39.5096 68.5938C39.5617 68.5426 39.6019 68.4792 39.6303 68.4034L39.9542 68.4943C39.9201 68.6042 39.8628 68.7008 39.7823 68.7841C39.7018 68.8665 39.6024 68.9309 39.484 68.9773C39.3656 69.0227 39.2326 69.0455 39.0849 69.0455Z" fill="black"/>
<path d="M46.3523 18V15.0909H48.108V15.4034H46.7045V16.3864H48.017V16.6989H46.7045V17.6875H48.1307V18H46.3523ZM48.9474 15.8182L49.4702 16.7102L49.9929 15.8182H50.3793L49.6747 16.9091L50.3793 18H49.9929L49.4702 17.1534L48.9474 18H48.5611L49.2543 16.9091L48.5611 15.8182H48.9474ZM51.6541 18.0455C51.4496 18.0455 51.2734 17.9972 51.1257 17.9006C50.978 17.804 50.8643 17.6709 50.7848 17.5014C50.7053 17.3319 50.6655 17.1383 50.6655 16.9205C50.6655 16.6989 50.7062 16.5033 50.7876 16.3338C50.87 16.1634 50.9846 16.0303 51.1314 15.9347C51.2791 15.8381 51.4515 15.7898 51.6484 15.7898C51.8018 15.7898 51.9401 15.8182 52.0632 15.875C52.1863 15.9318 52.2872 16.0114 52.3658 16.1136C52.4444 16.2159 52.4931 16.3352 52.5121 16.4716H52.1768C52.1513 16.3722 52.0945 16.2841 52.0064 16.2074C51.9193 16.1297 51.8018 16.0909 51.6541 16.0909C51.5234 16.0909 51.4089 16.125 51.3104 16.1932C51.2128 16.2604 51.1366 16.3556 51.0817 16.4787C51.0277 16.6009 51.0007 16.7443 51.0007 16.9091C51.0007 17.0777 51.0272 17.2244 51.0803 17.3494C51.1342 17.4744 51.21 17.5715 51.3075 17.6406C51.406 17.7098 51.5215 17.7443 51.6541 17.7443C51.7412 17.7443 51.8203 17.7292 51.8913 17.6989C51.9624 17.6686 52.0225 17.625 52.0717 17.5682C52.121 17.5114 52.156 17.4432 52.1768 17.3636H52.5121C52.4931 17.4924 52.4463 17.6084 52.3714 17.7116C52.2976 17.8139 52.1996 17.8954 52.0774 17.956C51.9562 18.0156 51.8151 18.0455 51.6541 18.0455ZM53.3374 15.0909V18H53.0021V15.0909H53.3374ZM55.3263 17.108V15.8182H55.6616V18H55.3263V17.6307H55.3036C55.2525 17.7415 55.1729 17.8357 55.065 17.9134C54.957 17.9901 54.8207 18.0284 54.6559 18.0284C54.5195 18.0284 54.3983 17.9986 54.2923 17.9389C54.1862 17.8783 54.1029 17.7874 54.0423 17.6662C53.9817 17.544 53.9513 17.3902 53.9513 17.2045V15.8182H54.2866V17.1818C54.2866 17.3409 54.3311 17.4678 54.4201 17.5625C54.5101 17.6572 54.6246 17.7045 54.7638 17.7045C54.8472 17.7045 54.9319 17.6832 55.0181 17.6406C55.1052 17.598 55.1781 17.5327 55.2369 17.4446C55.2965 17.3565 55.3263 17.2443 55.3263 17.108ZM57.0994 18.0455C56.9176 18.0455 56.7571 17.9995 56.6179 17.9077C56.4787 17.8149 56.3698 17.6842 56.2912 17.5156C56.2126 17.3461 56.1733 17.1458 56.1733 16.9148C56.1733 16.6856 56.2126 16.4867 56.2912 16.3182C56.3698 16.1496 56.4792 16.0194 56.6193 15.9276C56.7595 15.8357 56.9214 15.7898 57.1051 15.7898C57.2472 15.7898 57.3594 15.8134 57.4418 15.8608C57.5251 15.9072 57.5885 15.9602 57.6321 16.0199C57.6766 16.0786 57.7112 16.1269 57.7358 16.1648H57.7642V15.0909H58.0994V18H57.7756V17.6648H57.7358C57.7112 17.7045 57.6761 17.7547 57.6307 17.8153C57.5852 17.875 57.5204 17.9285 57.4361 17.9759C57.3518 18.0223 57.2396 18.0455 57.0994 18.0455ZM57.1449 17.7443C57.2794 17.7443 57.393 17.7093 57.4858 17.6392C57.5786 17.5682 57.6491 17.4702 57.6974 17.3452C57.7457 17.2192 57.7699 17.0739 57.7699 16.9091C57.7699 16.7462 57.7462 16.6037 57.6989 16.4815C57.6515 16.3584 57.5814 16.2628 57.4886 16.1946C57.3958 16.1255 57.2813 16.0909 57.1449 16.0909C57.0028 16.0909 56.8845 16.1274 56.7898 16.2003C56.696 16.2723 56.6255 16.3703 56.5781 16.4943C56.5317 16.6174 56.5085 16.7557 56.5085 16.9091C56.5085 17.0644 56.5322 17.2055 56.5795 17.3324C56.6278 17.4583 56.6989 17.5587 56.7926 17.6335C56.8873 17.7074 57.0047 17.7443 57.1449 17.7443ZM59.6747 18.0455C59.4645 18.0455 59.2831 17.9991 59.1307 17.9062C58.9792 17.8125 58.8622 17.6818 58.7798 17.5142C58.6984 17.3456 58.6577 17.1496 58.6577 16.9261C58.6577 16.7027 58.6984 16.5057 58.7798 16.3352C58.8622 16.1638 58.9768 16.0303 59.1236 15.9347C59.2713 15.8381 59.4437 15.7898 59.6406 15.7898C59.7543 15.7898 59.8665 15.8087 59.9773 15.8466C60.0881 15.8845 60.1889 15.946 60.2798 16.0312C60.3707 16.1155 60.4432 16.2273 60.4972 16.3665C60.5511 16.5057 60.5781 16.6771 60.5781 16.8807V17.0227H58.8963V16.733H60.2372C60.2372 16.6098 60.2126 16.5 60.1634 16.4034C60.1151 16.3068 60.0459 16.2306 59.956 16.1747C59.867 16.1188 59.7618 16.0909 59.6406 16.0909C59.5071 16.0909 59.3916 16.1241 59.294 16.1903C59.1974 16.2557 59.1231 16.3409 59.071 16.446C59.0189 16.5511 58.9929 16.6638 58.9929 16.7841V16.9773C58.9929 17.142 59.0213 17.2817 59.0781 17.3963C59.1359 17.5099 59.2159 17.5966 59.3182 17.6562C59.4205 17.715 59.5393 17.7443 59.6747 17.7443C59.7628 17.7443 59.8423 17.732 59.9134 17.7074C59.9853 17.6818 60.0473 17.6439 60.0994 17.5938C60.1515 17.5426 60.1918 17.4792 60.2202 17.4034L60.544 17.4943C60.5099 17.6042 60.4527 17.7008 60.3722 17.7841C60.2917 17.8665 60.1922 17.9309 60.0739 17.9773C59.9555 18.0227 59.8224 18.0455 59.6747 18.0455ZM63.0994 18.0455C62.8949 18.0455 62.7188 17.9972 62.571 17.9006C62.4233 17.804 62.3097 17.6709 62.2301 17.5014C62.1506 17.3319 62.1108 17.1383 62.1108 16.9205C62.1108 16.6989 62.1515 16.5033 62.233 16.3338C62.3153 16.1634 62.4299 16.0303 62.5767 15.9347C62.7244 15.8381 62.8968 15.7898 63.0938 15.7898C63.2472 15.7898 63.3854 15.8182 63.5085 15.875C63.6316 15.9318 63.7325 16.0114 63.8111 16.1136C63.8897 16.2159 63.9384 16.3352 63.9574 16.4716H63.6222C63.5966 16.3722 63.5398 16.2841 63.4517 16.2074C63.3646 16.1297 63.2472 16.0909 63.0994 16.0909C62.9688 16.0909 62.8542 16.125 62.7557 16.1932C62.6581 16.2604 62.5819 16.3556 62.527 16.4787C62.473 16.6009 62.446 16.7443 62.446 16.9091C62.446 17.0777 62.4725 17.2244 62.5256 17.3494C62.5795 17.4744 62.6553 17.5715 62.7528 17.6406C62.8513 17.7098 62.9669 17.7443 63.0994 17.7443C63.1866 17.7443 63.2656 17.7292 63.3366 17.6989C63.4077 17.6686 63.4678 17.625 63.517 17.5682C63.5663 17.5114 63.6013 17.4432 63.6222 17.3636H63.9574C63.9384 17.4924 63.8916 17.6084 63.8168 17.7116C63.7429 17.8139 63.6449 17.8954 63.5227 17.956C63.4015 18.0156 63.2604 18.0455 63.0994 18.0455ZM65.8224 17.108V15.8182H66.1577V18H65.8224V17.6307H65.7997C65.7486 17.7415 65.669 17.8357 65.5611 17.9134C65.4531 17.9901 65.3168 18.0284 65.152 18.0284C65.0156 18.0284 64.8944 17.9986 64.7884 17.9389C64.6823 17.8783 64.599 17.7874 64.5384 17.6662C64.4777 17.544 64.4474 17.3902 64.4474 17.2045V15.8182H64.7827V17.1818C64.7827 17.3409 64.8272 17.4678 64.9162 17.5625C65.0062 17.6572 65.1207 17.7045 65.2599 17.7045C65.3433 17.7045 65.428 17.6832 65.5142 17.6406C65.6013 17.598 65.6742 17.5327 65.733 17.4446C65.7926 17.3565 65.8224 17.2443 65.8224 17.108ZM66.8171 18V15.0909H67.1523V16.1648H67.1808C67.2054 16.1269 67.2395 16.0786 67.283 16.0199C67.3275 15.9602 67.391 15.9072 67.4734 15.8608C67.5567 15.8134 67.6694 15.7898 67.8114 15.7898C67.9951 15.7898 68.1571 15.8357 68.2972 15.9276C68.4374 16.0194 68.5468 16.1496 68.6254 16.3182C68.704 16.4867 68.7433 16.6856 68.7433 16.9148C68.7433 17.1458 68.704 17.3461 68.6254 17.5156C68.5468 17.6842 68.4379 17.8149 68.2987 17.9077C68.1594 17.9995 67.9989 18.0455 67.8171 18.0455C67.677 18.0455 67.5647 18.0223 67.4805 17.9759C67.3962 17.9285 67.3313 17.875 67.2859 17.8153C67.2404 17.7547 67.2054 17.7045 67.1808 17.6648H67.141V18H66.8171ZM67.1467 16.9091C67.1467 17.0739 67.1708 17.2192 67.2191 17.3452C67.2674 17.4702 67.3379 17.5682 67.4308 17.6392C67.5236 17.7093 67.6372 17.7443 67.7717 17.7443C67.9118 17.7443 68.0288 17.7074 68.1225 17.6335C68.2172 17.5587 68.2882 17.4583 68.3356 17.3324C68.3839 17.2055 68.408 17.0644 68.408 16.9091C68.408 16.7557 68.3844 16.6174 68.337 16.4943C68.2906 16.3703 68.2201 16.2723 68.1254 16.2003C68.0316 16.1274 67.9137 16.0909 67.7717 16.0909C67.6353 16.0909 67.5207 16.1255 67.4279 16.1946C67.3351 16.2628 67.265 16.3584 67.2177 16.4815C67.1703 16.6037 67.1467 16.7462 67.1467 16.9091ZM69.3015 18V15.0909H71.0572V15.4034H69.6538V16.3864H70.9663V16.6989H69.6538V17.6875H71.0799V18H69.3015ZM72.7319 18L73.2092 15.0909H73.4933L73.016 18H72.7319ZM71.408 17.1932L71.4535 16.9091H73.6239L73.5785 17.1932H71.408ZM71.7092 18L72.1864 15.0909H72.4705L71.9933 18H71.7092ZM71.5785 16.1818L71.6239 15.8977H73.7944L73.7489 16.1818H71.5785Z" fill="black"/>
<path d="M13 0H234" stroke="black" stroke-width="0.4"/>
<path d="M281.844 218H280" stroke="black" stroke-width="0.5"/>
<path d="M286.347 282H286.17C286.16 281.949 286.142 281.905 286.116 281.866C286.09 281.828 286.059 281.796 286.022 281.77C285.986 281.743 285.945 281.723 285.901 281.71C285.856 281.697 285.81 281.69 285.761 281.69C285.673 281.69 285.594 281.713 285.522 281.757C285.451 281.802 285.394 281.867 285.352 281.954C285.311 282.04 285.29 282.147 285.29 282.273C285.29 282.399 285.311 282.505 285.352 282.592C285.394 282.678 285.451 282.744 285.522 282.788C285.594 282.833 285.673 282.855 285.761 282.855C285.81 282.855 285.856 282.848 285.901 282.835C285.945 282.822 285.986 282.802 286.022 282.776C286.059 282.75 286.09 282.717 286.116 282.679C286.142 282.64 286.16 282.596 286.17 282.545H286.347C286.333 282.62 286.309 282.686 286.274 282.745C286.239 282.804 286.196 282.854 286.143 282.895C286.091 282.936 286.033 282.967 285.968 282.988C285.904 283.009 285.835 283.02 285.761 283.02C285.637 283.02 285.527 282.99 285.43 282.929C285.334 282.868 285.258 282.782 285.202 282.67C285.147 282.559 285.119 282.426 285.119 282.273C285.119 282.119 285.147 281.987 285.202 281.875C285.258 281.763 285.334 281.677 285.43 281.616C285.527 281.556 285.637 281.526 285.761 281.526C285.835 281.526 285.904 281.536 285.968 281.558C286.033 281.579 286.091 281.61 286.143 281.651C286.196 281.692 286.239 281.742 286.274 281.8C286.309 281.859 286.333 281.925 286.347 282ZM286.631 283V281.545H287.123C287.236 281.545 287.33 281.565 287.403 281.604C287.475 281.642 287.529 281.695 287.564 281.762C287.599 281.829 287.617 281.906 287.617 281.991C287.617 282.077 287.599 282.153 287.564 282.219C287.529 282.286 287.476 282.338 287.403 282.376C287.331 282.413 287.238 282.432 287.126 282.432H286.728V282.273H287.12C287.198 282.273 287.26 282.261 287.307 282.239C287.355 282.216 287.39 282.184 287.411 282.142C287.433 282.1 287.444 282.05 287.444 281.991C287.444 281.933 287.433 281.882 287.411 281.839C287.389 281.795 287.354 281.762 287.307 281.738C287.259 281.714 287.196 281.702 287.117 281.702H286.807V283H286.631ZM287.316 282.347L287.674 283H287.469L287.117 282.347H287.316ZM287.97 283H287.786L288.32 281.545H288.501L289.036 283H288.851L288.416 281.776H288.405L287.97 283ZM288.038 282.432H288.783V282.588H288.038V282.432ZM289.262 283V281.545H289.438V282.193H290.214V281.545H290.39V283H290.214V282.349H289.438V283H289.262ZM291.325 283L291.975 281.713V281.702H291.225V281.545H292.157V281.71L291.51 283H291.325ZM292.297 283.011C292.262 283.011 292.232 282.999 292.207 282.974C292.182 282.949 292.169 282.919 292.169 282.884C292.169 282.848 292.182 282.818 292.207 282.793C292.232 282.768 292.262 282.756 292.297 282.756C292.332 282.756 292.362 282.768 292.387 282.793C292.412 282.818 292.425 282.848 292.425 282.884C292.425 282.907 292.419 282.928 292.407 282.947C292.396 282.967 292.38 282.982 292.361 282.994C292.342 283.006 292.321 283.011 292.297 283.011ZM293.148 283.02C293.065 283.02 292.99 283.003 292.923 282.97C292.856 282.937 292.803 282.892 292.762 282.834C292.722 282.776 292.7 282.71 292.696 282.636H292.867C292.873 282.702 292.903 282.757 292.956 282.8C293.01 282.842 293.074 282.864 293.148 282.864C293.208 282.864 293.261 282.85 293.307 282.822C293.354 282.794 293.391 282.755 293.417 282.707C293.444 282.657 293.458 282.602 293.458 282.54C293.458 282.476 293.444 282.42 293.416 282.37C293.388 282.32 293.35 282.28 293.302 282.251C293.254 282.223 293.199 282.208 293.137 282.207C293.092 282.207 293.047 282.214 293 282.228C292.953 282.242 292.914 282.259 292.884 282.281L292.719 282.261L292.807 281.545H293.563V281.702H292.955L292.904 282.131H292.912C292.942 282.107 292.98 282.087 293.025 282.072C293.069 282.056 293.116 282.048 293.165 282.048C293.254 282.048 293.333 282.07 293.403 282.112C293.473 282.154 293.528 282.212 293.568 282.286C293.608 282.359 293.628 282.443 293.628 282.537C293.628 282.63 293.607 282.713 293.566 282.786C293.525 282.858 293.468 282.915 293.395 282.957C293.323 282.999 293.24 283.02 293.148 283.02Z" fill="black"/>
<path d="M0 194.5L0.49997 285" stroke="black" stroke-width="0.4"/>
</g>
<defs>
<clipPath id="clip0_1_2">
<rect width="421" height="287" fill="white"/>
</clipPath>
</defs>
</svg>
