<svg width="2811" height="2529" viewBox="0 0 2811 2529" fill="none" xmlns="http://www.w3.org/2000/svg">
<g clip-path="url(#clip0_9_47)">
<path d="M1.25 666.75V0.75H2782V2527.42H1222V666.75H1.25Z" stroke="black" stroke-width="1.5"/>
<path d="M1.25 486.083H261.25V116.75H1.25V486.083Z" stroke="black" stroke-width="2.5"/>
<path d="M261.25 257.75H713.25V116.75H1699.92V0.75" stroke="black"/>
<path d="M2298 625V1234H2781V625H2298Z" stroke="black" stroke-width="2.5"/>
<path d="M2298 806L2781 805" stroke="black"/>
<path d="M80.8455 666.513C80.9715 667.929 81.229 669.331 81.6145 670.699C82.9838 675.36 85.4665 679.618 88.8485 683.105C92.6541 687.047 97.1703 690.234 102.159 692.499C109.327 695.604 117.008 697.353 124.813 697.655L124.526 666.578L80.8455 666.513Z" stroke="#1A1818" stroke-miterlimit="10"/>
<path d="M80.8455 666.512C80.7152 667.93 80.4494 669.332 80.0515 670.699C78.6054 675.402 76.0282 679.679 72.5455 683.155C68.6116 687.1 63.9683 690.266 58.8595 692.488C51.4408 695.603 43.5209 697.353 35.4805 697.655L35.7805 666.579L80.8455 666.512Z" stroke="#1A1818" stroke-miterlimit="10"/>
<path d="M1221 1245.21C1222.8 1245.05 1224.59 1244.73 1226.33 1244.24C1232.26 1242.53 1237.68 1239.41 1242.13 1235.16C1247.15 1230.4 1251.21 1224.72 1254.11 1218.44C1258.06 1209.46 1260.29 1199.81 1260.68 1190L1221.08 1190.36L1221 1245.21Z" stroke="#1A1818" stroke-miterlimit="10"/>
<path d="M1221 1245.21C1222.8 1245.36 1224.59 1245.67 1226.33 1246.13C1232.23 1247.76 1237.67 1250.75 1242.2 1254.87C1247.16 1259.35 1251.2 1264.76 1254.09 1270.79C1258.04 1279.34 1260.28 1288.59 1260.68 1298L1221.09 1297.65L1221 1245.21Z" stroke="#1A1818" stroke-miterlimit="10"/>
<path d="M2298.14 1120.37C2296.73 1120.49 2295.32 1120.75 2293.96 1121.13C2289.3 1122.5 2285.04 1124.99 2281.55 1128.37C2277.61 1132.17 2274.42 1136.69 2272.16 1141.68C2269.05 1148.85 2267.3 1156.53 2267 1164.33L2298.08 1164.05L2298.14 1120.37Z" stroke="#1A1818" stroke-miterlimit="10"/>
<path d="M2298.14 1120.37C2296.73 1120.23 2295.32 1119.97 2293.96 1119.57C2289.25 1118.12 2284.98 1115.55 2281.5 1112.07C2277.56 1108.13 2274.39 1103.49 2272.17 1098.38C2269.05 1090.96 2267.3 1083.04 2267 1075L2298.08 1075.3L2298.14 1120.37Z" stroke="#1A1818" stroke-miterlimit="10"/>
<path d="M2298 658.45C2296.1 658.574 2294.22 658.831 2292.35 659.218C2286.35 660.462 2280.66 662.923 2275.62 666.453C2270.56 669.986 2266.26 674.512 2262.95 679.764C2258.86 686.632 2256.47 694.407 2256 702.418L2297.91 702.131L2298 658.45Z" stroke="#1A1818" stroke-miterlimit="10"/>
<path d="M261.25 370.416C259.327 370.54 257.415 370.797 255.528 371.184C249.445 372.428 243.676 374.889 238.568 378.419C233.439 381.952 229.072 386.478 225.726 391.73C221.573 398.598 219.154 406.373 218.678 414.384L261.161 414.097L261.25 370.416Z" stroke="#1A1818" stroke-miterlimit="10"/>
<rect x="1221.5" y="1486.5" width="73" height="266" fill="#0000FF" fill-opacity="0.1" stroke="black"/>
<rect x="1816.5" y="2501.5" width="130" height="25" fill="#0000FF" fill-opacity="0.1" stroke="black"/>
<path d="M1240.58 918.136C1239.97 918.136 1239.44 917.991 1238.99 917.702C1238.55 917.412 1238.21 917.013 1237.97 916.504C1237.73 915.996 1237.61 915.415 1237.61 914.761C1237.61 914.097 1237.74 913.51 1237.98 913.001C1238.23 912.49 1238.57 912.091 1239.01 911.804C1239.45 911.514 1239.97 911.369 1240.56 911.369C1241.02 911.369 1241.44 911.455 1241.81 911.625C1242.18 911.795 1242.48 912.034 1242.71 912.341C1242.95 912.648 1243.1 913.006 1243.15 913.415H1242.15C1242.07 913.116 1241.9 912.852 1241.64 912.622C1241.38 912.389 1241.02 912.273 1240.58 912.273C1240.19 912.273 1239.84 912.375 1239.55 912.58C1239.26 912.781 1239.03 913.067 1238.86 913.436C1238.7 913.803 1238.62 914.233 1238.62 914.727C1238.62 915.233 1238.7 915.673 1238.86 916.048C1239.02 916.423 1239.25 916.714 1239.54 916.922C1239.84 917.129 1240.18 917.233 1240.58 917.233C1240.84 917.233 1241.08 917.188 1241.29 917.097C1241.5 917.006 1241.68 916.875 1241.83 916.705C1241.98 916.534 1242.09 916.33 1242.15 916.091H1243.15C1243.1 916.477 1242.96 916.825 1242.73 917.135C1242.51 917.442 1242.22 917.686 1241.85 917.868C1241.49 918.047 1241.06 918.136 1240.58 918.136ZM1247.28 918.136C1246.69 918.136 1246.17 917.996 1245.73 917.714C1245.28 917.433 1244.94 917.04 1244.69 916.534C1244.44 916.028 1244.32 915.437 1244.32 914.761C1244.32 914.08 1244.44 913.484 1244.69 912.976C1244.94 912.467 1245.28 912.072 1245.73 911.791C1246.17 911.51 1246.69 911.369 1247.28 911.369C1247.87 911.369 1248.39 911.51 1248.83 911.791C1249.28 912.072 1249.63 912.467 1249.87 912.976C1250.12 913.484 1250.25 914.08 1250.25 914.761C1250.25 915.437 1250.12 916.028 1249.87 916.534C1249.63 917.04 1249.28 917.433 1248.83 917.714C1248.39 917.996 1247.87 918.136 1247.28 918.136ZM1247.28 917.233C1247.73 917.233 1248.1 917.118 1248.39 916.888C1248.68 916.658 1248.89 916.355 1249.03 915.98C1249.17 915.605 1249.24 915.199 1249.24 914.761C1249.24 914.324 1249.17 913.916 1249.03 913.538C1248.89 913.161 1248.68 912.855 1248.39 912.622C1248.1 912.389 1247.73 912.273 1247.28 912.273C1246.83 912.273 1246.46 912.389 1246.17 912.622C1245.88 912.855 1245.67 913.161 1245.53 913.538C1245.39 913.916 1245.32 914.324 1245.32 914.761C1245.32 915.199 1245.39 915.605 1245.53 915.98C1245.67 916.355 1245.88 916.658 1246.17 916.888C1246.46 917.118 1246.83 917.233 1247.28 917.233ZM1254.44 918.136C1253.85 918.136 1253.33 917.996 1252.89 917.714C1252.44 917.433 1252.1 917.04 1251.85 916.534C1251.6 916.028 1251.48 915.437 1251.48 914.761C1251.48 914.08 1251.6 913.484 1251.85 912.976C1252.1 912.467 1252.44 912.072 1252.89 911.791C1253.33 911.51 1253.85 911.369 1254.44 911.369C1255.03 911.369 1255.55 911.51 1255.99 911.791C1256.44 912.072 1256.79 912.467 1257.03 912.976C1257.28 913.484 1257.41 914.08 1257.41 914.761C1257.41 915.437 1257.28 916.028 1257.03 916.534C1256.79 917.04 1256.44 917.433 1255.99 917.714C1255.55 917.996 1255.03 918.136 1254.44 918.136ZM1254.44 917.233C1254.89 917.233 1255.26 917.118 1255.55 916.888C1255.84 916.658 1256.06 916.355 1256.19 915.98C1256.33 915.605 1256.4 915.199 1256.4 914.761C1256.4 914.324 1256.33 913.916 1256.19 913.538C1256.06 913.161 1255.84 912.855 1255.55 912.622C1255.26 912.389 1254.89 912.273 1254.44 912.273C1253.99 912.273 1253.62 912.389 1253.33 912.622C1253.05 912.855 1252.83 913.161 1252.69 913.538C1252.55 913.916 1252.48 914.324 1252.48 914.761C1252.48 915.199 1252.55 915.605 1252.69 915.98C1252.83 916.355 1253.05 916.658 1253.33 916.888C1253.62 917.118 1253.99 917.233 1254.44 917.233ZM1259.95 909.273V918H1258.94V909.273H1259.95ZM1261.79 918V911.455H1262.8V918H1261.79ZM1262.3 910.364C1262.11 910.364 1261.94 910.297 1261.8 910.163C1261.66 910.03 1261.59 909.869 1261.59 909.682C1261.59 909.494 1261.66 909.334 1261.8 909.2C1261.94 909.067 1262.11 909 1262.3 909C1262.5 909 1262.67 909.067 1262.81 909.2C1262.95 909.334 1263.02 909.494 1263.02 909.682C1263.02 909.869 1262.95 910.03 1262.81 910.163C1262.67 910.297 1262.5 910.364 1262.3 910.364ZM1265.64 914.062V918H1264.64V911.455H1265.61V912.477H1265.7C1265.85 912.145 1266.08 911.878 1266.39 911.676C1266.71 911.472 1267.11 911.369 1267.61 911.369C1268.05 911.369 1268.44 911.46 1268.77 911.642C1269.1 911.821 1269.36 912.094 1269.54 912.46C1269.73 912.824 1269.82 913.284 1269.82 913.841V918H1268.82V913.909C1268.82 913.395 1268.68 912.994 1268.41 912.707C1268.15 912.418 1267.78 912.273 1267.32 912.273C1266.99 912.273 1266.71 912.342 1266.45 912.482C1266.2 912.621 1266.01 912.824 1265.86 913.091C1265.72 913.358 1265.64 913.682 1265.64 914.062ZM1274.3 920.591C1273.81 920.591 1273.4 920.528 1273.05 920.403C1272.7 920.281 1272.41 920.119 1272.17 919.918C1271.94 919.719 1271.76 919.506 1271.62 919.278L1272.43 918.716C1272.52 918.835 1272.63 918.972 1272.77 919.125C1272.91 919.281 1273.1 919.416 1273.34 919.53C1273.59 919.646 1273.91 919.705 1274.3 919.705C1274.83 919.705 1275.27 919.577 1275.61 919.321C1275.95 919.065 1276.12 918.665 1276.12 918.119V916.79H1276.04C1275.97 916.909 1275.86 917.057 1275.72 917.233C1275.59 917.406 1275.4 917.561 1275.14 917.697C1274.89 917.831 1274.56 917.898 1274.13 917.898C1273.6 917.898 1273.13 917.773 1272.71 917.523C1272.29 917.273 1271.96 916.909 1271.71 916.432C1271.47 915.955 1271.35 915.375 1271.35 914.693C1271.35 914.023 1271.47 913.439 1271.71 912.942C1271.94 912.442 1272.27 912.055 1272.69 911.783C1273.11 911.507 1273.6 911.369 1274.15 911.369C1274.57 911.369 1274.91 911.44 1275.16 911.582C1275.41 911.722 1275.61 911.881 1275.74 912.06C1275.88 912.236 1275.98 912.381 1276.06 912.494H1276.16V911.455H1277.13V918.188C1277.13 918.75 1277 919.207 1276.75 919.56C1276.49 919.915 1276.15 920.175 1275.72 920.339C1275.3 920.507 1274.82 920.591 1274.3 920.591ZM1274.27 916.994C1274.67 916.994 1275.01 916.902 1275.29 916.717C1275.57 916.533 1275.78 916.267 1275.92 915.92C1276.07 915.574 1276.14 915.159 1276.14 914.676C1276.14 914.205 1276.07 913.788 1275.93 913.428C1275.79 913.067 1275.58 912.784 1275.3 912.58C1275.02 912.375 1274.68 912.273 1274.27 912.273C1273.84 912.273 1273.49 912.381 1273.2 912.597C1272.92 912.812 1272.71 913.102 1272.57 913.466C1272.43 913.83 1272.36 914.233 1272.36 914.676C1272.36 915.131 1272.43 915.533 1272.57 915.882C1272.72 916.229 1272.93 916.501 1273.21 916.7C1273.49 916.896 1273.85 916.994 1274.27 916.994Z" fill="black"/>
<path d="M1022.11 663V645.545H1028.01C1029.38 645.545 1030.5 645.793 1031.37 646.287C1032.24 646.776 1032.89 647.438 1033.31 648.273C1033.73 649.108 1033.94 650.04 1033.94 651.068C1033.94 652.097 1033.73 653.031 1033.31 653.872C1032.9 654.713 1032.26 655.384 1031.39 655.884C1030.52 656.378 1029.4 656.625 1028.05 656.625H1023.82V654.75H1027.98C1028.91 654.75 1029.67 654.588 1030.24 654.264C1030.8 653.94 1031.22 653.503 1031.47 652.952C1031.73 652.395 1031.86 651.767 1031.86 651.068C1031.86 650.369 1031.73 649.744 1031.47 649.193C1031.22 648.642 1030.8 648.21 1030.23 647.898C1029.65 647.58 1028.89 647.42 1027.94 647.42H1024.23V663H1022.11ZM1042.73 663H1037.35V645.545H1042.97C1044.67 645.545 1046.12 645.895 1047.32 646.594C1048.52 647.287 1049.45 648.284 1050.09 649.585C1050.73 650.881 1051.05 652.432 1051.05 654.239C1051.05 656.057 1050.73 657.622 1050.08 658.935C1049.43 660.241 1048.49 661.247 1047.25 661.952C1046.01 662.651 1044.51 663 1042.73 663ZM1039.46 661.125H1042.6C1044.04 661.125 1045.24 660.847 1046.19 660.29C1047.13 659.733 1047.84 658.94 1048.31 657.912C1048.77 656.884 1049.01 655.659 1049.01 654.239C1049.01 652.83 1048.78 651.616 1048.32 650.599C1047.86 649.577 1047.17 648.793 1046.25 648.247C1045.34 647.696 1044.2 647.42 1042.84 647.42H1039.46V661.125ZM1066.05 645.545H1068.17V657.102C1068.17 658.295 1067.88 659.361 1067.32 660.298C1066.77 661.23 1065.98 661.966 1064.96 662.506C1063.94 663.04 1062.75 663.307 1061.38 663.307C1060.01 663.307 1058.82 663.04 1057.8 662.506C1056.79 661.966 1056 661.23 1055.43 660.298C1054.88 659.361 1054.6 658.295 1054.6 657.102V645.545H1056.71V656.932C1056.71 657.784 1056.9 658.543 1057.27 659.207C1057.65 659.866 1058.18 660.386 1058.88 660.767C1059.58 661.142 1060.41 661.33 1061.38 661.33C1062.35 661.33 1063.19 661.142 1063.89 660.767C1064.59 660.386 1065.12 659.866 1065.49 659.207C1065.87 658.543 1066.05 657.784 1066.05 656.932V645.545Z" fill="black"/>
<rect x="350.25" y="640.25" width="368.5" height="24.5" fill="#FF0000" fill-opacity="0.15" stroke="black" stroke-width="0.5"/>
<rect x="851.25" y="642.25" width="369.5" height="24.5" fill="#FF0000" fill-opacity="0.15" stroke="black" stroke-width="0.5"/>
<path d="M519.114 663V645.545H525.011C526.381 645.545 527.5 645.793 528.369 646.287C529.244 646.776 529.892 647.438 530.312 648.273C530.733 649.108 530.943 650.04 530.943 651.068C530.943 652.097 530.733 653.031 530.312 653.872C529.898 654.713 529.256 655.384 528.386 655.884C527.517 656.378 526.403 656.625 525.045 656.625H520.818V654.75H524.977C525.915 654.75 526.668 654.588 527.236 654.264C527.804 653.94 528.216 653.503 528.472 652.952C528.733 652.395 528.864 651.767 528.864 651.068C528.864 650.369 528.733 649.744 528.472 649.193C528.216 648.642 527.801 648.21 527.227 647.898C526.653 647.58 525.892 647.42 524.943 647.42H521.227V663H519.114ZM539.734 663H534.348V645.545H539.973C541.666 645.545 543.115 645.895 544.32 646.594C545.524 647.287 546.447 648.284 547.089 649.585C547.732 650.881 548.053 652.432 548.053 654.239C548.053 656.057 547.729 657.622 547.081 658.935C546.433 660.241 545.49 661.247 544.251 661.952C543.013 662.651 541.507 663 539.734 663ZM536.462 661.125H539.598C541.041 661.125 542.237 660.847 543.186 660.29C544.135 659.733 544.842 658.94 545.308 657.912C545.774 656.884 546.007 655.659 546.007 654.239C546.007 652.83 545.777 651.616 545.317 650.599C544.857 649.577 544.169 648.793 543.254 648.247C542.339 647.696 541.2 647.42 539.837 647.42H536.462V661.125ZM563.053 645.545H565.166V657.102C565.166 658.295 564.885 659.361 564.322 660.298C563.766 661.23 562.979 661.966 561.962 662.506C560.945 663.04 559.751 663.307 558.382 663.307C557.013 663.307 555.82 663.04 554.803 662.506C553.786 661.966 552.996 661.23 552.433 660.298C551.876 659.361 551.598 658.295 551.598 657.102V645.545H553.712V656.932C553.712 657.784 553.899 658.543 554.274 659.207C554.649 659.866 555.183 660.386 555.876 660.767C556.575 661.142 557.411 661.33 558.382 661.33C559.354 661.33 560.189 661.142 560.888 660.767C561.587 660.386 562.121 659.866 562.49 659.207C562.865 658.543 563.053 657.784 563.053 656.932V645.545Z" fill="black"/>
<path d="M1221.5 806.5H1294.5V1030.5H1221.5V806.5Z" fill="#0000FF" fill-opacity="0.1" stroke="black"/>
<path d="M2322.5 2502.5H2446.5V2527.5H2322.5V2502.5Z" fill="#0000FF" fill-opacity="0.1" stroke="black"/>
<path d="M1243.58 1615.14C1242.97 1615.14 1242.44 1614.99 1241.99 1614.7C1241.55 1614.41 1241.21 1614.01 1240.97 1613.5C1240.73 1613 1240.61 1612.41 1240.61 1611.76C1240.61 1611.1 1240.74 1610.51 1240.98 1610C1241.23 1609.49 1241.57 1609.09 1242.01 1608.8C1242.45 1608.51 1242.97 1608.37 1243.56 1608.37C1244.02 1608.37 1244.44 1608.45 1244.81 1608.62C1245.18 1608.8 1245.48 1609.03 1245.71 1609.34C1245.95 1609.65 1246.1 1610.01 1246.15 1610.41H1245.15C1245.07 1610.12 1244.9 1609.85 1244.64 1609.62C1244.38 1609.39 1244.02 1609.27 1243.58 1609.27C1243.19 1609.27 1242.84 1609.37 1242.55 1609.58C1242.26 1609.78 1242.03 1610.07 1241.86 1610.44C1241.7 1610.8 1241.62 1611.23 1241.62 1611.73C1241.62 1612.23 1241.7 1612.67 1241.86 1613.05C1242.02 1613.42 1242.25 1613.71 1242.54 1613.92C1242.84 1614.13 1243.18 1614.23 1243.58 1614.23C1243.84 1614.23 1244.08 1614.19 1244.29 1614.1C1244.5 1614.01 1244.68 1613.88 1244.83 1613.7C1244.98 1613.53 1245.09 1613.33 1245.15 1613.09H1246.15C1246.1 1613.48 1245.96 1613.83 1245.73 1614.13C1245.51 1614.44 1245.22 1614.69 1244.85 1614.87C1244.49 1615.05 1244.06 1615.14 1243.58 1615.14ZM1250.28 1615.14C1249.69 1615.14 1249.17 1615 1248.73 1614.71C1248.28 1614.43 1247.94 1614.04 1247.69 1613.53C1247.44 1613.03 1247.32 1612.44 1247.32 1611.76C1247.32 1611.08 1247.44 1610.48 1247.69 1609.98C1247.94 1609.47 1248.28 1609.07 1248.73 1608.79C1249.17 1608.51 1249.69 1608.37 1250.28 1608.37C1250.87 1608.37 1251.39 1608.51 1251.83 1608.79C1252.28 1609.07 1252.63 1609.47 1252.87 1609.98C1253.12 1610.48 1253.25 1611.08 1253.25 1611.76C1253.25 1612.44 1253.12 1613.03 1252.87 1613.53C1252.63 1614.04 1252.28 1614.43 1251.83 1614.71C1251.39 1615 1250.87 1615.14 1250.28 1615.14ZM1250.28 1614.23C1250.73 1614.23 1251.1 1614.12 1251.39 1613.89C1251.68 1613.66 1251.89 1613.36 1252.03 1612.98C1252.17 1612.61 1252.24 1612.2 1252.24 1611.76C1252.24 1611.32 1252.17 1610.92 1252.03 1610.54C1251.89 1610.16 1251.68 1609.86 1251.39 1609.62C1251.1 1609.39 1250.73 1609.27 1250.28 1609.27C1249.83 1609.27 1249.46 1609.39 1249.17 1609.62C1248.88 1609.86 1248.67 1610.16 1248.53 1610.54C1248.39 1610.92 1248.32 1611.32 1248.32 1611.76C1248.32 1612.2 1248.39 1612.61 1248.53 1612.98C1248.67 1613.36 1248.88 1613.66 1249.17 1613.89C1249.46 1614.12 1249.83 1614.23 1250.28 1614.23ZM1257.44 1615.14C1256.85 1615.14 1256.33 1615 1255.89 1614.71C1255.44 1614.43 1255.1 1614.04 1254.85 1613.53C1254.6 1613.03 1254.48 1612.44 1254.48 1611.76C1254.48 1611.08 1254.6 1610.48 1254.85 1609.98C1255.1 1609.47 1255.44 1609.07 1255.89 1608.79C1256.33 1608.51 1256.85 1608.37 1257.44 1608.37C1258.03 1608.37 1258.55 1608.51 1258.99 1608.79C1259.44 1609.07 1259.79 1609.47 1260.03 1609.98C1260.28 1610.48 1260.41 1611.08 1260.41 1611.76C1260.41 1612.44 1260.28 1613.03 1260.03 1613.53C1259.79 1614.04 1259.44 1614.43 1258.99 1614.71C1258.55 1615 1258.03 1615.14 1257.44 1615.14ZM1257.44 1614.23C1257.89 1614.23 1258.26 1614.12 1258.55 1613.89C1258.84 1613.66 1259.06 1613.36 1259.19 1612.98C1259.33 1612.61 1259.4 1612.2 1259.4 1611.76C1259.4 1611.32 1259.33 1610.92 1259.19 1610.54C1259.06 1610.16 1258.84 1609.86 1258.55 1609.62C1258.26 1609.39 1257.89 1609.27 1257.44 1609.27C1256.99 1609.27 1256.62 1609.39 1256.33 1609.62C1256.05 1609.86 1255.83 1610.16 1255.69 1610.54C1255.55 1610.92 1255.48 1611.32 1255.48 1611.76C1255.48 1612.2 1255.55 1612.61 1255.69 1612.98C1255.83 1613.36 1256.05 1613.66 1256.33 1613.89C1256.62 1614.12 1256.99 1614.23 1257.44 1614.23ZM1262.95 1606.27V1615H1261.94V1606.27H1262.95ZM1264.79 1615V1608.45H1265.8V1615H1264.79ZM1265.3 1607.36C1265.11 1607.36 1264.94 1607.3 1264.8 1607.16C1264.66 1607.03 1264.59 1606.87 1264.59 1606.68C1264.59 1606.49 1264.66 1606.33 1264.8 1606.2C1264.94 1606.07 1265.11 1606 1265.3 1606C1265.5 1606 1265.67 1606.07 1265.81 1606.2C1265.95 1606.33 1266.02 1606.49 1266.02 1606.68C1266.02 1606.87 1265.95 1607.03 1265.81 1607.16C1265.67 1607.3 1265.5 1607.36 1265.3 1607.36ZM1268.64 1611.06V1615H1267.64V1608.45H1268.61V1609.48H1268.7C1268.85 1609.14 1269.08 1608.88 1269.39 1608.68C1269.71 1608.47 1270.11 1608.37 1270.61 1608.37C1271.05 1608.37 1271.44 1608.46 1271.77 1608.64C1272.1 1608.82 1272.36 1609.09 1272.54 1609.46C1272.73 1609.82 1272.82 1610.28 1272.82 1610.84V1615H1271.82V1610.91C1271.82 1610.39 1271.68 1609.99 1271.41 1609.71C1271.15 1609.42 1270.78 1609.27 1270.32 1609.27C1269.99 1609.27 1269.71 1609.34 1269.45 1609.48C1269.2 1609.62 1269.01 1609.82 1268.86 1610.09C1268.72 1610.36 1268.64 1610.68 1268.64 1611.06ZM1277.3 1617.59C1276.81 1617.59 1276.4 1617.53 1276.05 1617.4C1275.7 1617.28 1275.41 1617.12 1275.17 1616.92C1274.94 1616.72 1274.76 1616.51 1274.62 1616.28L1275.43 1615.72C1275.52 1615.84 1275.63 1615.97 1275.77 1616.12C1275.91 1616.28 1276.1 1616.42 1276.34 1616.53C1276.59 1616.65 1276.91 1616.7 1277.3 1616.7C1277.83 1616.7 1278.27 1616.58 1278.61 1616.32C1278.95 1616.07 1279.12 1615.66 1279.12 1615.12V1613.79H1279.04C1278.97 1613.91 1278.86 1614.06 1278.72 1614.23C1278.59 1614.41 1278.4 1614.56 1278.14 1614.7C1277.89 1614.83 1277.56 1614.9 1277.13 1614.9C1276.6 1614.9 1276.13 1614.77 1275.71 1614.52C1275.29 1614.27 1274.96 1613.91 1274.71 1613.43C1274.47 1612.95 1274.35 1612.37 1274.35 1611.69C1274.35 1611.02 1274.47 1610.44 1274.71 1609.94C1274.94 1609.44 1275.27 1609.06 1275.69 1608.78C1276.11 1608.51 1276.6 1608.37 1277.15 1608.37C1277.57 1608.37 1277.91 1608.44 1278.16 1608.58C1278.41 1608.72 1278.61 1608.88 1278.74 1609.06C1278.88 1609.24 1278.98 1609.38 1279.06 1609.49H1279.16V1608.45H1280.13V1615.19C1280.13 1615.75 1280 1616.21 1279.75 1616.56C1279.49 1616.91 1279.15 1617.17 1278.72 1617.34C1278.3 1617.51 1277.82 1617.59 1277.3 1617.59ZM1277.27 1613.99C1277.67 1613.99 1278.01 1613.9 1278.29 1613.72C1278.57 1613.53 1278.78 1613.27 1278.92 1612.92C1279.07 1612.57 1279.14 1612.16 1279.14 1611.68C1279.14 1611.2 1279.07 1610.79 1278.93 1610.43C1278.79 1610.07 1278.58 1609.78 1278.3 1609.58C1278.02 1609.37 1277.68 1609.27 1277.27 1609.27C1276.84 1609.27 1276.49 1609.38 1276.2 1609.6C1275.92 1609.81 1275.71 1610.1 1275.57 1610.47C1275.43 1610.83 1275.36 1611.23 1275.36 1611.68C1275.36 1612.13 1275.43 1612.53 1275.57 1612.88C1275.72 1613.23 1275.93 1613.5 1276.21 1613.7C1276.49 1613.9 1276.85 1613.99 1277.27 1613.99Z" fill="black"/>
<path d="M1865.08 2513H1864.02C1863.96 2512.7 1863.85 2512.43 1863.69 2512.2C1863.54 2511.97 1863.35 2511.78 1863.13 2511.62C1862.91 2511.46 1862.67 2511.34 1862.4 2511.26C1862.14 2511.18 1861.86 2511.14 1861.57 2511.14C1861.04 2511.14 1860.56 2511.28 1860.13 2511.54C1859.71 2511.81 1859.37 2512.2 1859.11 2512.72C1858.86 2513.24 1858.74 2513.88 1858.74 2514.64C1858.74 2515.39 1858.86 2516.03 1859.11 2516.55C1859.37 2517.07 1859.71 2517.46 1860.13 2517.73C1860.56 2518 1861.04 2518.13 1861.57 2518.13C1861.86 2518.13 1862.14 2518.09 1862.4 2518.01C1862.67 2517.93 1862.91 2517.81 1863.13 2517.66C1863.35 2517.5 1863.54 2517.3 1863.69 2517.07C1863.85 2516.84 1863.96 2516.57 1864.02 2516.27H1865.08C1865 2516.72 1864.86 2517.12 1864.64 2517.47C1864.43 2517.82 1864.17 2518.12 1863.86 2518.37C1863.55 2518.61 1863.2 2518.8 1862.81 2518.93C1862.42 2519.06 1862.01 2519.12 1861.57 2519.12C1860.82 2519.12 1860.16 2518.94 1859.58 2518.57C1859 2518.21 1858.55 2517.69 1858.21 2517.02C1857.88 2516.35 1857.72 2515.56 1857.72 2514.64C1857.72 2513.72 1857.88 2512.92 1858.21 2512.25C1858.55 2511.58 1859 2511.06 1859.58 2510.7C1860.16 2510.34 1860.82 2510.15 1861.57 2510.15C1862.01 2510.15 1862.42 2510.22 1862.81 2510.35C1863.2 2510.47 1863.55 2510.66 1863.86 2510.91C1864.17 2511.15 1864.43 2511.45 1864.64 2511.8C1864.86 2512.15 1865 2512.55 1865.08 2513ZM1866.79 2519V2510.27H1869.74C1870.42 2510.27 1870.98 2510.39 1871.42 2510.62C1871.85 2510.85 1872.18 2511.17 1872.39 2511.57C1872.6 2511.98 1872.7 2512.43 1872.7 2512.95C1872.7 2513.46 1872.6 2513.92 1872.39 2514.32C1872.18 2514.71 1871.85 2515.03 1871.42 2515.25C1870.98 2515.48 1870.43 2515.59 1869.75 2515.59H1867.37V2514.64H1869.72C1870.19 2514.64 1870.56 2514.57 1870.84 2514.43C1871.13 2514.3 1871.34 2514.1 1871.47 2513.85C1871.6 2513.6 1871.66 2513.3 1871.66 2512.95C1871.66 2512.6 1871.6 2512.29 1871.47 2512.03C1871.34 2511.77 1871.13 2511.57 1870.84 2511.43C1870.55 2511.28 1870.17 2511.21 1869.7 2511.21H1867.84V2519H1866.79ZM1870.9 2515.08L1873.04 2519H1871.82L1869.7 2515.08H1870.9ZM1874.82 2519H1873.71L1876.92 2510.27H1878.01L1881.21 2519H1880.11L1877.5 2511.65H1877.43L1874.82 2519ZM1875.23 2515.59H1879.7V2516.53H1875.23V2515.59ZM1882.57 2519V2510.27H1883.63V2514.16H1888.28V2510.27H1889.34V2519H1888.28V2515.1H1883.63V2519H1882.57ZM1897.75 2510.27V2519H1896.69V2511.38H1896.64L1894.51 2512.8V2511.72L1896.69 2510.27H1897.75ZM1903.1 2519.12C1902.46 2519.12 1901.91 2518.94 1901.46 2518.6C1901.01 2518.24 1900.66 2517.73 1900.43 2517.07C1900.19 2516.39 1900.07 2515.59 1900.07 2514.64C1900.07 2513.69 1900.19 2512.89 1900.43 2512.22C1900.67 2511.55 1901.01 2511.04 1901.47 2510.69C1901.92 2510.33 1902.47 2510.15 1903.1 2510.15C1903.74 2510.15 1904.28 2510.33 1904.73 2510.69C1905.19 2511.04 1905.53 2511.55 1905.77 2512.22C1906.01 2512.89 1906.14 2513.69 1906.14 2514.64C1906.14 2515.59 1906.02 2516.39 1905.78 2517.07C1905.54 2517.73 1905.19 2518.24 1904.74 2518.6C1904.29 2518.94 1903.74 2519.12 1903.1 2519.12ZM1903.1 2518.18C1903.74 2518.18 1904.23 2517.87 1904.58 2517.26C1904.94 2516.65 1905.11 2515.77 1905.11 2514.64C1905.11 2513.88 1905.03 2513.24 1904.87 2512.71C1904.71 2512.17 1904.48 2511.77 1904.18 2511.49C1903.88 2511.21 1903.52 2511.07 1903.1 2511.07C1902.47 2511.07 1901.98 2511.38 1901.62 2512.01C1901.27 2512.63 1901.09 2513.5 1901.09 2514.64C1901.09 2515.39 1901.17 2516.03 1901.33 2516.56C1901.49 2517.09 1901.72 2517.49 1902.01 2517.77C1902.32 2518.04 1902.68 2518.18 1903.1 2518.18Z" fill="black"/>
<path d="M2368.08 2513H2367.02C2366.96 2512.7 2366.85 2512.43 2366.69 2512.2C2366.54 2511.97 2366.35 2511.78 2366.13 2511.62C2365.91 2511.46 2365.67 2511.34 2365.4 2511.26C2365.14 2511.18 2364.86 2511.14 2364.57 2511.14C2364.04 2511.14 2363.56 2511.28 2363.13 2511.54C2362.71 2511.81 2362.37 2512.2 2362.11 2512.72C2361.86 2513.24 2361.74 2513.88 2361.74 2514.64C2361.74 2515.39 2361.86 2516.03 2362.11 2516.55C2362.37 2517.07 2362.71 2517.46 2363.13 2517.73C2363.56 2518 2364.04 2518.13 2364.57 2518.13C2364.86 2518.13 2365.14 2518.09 2365.4 2518.01C2365.67 2517.93 2365.91 2517.81 2366.13 2517.66C2366.35 2517.5 2366.54 2517.3 2366.69 2517.07C2366.85 2516.84 2366.96 2516.57 2367.02 2516.27H2368.08C2368 2516.72 2367.86 2517.12 2367.64 2517.47C2367.43 2517.82 2367.17 2518.12 2366.86 2518.37C2366.55 2518.61 2366.2 2518.8 2365.81 2518.93C2365.42 2519.06 2365.01 2519.12 2364.57 2519.12C2363.82 2519.12 2363.16 2518.94 2362.58 2518.57C2362 2518.21 2361.55 2517.69 2361.21 2517.02C2360.88 2516.35 2360.72 2515.56 2360.72 2514.64C2360.72 2513.72 2360.88 2512.92 2361.21 2512.25C2361.55 2511.58 2362 2511.06 2362.58 2510.7C2363.16 2510.34 2363.82 2510.15 2364.57 2510.15C2365.01 2510.15 2365.42 2510.22 2365.81 2510.35C2366.2 2510.47 2366.55 2510.66 2366.86 2510.91C2367.17 2511.15 2367.43 2511.45 2367.64 2511.8C2367.86 2512.15 2368 2512.55 2368.08 2513ZM2369.79 2519V2510.27H2372.74C2373.42 2510.27 2373.98 2510.39 2374.42 2510.62C2374.85 2510.85 2375.18 2511.17 2375.39 2511.57C2375.6 2511.98 2375.7 2512.43 2375.7 2512.95C2375.7 2513.46 2375.6 2513.92 2375.39 2514.32C2375.18 2514.71 2374.85 2515.03 2374.42 2515.25C2373.98 2515.48 2373.43 2515.59 2372.75 2515.59H2370.37V2514.64H2372.72C2373.19 2514.64 2373.56 2514.57 2373.84 2514.43C2374.13 2514.3 2374.34 2514.1 2374.47 2513.85C2374.6 2513.6 2374.66 2513.3 2374.66 2512.95C2374.66 2512.6 2374.6 2512.29 2374.47 2512.03C2374.34 2511.77 2374.13 2511.57 2373.84 2511.43C2373.55 2511.28 2373.17 2511.21 2372.7 2511.21H2370.84V2519H2369.79ZM2373.9 2515.08L2376.04 2519H2374.82L2372.7 2515.08H2373.9ZM2377.82 2519H2376.71L2379.92 2510.27H2381.01L2384.21 2519H2383.11L2380.5 2511.65H2380.43L2377.82 2519ZM2378.23 2515.59H2382.7V2516.53H2378.23V2515.59ZM2385.57 2519V2510.27H2386.63V2514.16H2391.28V2510.27H2392.34V2519H2391.28V2515.1H2386.63V2519H2385.57ZM2400.75 2510.27V2519H2399.69V2511.38H2399.64L2397.51 2512.8V2511.72L2399.69 2510.27H2400.75ZM2406.1 2519.12C2405.46 2519.12 2404.91 2518.94 2404.46 2518.6C2404.01 2518.24 2403.66 2517.73 2403.43 2517.07C2403.19 2516.39 2403.07 2515.59 2403.07 2514.64C2403.07 2513.69 2403.19 2512.89 2403.43 2512.22C2403.67 2511.55 2404.01 2511.04 2404.47 2510.69C2404.92 2510.33 2405.47 2510.15 2406.1 2510.15C2406.74 2510.15 2407.28 2510.33 2407.73 2510.69C2408.19 2511.04 2408.53 2511.55 2408.77 2512.22C2409.01 2512.89 2409.14 2513.69 2409.14 2514.64C2409.14 2515.59 2409.02 2516.39 2408.78 2517.07C2408.54 2517.73 2408.19 2518.24 2407.74 2518.6C2407.29 2518.94 2406.74 2519.12 2406.1 2519.12ZM2406.1 2518.18C2406.74 2518.18 2407.23 2517.87 2407.58 2517.26C2407.94 2516.65 2408.11 2515.77 2408.11 2514.64C2408.11 2513.88 2408.03 2513.24 2407.87 2512.71C2407.71 2512.17 2407.48 2511.77 2407.18 2511.49C2406.88 2511.21 2406.52 2511.07 2406.1 2511.07C2405.47 2511.07 2404.98 2511.38 2404.62 2512.01C2404.27 2512.63 2404.09 2513.5 2404.09 2514.64C2404.09 2515.39 2404.17 2516.03 2404.33 2516.56C2404.49 2517.09 2404.72 2517.49 2405.01 2517.77C2405.32 2518.04 2405.68 2518.18 2406.1 2518.18Z" fill="black"/>
<path d="M418.761 112V97.4545H427.54V99.017H420.523V103.932H427.085V105.494H420.523V110.438H427.653V112H418.761ZM431.737 101.091L434.351 105.551L436.964 101.091H438.896L435.374 106.545L438.896 112H436.964L434.351 107.767L431.737 112H429.805L433.271 106.545L429.805 101.091H431.737ZM445.271 112.227C444.248 112.227 443.367 111.986 442.629 111.503C441.89 111.02 441.322 110.355 440.924 109.507C440.526 108.66 440.327 107.691 440.327 106.602C440.327 105.494 440.531 104.517 440.938 103.669C441.35 102.817 441.923 102.152 442.657 101.673C443.396 101.19 444.257 100.949 445.242 100.949C446.009 100.949 446.701 101.091 447.316 101.375C447.932 101.659 448.436 102.057 448.829 102.568C449.222 103.08 449.466 103.676 449.56 104.358H447.884C447.756 103.861 447.472 103.42 447.032 103.037C446.596 102.649 446.009 102.455 445.271 102.455C444.617 102.455 444.044 102.625 443.552 102.966C443.064 103.302 442.683 103.778 442.408 104.393C442.138 105.004 442.004 105.722 442.004 106.545C442.004 107.388 442.136 108.122 442.401 108.747C442.671 109.372 443.05 109.857 443.538 110.203C444.03 110.549 444.608 110.722 445.271 110.722C445.706 110.722 446.102 110.646 446.457 110.494C446.812 110.343 447.112 110.125 447.359 109.841C447.605 109.557 447.78 109.216 447.884 108.818H449.56C449.466 109.462 449.231 110.042 448.857 110.558C448.488 111.07 447.998 111.477 447.387 111.78C446.781 112.078 446.076 112.227 445.271 112.227ZM453.687 97.4545V112H452.011V97.4545H453.687ZM463.632 107.54V101.091H465.308V112H463.632V110.153H463.518C463.262 110.707 462.865 111.179 462.325 111.567C461.785 111.95 461.103 112.142 460.279 112.142C459.598 112.142 458.992 111.993 458.461 111.695C457.931 111.392 457.514 110.937 457.211 110.331C456.908 109.72 456.757 108.951 456.757 108.023V101.091H458.433V107.909C458.433 108.705 458.655 109.339 459.1 109.812C459.55 110.286 460.123 110.523 460.819 110.523C461.236 110.523 461.66 110.416 462.091 110.203C462.526 109.99 462.891 109.663 463.184 109.223C463.483 108.783 463.632 108.222 463.632 107.54ZM472.497 112.227C471.588 112.227 470.786 111.998 470.089 111.538C469.393 111.074 468.849 110.421 468.456 109.578C468.063 108.731 467.866 107.729 467.866 106.574C467.866 105.428 468.063 104.434 468.456 103.591C468.849 102.748 469.396 102.097 470.097 101.638C470.797 101.179 471.607 100.949 472.526 100.949C473.236 100.949 473.797 101.067 474.209 101.304C474.625 101.536 474.943 101.801 475.161 102.099C475.383 102.393 475.556 102.634 475.679 102.824H475.821V97.4545H477.497V112H475.878V110.324H475.679C475.556 110.523 475.381 110.774 475.153 111.077C474.926 111.375 474.602 111.643 474.18 111.879C473.759 112.111 473.198 112.227 472.497 112.227ZM472.724 110.722C473.397 110.722 473.965 110.546 474.429 110.196C474.893 109.841 475.246 109.351 475.487 108.726C475.729 108.096 475.849 107.369 475.849 106.545C475.849 105.731 475.731 105.018 475.494 104.408C475.258 103.792 474.907 103.314 474.443 102.973C473.979 102.627 473.406 102.455 472.724 102.455C472.014 102.455 471.422 102.637 470.949 103.001C470.48 103.361 470.127 103.851 469.891 104.472C469.659 105.087 469.543 105.778 469.543 106.545C469.543 107.322 469.661 108.027 469.898 108.662C470.139 109.292 470.494 109.794 470.963 110.168C471.437 110.537 472.024 110.722 472.724 110.722ZM485.374 112.227C484.322 112.227 483.416 111.995 482.653 111.531C481.896 111.062 481.311 110.409 480.899 109.571C480.492 108.728 480.288 107.748 480.288 106.631C480.288 105.513 480.492 104.528 480.899 103.676C481.311 102.819 481.884 102.152 482.618 101.673C483.357 101.19 484.218 100.949 485.203 100.949C485.771 100.949 486.332 101.044 486.886 101.233C487.44 101.422 487.945 101.73 488.399 102.156C488.854 102.578 489.216 103.136 489.486 103.832C489.756 104.528 489.891 105.385 489.891 106.403V107.114H481.482V105.665H488.186C488.186 105.049 488.063 104.5 487.817 104.017C487.575 103.534 487.23 103.153 486.78 102.874C486.335 102.594 485.809 102.455 485.203 102.455C484.536 102.455 483.958 102.62 483.47 102.952C482.987 103.278 482.616 103.705 482.355 104.23C482.095 104.756 481.964 105.319 481.964 105.92V106.886C481.964 107.71 482.107 108.409 482.391 108.982C482.679 109.55 483.08 109.983 483.591 110.281C484.102 110.575 484.696 110.722 485.374 110.722C485.814 110.722 486.212 110.66 486.567 110.537C486.927 110.409 487.237 110.22 487.497 109.969C487.758 109.713 487.959 109.396 488.101 109.017L489.72 109.472C489.55 110.021 489.263 110.504 488.861 110.92C488.458 111.332 487.961 111.654 487.369 111.886C486.777 112.114 486.112 112.227 485.374 112.227ZM496.56 112.227C495.651 112.227 494.848 111.998 494.152 111.538C493.456 111.074 492.911 110.421 492.518 109.578C492.125 108.731 491.929 107.729 491.929 106.574C491.929 105.428 492.125 104.434 492.518 103.591C492.911 102.748 493.458 102.097 494.159 101.638C494.86 101.179 495.67 100.949 496.588 100.949C497.298 100.949 497.859 101.067 498.271 101.304C498.688 101.536 499.005 101.801 499.223 102.099C499.446 102.393 499.618 102.634 499.741 102.824H499.884V97.4545H501.56V112H499.94V110.324H499.741C499.618 110.523 499.443 110.774 499.216 111.077C498.989 111.375 498.664 111.643 498.243 111.879C497.821 112.111 497.26 112.227 496.56 112.227ZM496.787 110.722C497.459 110.722 498.027 110.546 498.491 110.196C498.955 109.841 499.308 109.351 499.55 108.726C499.791 108.096 499.912 107.369 499.912 106.545C499.912 105.731 499.794 105.018 499.557 104.408C499.32 103.792 498.97 103.314 498.506 102.973C498.042 102.627 497.469 102.455 496.787 102.455C496.077 102.455 495.485 102.637 495.011 103.001C494.543 103.361 494.19 103.851 493.953 104.472C493.721 105.087 493.605 105.778 493.605 106.545C493.605 107.322 493.723 108.027 493.96 108.662C494.202 109.292 494.557 109.794 495.026 110.168C495.499 110.537 496.086 110.722 496.787 110.722ZM514.919 112.227C513.896 112.227 513.016 111.986 512.277 111.503C511.538 111.02 510.97 110.355 510.572 109.507C510.175 108.66 509.976 107.691 509.976 106.602C509.976 105.494 510.179 104.517 510.587 103.669C510.999 102.817 511.571 102.152 512.305 101.673C513.044 101.19 513.906 100.949 514.891 100.949C515.658 100.949 516.349 101.091 516.964 101.375C517.58 101.659 518.084 102.057 518.477 102.568C518.87 103.08 519.114 103.676 519.209 104.358H517.533C517.405 103.861 517.121 103.42 516.68 103.037C516.245 102.649 515.658 102.455 514.919 102.455C514.266 102.455 513.693 102.625 513.2 102.966C512.713 103.302 512.331 103.778 512.057 104.393C511.787 105.004 511.652 105.722 511.652 106.545C511.652 107.388 511.785 108.122 512.05 108.747C512.32 109.372 512.698 109.857 513.186 110.203C513.679 110.549 514.256 110.722 514.919 110.722C515.355 110.722 515.75 110.646 516.105 110.494C516.46 110.343 516.761 110.125 517.007 109.841C517.253 109.557 517.429 109.216 517.533 108.818H519.209C519.114 109.462 518.88 110.042 518.506 110.558C518.136 111.07 517.646 111.477 517.036 111.78C516.429 112.078 515.724 112.227 514.919 112.227ZM524.869 112.256C524.178 112.256 523.551 112.125 522.987 111.865C522.424 111.6 521.976 111.219 521.645 110.722C521.313 110.22 521.148 109.614 521.148 108.903C521.148 108.278 521.271 107.772 521.517 107.384C521.763 106.991 522.092 106.683 522.504 106.46C522.916 106.238 523.371 106.072 523.868 105.963C524.37 105.849 524.874 105.759 525.381 105.693C526.044 105.608 526.581 105.544 526.993 105.501C527.41 105.454 527.713 105.376 527.902 105.267C528.096 105.158 528.193 104.969 528.193 104.699V104.642C528.193 103.941 528.001 103.397 527.618 103.009C527.239 102.62 526.664 102.426 525.892 102.426C525.092 102.426 524.464 102.601 524.01 102.952C523.555 103.302 523.236 103.676 523.051 104.074L521.46 103.506C521.744 102.843 522.123 102.327 522.597 101.957C523.075 101.583 523.596 101.323 524.159 101.176C524.727 101.025 525.286 100.949 525.835 100.949C526.186 100.949 526.588 100.991 527.043 101.077C527.502 101.157 527.945 101.325 528.371 101.581C528.802 101.837 529.159 102.223 529.443 102.739C529.727 103.255 529.869 103.946 529.869 104.812V112H528.193V110.523H528.108C527.994 110.759 527.805 111.013 527.54 111.283C527.275 111.553 526.922 111.782 526.482 111.972C526.041 112.161 525.504 112.256 524.869 112.256ZM525.125 110.75C525.788 110.75 526.347 110.62 526.801 110.359C527.26 110.099 527.606 109.763 527.838 109.351C528.075 108.939 528.193 108.506 528.193 108.051V106.517C528.122 106.602 527.966 106.68 527.724 106.751C527.488 106.818 527.213 106.877 526.901 106.929C526.593 106.976 526.292 107.019 525.999 107.057C525.71 107.09 525.475 107.118 525.295 107.142C524.86 107.199 524.453 107.291 524.074 107.419C523.7 107.542 523.397 107.729 523.165 107.98C522.938 108.226 522.824 108.562 522.824 108.989C522.824 109.571 523.039 110.011 523.47 110.31C523.906 110.603 524.457 110.75 525.125 110.75ZM533.156 112V97.4545H534.832V102.824H534.974C535.097 102.634 535.268 102.393 535.485 102.099C535.708 101.801 536.025 101.536 536.437 101.304C536.854 101.067 537.417 100.949 538.127 100.949C539.046 100.949 539.856 101.179 540.556 101.638C541.257 102.097 541.804 102.748 542.197 103.591C542.59 104.434 542.787 105.428 542.787 106.574C542.787 107.729 542.59 108.731 542.197 109.578C541.804 110.421 541.26 111.074 540.564 111.538C539.868 111.998 539.065 112.227 538.156 112.227C537.455 112.227 536.894 112.111 536.473 111.879C536.051 111.643 535.727 111.375 535.5 111.077C535.272 110.774 535.097 110.523 534.974 110.324H534.775V112H533.156ZM534.804 106.545C534.804 107.369 534.924 108.096 535.166 108.726C535.407 109.351 535.76 109.841 536.224 110.196C536.688 110.546 537.256 110.722 537.929 110.722C538.629 110.722 539.214 110.537 539.683 110.168C540.156 109.794 540.511 109.292 540.748 108.662C540.99 108.027 541.11 107.322 541.11 106.545C541.11 105.778 540.992 105.087 540.755 104.472C540.523 103.851 540.171 103.361 539.697 103.001C539.228 102.637 538.639 102.455 537.929 102.455C537.247 102.455 536.674 102.627 536.21 102.973C535.746 103.314 535.395 103.792 535.159 104.408C534.922 105.018 534.804 105.731 534.804 106.545ZM545.578 112V97.4545H554.356V99.017H547.339V103.932H553.902V105.494H547.339V110.438H554.47V112H545.578ZM562.73 112L565.116 97.4545H566.537L564.15 112H562.73ZM556.11 107.966L556.338 106.545H567.19L566.963 107.966H556.11ZM557.616 112L560.002 97.4545H561.423L559.037 112H557.616ZM556.963 102.909L557.19 101.489H568.042L567.815 102.909H556.963Z" fill="black"/>
</g>
<defs>
<clipPath id="clip0_9_47">
<rect width="2810.5" height="2528.17" fill="white"/>
</clipPath>
</defs>
</svg>
