<svg width="2551" height="1369" viewBox="0 0 2551 1369" fill="none" xmlns="http://www.w3.org/2000/svg">
<g clip-path="url(#clip0_1_2)">
<path d="M0.652344 959.684V1367.51L2435.65 1368.5V0H866.317V358.798H1559V955L0.652344 959.684Z" stroke="black"/>
<path d="M1843.52 634.732C1843.59 635.88 1843.75 637.019 1843.98 638.139C1844.76 641.833 1846.25 645.282 1848.34 648.237C1850.55 651.363 1853.27 653.96 1856.36 655.88C1860.59 658.383 1865.24 659.816 1870 660.081L1869.83 634.785L1843.52 634.732Z" stroke="#1A1818" stroke-miterlimit="10"/>
<path d="M1843.09 634.732C1843.01 635.882 1842.84 637.022 1842.6 638.14C1841.74 641.88 1840.15 645.347 1837.95 648.277C1835.59 651.421 1832.71 654.002 1829.47 655.874C1824.95 658.39 1820.02 659.821 1815 660.081L1815.19 634.786L1843.09 634.732Z" stroke="#1A1818" stroke-miterlimit="10"/>
<path d="M2436.9 412.751H2389.1V442.562H2436.9V412.751Z" fill="#0000FF" fill-opacity="0.1" stroke="black" stroke-width="0.2"/>
<path d="M2404.08 418.651H2403.02C2402.96 418.347 2402.85 418.08 2402.69 417.85C2402.54 417.62 2402.35 417.426 2402.13 417.27C2401.91 417.111 2401.67 416.992 2401.4 416.912C2401.14 416.833 2400.86 416.793 2400.57 416.793C2400.04 416.793 2399.56 416.926 2399.13 417.193C2398.71 417.46 2398.37 417.854 2398.11 418.374C2397.86 418.894 2397.74 419.531 2397.74 420.287C2397.74 421.043 2397.86 421.681 2398.11 422.2C2398.37 422.72 2398.71 423.114 2399.13 423.381C2399.56 423.648 2400.04 423.781 2400.57 423.781C2400.86 423.781 2401.14 423.742 2401.4 423.662C2401.67 423.583 2401.91 423.465 2402.13 423.308C2402.35 423.149 2402.54 422.955 2402.69 422.725C2402.85 422.492 2402.96 422.225 2403.02 421.923H2404.08C2404 422.37 2403.86 422.769 2403.64 423.121C2403.43 423.473 2403.17 423.773 2402.86 424.02C2402.55 424.264 2402.2 424.45 2401.81 424.578C2401.42 424.706 2401.01 424.77 2400.57 424.77C2399.82 424.77 2399.16 424.588 2398.58 424.225C2398 423.861 2397.55 423.344 2397.21 422.673C2396.88 422.003 2396.72 421.208 2396.72 420.287C2396.72 419.367 2396.88 418.571 2397.21 417.901C2397.55 417.23 2398 416.713 2398.58 416.35C2399.16 415.986 2399.82 415.804 2400.57 415.804C2401.01 415.804 2401.42 415.868 2401.81 415.996C2402.2 416.124 2402.55 416.311 2402.86 416.558C2403.17 416.803 2403.43 417.101 2403.64 417.453C2403.86 417.803 2404 418.202 2404.08 418.651ZM2405.79 424.651V415.923H2408.74C2409.42 415.923 2409.98 416.04 2410.42 416.273C2410.85 416.503 2411.18 416.82 2411.39 417.223C2411.6 417.627 2411.7 418.085 2411.7 418.6C2411.7 419.114 2411.6 419.57 2411.39 419.968C2411.18 420.365 2410.85 420.678 2410.42 420.905C2409.98 421.129 2409.43 421.242 2408.75 421.242H2406.37V420.287H2408.72C2409.19 420.287 2409.56 420.219 2409.84 420.083C2410.13 419.946 2410.34 419.753 2410.47 419.503C2410.6 419.25 2410.66 418.949 2410.66 418.6C2410.66 418.25 2410.6 417.945 2410.47 417.683C2410.34 417.422 2410.13 417.22 2409.84 417.078C2409.55 416.933 2409.17 416.861 2408.7 416.861H2406.84V424.651H2405.79ZM2409.9 420.73L2412.04 424.651H2410.82L2408.7 420.73H2409.9ZM2413.82 424.651H2412.71L2415.92 415.923H2417.01L2420.21 424.651H2419.11L2416.5 417.304H2416.43L2413.82 424.651ZM2414.23 421.242H2418.7V422.179H2414.23V421.242ZM2421.57 424.651V415.923H2422.63V419.81H2427.28V415.923H2428.34V424.651H2427.28V420.747H2422.63V424.651H2421.57ZM2413.47 430.923V439.651H2412.41V432.031H2412.36L2410.23 433.446V432.372L2412.41 430.923H2413.47ZM2418.83 439.77C2418.19 439.77 2417.64 439.595 2417.19 439.246C2416.74 438.894 2416.39 438.384 2416.15 437.716C2415.91 437.046 2415.79 436.236 2415.79 435.287C2415.79 434.344 2415.91 433.539 2416.15 432.871C2416.39 432.2 2416.74 431.689 2417.19 431.337C2417.65 430.982 2418.19 430.804 2418.83 430.804C2419.46 430.804 2420.01 430.982 2420.46 431.337C2420.91 431.689 2421.26 432.2 2421.5 432.871C2421.74 433.539 2421.86 434.344 2421.86 435.287C2421.86 436.236 2421.74 437.046 2421.5 437.716C2421.27 438.384 2420.92 438.894 2420.47 439.246C2420.02 439.595 2419.47 439.77 2418.83 439.77ZM2418.83 438.833C2419.46 438.833 2419.96 438.526 2420.31 437.912C2420.66 437.298 2420.84 436.423 2420.84 435.287C2420.84 434.531 2420.76 433.888 2420.6 433.357C2420.44 432.825 2420.21 432.421 2419.91 432.142C2419.61 431.864 2419.25 431.725 2418.83 431.725C2418.2 431.725 2417.7 432.036 2417.35 432.658C2416.99 433.277 2416.82 434.154 2416.82 435.287C2416.82 436.043 2416.9 436.685 2417.06 437.213C2417.21 437.742 2417.44 438.144 2417.74 438.419C2418.04 438.695 2418.4 438.833 2418.83 438.833Z" fill="black"/>
<path d="M1612.8 907H1559V930.809H1612.8V907Z" fill="#0000FF" fill-opacity="0.1" stroke="black" stroke-width="0.2"/>
<path d="M1612.8 883H1559V906.809H1612.8V883Z" fill="#0000FF" fill-opacity="0.1" stroke="black" stroke-width="0.2"/>
<path d="M1612.8 859H1559V882.809H1612.8V859Z" fill="#0000FF" fill-opacity="0.25" stroke="black" stroke-width="0.2"/>
<path d="M1568 779.846V771.119H1569.05V775.449H1569.16L1573.08 771.119H1574.46L1570.79 775.057L1574.46 779.846H1573.18L1570.14 775.79L1569.05 777.017V779.846H1568ZM1575.82 779.846V771.119H1581.09V772.057H1576.88V775.005H1580.82V775.943H1576.88V778.909H1581.16V779.846H1575.82ZM1589.92 771.119V779.846H1588.89L1584.14 772.994H1584.05V779.846H1583V771.119H1584.02L1588.79 777.988H1588.88V771.119H1589.92ZM1598.05 779.966C1597.46 779.966 1596.95 779.862 1596.5 779.655C1596.05 779.444 1595.7 779.156 1595.45 778.79C1595.2 778.42 1595.08 778 1595.08 777.528C1595.08 777.159 1595.15 776.818 1595.3 776.505C1595.45 776.19 1595.65 775.927 1595.91 775.717C1596.16 775.504 1596.45 775.369 1596.77 775.312V775.261C1596.35 775.153 1596.02 774.919 1595.77 774.558C1595.53 774.194 1595.4 773.781 1595.41 773.318C1595.4 772.875 1595.52 772.478 1595.74 772.129C1595.97 771.78 1596.28 771.504 1596.68 771.302C1597.08 771.101 1597.54 771 1598.05 771C1598.55 771 1599.01 771.101 1599.4 771.302C1599.8 771.504 1600.11 771.78 1600.34 772.129C1600.57 772.478 1600.69 772.875 1600.69 773.318C1600.69 773.781 1600.56 774.194 1600.31 774.558C1600.06 774.919 1599.74 775.153 1599.33 775.261V775.312C1599.64 775.369 1599.93 775.504 1600.18 775.717C1600.43 775.927 1600.63 776.19 1600.78 776.505C1600.94 776.818 1601.01 777.159 1601.01 777.528C1601.01 778 1600.88 778.42 1600.63 778.79C1600.38 779.156 1600.03 779.444 1599.59 779.655C1599.14 779.862 1598.63 779.966 1598.05 779.966ZM1598.05 779.028C1598.44 779.028 1598.78 778.964 1599.07 778.836C1599.36 778.709 1599.58 778.528 1599.74 778.295C1599.89 778.062 1599.97 777.79 1599.98 777.477C1599.97 777.148 1599.89 776.856 1599.72 776.603C1599.55 776.351 1599.32 776.152 1599.03 776.007C1598.75 775.862 1598.42 775.79 1598.05 775.79C1597.68 775.79 1597.34 775.862 1597.05 776.007C1596.76 776.152 1596.53 776.351 1596.37 776.603C1596.2 776.856 1596.12 777.148 1596.12 777.477C1596.12 777.79 1596.2 778.062 1596.35 778.295C1596.5 778.528 1596.73 778.709 1597.02 778.836C1597.31 778.964 1597.65 779.028 1598.05 779.028ZM1598.05 774.886C1598.36 774.886 1598.64 774.824 1598.88 774.699C1599.12 774.574 1599.32 774.399 1599.46 774.175C1599.59 773.95 1599.67 773.687 1599.67 773.386C1599.67 773.091 1599.6 772.834 1599.46 772.615C1599.32 772.393 1599.13 772.223 1598.89 772.103C1598.65 771.981 1598.37 771.92 1598.05 771.92C1597.72 771.92 1597.44 771.981 1597.19 772.103C1596.95 772.223 1596.76 772.393 1596.63 772.615C1596.49 772.834 1596.43 773.091 1596.43 773.386C1596.43 773.687 1596.49 773.95 1596.63 774.175C1596.77 774.399 1596.96 774.574 1597.21 774.699C1597.45 774.824 1597.73 774.886 1598.05 774.886Z" fill="black"/>
<path d="M1612.8 835H1559V858.809H1612.8V835Z" fill="#0000FF" fill-opacity="0.25" stroke="black" stroke-width="0.2"/>
<path d="M1612.8 811H1559V834.809H1612.8V811Z" fill="#0000FF" fill-opacity="0.1" stroke="black" stroke-width="0.2"/>
<path d="M1612.8 787H1559V810.809H1612.8V787Z" fill="#0000FF" fill-opacity="0.1" stroke="black" stroke-width="0.2"/>
<path d="M1612.8 763H1559V786.809H1612.8V763Z" fill="#0000FF" fill-opacity="0.1" stroke="black" stroke-width="0.2"/>
<path d="M1568 899.846V891.119H1569.05V895.449H1569.16L1573.08 891.119H1574.46L1570.79 895.057L1574.46 899.846H1573.18L1570.14 895.789L1569.05 897.017V899.846H1568ZM1575.82 899.846V891.119H1581.09V892.057H1576.88V895.005H1580.82V895.943H1576.88V898.909H1581.16V899.846H1575.82ZM1589.92 891.119V899.846H1588.89L1584.14 892.994H1584.05V899.846H1583V891.119H1584.02L1588.79 897.988H1588.88V891.119H1589.92ZM1598.2 899.966C1597.64 899.966 1597.14 899.869 1596.7 899.676C1596.26 899.483 1595.91 899.214 1595.65 898.87C1595.4 898.524 1595.26 898.122 1595.24 897.664H1596.31C1596.33 897.946 1596.43 898.189 1596.6 898.393C1596.77 898.595 1596.99 898.751 1597.27 898.862C1597.54 898.973 1597.85 899.028 1598.19 899.028C1598.56 899.028 1598.89 898.963 1599.18 898.832C1599.47 898.701 1599.7 898.52 1599.86 898.287C1600.03 898.054 1600.11 897.784 1600.11 897.477C1600.11 897.156 1600.03 896.873 1599.87 896.629C1599.71 896.382 1599.48 896.189 1599.17 896.049C1598.87 895.91 1598.49 895.841 1598.05 895.841H1597.35V894.903H1598.05C1598.4 894.903 1598.7 894.841 1598.96 894.716C1599.23 894.591 1599.43 894.414 1599.58 894.187C1599.73 893.96 1599.8 893.693 1599.8 893.386C1599.8 893.091 1599.74 892.833 1599.61 892.615C1599.48 892.396 1599.29 892.226 1599.05 892.103C1598.82 891.981 1598.54 891.92 1598.22 891.92C1597.92 891.92 1597.63 891.976 1597.37 892.086C1597.1 892.194 1596.89 892.352 1596.72 892.559C1596.55 892.764 1596.46 893.011 1596.45 893.301H1595.42C1595.44 892.843 1595.58 892.443 1595.84 892.099C1596.1 891.753 1596.43 891.483 1596.85 891.289C1597.27 891.096 1597.73 891 1598.24 891C1598.78 891 1599.24 891.109 1599.63 891.328C1600.01 891.544 1600.31 891.829 1600.52 892.184C1600.72 892.539 1600.83 892.923 1600.83 893.335C1600.83 893.826 1600.7 894.245 1600.44 894.592C1600.18 894.939 1599.84 895.179 1599.4 895.312V895.38C1599.95 895.471 1600.38 895.706 1600.69 896.083C1601 896.458 1601.15 896.923 1601.15 897.477C1601.15 897.951 1601.02 898.378 1600.76 898.755C1600.51 899.13 1600.16 899.426 1599.72 899.642C1599.27 899.858 1598.77 899.966 1598.2 899.966Z" fill="black"/>
<path d="M1568 922.847V914.119H1569.05V918.449H1569.16L1573.08 914.119H1574.46L1570.79 918.057L1574.46 922.847H1573.18L1570.14 918.79L1569.05 920.017V922.847H1568ZM1575.82 922.847V914.119H1581.09V915.057H1576.88V918.006H1580.82V918.943H1576.88V921.909H1581.16V922.847H1575.82ZM1589.92 914.119V922.847H1588.89L1584.14 915.994H1584.05V922.847H1583V914.119H1584.02L1588.79 920.989H1588.88V914.119H1589.92ZM1595.25 922.847V922.08L1598.13 918.926C1598.47 918.557 1598.75 918.236 1598.97 917.963C1599.19 917.688 1599.35 917.429 1599.46 917.188C1599.56 916.943 1599.62 916.688 1599.62 916.421C1599.62 916.114 1599.54 915.848 1599.4 915.624C1599.25 915.399 1599.05 915.226 1598.8 915.104C1598.55 914.982 1598.26 914.921 1597.95 914.921C1597.61 914.921 1597.32 914.99 1597.07 915.129C1596.82 915.266 1596.63 915.457 1596.49 915.705C1596.36 915.952 1596.29 916.242 1596.29 916.574H1595.29C1595.29 916.063 1595.41 915.614 1595.64 915.227C1595.88 914.841 1596.2 914.54 1596.6 914.324C1597.01 914.108 1597.47 914 1597.98 914C1598.49 914 1598.95 914.108 1599.34 914.324C1599.74 914.54 1600.04 914.831 1600.27 915.197C1600.49 915.564 1600.61 915.972 1600.61 916.421C1600.61 916.742 1600.55 917.055 1600.43 917.362C1600.32 917.666 1600.12 918.006 1599.83 918.381C1599.55 918.753 1599.16 919.207 1598.66 919.744L1596.7 921.841V921.909H1600.76V922.847H1595.25Z" fill="black"/>
<path d="M1568 947.727V939H1569.05V943.33H1569.16L1573.08 939H1574.46L1570.79 942.938L1574.46 947.727H1573.18L1570.14 943.671L1569.05 944.898V947.727H1568ZM1575.82 947.727V939H1581.09V939.938H1576.88V942.887H1580.82V943.824H1576.88V946.79H1581.16V947.727H1575.82ZM1589.92 939V947.727H1588.89L1584.14 940.875H1584.05V947.727H1583V939H1584.02L1588.79 945.869H1588.88V939H1589.92ZM1598.32 939V947.727H1597.26V940.108H1597.21L1595.08 941.523V940.449L1597.26 939H1598.32Z" fill="black"/>
<path d="M1797.9 1343.09H1733.1V1368.9H1797.9V1343.09Z" fill="#0000FF" fill-opacity="0.1" stroke="black" stroke-width="0.2"/>
<path d="M1985.08 1353.99H1984.02C1983.96 1353.69 1983.85 1353.42 1983.69 1353.19C1983.54 1352.96 1983.35 1352.77 1983.13 1352.61C1982.91 1352.45 1982.67 1352.33 1982.4 1352.25C1982.14 1352.17 1981.86 1352.13 1981.57 1352.13C1981.04 1352.13 1980.56 1352.27 1980.13 1352.53C1979.71 1352.8 1979.37 1353.2 1979.11 1353.72C1978.86 1354.24 1978.74 1354.87 1978.74 1355.63C1978.74 1356.38 1978.86 1357.02 1979.11 1357.54C1979.37 1358.06 1979.71 1358.46 1980.13 1358.72C1980.56 1358.99 1981.04 1359.12 1981.57 1359.12C1981.86 1359.12 1982.14 1359.08 1982.4 1359C1982.67 1358.92 1982.91 1358.81 1983.13 1358.65C1983.35 1358.49 1983.54 1358.3 1983.69 1358.07C1983.85 1357.83 1983.96 1357.57 1984.02 1357.27H1985.08C1985 1357.71 1984.86 1358.11 1984.64 1358.46C1984.43 1358.81 1984.17 1359.11 1983.86 1359.36C1983.55 1359.61 1983.2 1359.79 1982.81 1359.92C1982.42 1360.05 1982.01 1360.11 1981.57 1360.11C1980.82 1360.11 1980.16 1359.93 1979.58 1359.57C1979 1359.2 1978.55 1358.69 1978.21 1358.02C1977.88 1357.34 1977.72 1356.55 1977.72 1355.63C1977.72 1354.71 1977.88 1353.91 1978.21 1353.24C1978.55 1352.57 1979 1352.05 1979.58 1351.69C1980.16 1351.33 1980.82 1351.15 1981.57 1351.15C1982.01 1351.15 1982.42 1351.21 1982.81 1351.34C1983.2 1351.47 1983.55 1351.65 1983.86 1351.9C1984.17 1352.14 1984.43 1352.44 1984.64 1352.79C1984.86 1353.14 1985 1353.54 1985.08 1353.99ZM1986.79 1359.99V1351.27H1989.74C1990.42 1351.27 1990.98 1351.38 1991.42 1351.61C1991.85 1351.84 1992.18 1352.16 1992.39 1352.56C1992.6 1352.97 1992.7 1353.43 1992.7 1353.94C1992.7 1354.46 1992.6 1354.91 1992.39 1355.31C1992.18 1355.71 1991.85 1356.02 1991.42 1356.25C1990.98 1356.47 1990.43 1356.58 1989.75 1356.58H1987.37V1355.63H1989.72C1990.19 1355.63 1990.56 1355.56 1990.84 1355.42C1991.13 1355.29 1991.34 1355.09 1991.47 1354.84C1991.6 1354.59 1991.66 1354.29 1991.66 1353.94C1991.66 1353.59 1991.6 1353.29 1991.47 1353.02C1991.34 1352.76 1991.13 1352.56 1990.84 1352.42C1990.55 1352.27 1990.17 1352.2 1989.7 1352.2H1987.84V1359.99H1986.79ZM1990.9 1356.07L1993.04 1359.99H1991.82L1989.7 1356.07H1990.9ZM1994.82 1359.99H1993.71L1996.92 1351.27H1998.01L2001.21 1359.99H2000.11L1997.5 1352.65H1997.43L1994.82 1359.99ZM1995.23 1356.58H1999.7V1357.52H1995.23V1356.58ZM2002.57 1359.99V1351.27H2003.63V1355.15H2008.28V1351.27H2009.34V1359.99H2008.28V1356.09H2003.63V1359.99H2002.57ZM2017.4 1360.11C2016.9 1360.11 2016.45 1360.01 2016.05 1359.81C2015.65 1359.61 2015.33 1359.34 2015.09 1359C2014.85 1358.65 2014.72 1358.25 2014.69 1357.81H2015.72C2015.76 1358.21 2015.94 1358.53 2016.25 1358.79C2016.57 1359.05 2016.96 1359.17 2017.4 1359.17C2017.76 1359.17 2018.08 1359.09 2018.36 1358.92C2018.64 1358.76 2018.86 1358.52 2019.02 1358.23C2019.18 1357.94 2019.26 1357.6 2019.26 1357.23C2019.26 1356.85 2019.18 1356.51 2019.01 1356.21C2018.85 1355.91 2018.62 1355.67 2018.33 1355.5C2018.04 1355.33 2017.71 1355.24 2017.34 1355.24C2017.07 1355.23 2016.79 1355.27 2016.51 1355.36C2016.23 1355.44 2016 1355.55 2015.82 1355.68L2014.83 1355.56L2015.36 1351.27H2019.89V1352.2H2016.25L2015.94 1354.78H2015.99C2016.17 1354.63 2016.39 1354.52 2016.66 1354.42C2016.93 1354.33 2017.21 1354.28 2017.51 1354.28C2018.04 1354.28 2018.52 1354.41 2018.93 1354.67C2019.35 1354.92 2019.68 1355.27 2019.92 1355.71C2020.16 1356.15 2020.28 1356.65 2020.28 1357.21C2020.28 1357.77 2020.16 1358.27 2019.91 1358.71C2019.66 1359.14 2019.32 1359.48 2018.89 1359.74C2018.45 1359.99 2017.96 1360.11 2017.4 1360.11Z" fill="black"/>
<path d="M0.650391 958.85L1027.32 956.349L1026.55 1367.51H0.650391V958.85Z" stroke="black" stroke-width="1.3"/>
<path d="M2006.32 188.069H2544.65V412.951H2006.32V188.069Z" stroke="black"/>
<path d="M2006.32 412.948V634.529H2544.65V412.948H2006.32Z" stroke="black"/>
<path d="M1660.15 634.899V500.183H2006.32V634.548L1660.15 634.899Z" stroke="black"/>
<path d="M1559.14 674C1557.72 674.126 1556.32 674.384 1554.95 674.77C1550.29 676.139 1546.03 678.623 1542.55 682.006C1538.6 685.813 1535.42 690.331 1533.15 695.322C1530.05 702.492 1528.3 710.176 1528 717.984L1559.07 717.697L1559.14 674Z" stroke="#1A1818" stroke-miterlimit="10"/>
<path d="M1559.14 674.381C1557.72 674.251 1556.32 673.985 1554.95 673.587C1550.25 672.14 1545.97 669.562 1542.5 666.078C1538.55 662.143 1535.38 657.498 1533.16 652.387C1530.05 644.966 1528.3 637.043 1528 629L1559.07 629.3L1559.14 674.381Z" stroke="#1A1818" stroke-miterlimit="10"/>
<path d="M2077.98 634.328C2078.07 635.476 2078.25 636.615 2078.51 637.735C2079.41 641.429 2081.12 644.877 2083.51 647.833C2086.03 650.959 2089.16 653.556 2092.69 655.475C2097.54 657.979 2102.87 659.411 2108.32 659.677L2108.12 634.381L2077.98 634.328Z" stroke="#1A1818" stroke-miterlimit="10"/>
<path d="M2077.49 634.328C2077.4 635.478 2077.21 636.618 2076.93 637.736C2075.95 641.476 2074.12 644.943 2071.6 647.873C2068.9 651.017 2065.6 653.598 2061.9 655.469C2056.71 657.985 2051.07 659.417 2045.32 659.677L2045.53 634.382L2077.49 634.328Z" stroke="#1A1818" stroke-miterlimit="10"/>
<path d="M2044.9 1343.09H1955.1V1368.9H2044.9V1343.09Z" fill="#0000FF" fill-opacity="0.1" stroke="black" stroke-width="0.2"/>
<path d="M2006.1 384.14C2006.77 384.091 2007.44 383.991 2008.09 383.84C2010.24 383.344 2012.25 382.388 2013.99 381.039C2015.8 379.637 2017.32 377.889 2018.45 375.896C2019.91 373.193 2020.74 370.2 2020.9 367.134L2006.13 367.245L2006.1 384.14Z" stroke="#1A1818" stroke-miterlimit="10"/>
<path d="M2006.1 383.473C2006.77 383.516 2007.43 383.604 2008.09 383.738C2010.21 384.173 2012.23 385.027 2014.01 386.249C2015.79 387.459 2017.3 389.016 2018.45 390.826C2019.89 393.193 2020.73 395.878 2020.9 398.646L2006.13 398.546L2006.1 383.473Z" stroke="#1A1818" stroke-miterlimit="10"/>
<path d="M1027.29 989.112C1027.98 989.058 1028.65 988.946 1029.32 988.778C1031.53 988.203 1033.57 987.129 1035.3 985.637C1037.17 984.023 1038.71 982.059 1039.83 979.857C1041.32 976.781 1042.16 973.434 1042.32 970.02L1027.33 970.145L1027.29 989.112Z" stroke="#1A1818" stroke-miterlimit="10"/>
<path d="M1027.3 989.985C1027.98 990.04 1028.66 990.154 1029.32 990.325C1031.54 990.919 1033.59 992.016 1035.33 993.532C1037.19 995.168 1038.73 997.154 1039.83 999.379C1041.32 1002.51 1042.17 1005.91 1042.32 1009.37L1027.33 1009.24L1027.3 989.985Z" stroke="#1A1818" stroke-miterlimit="10"/>
<path d="M1102.42 911.879C1104.05 912.007 1105.66 912.271 1107.24 912.668C1112.51 914.025 1117.39 916.568 1121.52 920.102C1125.98 923.915 1129.66 928.561 1132.34 933.781C1135.89 941.053 1137.91 948.977 1138.28 957.061L1102.5 956.761L1102.42 911.879Z" stroke="#1A1818" stroke-miterlimit="10"/>
<path d="M919.35 393.83C917.89 393.733 916.439 393.532 915.008 393.23C910.377 392.249 905.997 390.328 902.138 387.586C898.23 384.809 894.917 381.279 892.393 377.203C889.234 371.82 887.4 365.763 887.042 359.532L919.282 359.756L919.35 393.83Z" stroke="#1A1818" stroke-miterlimit="10"/>
<path d="M731.824 911.976C733.45 912.105 735.062 912.369 736.643 912.765C741.908 914.123 746.792 916.665 750.924 920.199C755.385 924.012 759.06 928.658 761.743 933.878C765.295 941.15 767.316 949.074 767.681 957.159L731.899 956.859L731.824 911.976Z" stroke="#1A1818" stroke-miterlimit="10"/>
<path d="M2550.65 163.06H2436.65V641.234H2550.65V163.06Z" fill="white"/>
<path d="M2435.9 635.1H2389.1V659.9H2435.9V635.1Z" fill="#0000FF" fill-opacity="0.1" stroke="black" stroke-width="0.2"/>
<path d="M2398.08 647H2397.02C2396.96 646.696 2396.85 646.429 2396.69 646.199C2396.54 645.969 2396.35 645.776 2396.13 645.619C2395.91 645.46 2395.67 645.341 2395.4 645.261C2395.14 645.182 2394.86 645.142 2394.57 645.142C2394.04 645.142 2393.56 645.276 2393.13 645.543C2392.71 645.81 2392.37 646.203 2392.11 646.723C2391.86 647.243 2391.74 647.881 2391.74 648.636C2391.74 649.392 2391.86 650.03 2392.11 650.55C2392.37 651.07 2392.71 651.463 2393.13 651.73C2393.56 651.997 2394.04 652.131 2394.57 652.131C2394.86 652.131 2395.14 652.091 2395.4 652.011C2395.67 651.932 2395.91 651.814 2396.13 651.658C2396.35 651.499 2396.54 651.304 2396.69 651.074C2396.85 650.841 2396.96 650.574 2397.02 650.273H2398.08C2398 650.719 2397.86 651.118 2397.64 651.47C2397.43 651.822 2397.17 652.122 2396.86 652.369C2396.55 652.614 2396.2 652.8 2395.81 652.928C2395.42 653.055 2395.01 653.119 2394.57 653.119C2393.82 653.119 2393.16 652.938 2392.58 652.574C2392 652.21 2391.55 651.693 2391.21 651.023C2390.88 650.352 2390.72 649.557 2390.72 648.636C2390.72 647.716 2390.88 646.92 2391.21 646.25C2391.55 645.58 2392 645.062 2392.58 644.699C2393.16 644.335 2393.82 644.153 2394.57 644.153C2395.01 644.153 2395.42 644.217 2395.81 644.345C2396.2 644.473 2396.55 644.661 2396.86 644.908C2397.17 645.152 2397.43 645.45 2397.64 645.803C2397.86 646.152 2398 646.551 2398.08 647ZM2399.79 653V644.273H2402.74C2403.42 644.273 2403.98 644.389 2404.42 644.622C2404.85 644.852 2405.18 645.169 2405.39 645.572C2405.6 645.976 2405.7 646.435 2405.7 646.949C2405.7 647.463 2405.6 647.919 2405.39 648.317C2405.18 648.714 2404.85 649.027 2404.42 649.254C2403.98 649.479 2403.43 649.591 2402.75 649.591H2400.37V648.636H2402.72C2403.19 648.636 2403.56 648.568 2403.84 648.432C2404.13 648.295 2404.34 648.102 2404.47 647.852C2404.6 647.599 2404.66 647.298 2404.66 646.949C2404.66 646.599 2404.6 646.294 2404.47 646.033C2404.34 645.771 2404.13 645.57 2403.84 645.428C2403.55 645.283 2403.17 645.21 2402.7 645.21H2400.84V653H2399.79ZM2403.9 649.08L2406.04 653H2404.82L2402.7 649.08H2403.9ZM2407.82 653H2406.71L2409.92 644.273H2411.01L2414.21 653H2413.11L2410.5 645.653H2410.43L2407.82 653ZM2408.23 649.591H2412.7V650.528H2408.23V649.591ZM2415.57 653V644.273H2416.63V648.159H2421.28V644.273H2422.34V653H2421.28V649.097H2416.63V653H2415.57ZM2430.4 653.119C2429.9 653.119 2429.45 653.02 2429.05 652.821C2428.65 652.622 2428.33 652.349 2428.09 652.003C2427.85 651.656 2427.72 651.261 2427.69 650.818H2428.72C2428.76 651.213 2428.94 651.54 2429.25 651.798C2429.57 652.054 2429.96 652.182 2430.4 652.182C2430.76 652.182 2431.08 652.098 2431.36 651.93C2431.64 651.763 2431.86 651.533 2432.02 651.24C2432.18 650.945 2432.26 650.611 2432.26 650.239C2432.26 649.858 2432.18 649.518 2432.01 649.22C2431.85 648.919 2431.62 648.682 2431.33 648.509C2431.04 648.335 2430.71 648.247 2430.34 648.244C2430.07 648.241 2429.79 648.283 2429.51 648.368C2429.23 648.45 2429 648.557 2428.82 648.688L2427.83 648.568L2428.36 644.273H2432.89V645.21H2429.25L2428.94 647.784H2428.99C2429.17 647.642 2429.39 647.524 2429.66 647.43C2429.93 647.337 2430.21 647.29 2430.51 647.29C2431.04 647.29 2431.52 647.418 2431.93 647.673C2432.35 647.926 2432.68 648.273 2432.92 648.713C2433.16 649.153 2433.28 649.656 2433.28 650.222C2433.28 650.778 2433.16 651.276 2432.91 651.713C2432.66 652.148 2432.32 652.491 2431.89 652.744C2431.45 652.994 2430.96 653.119 2430.4 653.119Z" fill="black"/>
<path d="M1612.8 931H1559V954.8H1612.8V931Z" fill="#0000FF" fill-opacity="0.1" stroke="black" stroke-width="0.2"/>
<path d="M1568 803.727V795H1569.05V799.329H1569.16L1573.08 795H1574.46L1570.79 798.937L1574.46 803.727H1573.18L1570.14 799.67L1569.05 800.897V803.727H1568ZM1575.82 803.727V795H1581.09V795.937H1576.88V798.886H1580.82V799.824H1576.88V802.789H1581.16V803.727H1575.82ZM1589.92 795V803.727H1588.89L1584.14 796.875H1584.05V803.727H1583V795H1584.02L1588.79 801.869H1588.88V795H1589.92ZM1595.53 803.727L1599.43 796.005V795.937H1594.93V795H1600.52V795.988L1596.63 803.727H1595.53Z" fill="black"/>
<path d="M1568 826.847V818.12H1569.05V822.449H1569.16L1573.08 818.12H1574.46L1570.79 822.057L1574.46 826.847H1573.18L1570.14 822.79L1569.05 824.017V826.847H1568ZM1575.82 826.847V818.12H1581.09V819.057H1576.88V822.006H1580.82V822.944H1576.88V825.909H1581.16V826.847H1575.82ZM1589.92 818.12V826.847H1588.89L1584.14 819.995H1584.05V826.847H1583V818.12H1584.02L1588.79 824.989H1588.88V818.12H1589.92ZM1598.15 826.966C1597.79 826.961 1597.44 826.892 1597.08 826.762C1596.72 826.631 1596.39 826.411 1596.1 826.101C1595.8 825.789 1595.56 825.367 1595.39 824.836C1595.21 824.302 1595.12 823.631 1595.12 822.824C1595.12 822.052 1595.19 821.367 1595.33 820.77C1595.48 820.171 1595.69 819.667 1595.97 819.258C1596.24 818.846 1596.57 818.533 1596.96 818.32C1597.35 818.107 1597.8 818 1598.29 818C1598.78 818 1599.21 818.098 1599.59 818.294C1599.98 818.488 1600.29 818.758 1600.53 819.104C1600.77 819.451 1600.93 819.85 1601 820.302H1599.96C1599.86 819.909 1599.67 819.584 1599.4 819.326C1599.12 819.067 1598.75 818.938 1598.29 818.938C1597.61 818.938 1597.08 819.232 1596.69 819.82C1596.3 820.408 1596.11 821.233 1596.11 822.296H1596.17C1596.33 822.054 1596.52 821.848 1596.74 821.678C1596.96 821.505 1597.21 821.371 1597.47 821.277C1597.74 821.184 1598.02 821.137 1598.32 821.137C1598.82 821.137 1599.28 821.262 1599.69 821.512C1600.11 821.759 1600.44 822.101 1600.69 822.539C1600.94 822.973 1601.07 823.472 1601.07 824.035C1601.07 824.574 1600.95 825.069 1600.7 825.517C1600.46 825.963 1600.12 826.319 1599.69 826.583C1599.25 826.844 1598.74 826.972 1598.15 826.966ZM1598.15 826.029C1598.51 826.029 1598.83 825.939 1599.11 825.76C1599.4 825.581 1599.63 825.341 1599.79 825.04C1599.96 824.739 1600.04 824.404 1600.04 824.035C1600.04 823.674 1599.96 823.346 1599.8 823.05C1599.64 822.752 1599.42 822.515 1599.14 822.338C1598.86 822.162 1598.54 822.074 1598.19 822.074C1597.92 822.074 1597.66 822.128 1597.43 822.236C1597.2 822.341 1596.99 822.486 1596.82 822.671C1596.64 822.856 1596.51 823.067 1596.41 823.306C1596.31 823.542 1596.26 823.79 1596.26 824.052C1596.26 824.398 1596.34 824.722 1596.5 825.023C1596.67 825.324 1596.89 825.567 1597.18 825.752C1597.46 825.936 1597.79 826.029 1598.15 826.029Z" fill="black"/>
<path d="M1751.08 1354H1750.02C1749.96 1353.7 1749.85 1353.43 1749.69 1353.2C1749.54 1352.97 1749.35 1352.78 1749.13 1352.62C1748.91 1352.46 1748.67 1352.34 1748.4 1352.26C1748.14 1352.18 1747.86 1352.14 1747.57 1352.14C1747.04 1352.14 1746.56 1352.28 1746.13 1352.54C1745.71 1352.81 1745.37 1353.2 1745.11 1353.72C1744.86 1354.24 1744.74 1354.88 1744.74 1355.64C1744.74 1356.39 1744.86 1357.03 1745.11 1357.55C1745.37 1358.07 1745.71 1358.46 1746.13 1358.73C1746.56 1359 1747.04 1359.13 1747.57 1359.13C1747.86 1359.13 1748.14 1359.09 1748.4 1359.01C1748.67 1358.93 1748.91 1358.81 1749.13 1358.66C1749.35 1358.5 1749.54 1358.3 1749.69 1358.07C1749.85 1357.84 1749.96 1357.57 1750.02 1357.27H1751.08C1751 1357.72 1750.86 1358.12 1750.64 1358.47C1750.43 1358.82 1750.17 1359.12 1749.86 1359.37C1749.55 1359.61 1749.2 1359.8 1748.81 1359.93C1748.42 1360.06 1748.01 1360.12 1747.57 1360.12C1746.82 1360.12 1746.16 1359.94 1745.58 1359.57C1745 1359.21 1744.55 1358.69 1744.21 1358.02C1743.88 1357.35 1743.72 1356.56 1743.72 1355.64C1743.72 1354.72 1743.88 1353.92 1744.21 1353.25C1744.55 1352.58 1745 1352.06 1745.58 1351.7C1746.16 1351.34 1746.82 1351.15 1747.57 1351.15C1748.01 1351.15 1748.42 1351.22 1748.81 1351.35C1749.2 1351.47 1749.55 1351.66 1749.86 1351.91C1750.17 1352.15 1750.43 1352.45 1750.64 1352.8C1750.86 1353.15 1751 1353.55 1751.08 1354ZM1752.79 1360V1351.27H1755.74C1756.42 1351.27 1756.98 1351.39 1757.42 1351.62C1757.85 1351.85 1758.18 1352.17 1758.39 1352.57C1758.6 1352.98 1758.7 1353.43 1758.7 1353.95C1758.7 1354.46 1758.6 1354.92 1758.39 1355.32C1758.18 1355.71 1757.85 1356.03 1757.42 1356.25C1756.98 1356.48 1756.43 1356.59 1755.75 1356.59H1753.37V1355.64H1755.72C1756.19 1355.64 1756.56 1355.57 1756.84 1355.43C1757.13 1355.3 1757.34 1355.1 1757.47 1354.85C1757.6 1354.6 1757.66 1354.3 1757.66 1353.95C1757.66 1353.6 1757.6 1353.29 1757.47 1353.03C1757.34 1352.77 1757.13 1352.57 1756.84 1352.43C1756.55 1352.28 1756.17 1352.21 1755.7 1352.21H1753.84V1360H1752.79ZM1756.9 1356.08L1759.04 1360H1757.82L1755.7 1356.08H1756.9ZM1760.82 1360H1759.71L1762.92 1351.27H1764.01L1767.21 1360H1766.11L1763.5 1352.65H1763.43L1760.82 1360ZM1761.23 1356.59H1765.7V1357.53H1761.23V1356.59ZM1768.57 1360V1351.27H1769.63V1355.16H1774.28V1351.27H1775.34V1360H1774.28V1356.1H1769.63V1360H1768.57ZM1783.4 1360.12C1782.9 1360.12 1782.45 1360.02 1782.05 1359.82C1781.65 1359.62 1781.33 1359.35 1781.09 1359C1780.85 1358.66 1780.72 1358.26 1780.69 1357.82H1781.72C1781.76 1358.21 1781.94 1358.54 1782.25 1358.8C1782.57 1359.05 1782.96 1359.18 1783.4 1359.18C1783.76 1359.18 1784.08 1359.1 1784.36 1358.93C1784.64 1358.76 1784.86 1358.53 1785.02 1358.24C1785.18 1357.94 1785.26 1357.61 1785.26 1357.24C1785.26 1356.86 1785.18 1356.52 1785.01 1356.22C1784.85 1355.92 1784.62 1355.68 1784.33 1355.51C1784.04 1355.34 1783.71 1355.25 1783.34 1355.24C1783.07 1355.24 1782.79 1355.28 1782.51 1355.37C1782.23 1355.45 1782 1355.56 1781.82 1355.69L1780.83 1355.57L1781.36 1351.27H1785.89V1352.21H1782.25L1781.94 1354.78H1781.99C1782.17 1354.64 1782.39 1354.52 1782.66 1354.43C1782.93 1354.34 1783.21 1354.29 1783.51 1354.29C1784.04 1354.29 1784.52 1354.42 1784.93 1354.67C1785.35 1354.93 1785.68 1355.27 1785.92 1355.71C1786.16 1356.15 1786.28 1356.66 1786.28 1357.22C1786.28 1357.78 1786.16 1358.28 1785.91 1358.71C1785.66 1359.15 1785.32 1359.49 1784.89 1359.74C1784.45 1359.99 1783.96 1360.12 1783.4 1360.12Z" fill="black"/>
<path d="M1613 401H1559V425H1613V401Z" fill="#0000FF" fill-opacity="0.1" stroke="black" stroke-width="0.2"/>
<path d="M1612.8 425H1559V448.809H1612.8V425Z" fill="#0000FF" fill-opacity="0.1" stroke="black" stroke-width="0.2"/>
<path d="M1612.8 449H1559V472.809H1612.8V449Z" fill="#0000FF" fill-opacity="0.25" stroke="black" stroke-width="0.2"/>
<path d="M1612.8 473H1559V496.809H1612.8V473Z" fill="#0000FF" fill-opacity="0.25" stroke="black" stroke-width="0.2"/>
<path d="M1612.8 521H1559V544.809H1612.8V521Z" fill="#0000FF" fill-opacity="0.1" stroke="black" stroke-width="0.2"/>
<path d="M1612.8 497H1559V520.809H1612.8V497Z" fill="#0000FF" fill-opacity="0.1" stroke="black" stroke-width="0.2"/>
<path d="M1567.97 442V434H1568.94V437.969H1569.03L1572.62 434H1573.89L1570.53 437.609L1573.89 442H1572.72L1569.94 438.281L1568.94 439.406V442H1567.97ZM1575.14 442V434H1579.97V434.859H1576.11V437.562H1579.72V438.422H1576.11V441.141H1580.04V442H1575.14ZM1588.06 434V442H1587.13L1582.77 435.719H1582.69V442H1581.72V434H1582.66L1587.03 440.297H1587.11V434H1588.06ZM1595.77 434V442H1594.8V435.016H1594.75L1592.8 436.312V435.328L1594.8 434H1595.77ZM1600.77 442.109C1600.25 442.109 1599.8 442.021 1599.39 441.844C1598.99 441.667 1598.67 441.421 1598.43 441.105C1598.2 440.788 1598.07 440.419 1598.05 440H1599.04C1599.06 440.258 1599.15 440.48 1599.3 440.668C1599.46 440.853 1599.66 440.996 1599.92 441.098C1600.17 441.199 1600.45 441.25 1600.75 441.25C1601.1 441.25 1601.4 441.19 1601.67 441.07C1601.93 440.951 1602.14 440.784 1602.29 440.57C1602.44 440.357 1602.52 440.109 1602.52 439.828C1602.52 439.534 1602.45 439.275 1602.3 439.051C1602.16 438.824 1601.94 438.647 1601.66 438.52C1601.38 438.392 1601.04 438.328 1600.63 438.328H1599.99V437.469H1600.63C1600.95 437.469 1601.23 437.411 1601.47 437.297C1601.71 437.182 1601.9 437.021 1602.03 436.812C1602.17 436.604 1602.24 436.359 1602.24 436.078C1602.24 435.807 1602.18 435.572 1602.06 435.371C1601.94 435.171 1601.77 435.014 1601.55 434.902C1601.34 434.79 1601.08 434.734 1600.79 434.734C1600.51 434.734 1600.25 434.785 1600 434.887C1599.76 434.986 1599.56 435.13 1599.41 435.32C1599.26 435.508 1599.17 435.734 1599.16 436H1598.22C1598.24 435.581 1598.37 435.214 1598.6 434.898C1598.84 434.581 1599.15 434.333 1599.53 434.156C1599.92 433.979 1600.34 433.891 1600.8 433.891C1601.3 433.891 1601.72 433.991 1602.08 434.191C1602.43 434.389 1602.7 434.651 1602.89 434.977C1603.08 435.302 1603.18 435.654 1603.18 436.031C1603.18 436.482 1603.06 436.866 1602.82 437.184C1602.59 437.501 1602.27 437.721 1601.86 437.844V437.906C1602.37 437.99 1602.76 438.204 1603.05 438.551C1603.33 438.895 1603.47 439.32 1603.47 439.828C1603.47 440.263 1603.36 440.654 1603.12 441C1602.88 441.344 1602.56 441.615 1602.16 441.812C1601.75 442.01 1601.29 442.109 1600.77 442.109Z" fill="black"/>
<path d="M1567.97 537V529H1568.94V532.969H1569.03L1572.62 529H1573.89L1570.53 532.609L1573.89 537H1572.72L1569.94 533.281L1568.94 534.406V537H1567.97ZM1575.14 537V529H1579.97V529.859H1576.11V532.562H1579.72V533.422H1576.11V536.141H1580.04V537H1575.14ZM1588.06 529V537H1587.13L1582.77 530.719H1582.69V537H1581.72V529H1582.66L1587.03 535.297H1587.11V529H1588.06ZM1595.5 528.891C1595.83 528.893 1596.16 528.956 1596.49 529.078C1596.81 529.201 1597.11 529.404 1597.38 529.687C1597.65 529.969 1597.87 530.353 1598.04 530.84C1598.2 531.327 1598.28 531.937 1598.28 532.672C1598.28 533.383 1598.21 534.014 1598.08 534.566C1597.95 535.116 1597.75 535.579 1597.5 535.957C1597.25 536.335 1596.95 536.621 1596.59 536.816C1596.23 537.012 1595.83 537.109 1595.38 537.109C1594.93 537.109 1594.53 537.021 1594.18 536.844C1593.83 536.664 1593.54 536.415 1593.32 536.098C1593.1 535.777 1592.95 535.406 1592.89 534.984H1593.84C1593.93 535.352 1594.1 535.655 1594.36 535.895C1594.61 536.132 1594.95 536.25 1595.38 536.25C1595.99 536.25 1596.48 535.98 1596.84 535.441C1597.2 534.902 1597.38 534.141 1597.38 533.156H1597.31C1597.17 533.375 1596.99 533.564 1596.79 533.723C1596.59 533.882 1596.37 534.004 1596.13 534.09C1595.88 534.176 1595.62 534.219 1595.34 534.219C1594.89 534.219 1594.47 534.105 1594.08 533.879C1593.7 533.65 1593.4 533.336 1593.17 532.937C1592.94 532.536 1592.83 532.078 1592.83 531.562C1592.83 531.073 1592.94 530.625 1593.16 530.219C1593.38 529.81 1593.69 529.484 1594.09 529.242C1594.49 529 1594.96 528.883 1595.5 528.891ZM1595.5 529.75C1595.17 529.75 1594.88 529.832 1594.61 529.996C1594.35 530.158 1594.15 530.376 1593.99 530.652C1593.84 530.926 1593.77 531.229 1593.77 531.562C1593.77 531.896 1593.84 532.199 1593.99 532.473C1594.13 532.743 1594.34 532.96 1594.59 533.121C1594.85 533.28 1595.14 533.359 1595.47 533.359C1595.72 533.359 1595.95 533.311 1596.16 533.215C1596.37 533.116 1596.56 532.982 1596.72 532.812C1596.88 532.641 1597.01 532.447 1597.1 532.23C1597.19 532.012 1597.24 531.784 1597.24 531.547C1597.24 531.234 1597.16 530.941 1597.01 530.668C1596.86 530.395 1596.65 530.173 1596.39 530.004C1596.13 529.835 1595.83 529.75 1595.5 529.75Z" fill="black"/>
<path d="M1567.97 514V506H1568.94V509.969H1569.03L1572.62 506H1573.89L1570.53 509.609L1573.89 514H1572.72L1569.94 510.281L1568.94 511.406V514H1567.97ZM1575.14 514V506H1579.97V506.859H1576.11V509.562H1579.72V510.422H1576.11V513.141H1580.04V514H1575.14ZM1588.06 506V514H1587.13L1582.77 507.719H1582.69V514H1581.72V506H1582.66L1587.03 512.297H1587.11V506H1588.06ZM1595.77 506V514H1594.8V507.016H1594.75L1592.8 508.312V507.328L1594.8 506H1595.77ZM1600.68 514.109C1600.09 514.109 1599.59 513.949 1599.17 513.629C1598.76 513.306 1598.44 512.839 1598.22 512.227C1598 511.612 1597.9 510.87 1597.9 510C1597.9 509.135 1598 508.397 1598.22 507.785C1598.44 507.171 1598.76 506.702 1599.18 506.379C1599.59 506.053 1600.09 505.891 1600.68 505.891C1601.26 505.891 1601.76 506.053 1602.17 506.379C1602.59 506.702 1602.91 507.171 1603.13 507.785C1603.35 508.397 1603.46 509.135 1603.46 510C1603.46 510.87 1603.35 511.612 1603.13 512.227C1602.91 512.839 1602.59 513.306 1602.18 513.629C1601.77 513.949 1601.27 514.109 1600.68 514.109ZM1600.68 513.25C1601.26 513.25 1601.71 512.969 1602.04 512.406C1602.36 511.844 1602.52 511.042 1602.52 510C1602.52 509.307 1602.45 508.717 1602.3 508.23C1602.15 507.743 1601.94 507.372 1601.67 507.117C1601.39 506.862 1601.06 506.734 1600.68 506.734C1600.1 506.734 1599.65 507.02 1599.32 507.59C1599 508.158 1598.83 508.961 1598.83 510C1598.83 510.693 1598.91 511.281 1599.05 511.766C1599.2 512.25 1599.41 512.618 1599.68 512.871C1599.96 513.124 1600.29 513.25 1600.68 513.25Z" fill="black"/>
<path d="M1567.97 418V410H1568.94V413.969H1569.03L1572.62 410H1573.89L1570.53 413.609L1573.89 418H1572.72L1569.94 414.281L1568.94 415.406V418H1567.97ZM1575.14 418V410H1579.97V410.859H1576.11V413.562H1579.72V414.422H1576.11V417.141H1580.04V418H1575.14ZM1588.06 410V418H1587.13L1582.77 411.719H1582.69V418H1581.72V410H1582.66L1587.03 416.297H1587.11V410H1588.06ZM1595.77 410V418H1594.8V411.016H1594.75L1592.8 412.312V411.328L1594.8 410H1595.77ZM1597.88 416.359V415.562L1601.4 410H1601.97V411.234H1601.58L1598.93 415.437V415.5H1603.66V416.359H1597.88ZM1601.65 418V416.117V415.746V410H1602.57V418H1601.65Z" fill="black"/>
</g>
<defs>
<clipPath id="clip0_1_2">
<rect width="2551" height="1369" fill="white"/>
</clipPath>
</defs>
</svg>
