<svg width="2811" height="2529" viewBox="0 0 2811 2529" fill="none" xmlns="http://www.w3.org/2000/svg">
<path d="M1.25 666.75V0.75H2809.25V2527.42H1313.25V666.75H1.25Z" stroke="black" stroke-width="1.5"/>
<path d="M1.25 486.083H261.25V116.75H1.25V486.083Z" stroke="black" stroke-width="2.5"/>
<path d="M261.25 257.75H713.25V116.75H1699.92V0.75" stroke="black"/>
<path d="M2318.58 624.75V1233.75H2809.25V624.75H2318.58Z" stroke="black" stroke-width="2.5"/>
<path d="M2318.58 802.75H2809.25" stroke="black"/>
<path d="M80.8455 666.513C80.9715 667.929 81.229 669.331 81.6145 670.699C82.9838 675.36 85.4665 679.618 88.8485 683.105C92.6541 687.047 97.1703 690.234 102.159 692.499C109.327 695.604 117.008 697.353 124.813 697.655L124.526 666.578L80.8455 666.513Z" stroke="#1A1818" stroke-miterlimit="10"/>
<path d="M80.8455 666.512C80.7152 667.93 80.4494 669.332 80.0515 670.699C78.6054 675.402 76.0282 679.679 72.5455 683.155C68.6116 687.1 63.9683 690.266 58.8595 692.488C51.4408 695.603 43.5209 697.353 35.4805 697.655L35.7805 666.579L80.8455 666.512Z" stroke="#1A1818" stroke-miterlimit="10"/>
<path d="M1313.58 1233.96C1315.38 1233.8 1317.16 1233.48 1318.91 1232.99C1324.83 1231.28 1330.25 1228.16 1334.71 1223.91C1339.72 1219.15 1343.78 1213.47 1346.68 1207.19C1350.63 1198.21 1352.86 1188.56 1353.25 1178.75L1313.66 1179.11L1313.58 1233.96Z" stroke="#1A1818" stroke-miterlimit="10"/>
<path d="M1313.58 1233.96C1315.38 1234.11 1317.16 1234.42 1318.91 1234.88C1324.81 1236.51 1330.24 1239.5 1334.78 1243.62C1339.74 1248.1 1343.77 1253.51 1346.67 1259.54C1350.62 1268.09 1352.85 1277.34 1353.25 1286.75L1313.66 1286.4L1313.58 1233.96Z" stroke="#1A1818" stroke-miterlimit="10"/>
<path d="M2318.72 1120.35C2317.3 1120.48 2315.9 1120.74 2314.53 1121.12C2309.87 1122.49 2305.61 1124.98 2302.12 1128.36C2298.18 1132.16 2295 1136.68 2292.73 1141.67C2289.63 1148.84 2287.88 1156.52 2287.57 1164.32L2318.65 1164.04L2318.72 1120.35Z" stroke="#1A1818" stroke-miterlimit="10"/>
<path d="M2318.72 1120.35C2317.3 1120.22 2315.9 1119.96 2314.53 1119.56C2309.83 1118.11 2305.55 1115.54 2302.07 1112.05C2298.13 1108.12 2294.96 1103.48 2292.74 1098.37C2289.63 1090.95 2287.88 1083.03 2287.57 1074.99L2318.65 1075.29L2318.72 1120.35Z" stroke="#1A1818" stroke-miterlimit="10"/>
<path d="M2319.11 658.45C2317.19 658.574 2315.28 658.831 2313.39 659.218C2307.31 660.462 2301.54 662.923 2296.43 666.453C2291.3 669.986 2286.93 674.512 2283.59 679.764C2279.44 686.632 2277.02 694.407 2276.54 702.418L2319.02 702.131L2319.11 658.45Z" stroke="#1A1818" stroke-miterlimit="10"/>
<path d="M261.25 370.416C259.327 370.54 257.415 370.797 255.528 371.184C249.445 372.428 243.676 374.889 238.568 378.419C233.439 381.952 229.072 386.478 225.726 391.73C221.573 398.598 219.154 406.373 218.678 414.384L261.161 414.097L261.25 370.416Z" stroke="#1A1818" stroke-miterlimit="10"/>
</svg>
