<svg xmlns="http://www.w3.org/2000/svg" width="2810.5" height="2528.167" viewBox="0 0 2810.5 2528.167">
  <g id="op-166" transform="translate(11025.25 3040.75)">
    <path id="Path_111" data-name="Path 111" d="M-11024-2374v-666h2808V-513.333H-9712V-2374Z" fill="none" stroke="#000" stroke-width="1.5"/>
    <path id="Path_112" data-name="Path 112" d="M-11024-2554.667h260V-2924h-260Z" fill="none" stroke="#000" stroke-width="2.5"/>
    <path id="Path_113" data-name="Path 113" d="M-10764-2783h452v-141h986.667v-116" fill="none" stroke="#000" stroke-width="1"/>
    <path id="Path_114" data-name="Path 114" d="M-8608-2480v609h490.666v-609Z" transform="translate(-98.667 64)" fill="none" stroke="#000" stroke-width="2.5"/>
    <path id="Path_115" data-name="Path 115" d="M-8608-2316h490.666" transform="translate(-98.666 78)" fill="none" stroke="#000" stroke-width="1"/>
    <path id="Path_116" data-name="Path 116" d="M-8608-1952v113.667h490.666V-1952Z" transform="translate(-98.666 145)" fill="none" stroke="#000" stroke-width="1"/>
    <path id="Path_117" data-name="Path 117" d="M-8608-1952v134.333h490.137V-1952Z" transform="translate(-98.138 258.667)" fill="none" stroke="#000" stroke-width="1"/>
    <g id="Group_45" data-name="Group 45" transform="translate(-10893.737 -2343.095) rotate(-180)">
      <path id="Path_60" data-name="Path 60" d="M43.968,31.142a22.941,22.941,0,0,0-.769-4.186A29.945,29.945,0,0,0,35.965,14.55,43.487,43.487,0,0,0,22.654,5.156,63.137,63.137,0,0,0,0,0L.287,31.077Z" transform="translate(6.699 0)" fill="none" stroke="#1a1818" stroke-miterlimit="10" stroke-width="1"/>
      <path id="Path_61" data-name="Path 61" d="M0,31.143a22.271,22.271,0,0,1,.794-4.187A30.093,30.093,0,0,1,8.3,14.5,44.252,44.252,0,0,1,21.986,5.167,66.864,66.864,0,0,1,45.365,0l-.3,31.076Z" transform="translate(50.667 0)" fill="none" stroke="#1a1818" stroke-miterlimit="10" stroke-width="1"/>
    </g>
    <g id="Group_45-2" data-name="Group 45" transform="translate(-9680.532 -1857.461) rotate(90)">
      <path id="Path_60-2" data-name="Path 60" d="M55.206,39.674a29.611,29.611,0,0,0-.965-5.333,38.277,38.277,0,0,0-9.083-15.8A54.612,54.612,0,0,0,28.445,6.569,78.319,78.319,0,0,0,0,0L.361,39.591Z" transform="translate(-4.539 -8.532)" fill="none" stroke="#1a1818" stroke-miterlimit="10" stroke-width="1"/>
      <path id="Path_61-2" data-name="Path 61" d="M0,39.675a30.782,30.782,0,0,1,.924-5.334A39.164,39.164,0,0,1,9.66,18.473,51.575,51.575,0,0,1,25.586,6.583,72.167,72.167,0,0,1,52.794,0l-.348,39.59Z" transform="translate(50.667 -8.532)" fill="none" stroke="#1a1818" stroke-miterlimit="10" stroke-width="1"/>
    </g>
    <g id="Group_45-3" data-name="Group 45" transform="translate(-8737.676 -1869.729) rotate(-90)">
      <path id="Path_60-3" data-name="Path 60" d="M43.968,31.142a22.941,22.941,0,0,0-.769-4.186A29.945,29.945,0,0,0,35.965,14.55,43.487,43.487,0,0,0,22.654,5.156,63.137,63.137,0,0,0,0,0L.287,31.077Z" transform="translate(6.699 0)" fill="none" stroke="#1a1818" stroke-miterlimit="10" stroke-width="1"/>
      <path id="Path_61-3" data-name="Path 61" d="M0,31.143a22.271,22.271,0,0,1,.794-4.187A30.093,30.093,0,0,1,8.3,14.5,44.252,44.252,0,0,1,21.986,5.167,66.864,66.864,0,0,1,45.365,0l-.3,31.076Z" transform="translate(50.667 0)" fill="none" stroke="#1a1818" stroke-miterlimit="10" stroke-width="1"/>
    </g>
    <g id="Group_45-4" data-name="Group 45" transform="translate(-8737.681 -2308.636) rotate(-90)">
      <path id="Path_60-4" data-name="Path 60" d="M43.968,42.572A41.858,41.858,0,0,0,43.2,36.85,46.072,46.072,0,0,0,35.965,19.89,46.525,46.525,0,0,0,22.654,7.048,49.461,49.461,0,0,0,0,0L.287,42.483Z" transform="translate(29.696 -11.029)" fill="none" stroke="#1a1818" stroke-miterlimit="10" stroke-width="1"/>
    </g>
    <g id="Group_45-5" data-name="Group 45" transform="translate(-10795.543 -2596.67) rotate(-90)">
      <path id="Path_60-5" data-name="Path 60" d="M43.968,42.572A41.858,41.858,0,0,0,43.2,36.85,46.072,46.072,0,0,0,35.965,19.89,46.525,46.525,0,0,0,22.654,7.048,49.461,49.461,0,0,0,0,0L.287,42.483Z" transform="translate(29.696 -11.029)" fill="none" stroke="#1a1818" stroke-miterlimit="10" stroke-width="1"/>
    </g>
  </g>
</svg>
