<svg xmlns="http://www.w3.org/2000/svg" width="1780.972" height="2035.03" viewBox="0 0 1780.972 2035.03">
  <g id="OP-128" transform="translate(1053.197 222.5)">
    <g id="OP-128-2" data-name="OP-128" transform="translate(-1052.697 -222)">
      <g id="Group_41" data-name="Group 41" transform="translate(505.697 107)">
        <path id="Path_18" data-name="Path 18" d="M-6097.7-12165v-84h1036.363l-.667,994h744.273l-3.725,1040.03H-5762l-.333-941.03H-5838l-.667-189h-179l-.182-820Z" transform="translate(5592 12142)" fill="none" stroke="#000" stroke-width="1"/>
        <path id="Path_19" data-name="Path 19" d="M-5467.417-11644h146.748v-47.5h122.2v98.666h-122.2V-11643" transform="translate(5221.466 12441.213)" fill="none" stroke="#000" stroke-width="1"/>
        <path id="Path_21" data-name="Path 21" d="M-4900-11586.5v-70.5h69v70.5Z" transform="translate(5638 12624)" fill="none" stroke="#000" stroke-width="1"/>
        <path id="Path_22" data-name="Path 22" d="M-5109-11618.5v699.5h896.757v-699.5Z" transform="translate(5424.576 12656)" fill="none" stroke="#000" stroke-width="1"/>
        <path id="Path_26" data-name="Path 26" d="M-5413-12089.879v-41.621h155.448v41.621Z" transform="translate(5330.333 13950)" stroke="#000" stroke-width="1"/>
        <path id="Path_19-2" data-name="Path 19" d="M-5467.417-11644h146.748v-47.5h122.2v98.666h-122.2V-11643" transform="translate(5221.466 12630.166)" fill="none" stroke="#000" stroke-width="1"/>
        <path id="Path_1" data-name="Path 1" d="M1050.182,934.832v-70.5H9.515v70.5Z" transform="translate(107.485 102.667)" fill="none" stroke="#000" stroke-width="1"/>
        <path id="Path_26-2" data-name="Path 26" d="M-5413-12089.879v-41.621h163.288v41.621Z" transform="translate(5634 13950)" stroke="#000" stroke-width="1"/>
        <path id="Path_26-3" data-name="Path 26" d="M-5413-12089.879v-41.621h171.5v41.621Z" transform="translate(5910 13950)" stroke="#000" stroke-width="1"/>
        <path id="Path_26-4" data-name="Path 26" d="M-5413-12089.879v-41.621h147.667v41.621Z" transform="translate(6172.333 13950)" stroke="#000" stroke-width="1"/>
        <path id="Path_26-5" data-name="Path 26" d="M-5413-12089.879v-41.621h186.333v41.621Z" transform="translate(6439 13950)" stroke="#000" stroke-width="1"/>
        <path id="Path_3" data-name="Path 3" d="M15,748.713H529.75v64.01l-416.322.657" transform="translate(0.25 0.954)" fill="none" stroke="#000" stroke-width="1"/>
        <path id="Path_4" data-name="Path 4" d="M-436,699.667v-65" transform="translate(549.667 115)" fill="none" stroke="#707070" stroke-width="1"/>
        <path id="Path_26-6" data-name="Path 26" d="M-5413-12089.879v-41.621h188v41.621Z" transform="translate(5046 12080.379)" stroke="#000" stroke-width="1"/>
        <path id="Path_26-7" data-name="Path 26" d="M-5413-12089.879v-41.621h191v41.621Z" transform="translate(5349 12080.568)" stroke="#000" stroke-width="1"/>
        <path id="Path_26-8" data-name="Path 26" d="M-5413-12089.879v-41.621h220v41.621Z" transform="translate(5610 12080.379)" stroke="#000" stroke-width="1"/>
      </g>
      <path id="Path_5" data-name="Path 5" d="M-242.667,1529.333H-146v112" transform="translate(1062.697 202.667)" fill="none" stroke="#000" stroke-width="1"/>
    </g>
    <path id="Path_6" data-name="Path 6" d="M44.823,39.8a35.561,35.561,0,0,0-.811-5.225A42.949,42.949,0,0,0,36.5,18.8,41.208,41.208,0,0,0,23.447,7.548,51.83,51.83,0,0,0,1,1.319l.664,38.855Z" transform="translate(-833.273 820.677) rotate(-90)" fill="none" stroke="#1a1818" stroke-miterlimit="10" stroke-width="1"/>
    <path id="Path_7" data-name="Path 7" d="M11.434,41.217a39.655,39.655,0,0,1,.662-5.34,46.941,46.941,0,0,1,6.775-16.41A38.614,38.614,0,0,1,30.754,7.844,45.285,45.285,0,0,1,51.527,1L51.6,40.65Z" transform="matrix(0.017, -1, 1, 0.017, -835.234, 786.908)" fill="none" stroke="#1a1818" stroke-miterlimit="10" stroke-width="1"/>
    <path id="Path_6-2" data-name="Path 6" d="M39.334,35.527a32.091,32.091,0,0,0-.709-4.644,38.451,38.451,0,0,0-6.57-14.026,36.217,36.217,0,0,0-11.419-10A44.787,44.787,0,0,0,1,1.319l.581,34.54Z" transform="translate(-937.014 25.999) rotate(90)" fill="none" stroke="#1a1818" stroke-miterlimit="10" stroke-width="1"/>
    <path id="Path_7-2" data-name="Path 7" d="M11.434,35.436a31.681,31.681,0,0,1,.61-4.573,38.694,38.694,0,0,1,6.241-14.051A34.519,34.519,0,0,1,29.231,6.86,43.916,43.916,0,0,1,48.367,1l.067,33.951Z" transform="translate(-937.333 53.899) rotate(90)" fill="none" stroke="#1a1818" stroke-miterlimit="10" stroke-width="1"/>
    <path id="Path_6-3" data-name="Path 6" d="M59.809,46.751a37.333,37.333,0,0,0-1.088-6.168,48.348,48.348,0,0,0-10.08-18.629A53.964,53.964,0,0,0,31.123,8.673,76.953,76.953,0,0,0,1,1.319l.891,45.874Z" transform="translate(-925.681 141.999) rotate(90)" fill="none" stroke="#1a1818" stroke-miterlimit="10" stroke-width="1"/>
    <path id="Path_7-3" data-name="Path 7" d="M11.434,46.769a37.787,37.787,0,0,1,.91-6.077,48.875,48.875,0,0,1,9.31-18.676A49.882,49.882,0,0,1,37.981,8.789,71.417,71.417,0,0,1,66.527,1l.1,45.124Z" transform="translate(-926 190.374) rotate(90)" fill="none" stroke="#1a1818" stroke-miterlimit="10" stroke-width="1"/>
    <path id="Path_6-4" data-name="Path 6" d="M47.439,39.811a33.728,33.728,0,0,0-.859-5.226A41.967,41.967,0,0,0,38.62,18.8,43.067,43.067,0,0,0,24.787,7.55,57.439,57.439,0,0,0,1,1.319l.7,38.866Z" transform="translate(-525.096 882.348)" fill="none" stroke="#1a1818" stroke-miterlimit="10" stroke-width="1"/>
    <path id="Path_7-4" data-name="Path 7" d="M11.434,40.872a33.638,33.638,0,0,1,.775-5.294A42.818,42.818,0,0,1,34.03,7.785,59.712,59.712,0,0,1,58.327,1l.085,39.31Z" transform="translate(-488.041 881.259) rotate(1)" fill="none" stroke="#1a1818" stroke-miterlimit="10" stroke-width="1"/>
    <path id="Path_6-5" data-name="Path 6" d="M47.647,40.072a34.027,34.027,0,0,0-.863-5.262,42.289,42.289,0,0,0-8-15.89,43.281,43.281,0,0,0-13.9-11.329A57.593,57.593,0,0,0,1,1.319l.707,39.13Z" transform="matrix(-1, -0.017, 0.017, -1, -432.382, 675.659)" fill="none" stroke="#1a1818" stroke-miterlimit="10" stroke-width="1"/>
    <path id="Path_7-5" data-name="Path 7" d="M11.434,40.025a33.76,33.76,0,0,1,.738-5.182,42.542,42.542,0,0,1,7.551-15.924A40.923,40.923,0,0,1,32.965,7.641,55.755,55.755,0,0,1,56.118,1L56.2,39.475Z" transform="translate(-468.233 675) rotate(180)" fill="none" stroke="#1a1818" stroke-miterlimit="10" stroke-width="1"/>
    <path id="Path_8" data-name="Path 8" d="M37.537,1.658a34.783,34.783,0,0,1-.676,4.731A40.428,40.428,0,0,1,30.6,20.678,35.337,35.337,0,0,1,19.715,30.865,40.63,40.63,0,0,1,1,36.506L1.555,1.319Z" transform="translate(-162.359 1621.159) rotate(90)" fill="none" stroke="#000" stroke-miterlimit="10" stroke-width="1"/>
    <path id="Path_9" data-name="Path 9" d="M41.5,1.677a35.284,35.284,0,0,1-.749,5.01A41.867,41.867,0,0,1,33.81,21.816,38.518,38.518,0,0,1,21.746,32.6,46.588,46.588,0,0,1,1,38.575L1.615,1.319Z" transform="translate(-137.868 1582.71) rotate(-1)" fill="none" stroke="#000" stroke-miterlimit="10" stroke-width="1"/>
    <path id="Path_10" data-name="Path 10" d="M11.434,35.436a31.681,31.681,0,0,1,.61-4.573,38.694,38.694,0,0,1,6.241-14.051A34.519,34.519,0,0,1,29.231,6.86,43.916,43.916,0,0,1,48.367,1l.067,33.951Z" transform="translate(-681.333 1115.899) rotate(90)" fill="none" stroke="#1a1818" stroke-miterlimit="10" stroke-width="1"/>
    <path id="Path_11" data-name="Path 11" d="M46.767,35.436a33.1,33.1,0,0,0-.583-4.573,39.614,39.614,0,0,0-5.96-14.051A33.564,33.564,0,0,0,29.772,6.86,40.587,40.587,0,0,0,11.5,1l-.064,33.951Z" transform="translate(-681.333 1078.566) rotate(90)" fill="none" stroke="#1a1818" stroke-miterlimit="10" stroke-width="1"/>
    <path id="Path_12" data-name="Path 12" d="M11.434,46.769a37.787,37.787,0,0,1,.91-6.077,48.875,48.875,0,0,1,9.31-18.676A49.882,49.882,0,0,1,37.981,8.789,71.417,71.417,0,0,1,66.527,1l.1,45.124Z" transform="translate(-670 1253.374) rotate(90)" fill="none" stroke="#1a1818" stroke-miterlimit="10" stroke-width="1"/>
    <path id="Path_13" data-name="Path 13" d="M69.909,46.769a35.816,35.816,0,0,0-.964-6.077,47.865,47.865,0,0,0-9.863-18.676,52.382,52.382,0,0,0-17.3-13.227A79.174,79.174,0,0,0,11.539,1l-.105,45.124Z" transform="translate(-670 1191.899) rotate(90)" fill="none" stroke="#1a1818" stroke-miterlimit="10" stroke-width="1"/>
  </g>
</svg>
