<svg xmlns="http://www.w3.org/2000/svg" width="420.129" height="296.144" viewBox="0 0 420.129 296.144">
  <g id="OP-163-1" transform="translate(9250.15 -6562.85)">
    <g id="OP-163" transform="translate(1 -98)">
      <path id="Path_64" data-name="Path 64" d="M-9235.334,6737.33V6658H-9014v102.857h136v192.768l-373-.625v-92h192.167V6737.33Z" transform="translate(0 3)" fill="none" stroke="#000" stroke-width="0.3"/>
      <path id="Path_65" data-name="Path 65" d="M-9058.67,6833.33h89.5v34h-89.5Z" transform="translate(-0.167 -3.333)" fill="none" stroke="#000" stroke-width="0.3"/>
      <path id="Path_66" data-name="Path 66" d="M-9060.75,6833.33h121.416v72H-9060.75Z" transform="translate(108 -3.333)" fill="none" stroke="#000" stroke-width="0.3"/>
      <path id="Path_67" data-name="Path 67" d="M-9058.67,6833.33h121.34v54.77l-121.34-.292Z" transform="translate(105.993 68.667)" fill="none" stroke="#000" stroke-width="0.3"/>
      <path id="Path_68" data-name="Path 68" d="M-1.061,0H45.721l.037,130.313L-.7,130.2Z" transform="translate(-8876.779 6826.68)" fill="#fff"/>
      <path id="Path_69" data-name="Path 69" d="M-9235.334,6692.425h70.987V6686.9h29.927v-11.15h30.167v-5.5H-9014" fill="none" stroke="#000" stroke-width="0.3"/>
      <path id="Path_60" data-name="Path 60" d="M5.6,4.543a3.787,3.787,0,0,0-.1-.611,4.555,4.555,0,0,0-.921-1.81,5.617,5.617,0,0,0-1.7-1.37A7.2,7.2,0,0,0,0,0L.037,4.533Z" transform="translate(-9009.415 6731) rotate(90)" fill="none" stroke="#1a1818" stroke-miterlimit="10" stroke-width="0.3"/>
      <path id="Path_61" data-name="Path 61" d="M0,4.651a4.306,4.306,0,0,1,.089-.625,4.946,4.946,0,0,1,.846-1.86A5.2,5.2,0,0,1,2.477.772,6.017,6.017,0,0,1,5.11,0L5.077,4.641Z" transform="translate(-9009.307 6736.6) rotate(90)" fill="none" stroke="#1a1818" stroke-miterlimit="10" stroke-width="0.3"/>
      <g id="Group_47" data-name="Group 47" transform="translate(-8988.617 6683.012) rotate(90)">
        <path id="Path_60-2" data-name="Path 60" d="M5.531,4.543a3.831,3.831,0,0,0-.1-.611,4.576,4.576,0,0,0-.91-1.81A5.561,5.561,0,0,0,2.85.752,7.045,7.045,0,0,0,0,0L.036,4.533Z" transform="translate(26.207 20.797)" fill="none" stroke="#1a1818" stroke-miterlimit="10" stroke-width="0.3"/>
        <path id="Path_61-2" data-name="Path 61" d="M0,4.651a3.9,3.9,0,0,1,.1-.625,4.728,4.728,0,0,1,.941-1.86A5.626,5.626,0,0,1,2.756.772,7.268,7.268,0,0,1,5.688,0L5.65,4.641Z" transform="translate(31.738 20.689)" fill="none" stroke="#1a1818" stroke-miterlimit="10" stroke-width="0.3"/>
      </g>
      <g id="Group_47-2" data-name="Group 47" transform="translate(-9033.617 6779.012) rotate(90)">
        <path id="Path_60-3" data-name="Path 60" d="M5.531,4.418a3.632,3.632,0,0,0-.1-.594,4.4,4.4,0,0,0-.91-1.76A5.533,5.533,0,0,0,2.85.732,7.2,7.2,0,0,0,0,0L.036,4.409Z" transform="translate(26.207 20.797)" fill="none" stroke="#1a1818" stroke-miterlimit="10" stroke-width="0.3"/>
        <path id="Path_61-3" data-name="Path 61" d="M0,4.526a3.7,3.7,0,0,1,.1-.609,4.556,4.556,0,0,1,.941-1.81A5.6,5.6,0,0,1,2.756.751,7.426,7.426,0,0,1,5.688,0L5.65,4.517Z" transform="translate(31.738 20.689)" fill="none" stroke="#1a1818" stroke-miterlimit="10" stroke-width="0.3"/>
      </g>
      <g id="Group_47-3" data-name="Group 47" transform="translate(-8975.447 6804.813)">
        <path id="Path_60-4" data-name="Path 60" d="M5.531,4.389a3.585,3.585,0,0,0-.1-.59,4.365,4.365,0,0,0-.91-1.748A5.527,5.527,0,0,0,2.85.727,7.24,7.24,0,0,0,0,0L.036,4.379Z" transform="translate(26.207 20.797)" fill="none" stroke="#1a1818" stroke-miterlimit="10" stroke-width="0.3"/>
        <path id="Path_61-4" data-name="Path 61" d="M0,4.5a3.742,3.742,0,0,1,.1-.6,4.558,4.558,0,0,1,.917-1.8A5.474,5.474,0,0,1,2.686.746,7.126,7.126,0,0,1,5.542,0L5.506,4.487Z" transform="translate(31.738 20.689)" fill="none" stroke="#1a1818" stroke-miterlimit="10" stroke-width="0.3"/>
      </g>
      <g id="Group_47-4" data-name="Group 47" transform="translate(-8977.646 6972.644) rotate(-90)">
        <path id="Path_60-5" data-name="Path 60" d="M5,4.183a3.588,3.588,0,0,0-.087-.562A4.244,4.244,0,0,0,4.09,1.955,5.048,5.048,0,0,0,2.576.693,6.277,6.277,0,0,0,0,0L.033,4.174Z" transform="translate(27.144 20.797)" fill="none" stroke="#1a1818" stroke-miterlimit="10" stroke-width="0.3"/>
        <path id="Path_61-5" data-name="Path 61" d="M0,4.291a3.575,3.575,0,0,1,.092-.577A4.352,4.352,0,0,1,.966,2,5.218,5.218,0,0,1,2.56.712,6.783,6.783,0,0,1,5.281,0L5.247,4.282Z" transform="translate(32.144 20.689)" fill="none" stroke="#1a1818" stroke-miterlimit="10" stroke-width="0.3"/>
      </g>
      <g id="Group_47-5" data-name="Group 47" transform="translate(-9161.515 6837.778) rotate(90)">
        <path id="Path_60-6" data-name="Path 60" d="M6.013,0a4.685,4.685,0,0,1-.105.706A5.421,5.421,0,0,1,4.918,2.8,6.138,6.138,0,0,1,3.1,4.38,7.3,7.3,0,0,1,0,5.25L.039.011Z" transform="translate(26.207 20.797)" fill="none" stroke="#1a1818" stroke-miterlimit="10" stroke-width="0.3"/>
      </g>
      <g id="Group_47-6" data-name="Group 47" transform="translate(-9199.515 6714.168) rotate(90)">
        <path id="Path_60-7" data-name="Path 60" d="M5.623,0a4.989,4.989,0,0,1-.1.706A5.593,5.593,0,0,1,4.6,2.8,5.873,5.873,0,0,1,2.9,4.38,6.5,6.5,0,0,1,0,5.25L.037.011Z" transform="translate(26.207 20.797)" fill="none" stroke="#1a1818" stroke-miterlimit="10" stroke-width="0.3"/>
      </g>
      <g id="Group_47-7" data-name="Group 47" transform="translate(-9013.515 6803.778) rotate(90)">
        <path id="Path_60-8" data-name="Path 60" d="M6.013,0a4.685,4.685,0,0,1-.105.706A5.421,5.421,0,0,1,4.918,2.8,6.138,6.138,0,0,1,3.1,4.38,7.3,7.3,0,0,1,0,5.25L.039.011Z" transform="translate(26.207 20.797)" fill="none" stroke="#1a1818" stroke-miterlimit="10" stroke-width="0.3"/>
      </g>
      <g id="Rectangle_23" data-name="Rectangle 23" transform="translate(-8877.84 6901.5)" fill="#fff" stroke="#fff" stroke-width="1">
        <rect width="1" height="1" stroke="none"/>
        <rect x="0.5" y="0.5" fill="none"/>
      </g>
      <g id="Rectangle_24" data-name="Rectangle 24" transform="translate(-8877.84 6955.8)" fill="#fff" stroke="#fff" stroke-width="1">
        <rect width="1" height="1" stroke="none"/>
        <rect x="0.5" y="0.5" fill="none"/>
      </g>
    </g>
    <g id="Group_45" data-name="Group 45" transform="translate(1.313 -97.637)">
      <path id="Path_77" data-name="Path 77" d="M-8969.31,6865.03v1.844" transform="translate(0 21)" fill="none" stroke="#000" stroke-width="0.5"/>
      <path id="Path_78" data-name="Path 78" d="M-8969.31,6865.03v1.844" transform="translate(0 24)" fill="none" stroke="#000" stroke-width="0.5"/>
      <path id="Path_79" data-name="Path 79" d="M-8969.31,6865.03v1.844" transform="translate(0 24)" fill="none" stroke="#000" stroke-width="0.5"/>
      <path id="Path_80" data-name="Path 80" d="M-8969.31,6865.03v1.844" transform="translate(0 27)" fill="none" stroke="#000" stroke-width="0.5"/>
      <path id="Path_81" data-name="Path 81" d="M-8969.31,6865.03v1.844" transform="translate(0 30)" fill="none" stroke="#000" stroke-width="0.5"/>
      <path id="Path_82" data-name="Path 82" d="M-8969.31,6865.03v1.844" transform="translate(0 33)" fill="none" stroke="#000" stroke-width="0.5"/>
      <path id="Path_83" data-name="Path 83" d="M-8969.31,6865.03v1.844" transform="translate(0 35.818)" fill="none" stroke="#000" stroke-width="0.5"/>
      <path id="Path_84" data-name="Path 84" d="M-8969.31,6865.03v1.844" transform="translate(0 35.818)" fill="none" stroke="#000" stroke-width="0.5"/>
      <path id="Path_85" data-name="Path 85" d="M-8969.31,6865.03v1.844" transform="translate(0 38.782)" fill="none" stroke="#000" stroke-width="0.5"/>
      <path id="Path_86" data-name="Path 86" d="M-8969.31,6865.03v1.844" transform="translate(0 41.745)" fill="none" stroke="#000" stroke-width="0.5"/>
      <path id="Path_87" data-name="Path 87" d="M-8969.31,6865.03v1.844" transform="translate(0 44.709)" fill="none" stroke="#000" stroke-width="0.5"/>
      <path id="Path_88" data-name="Path 88" d="M-8969.31,6865.03v1.844" transform="translate(0 47.673)" fill="none" stroke="#000" stroke-width="0.5"/>
      <path id="Path_89" data-name="Path 89" d="M-8969.31,6865.03v1.844" transform="translate(0 50.636)" fill="none" stroke="#000" stroke-width="0.5"/>
      <path id="Path_90" data-name="Path 90" d="M-8969.31,6865.03v1.844" transform="translate(0 53.6)" fill="none" stroke="#000" stroke-width="0.5"/>
      <path id="Path_91" data-name="Path 91" d="M-8969.31,6865.03v1.844" transform="translate(0 56.564)" fill="none" stroke="#000" stroke-width="0.5"/>
      <path id="Path_92" data-name="Path 92" d="M-8969.31,6865.03v1.844" transform="translate(0 59.527)" fill="none" stroke="#000" stroke-width="0.5"/>
      <path id="Path_93" data-name="Path 93" d="M-8969.31,6865.03v1.844" transform="translate(0 62.491)" fill="none" stroke="#000" stroke-width="0.5"/>
      <path id="Path_94" data-name="Path 94" d="M-8969.31,6865.03v1.844" transform="translate(0 65.455)" fill="none" stroke="#000" stroke-width="0.5"/>
      <path id="Path_95" data-name="Path 95" d="M-8969.31,6865.03v1.844" transform="translate(0 68.418)" fill="none" stroke="#000" stroke-width="0.5"/>
      <path id="Path_96" data-name="Path 96" d="M-8969.31,6865.03v1.844" transform="translate(0 71.382)" fill="none" stroke="#000" stroke-width="0.5"/>
      <path id="Path_97" data-name="Path 97" d="M-8969.31,6865.03v1.844" transform="translate(0 74.345)" fill="none" stroke="#000" stroke-width="0.5"/>
      <path id="Path_98" data-name="Path 98" d="M-8969.31,6865.03v1.844" transform="translate(0 77.167)" fill="none" stroke="#000" stroke-width="0.5"/>
      <path id="Path_99" data-name="Path 99" d="M-8969.31,6865.03v1.844" transform="translate(0 80.167)" fill="none" stroke="#000" stroke-width="0.5"/>
      <path id="Path_100" data-name="Path 100" d="M-8969.31,6865.03v1.844" transform="translate(0 83.167)" fill="none" stroke="#000" stroke-width="0.5"/>
      <path id="Path_101" data-name="Path 101" d="M-8969.31,6865.03v1.844" transform="translate(0 86.167)" fill="none" stroke="#000" stroke-width="0.5"/>
      <path id="Path_102" data-name="Path 102" d="M-8969.31,6865.03v1.6" transform="translate(0 89.167)" fill="none" stroke="#000" stroke-width="0.5"/>
    </g>
    <g id="Group_46" data-name="Group 46" transform="translate(-178 -97.637)">
      <path id="Path_77-2" data-name="Path 77" d="M-8969.31,6865.03v1.844" transform="translate(0 21)" fill="none" stroke="#000" stroke-width="0.5"/>
      <path id="Path_78-2" data-name="Path 78" d="M-8969.31,6865.03v1.844" transform="translate(0 24)" fill="none" stroke="#000" stroke-width="0.5"/>
      <path id="Path_79-2" data-name="Path 79" d="M-8969.31,6865.03v1.844" transform="translate(0 24)" fill="none" stroke="#000" stroke-width="0.5"/>
      <path id="Path_80-2" data-name="Path 80" d="M-8969.31,6865.03v1.844" transform="translate(0 27)" fill="none" stroke="#000" stroke-width="0.5"/>
      <path id="Path_81-2" data-name="Path 81" d="M-8969.31,6865.03v1.844" transform="translate(0 30)" fill="none" stroke="#000" stroke-width="0.5"/>
      <path id="Path_82-2" data-name="Path 82" d="M-8969.31,6865.03v1.844" transform="translate(0 33)" fill="none" stroke="#000" stroke-width="0.5"/>
      <path id="Path_83-2" data-name="Path 83" d="M-8969.31,6865.03v1.844" transform="translate(0 35.81)" fill="none" stroke="#000" stroke-width="0.5"/>
      <path id="Path_84-2" data-name="Path 84" d="M-8969.31,6865.03v1.844" transform="translate(0 35.81)" fill="none" stroke="#000" stroke-width="0.5"/>
      <path id="Path_85-2" data-name="Path 85" d="M-8969.31,6865.03v1.844" transform="translate(0 38.772)" fill="none" stroke="#000" stroke-width="0.5"/>
      <path id="Path_86-2" data-name="Path 86" d="M-8969.31,6865.03v1.844" transform="translate(0 41.733)" fill="none" stroke="#000" stroke-width="0.5"/>
      <path id="Path_87-2" data-name="Path 87" d="M-8969.31,6865.03v1.844" transform="translate(0 44.695)" fill="none" stroke="#000" stroke-width="0.5"/>
      <path id="Path_88-2" data-name="Path 88" d="M-8969.31,6865.03v1.844" transform="translate(0 47.657)" fill="none" stroke="#000" stroke-width="0.5"/>
      <path id="Path_89-2" data-name="Path 89" d="M-8969.31,6865.03v1.844" transform="translate(0 50.619)" fill="none" stroke="#000" stroke-width="0.5"/>
      <path id="Path_90-2" data-name="Path 90" d="M-8969.31,6865.03v1.844" transform="translate(0 53.581)" fill="none" stroke="#000" stroke-width="0.5"/>
      <path id="Path_91-2" data-name="Path 91" d="M-8969.31,6865.03v1.844" transform="translate(0 56.543)" fill="none" stroke="#000" stroke-width="0.5"/>
      <path id="Path_92-2" data-name="Path 92" d="M-8969.31,6865.03v1.844" transform="translate(0 59.505)" fill="none" stroke="#000" stroke-width="0.5"/>
      <path id="Path_93-2" data-name="Path 93" d="M-8969.31,6865.03v1.844" transform="translate(0 62.467)" fill="none" stroke="#000" stroke-width="0.5"/>
      <path id="Path_94-2" data-name="Path 94" d="M-8969.31,6865.03v1.844" transform="translate(0 65.429)" fill="none" stroke="#000" stroke-width="0.5"/>
      <path id="Path_95-2" data-name="Path 95" d="M-8969.31,6865.03v1.844" transform="translate(0 68.391)" fill="none" stroke="#000" stroke-width="0.5"/>
      <path id="Path_96-2" data-name="Path 96" d="M-8969.31,6865.03v1.844" transform="translate(0 71.353)" fill="none" stroke="#000" stroke-width="0.5"/>
      <path id="Path_97-2" data-name="Path 97" d="M-8969.31,6865.03v1.844" transform="translate(0 74.315)" fill="none" stroke="#000" stroke-width="0.5"/>
      <path id="Path_98-2" data-name="Path 98" d="M-8969.31,6865.03v1.844" transform="translate(0 77.127)" fill="none" stroke="#000" stroke-width="0.5"/>
      <path id="Path_99-2" data-name="Path 99" d="M-8969.31,6865.03v1.844" transform="translate(0 80.127)" fill="none" stroke="#000" stroke-width="0.5"/>
      <path id="Path_100-2" data-name="Path 100" d="M-8969.31,6865.03v1.844" transform="translate(0 83.127)" fill="none" stroke="#000" stroke-width="0.5"/>
      <path id="Path_101-2" data-name="Path 101" d="M-8969.31,6865.03v1.844" transform="translate(0 86.127)" fill="none" stroke="#000" stroke-width="0.5"/>
      <path id="Path_102-2" data-name="Path 102" d="M-8969.31,6865.03v1.6" transform="translate(0 89.127)" fill="none" stroke="#000" stroke-width="0.5"/>
    </g>
    <g id="Group_47-8" data-name="Group 47" transform="translate(-2169.676 15756.912) rotate(90)">
      <path id="Path_74" data-name="Path 74" d="M-8969.31,6865.03v1.844" transform="translate(0 12)" fill="none" stroke="#000" stroke-width="0.5"/>
      <path id="Path_75" data-name="Path 75" d="M-8969.31,6865.03v1.844" transform="translate(0 15)" fill="none" stroke="#000" stroke-width="0.5"/>
      <path id="Path_76" data-name="Path 76" d="M-8969.31,6865.03v1.844" transform="translate(0 18)" fill="none" stroke="#000" stroke-width="0.5"/>
      <path id="Path_77-3" data-name="Path 77" d="M-8969.31,6865.03v1.844" transform="translate(0 21)" fill="none" stroke="#000" stroke-width="0.5"/>
      <path id="Path_78-3" data-name="Path 78" d="M-8969.31,6865.03v1.844" transform="translate(0 24)" fill="none" stroke="#000" stroke-width="0.5"/>
      <path id="Path_79-3" data-name="Path 79" d="M-8969.31,6865.03v1.844" transform="translate(0 24)" fill="none" stroke="#000" stroke-width="0.5"/>
      <path id="Path_80-3" data-name="Path 80" d="M-8969.31,6865.03v1.844" transform="translate(0 27)" fill="none" stroke="#000" stroke-width="0.5"/>
      <path id="Path_81-3" data-name="Path 81" d="M-8969.31,6865.03v1.844" transform="translate(0 30)" fill="none" stroke="#000" stroke-width="0.5"/>
      <path id="Path_82-3" data-name="Path 82" d="M-8969.31,6865.03v1.844" transform="translate(0 33)" fill="none" stroke="#000" stroke-width="0.5"/>
      <path id="Path_83-3" data-name="Path 83" d="M-8969.31,6865.03v1.844" transform="translate(0 36)" fill="none" stroke="#000" stroke-width="0.5"/>
      <path id="Path_84-3" data-name="Path 84" d="M-8969.31,6865.03v1.844" transform="translate(0 36)" fill="none" stroke="#000" stroke-width="0.5"/>
      <path id="Path_85-3" data-name="Path 85" d="M-8969.31,6865.03v1.844" transform="translate(0 39)" fill="none" stroke="#000" stroke-width="0.5"/>
      <path id="Path_86-3" data-name="Path 86" d="M-8969.31,6865.03v1.844" transform="translate(0 42)" fill="none" stroke="#000" stroke-width="0.5"/>
      <path id="Path_87-3" data-name="Path 87" d="M-8969.31,6865.03v1.844" transform="translate(0 45)" fill="none" stroke="#000" stroke-width="0.5"/>
      <path id="Path_88-3" data-name="Path 88" d="M-8969.31,6865.03v1.844" transform="translate(0 48)" fill="none" stroke="#000" stroke-width="0.5"/>
      <path id="Path_89-3" data-name="Path 89" d="M-8969.31,6865.03v1.844" transform="translate(0 51)" fill="none" stroke="#000" stroke-width="0.5"/>
      <path id="Path_90-3" data-name="Path 90" d="M-8969.31,6865.03v1.844" transform="translate(0 54)" fill="none" stroke="#000" stroke-width="0.5"/>
      <path id="Path_91-3" data-name="Path 91" d="M-8969.31,6865.03v1.844" transform="translate(0 57)" fill="none" stroke="#000" stroke-width="0.5"/>
      <path id="Path_92-3" data-name="Path 92" d="M-8969.31,6865.03v1.844" transform="translate(0 60)" fill="none" stroke="#000" stroke-width="0.5"/>
      <path id="Path_93-3" data-name="Path 93" d="M-8969.31,6865.03v1.844" transform="translate(0 63)" fill="none" stroke="#000" stroke-width="0.5"/>
      <path id="Path_94-3" data-name="Path 94" d="M-8969.31,6865.03v1.844" transform="translate(0 66)" fill="none" stroke="#000" stroke-width="0.5"/>
      <path id="Path_95-3" data-name="Path 95" d="M-8969.31,6865.03v1.844" transform="translate(0 69)" fill="none" stroke="#000" stroke-width="0.5"/>
      <path id="Path_96-3" data-name="Path 96" d="M-8969.31,6865.03v1.844" transform="translate(0 72)" fill="none" stroke="#000" stroke-width="0.5"/>
      <path id="Path_97-3" data-name="Path 97" d="M-8969.31,6865.03v1.844" transform="translate(0 75)" fill="none" stroke="#000" stroke-width="0.5"/>
      <path id="Path_98-3" data-name="Path 98" d="M-8969.31,6865.03v1.844" transform="translate(0 78)" fill="none" stroke="#000" stroke-width="0.5"/>
      <path id="Path_99-3" data-name="Path 99" d="M-8969.31,6865.03v1.844" transform="translate(0 81)" fill="none" stroke="#000" stroke-width="0.5"/>
      <path id="Path_100-3" data-name="Path 100" d="M-8969.31,6865.03v1.844" transform="translate(0 84)" fill="none" stroke="#000" stroke-width="0.5"/>
      <path id="Path_101-3" data-name="Path 101" d="M-8969.31,6865.03v1.844" transform="translate(0 87)" fill="none" stroke="#000" stroke-width="0.5"/>
      <path id="Path_102-3" data-name="Path 102" d="M-8969.31,6865.03v1.6" transform="translate(0 90)" fill="none" stroke="#000" stroke-width="0.5"/>
      <path id="Path_103" data-name="Path 103" d="M-8969.31,6865.03v1.6" transform="translate(0 93)" fill="none" stroke="#000" stroke-width="0.5"/>
      <path id="Path_104" data-name="Path 104" d="M-8969.31,6865.03v1.6" transform="translate(0 96)" fill="none" stroke="#000" stroke-width="0.5"/>
      <path id="Path_105" data-name="Path 105" d="M-8969.31,6865.03v1.6" transform="translate(0 99)" fill="none" stroke="#000" stroke-width="0.5"/>
      <path id="Path_106" data-name="Path 106" d="M-8969.31,6865.03v1.6" transform="translate(0 102)" fill="none" stroke="#000" stroke-width="0.5"/>
      <path id="Path_107" data-name="Path 107" d="M-8969.31,6865.03v1.6" transform="translate(0 105)" fill="none" stroke="#000" stroke-width="0.5"/>
      <path id="Path_108" data-name="Path 108" d="M-8969.31,6865.03v1.6" transform="translate(0 108)" fill="none" stroke="#000" stroke-width="0.5"/>
      <path id="Path_109" data-name="Path 109" d="M-8969.31,6865.03v1.6" transform="translate(0 111)" fill="none" stroke="#000" stroke-width="0.5"/>
    </g>
    <g id="Group_48" data-name="Group 48" transform="translate(-2088.676 15756.912) rotate(90)">
      <path id="Path_75-2" data-name="Path 75" d="M-8969.31,6865.03v1.844" transform="translate(0 15)" fill="none" stroke="#000" stroke-width="0.5"/>
      <path id="Path_76-2" data-name="Path 76" d="M-8969.31,6865.03v1.844" transform="translate(0 18)" fill="none" stroke="#000" stroke-width="0.5"/>
      <path id="Path_77-4" data-name="Path 77" d="M-8969.31,6865.03v1.844" transform="translate(0 21)" fill="none" stroke="#000" stroke-width="0.5"/>
      <path id="Path_78-4" data-name="Path 78" d="M-8969.31,6865.03v1.844" transform="translate(0 24)" fill="none" stroke="#000" stroke-width="0.5"/>
      <path id="Path_79-4" data-name="Path 79" d="M-8969.31,6865.03v1.844" transform="translate(0 24)" fill="none" stroke="#000" stroke-width="0.5"/>
      <path id="Path_80-4" data-name="Path 80" d="M-8969.31,6865.03v1.844" transform="translate(0 27)" fill="none" stroke="#000" stroke-width="0.5"/>
      <path id="Path_81-4" data-name="Path 81" d="M-8969.31,6865.03v1.844" transform="translate(0 30)" fill="none" stroke="#000" stroke-width="0.5"/>
      <path id="Path_82-4" data-name="Path 82" d="M-8969.31,6865.03v1.844" transform="translate(0 33)" fill="none" stroke="#000" stroke-width="0.5"/>
      <path id="Path_83-4" data-name="Path 83" d="M-8969.31,6865.03v1.844" transform="translate(0 36)" fill="none" stroke="#000" stroke-width="0.5"/>
      <path id="Path_84-4" data-name="Path 84" d="M-8969.31,6865.03v1.844" transform="translate(0 36)" fill="none" stroke="#000" stroke-width="0.5"/>
      <path id="Path_85-4" data-name="Path 85" d="M-8969.31,6865.03v1.844" transform="translate(0 39)" fill="none" stroke="#000" stroke-width="0.5"/>
      <path id="Path_86-4" data-name="Path 86" d="M-8969.31,6865.03v1.844" transform="translate(0 42)" fill="none" stroke="#000" stroke-width="0.5"/>
      <path id="Path_87-4" data-name="Path 87" d="M-8969.31,6865.03v1.844" transform="translate(0 45)" fill="none" stroke="#000" stroke-width="0.5"/>
      <path id="Path_88-4" data-name="Path 88" d="M-8969.31,6865.03v1.844" transform="translate(0 48)" fill="none" stroke="#000" stroke-width="0.5"/>
      <path id="Path_89-4" data-name="Path 89" d="M-8969.31,6865.03v1.844" transform="translate(0 51)" fill="none" stroke="#000" stroke-width="0.5"/>
      <path id="Path_90-4" data-name="Path 90" d="M-8969.31,6865.03v1.844" transform="translate(0 54)" fill="none" stroke="#000" stroke-width="0.5"/>
      <path id="Path_91-4" data-name="Path 91" d="M-8969.31,6865.03v1.844" transform="translate(0 57)" fill="none" stroke="#000" stroke-width="0.5"/>
      <path id="Path_92-4" data-name="Path 92" d="M-8969.31,6865.03v1.844" transform="translate(0 60)" fill="none" stroke="#000" stroke-width="0.5"/>
      <path id="Path_93-4" data-name="Path 93" d="M-8969.31,6865.03v1.844" transform="translate(0 63)" fill="none" stroke="#000" stroke-width="0.5"/>
      <path id="Path_94-4" data-name="Path 94" d="M-8969.31,6865.03v1.844" transform="translate(0 66)" fill="none" stroke="#000" stroke-width="0.5"/>
      <path id="Path_95-4" data-name="Path 95" d="M-8969.31,6865.03v1.844" transform="translate(0 69)" fill="none" stroke="#000" stroke-width="0.5"/>
      <path id="Path_96-4" data-name="Path 96" d="M-8969.31,6865.03v1.844" transform="translate(0 72)" fill="none" stroke="#000" stroke-width="0.5"/>
      <path id="Path_97-4" data-name="Path 97" d="M-8969.31,6865.03v1.844" transform="translate(0 75)" fill="none" stroke="#000" stroke-width="0.5"/>
      <path id="Path_98-4" data-name="Path 98" d="M-8969.31,6865.03v1.844" transform="translate(0 78)" fill="none" stroke="#000" stroke-width="0.5"/>
      <path id="Path_99-4" data-name="Path 99" d="M-8969.31,6865.03v1.844" transform="translate(0 81)" fill="none" stroke="#000" stroke-width="0.5"/>
      <path id="Path_100-4" data-name="Path 100" d="M-8969.31,6865.03v1.844" transform="translate(0 84)" fill="none" stroke="#000" stroke-width="0.5"/>
      <path id="Path_101-4" data-name="Path 101" d="M-8969.31,6865.03v1.844" transform="translate(0 87)" fill="none" stroke="#000" stroke-width="0.5"/>
      <path id="Path_102-4" data-name="Path 102" d="M-8969.31,6865.03v1.6" transform="translate(0 90)" fill="none" stroke="#000" stroke-width="0.5"/>
    </g>
  </g>
</svg>
