<svg xmlns="http://www.w3.org/2000/svg" width="3024.499" height="2629.928" viewBox="0 0 3024.499 2629.928">
  <g id="op-166" transform="translate(11025.25 3040.75)">
    <path id="Path_111" data-name="Path 111" d="M-11024.01-2339.726V-3040h3022V-411.571H-9753.676V-2343Z" transform="translate(0.01 -0.001)" fill="none" stroke="#000" stroke-width="1.5"/>
    <path id="Path_112" data-name="Path 112" d="M-11024-2553h260v-371h-260Z" fill="none" stroke="#000" stroke-width="2.5"/>
    <path id="Path_113" data-name="Path 113" d="M-10764-2783h481.242v-141.333h1066.424v-116" fill="none" stroke="#000" stroke-width="1.5"/>
    <path id="Path_114" data-name="Path 114" d="M-8608-2480v609.015h437V-2480Z" transform="translate(168.997 67.546)" fill="none" stroke="#000" stroke-width="2.5"/>
    <path id="Path_115" data-name="Path 115" d="M-8608-2316h437" transform="translate(168.999 80.301)" fill="none" stroke="#000" stroke-width="1"/>
    <path id="Path_116" data-name="Path 116" d="M-8608-1952v109.939h437V-1952Z" transform="translate(169 148.561)" fill="none" stroke="#000" stroke-width="1"/>
    <path id="Path_117" data-name="Path 117" d="M-8608-1952v139.167h437V-1952Z" transform="translate(169 258.5)" fill="none" stroke="#000" stroke-width="1"/>
    <g id="Group_45" data-name="Group 45" transform="translate(-10900.437 -2309.956) rotate(180)">
      <path id="Path_60" data-name="Path 60" d="M43.968,31.142a22.941,22.941,0,0,0-.769-4.186A29.945,29.945,0,0,0,35.965,14.55,43.487,43.487,0,0,0,22.654,5.156,63.137,63.137,0,0,0,0,0L.287,31.077Z" fill="none" stroke="#1a1818" stroke-miterlimit="10" stroke-width="1"/>
      <path id="Path_61" data-name="Path 61" d="M0,31.143a22.271,22.271,0,0,1,.794-4.187A30.093,30.093,0,0,1,8.3,14.5,44.252,44.252,0,0,1,21.986,5.167,66.864,66.864,0,0,1,45.365,0l-.3,31.076Z" transform="translate(43.968 0)" fill="none" stroke="#1a1818" stroke-miterlimit="10" stroke-width="1"/>
    </g>
    <g id="Group_45-2" data-name="Group 45" transform="translate(-9713.606 -1857.439) rotate(90)">
      <path id="Path_60-2" data-name="Path 60" d="M49.267,39.674a32.846,32.846,0,0,0-.861-5.333,39.6,39.6,0,0,0-8.106-15.8A49.276,49.276,0,0,0,25.385,6.569,63.708,63.708,0,0,0,0,0L.322,39.591Z" transform="translate(5.939 0)" fill="none" stroke="#1a1818" stroke-miterlimit="10" stroke-width="1"/>
      <path id="Path_61-2" data-name="Path 61" d="M0,39.675a34.093,34.093,0,0,1,.827-5.334A40.679,40.679,0,0,1,8.642,18.473,46.934,46.934,0,0,1,22.891,6.583,59.078,59.078,0,0,1,47.233,0l-.312,39.59Z" transform="translate(55.206 0)" fill="none" stroke="#1a1818" stroke-miterlimit="10" stroke-width="1"/>
    </g>
    <g id="Group_45-3" data-name="Group 45" transform="translate(-8469.682 -1876.581) rotate(-90)">
      <path id="Path_60-3" data-name="Path 60" d="M44.882,31.142a22.522,22.522,0,0,0-.785-4.186A29.816,29.816,0,0,0,36.713,14.55,44.4,44.4,0,0,0,23.125,5.156,65.573,65.573,0,0,0,0,0L.293,31.077Z" transform="translate(-0.914 0)" fill="none" stroke="#1a1818" stroke-miterlimit="10" stroke-width="1"/>
      <path id="Path_61-3" data-name="Path 61" d="M0,31.143a21.808,21.808,0,0,1,.813-4.187A29.971,29.971,0,0,1,8.5,14.5,45.373,45.373,0,0,1,22.512,5.167,69.853,69.853,0,0,1,46.451,0l-.306,31.076Z" transform="translate(43.968 0)" fill="none" stroke="#1a1818" stroke-miterlimit="10" stroke-width="1"/>
    </g>
    <g id="Group_45-4" data-name="Group 45" transform="translate(-8480.709 -2340.369) rotate(-90)">
      <path id="Path_60-4" data-name="Path 60" d="M43.968,42.572A41.858,41.858,0,0,0,43.2,36.85,46.072,46.072,0,0,0,35.965,19.89,46.525,46.525,0,0,0,22.654,7.048,49.461,49.461,0,0,0,0,0L.287,42.483Z" fill="none" stroke="#1a1818" stroke-miterlimit="10" stroke-width="1"/>
    </g>
    <g id="Group_45-5" data-name="Group 45" transform="translate(-10806.572 -2618.366) rotate(-90)">
      <path id="Path_60-5" data-name="Path 60" d="M43.968,42.572A41.858,41.858,0,0,0,43.2,36.85,46.072,46.072,0,0,0,35.965,19.89,46.525,46.525,0,0,0,22.654,7.048,49.461,49.461,0,0,0,0,0L.287,42.483Z" fill="none" stroke="#1a1818" stroke-miterlimit="10" stroke-width="1"/>
    </g>
  </g>
</svg>
