<svg width="2882" height="2529" viewBox="0 0 2882 2529" fill="none" xmlns="http://www.w3.org/2000/svg">
<g clip-path="url(#clip0_9_47)">
<path d="M1.28186 666.75V0.75H2852.78V2527.42H1231.5V666.75H1.28186Z" stroke="black" stroke-width="1.5"/>
<path d="M1.28186 486.083H267.896V116.75H1.28186V486.083Z" stroke="black" stroke-width="2.5"/>
<path d="M267.896 257.75H731.395V116.75H1743.16V0.75" stroke="black"/>
<path d="M2369 604V1186H2852V604H2369Z" stroke="black" stroke-width="2.5"/>
<path d="M2366 770L2852 770" stroke="black"/>
<path d="M82.9022 666.513C83.0315 667.929 83.2955 669.331 83.6908 670.699C85.095 675.36 87.6408 679.618 91.1088 683.105C95.0112 687.047 99.6423 690.234 104.758 692.499C112.108 695.604 119.985 697.353 127.989 697.655L127.694 666.578L82.9022 666.513Z" stroke="#1A1818" stroke-miterlimit="10"/>
<path d="M82.9022 666.512C82.7687 667.93 82.496 669.332 82.088 670.699C80.6052 675.402 77.9624 679.679 74.3911 683.155C70.3571 687.1 65.5957 690.266 60.3569 692.488C52.7495 695.603 44.6281 697.353 36.3831 697.655L36.6908 666.579L82.9022 666.512Z" stroke="#1A1818" stroke-miterlimit="10"/>
<path d="M1232 1246.21C1233.85 1246.05 1235.68 1245.73 1237.47 1245.24C1243.54 1243.53 1249.1 1240.41 1253.67 1236.16C1258.81 1231.4 1262.98 1225.72 1265.95 1219.44C1270 1210.46 1272.29 1200.81 1272.68 1191L1232.09 1191.36L1232 1246.21Z" stroke="#1A1818" stroke-miterlimit="10"/>
<path d="M1232 1246.21C1233.85 1246.36 1235.68 1246.67 1237.47 1247.13C1243.52 1248.76 1249.09 1251.75 1253.74 1255.87C1258.83 1260.35 1262.97 1265.76 1265.93 1271.79C1269.98 1280.34 1272.28 1289.59 1272.68 1299L1232.09 1298.65L1232 1246.21Z" stroke="#1A1818" stroke-miterlimit="10"/>
<path d="M2368.93 1083.37C2367.48 1083.49 2366.05 1083.75 2364.64 1084.13C2359.86 1085.5 2355.5 1087.99 2351.92 1091.37C2347.88 1095.17 2344.61 1099.69 2342.29 1104.68C2339.1 1111.85 2337.31 1119.53 2337 1127.33L2368.87 1127.05L2368.93 1083.37Z" stroke="#1A1818" stroke-miterlimit="10"/>
<path d="M2368.94 1083.37C2367.48 1083.23 2366.04 1082.97 2364.64 1082.57C2359.82 1081.12 2355.43 1078.55 2351.87 1075.07C2347.82 1071.13 2344.58 1066.49 2342.3 1061.38C2339.1 1053.96 2337.31 1046.04 2337 1038L2368.87 1038.3L2368.94 1083.37Z" stroke="#1A1818" stroke-miterlimit="10"/>
<path d="M2369.07 634C2367.12 634.124 2365.19 634.381 2363.28 634.768C2357.13 636.012 2351.29 638.473 2346.12 642.003C2340.93 645.536 2336.52 650.062 2333.13 655.314C2328.93 662.182 2326.48 669.957 2326 677.968L2368.98 677.681L2369.07 634Z" stroke="#1A1818" stroke-miterlimit="10"/>
<path d="M267.896 370.416C265.924 370.54 263.964 370.797 262.028 371.184C255.791 372.428 249.875 374.889 244.637 378.419C239.378 381.952 234.9 386.478 231.468 391.73C227.21 398.598 224.73 406.373 224.241 414.384L267.805 414.097L267.896 370.416Z" stroke="#1A1818" stroke-miterlimit="10"/>
<rect x="1232.5" y="1486.5" width="74.8826" height="266" fill="#0000FF" fill-opacity="0.1" stroke="black"/>
<rect x="1857.5" y="2501.5" width="133.333" height="25" fill="#0000FF" fill-opacity="0.1" stroke="black"/>
<path d="M1249.58 917.136C1248.97 917.136 1248.44 916.991 1247.99 916.702C1247.55 916.412 1247.21 916.013 1246.97 915.504C1246.73 914.996 1246.61 914.415 1246.61 913.761C1246.61 913.097 1246.74 912.51 1246.98 912.001C1247.23 911.49 1247.57 911.091 1248.01 910.804C1248.45 910.514 1248.97 910.369 1249.56 910.369C1250.02 910.369 1250.44 910.455 1250.81 910.625C1251.18 910.795 1251.48 911.034 1251.71 911.341C1251.95 911.648 1252.1 912.006 1252.15 912.415H1251.15C1251.07 912.116 1250.9 911.852 1250.64 911.622C1250.38 911.389 1250.02 911.273 1249.58 911.273C1249.19 911.273 1248.84 911.375 1248.55 911.58C1248.26 911.781 1248.03 912.067 1247.86 912.436C1247.7 912.803 1247.62 913.233 1247.62 913.727C1247.62 914.233 1247.7 914.673 1247.86 915.048C1248.02 915.423 1248.25 915.714 1248.54 915.922C1248.84 916.129 1249.18 916.233 1249.58 916.233C1249.84 916.233 1250.08 916.188 1250.29 916.097C1250.5 916.006 1250.68 915.875 1250.83 915.705C1250.98 915.534 1251.09 915.33 1251.15 915.091H1252.15C1252.1 915.477 1251.96 915.825 1251.73 916.135C1251.51 916.442 1251.22 916.686 1250.85 916.868C1250.49 917.047 1250.06 917.136 1249.58 917.136ZM1256.28 917.136C1255.69 917.136 1255.17 916.996 1254.73 916.714C1254.28 916.433 1253.94 916.04 1253.69 915.534C1253.44 915.028 1253.32 914.437 1253.32 913.761C1253.32 913.08 1253.44 912.484 1253.69 911.976C1253.94 911.467 1254.28 911.072 1254.73 910.791C1255.17 910.51 1255.69 910.369 1256.28 910.369C1256.87 910.369 1257.39 910.51 1257.83 910.791C1258.28 911.072 1258.63 911.467 1258.87 911.976C1259.12 912.484 1259.25 913.08 1259.25 913.761C1259.25 914.437 1259.12 915.028 1258.87 915.534C1258.63 916.04 1258.28 916.433 1257.83 916.714C1257.39 916.996 1256.87 917.136 1256.28 917.136ZM1256.28 916.233C1256.73 916.233 1257.1 916.118 1257.39 915.888C1257.68 915.658 1257.89 915.355 1258.03 914.98C1258.17 914.605 1258.24 914.199 1258.24 913.761C1258.24 913.324 1258.17 912.916 1258.03 912.538C1257.89 912.161 1257.68 911.855 1257.39 911.622C1257.1 911.389 1256.73 911.273 1256.28 911.273C1255.83 911.273 1255.46 911.389 1255.17 911.622C1254.88 911.855 1254.67 912.161 1254.53 912.538C1254.39 912.916 1254.32 913.324 1254.32 913.761C1254.32 914.199 1254.39 914.605 1254.53 914.98C1254.67 915.355 1254.88 915.658 1255.17 915.888C1255.46 916.118 1255.83 916.233 1256.28 916.233ZM1263.44 917.136C1262.85 917.136 1262.33 916.996 1261.89 916.714C1261.44 916.433 1261.1 916.04 1260.85 915.534C1260.6 915.028 1260.48 914.437 1260.48 913.761C1260.48 913.08 1260.6 912.484 1260.85 911.976C1261.1 911.467 1261.44 911.072 1261.89 910.791C1262.33 910.51 1262.85 910.369 1263.44 910.369C1264.03 910.369 1264.55 910.51 1264.99 910.791C1265.44 911.072 1265.79 911.467 1266.03 911.976C1266.28 912.484 1266.41 913.08 1266.41 913.761C1266.41 914.437 1266.28 915.028 1266.03 915.534C1265.79 916.04 1265.44 916.433 1264.99 916.714C1264.55 916.996 1264.03 917.136 1263.44 917.136ZM1263.44 916.233C1263.89 916.233 1264.26 916.118 1264.55 915.888C1264.84 915.658 1265.06 915.355 1265.19 914.98C1265.33 914.605 1265.4 914.199 1265.4 913.761C1265.4 913.324 1265.33 912.916 1265.19 912.538C1265.06 912.161 1264.84 911.855 1264.55 911.622C1264.26 911.389 1263.89 911.273 1263.44 911.273C1262.99 911.273 1262.62 911.389 1262.33 911.622C1262.05 911.855 1261.83 912.161 1261.69 912.538C1261.55 912.916 1261.48 913.324 1261.48 913.761C1261.48 914.199 1261.55 914.605 1261.69 914.98C1261.83 915.355 1262.05 915.658 1262.33 915.888C1262.62 916.118 1262.99 916.233 1263.44 916.233ZM1268.95 908.273V917H1267.94V908.273H1268.95ZM1270.79 917V910.455H1271.8V917H1270.79ZM1271.3 909.364C1271.11 909.364 1270.94 909.297 1270.8 909.163C1270.66 909.03 1270.59 908.869 1270.59 908.682C1270.59 908.494 1270.66 908.334 1270.8 908.2C1270.94 908.067 1271.11 908 1271.3 908C1271.5 908 1271.67 908.067 1271.81 908.2C1271.95 908.334 1272.02 908.494 1272.02 908.682C1272.02 908.869 1271.95 909.03 1271.81 909.163C1271.67 909.297 1271.5 909.364 1271.3 909.364ZM1274.64 913.062V917H1273.64V910.455H1274.61V911.477H1274.7C1274.85 911.145 1275.08 910.878 1275.39 910.676C1275.71 910.472 1276.11 910.369 1276.61 910.369C1277.05 910.369 1277.44 910.46 1277.77 910.642C1278.1 910.821 1278.36 911.094 1278.54 911.46C1278.73 911.824 1278.82 912.284 1278.82 912.841V917H1277.82V912.909C1277.82 912.395 1277.68 911.994 1277.41 911.707C1277.15 911.418 1276.78 911.273 1276.32 911.273C1275.99 911.273 1275.71 911.342 1275.45 911.482C1275.2 911.621 1275.01 911.824 1274.86 912.091C1274.72 912.358 1274.64 912.682 1274.64 913.062ZM1283.3 919.591C1282.81 919.591 1282.4 919.528 1282.05 919.403C1281.7 919.281 1281.41 919.119 1281.17 918.918C1280.94 918.719 1280.76 918.506 1280.62 918.278L1281.43 917.716C1281.52 917.835 1281.63 917.972 1281.77 918.125C1281.91 918.281 1282.1 918.416 1282.34 918.53C1282.59 918.646 1282.91 918.705 1283.3 918.705C1283.83 918.705 1284.27 918.577 1284.61 918.321C1284.95 918.065 1285.12 917.665 1285.12 917.119V915.79H1285.04C1284.97 915.909 1284.86 916.057 1284.72 916.233C1284.59 916.406 1284.4 916.561 1284.14 916.697C1283.89 916.831 1283.56 916.898 1283.13 916.898C1282.6 916.898 1282.13 916.773 1281.71 916.523C1281.29 916.273 1280.96 915.909 1280.71 915.432C1280.47 914.955 1280.35 914.375 1280.35 913.693C1280.35 913.023 1280.47 912.439 1280.71 911.942C1280.94 911.442 1281.27 911.055 1281.69 910.783C1282.11 910.507 1282.6 910.369 1283.15 910.369C1283.57 910.369 1283.91 910.44 1284.16 910.582C1284.41 910.722 1284.61 910.881 1284.74 911.06C1284.88 911.236 1284.98 911.381 1285.06 911.494H1285.16V910.455H1286.13V917.188C1286.13 917.75 1286 918.207 1285.75 918.56C1285.49 918.915 1285.15 919.175 1284.72 919.339C1284.3 919.507 1283.82 919.591 1283.3 919.591ZM1283.27 915.994C1283.67 915.994 1284.01 915.902 1284.29 915.717C1284.57 915.533 1284.78 915.267 1284.92 914.92C1285.07 914.574 1285.14 914.159 1285.14 913.676C1285.14 913.205 1285.07 912.788 1284.93 912.428C1284.79 912.067 1284.58 911.784 1284.3 911.58C1284.02 911.375 1283.68 911.273 1283.27 911.273C1282.84 911.273 1282.49 911.381 1282.2 911.597C1281.92 911.812 1281.71 912.102 1281.57 912.466C1281.43 912.83 1281.36 913.233 1281.36 913.676C1281.36 914.131 1281.43 914.533 1281.57 914.882C1281.72 915.229 1281.93 915.501 1282.21 915.7C1282.49 915.896 1282.85 915.994 1283.27 915.994Z" fill="black"/>
<path d="M1017.11 663V645.545H1023.01C1024.38 645.545 1025.5 645.793 1026.37 646.287C1027.24 646.776 1027.89 647.438 1028.31 648.273C1028.73 649.108 1028.94 650.04 1028.94 651.068C1028.94 652.097 1028.73 653.031 1028.31 653.872C1027.9 654.713 1027.26 655.384 1026.39 655.884C1025.52 656.378 1024.4 656.625 1023.05 656.625H1018.82V654.75H1022.98C1023.91 654.75 1024.67 654.588 1025.24 654.264C1025.8 653.94 1026.22 653.503 1026.47 652.952C1026.73 652.395 1026.86 651.767 1026.86 651.068C1026.86 650.369 1026.73 649.744 1026.47 649.193C1026.22 648.642 1025.8 648.21 1025.23 647.898C1024.65 647.58 1023.89 647.42 1022.94 647.42H1019.23V663H1017.11ZM1037.73 663H1032.35V645.545H1037.97C1039.67 645.545 1041.12 645.895 1042.32 646.594C1043.52 647.287 1044.45 648.284 1045.09 649.585C1045.73 650.881 1046.05 652.432 1046.05 654.239C1046.05 656.057 1045.73 657.622 1045.08 658.935C1044.43 660.241 1043.49 661.247 1042.25 661.952C1041.01 662.651 1039.51 663 1037.73 663ZM1034.46 661.125H1037.6C1039.04 661.125 1040.24 660.847 1041.19 660.29C1042.13 659.733 1042.84 658.94 1043.31 657.912C1043.77 656.884 1044.01 655.659 1044.01 654.239C1044.01 652.83 1043.78 651.616 1043.32 650.599C1042.86 649.577 1042.17 648.793 1041.25 648.247C1040.34 647.696 1039.2 647.42 1037.84 647.42H1034.46V661.125ZM1061.05 645.545H1063.17V657.102C1063.17 658.295 1062.88 659.361 1062.32 660.298C1061.77 661.23 1060.98 661.966 1059.96 662.506C1058.94 663.04 1057.75 663.307 1056.38 663.307C1055.01 663.307 1053.82 663.04 1052.8 662.506C1051.79 661.966 1051 661.23 1050.43 660.298C1049.88 659.361 1049.6 658.295 1049.6 657.102V645.545H1051.71V656.932C1051.71 657.784 1051.9 658.543 1052.27 659.207C1052.65 659.866 1053.18 660.386 1053.88 660.767C1054.58 661.142 1055.41 661.33 1056.38 661.33C1057.35 661.33 1058.19 661.142 1058.89 660.767C1059.59 660.386 1060.12 659.866 1060.49 659.207C1060.87 658.543 1061.05 657.784 1061.05 656.932V645.545Z" fill="black"/>
<rect x="350.25" y="642.25" width="377.887" height="24.5" fill="#FF0000" fill-opacity="0.15" stroke="black" stroke-width="0.5"/>
<rect x="851.25" y="642.25" width="378.913" height="24.5" fill="#FF0000" fill-opacity="0.15" stroke="black" stroke-width="0.5"/>
<path d="M525.114 663V645.545H531.011C532.381 645.545 533.5 645.793 534.369 646.287C535.244 646.776 535.892 647.438 536.312 648.273C536.733 649.108 536.943 650.04 536.943 651.068C536.943 652.097 536.733 653.031 536.312 653.872C535.898 654.713 535.256 655.384 534.386 655.884C533.517 656.378 532.403 656.625 531.045 656.625H526.818V654.75H530.977C531.915 654.75 532.668 654.588 533.236 654.264C533.804 653.94 534.216 653.503 534.472 652.952C534.733 652.395 534.864 651.767 534.864 651.068C534.864 650.369 534.733 649.744 534.472 649.193C534.216 648.642 533.801 648.21 533.227 647.898C532.653 647.58 531.892 647.42 530.943 647.42H527.227V663H525.114ZM545.734 663H540.348V645.545H545.973C547.666 645.545 549.115 645.895 550.32 646.594C551.524 647.287 552.447 648.284 553.089 649.585C553.732 650.881 554.053 652.432 554.053 654.239C554.053 656.057 553.729 657.622 553.081 658.935C552.433 660.241 551.49 661.247 550.251 661.952C549.013 662.651 547.507 663 545.734 663ZM542.462 661.125H545.598C547.041 661.125 548.237 660.847 549.186 660.29C550.135 659.733 550.842 658.94 551.308 657.912C551.774 656.884 552.007 655.659 552.007 654.239C552.007 652.83 551.777 651.616 551.317 650.599C550.857 649.577 550.169 648.793 549.254 648.247C548.339 647.696 547.2 647.42 545.837 647.42H542.462V661.125ZM569.053 645.545H571.166V657.102C571.166 658.295 570.885 659.361 570.322 660.298C569.766 661.23 568.979 661.966 567.962 662.506C566.945 663.04 565.751 663.307 564.382 663.307C563.013 663.307 561.82 663.04 560.803 662.506C559.786 661.966 558.996 661.23 558.433 660.298C557.876 659.361 557.598 658.295 557.598 657.102V645.545H559.712V656.932C559.712 657.784 559.899 658.543 560.274 659.207C560.649 659.866 561.183 660.386 561.876 660.767C562.575 661.142 563.411 661.33 564.382 661.33C565.354 661.33 566.189 661.142 566.888 660.767C567.587 660.386 568.121 659.866 568.49 659.207C568.865 658.543 569.053 657.784 569.053 656.932V645.545Z" fill="black"/>
<path d="M1230.5 806.5H1305.38V918.5V1030.5H1230.5V806.5Z" fill="#0000FF" fill-opacity="0.1" stroke="black"/>
<path d="M2368.5 2501.5H2495.68V2526.5H2368.5V2501.5Z" fill="#0000FF" fill-opacity="0.1" stroke="black"/>
<path d="M1251.58 1615.14C1250.97 1615.14 1250.44 1614.99 1249.99 1614.7C1249.55 1614.41 1249.21 1614.01 1248.97 1613.5C1248.73 1613 1248.61 1612.41 1248.61 1611.76C1248.61 1611.1 1248.74 1610.51 1248.98 1610C1249.23 1609.49 1249.57 1609.09 1250.01 1608.8C1250.45 1608.51 1250.97 1608.37 1251.56 1608.37C1252.02 1608.37 1252.44 1608.45 1252.81 1608.62C1253.18 1608.8 1253.48 1609.03 1253.71 1609.34C1253.95 1609.65 1254.1 1610.01 1254.15 1610.41H1253.15C1253.07 1610.12 1252.9 1609.85 1252.64 1609.62C1252.38 1609.39 1252.02 1609.27 1251.58 1609.27C1251.19 1609.27 1250.84 1609.37 1250.55 1609.58C1250.26 1609.78 1250.03 1610.07 1249.86 1610.44C1249.7 1610.8 1249.62 1611.23 1249.62 1611.73C1249.62 1612.23 1249.7 1612.67 1249.86 1613.05C1250.02 1613.42 1250.25 1613.71 1250.54 1613.92C1250.84 1614.13 1251.18 1614.23 1251.58 1614.23C1251.84 1614.23 1252.08 1614.19 1252.29 1614.1C1252.5 1614.01 1252.68 1613.88 1252.83 1613.7C1252.98 1613.53 1253.09 1613.33 1253.15 1613.09H1254.15C1254.1 1613.48 1253.96 1613.83 1253.73 1614.13C1253.51 1614.44 1253.22 1614.69 1252.85 1614.87C1252.49 1615.05 1252.06 1615.14 1251.58 1615.14ZM1258.28 1615.14C1257.69 1615.14 1257.17 1615 1256.73 1614.71C1256.28 1614.43 1255.94 1614.04 1255.69 1613.53C1255.44 1613.03 1255.32 1612.44 1255.32 1611.76C1255.32 1611.08 1255.44 1610.48 1255.69 1609.98C1255.94 1609.47 1256.28 1609.07 1256.73 1608.79C1257.17 1608.51 1257.69 1608.37 1258.28 1608.37C1258.87 1608.37 1259.39 1608.51 1259.83 1608.79C1260.28 1609.07 1260.63 1609.47 1260.87 1609.98C1261.12 1610.48 1261.25 1611.08 1261.25 1611.76C1261.25 1612.44 1261.12 1613.03 1260.87 1613.53C1260.63 1614.04 1260.28 1614.43 1259.83 1614.71C1259.39 1615 1258.87 1615.14 1258.28 1615.14ZM1258.28 1614.23C1258.73 1614.23 1259.1 1614.12 1259.39 1613.89C1259.68 1613.66 1259.89 1613.36 1260.03 1612.98C1260.17 1612.61 1260.24 1612.2 1260.24 1611.76C1260.24 1611.32 1260.17 1610.92 1260.03 1610.54C1259.89 1610.16 1259.68 1609.86 1259.39 1609.62C1259.1 1609.39 1258.73 1609.27 1258.28 1609.27C1257.83 1609.27 1257.46 1609.39 1257.17 1609.62C1256.88 1609.86 1256.67 1610.16 1256.53 1610.54C1256.39 1610.92 1256.32 1611.32 1256.32 1611.76C1256.32 1612.2 1256.39 1612.61 1256.53 1612.98C1256.67 1613.36 1256.88 1613.66 1257.17 1613.89C1257.46 1614.12 1257.83 1614.23 1258.28 1614.23ZM1265.44 1615.14C1264.85 1615.14 1264.33 1615 1263.89 1614.71C1263.44 1614.43 1263.1 1614.04 1262.85 1613.53C1262.6 1613.03 1262.48 1612.44 1262.48 1611.76C1262.48 1611.08 1262.6 1610.48 1262.85 1609.98C1263.1 1609.47 1263.44 1609.07 1263.89 1608.79C1264.33 1608.51 1264.85 1608.37 1265.44 1608.37C1266.03 1608.37 1266.55 1608.51 1266.99 1608.79C1267.44 1609.07 1267.79 1609.47 1268.03 1609.98C1268.28 1610.48 1268.41 1611.08 1268.41 1611.76C1268.41 1612.44 1268.28 1613.03 1268.03 1613.53C1267.79 1614.04 1267.44 1614.43 1266.99 1614.71C1266.55 1615 1266.03 1615.14 1265.44 1615.14ZM1265.44 1614.23C1265.89 1614.23 1266.26 1614.12 1266.55 1613.89C1266.84 1613.66 1267.06 1613.36 1267.19 1612.98C1267.33 1612.61 1267.4 1612.2 1267.4 1611.76C1267.4 1611.32 1267.33 1610.92 1267.19 1610.54C1267.06 1610.16 1266.84 1609.86 1266.55 1609.62C1266.26 1609.39 1265.89 1609.27 1265.44 1609.27C1264.99 1609.27 1264.62 1609.39 1264.33 1609.62C1264.05 1609.86 1263.83 1610.16 1263.69 1610.54C1263.55 1610.92 1263.48 1611.32 1263.48 1611.76C1263.48 1612.2 1263.55 1612.61 1263.69 1612.98C1263.83 1613.36 1264.05 1613.66 1264.33 1613.89C1264.62 1614.12 1264.99 1614.23 1265.44 1614.23ZM1270.95 1606.27V1615H1269.94V1606.27H1270.95ZM1272.79 1615V1608.45H1273.8V1615H1272.79ZM1273.3 1607.36C1273.11 1607.36 1272.94 1607.3 1272.8 1607.16C1272.66 1607.03 1272.59 1606.87 1272.59 1606.68C1272.59 1606.49 1272.66 1606.33 1272.8 1606.2C1272.94 1606.07 1273.11 1606 1273.3 1606C1273.5 1606 1273.67 1606.07 1273.81 1606.2C1273.95 1606.33 1274.02 1606.49 1274.02 1606.68C1274.02 1606.87 1273.95 1607.03 1273.81 1607.16C1273.67 1607.3 1273.5 1607.36 1273.3 1607.36ZM1276.64 1611.06V1615H1275.64V1608.45H1276.61V1609.48H1276.7C1276.85 1609.14 1277.08 1608.88 1277.39 1608.68C1277.71 1608.47 1278.11 1608.37 1278.61 1608.37C1279.05 1608.37 1279.44 1608.46 1279.77 1608.64C1280.1 1608.82 1280.36 1609.09 1280.54 1609.46C1280.73 1609.82 1280.82 1610.28 1280.82 1610.84V1615H1279.82V1610.91C1279.82 1610.39 1279.68 1609.99 1279.41 1609.71C1279.15 1609.42 1278.78 1609.27 1278.32 1609.27C1277.99 1609.27 1277.71 1609.34 1277.45 1609.48C1277.2 1609.62 1277.01 1609.82 1276.86 1610.09C1276.72 1610.36 1276.64 1610.68 1276.64 1611.06ZM1285.3 1617.59C1284.81 1617.59 1284.4 1617.53 1284.05 1617.4C1283.7 1617.28 1283.41 1617.12 1283.17 1616.92C1282.94 1616.72 1282.76 1616.51 1282.62 1616.28L1283.43 1615.72C1283.52 1615.84 1283.63 1615.97 1283.77 1616.12C1283.91 1616.28 1284.1 1616.42 1284.34 1616.53C1284.59 1616.65 1284.91 1616.7 1285.3 1616.7C1285.83 1616.7 1286.27 1616.58 1286.61 1616.32C1286.95 1616.07 1287.12 1615.66 1287.12 1615.12V1613.79H1287.04C1286.97 1613.91 1286.86 1614.06 1286.72 1614.23C1286.59 1614.41 1286.4 1614.56 1286.14 1614.7C1285.89 1614.83 1285.56 1614.9 1285.13 1614.9C1284.6 1614.9 1284.13 1614.77 1283.71 1614.52C1283.29 1614.27 1282.96 1613.91 1282.71 1613.43C1282.47 1612.95 1282.35 1612.37 1282.35 1611.69C1282.35 1611.02 1282.47 1610.44 1282.71 1609.94C1282.94 1609.44 1283.27 1609.06 1283.69 1608.78C1284.11 1608.51 1284.6 1608.37 1285.15 1608.37C1285.57 1608.37 1285.91 1608.44 1286.16 1608.58C1286.41 1608.72 1286.61 1608.88 1286.74 1609.06C1286.88 1609.24 1286.98 1609.38 1287.06 1609.49H1287.16V1608.45H1288.13V1615.19C1288.13 1615.75 1288 1616.21 1287.75 1616.56C1287.49 1616.91 1287.15 1617.17 1286.72 1617.34C1286.3 1617.51 1285.82 1617.59 1285.3 1617.59ZM1285.27 1613.99C1285.67 1613.99 1286.01 1613.9 1286.29 1613.72C1286.57 1613.53 1286.78 1613.27 1286.92 1612.92C1287.07 1612.57 1287.14 1612.16 1287.14 1611.68C1287.14 1611.2 1287.07 1610.79 1286.93 1610.43C1286.79 1610.07 1286.58 1609.78 1286.3 1609.58C1286.02 1609.37 1285.68 1609.27 1285.27 1609.27C1284.84 1609.27 1284.49 1609.38 1284.2 1609.6C1283.92 1609.81 1283.71 1610.1 1283.57 1610.47C1283.43 1610.83 1283.36 1611.23 1283.36 1611.68C1283.36 1612.13 1283.43 1612.53 1283.57 1612.88C1283.72 1613.23 1283.93 1613.5 1284.21 1613.7C1284.49 1613.9 1284.85 1613.99 1285.27 1613.99Z" fill="black"/>
<path d="M1906.08 2512H1905.02C1904.96 2511.7 1904.85 2511.43 1904.69 2511.2C1904.54 2510.97 1904.35 2510.78 1904.13 2510.62C1903.91 2510.46 1903.67 2510.34 1903.4 2510.26C1903.14 2510.18 1902.86 2510.14 1902.57 2510.14C1902.04 2510.14 1901.56 2510.28 1901.13 2510.54C1900.71 2510.81 1900.37 2511.2 1900.11 2511.72C1899.86 2512.24 1899.74 2512.88 1899.74 2513.64C1899.74 2514.39 1899.86 2515.03 1900.11 2515.55C1900.37 2516.07 1900.71 2516.46 1901.13 2516.73C1901.56 2517 1902.04 2517.13 1902.57 2517.13C1902.86 2517.13 1903.14 2517.09 1903.4 2517.01C1903.67 2516.93 1903.91 2516.81 1904.13 2516.66C1904.35 2516.5 1904.54 2516.3 1904.69 2516.07C1904.85 2515.84 1904.96 2515.57 1905.02 2515.27H1906.08C1906 2515.72 1905.86 2516.12 1905.64 2516.47C1905.43 2516.82 1905.17 2517.12 1904.86 2517.37C1904.55 2517.61 1904.2 2517.8 1903.81 2517.93C1903.42 2518.06 1903.01 2518.12 1902.57 2518.12C1901.82 2518.12 1901.16 2517.94 1900.58 2517.57C1900 2517.21 1899.55 2516.69 1899.21 2516.02C1898.88 2515.35 1898.72 2514.56 1898.72 2513.64C1898.72 2512.72 1898.88 2511.92 1899.21 2511.25C1899.55 2510.58 1900 2510.06 1900.58 2509.7C1901.16 2509.34 1901.82 2509.15 1902.57 2509.15C1903.01 2509.15 1903.42 2509.22 1903.81 2509.35C1904.2 2509.47 1904.55 2509.66 1904.86 2509.91C1905.17 2510.15 1905.43 2510.45 1905.64 2510.8C1905.86 2511.15 1906 2511.55 1906.08 2512ZM1907.79 2518V2509.27H1910.74C1911.42 2509.27 1911.98 2509.39 1912.42 2509.62C1912.85 2509.85 1913.18 2510.17 1913.39 2510.57C1913.6 2510.98 1913.7 2511.43 1913.7 2511.95C1913.7 2512.46 1913.6 2512.92 1913.39 2513.32C1913.18 2513.71 1912.85 2514.03 1912.42 2514.25C1911.98 2514.48 1911.43 2514.59 1910.75 2514.59H1908.37V2513.64H1910.72C1911.19 2513.64 1911.56 2513.57 1911.84 2513.43C1912.13 2513.3 1912.34 2513.1 1912.47 2512.85C1912.6 2512.6 1912.66 2512.3 1912.66 2511.95C1912.66 2511.6 1912.6 2511.29 1912.47 2511.03C1912.34 2510.77 1912.13 2510.57 1911.84 2510.43C1911.55 2510.28 1911.17 2510.21 1910.7 2510.21H1908.84V2518H1907.79ZM1911.9 2514.08L1914.04 2518H1912.82L1910.7 2514.08H1911.9ZM1915.82 2518H1914.71L1917.92 2509.27H1919.01L1922.21 2518H1921.11L1918.5 2510.65H1918.43L1915.82 2518ZM1916.23 2514.59H1920.7V2515.53H1916.23V2514.59ZM1923.57 2518V2509.27H1924.63V2513.16H1929.28V2509.27H1930.34V2518H1929.28V2514.1H1924.63V2518H1923.57ZM1938.75 2509.27V2518H1937.69V2510.38H1937.64L1935.51 2511.8V2510.72L1937.69 2509.27H1938.75ZM1944.1 2518.12C1943.46 2518.12 1942.91 2517.94 1942.46 2517.6C1942.01 2517.24 1941.66 2516.73 1941.43 2516.07C1941.19 2515.39 1941.07 2514.59 1941.07 2513.64C1941.07 2512.69 1941.19 2511.89 1941.43 2511.22C1941.67 2510.55 1942.01 2510.04 1942.47 2509.69C1942.92 2509.33 1943.47 2509.15 1944.1 2509.15C1944.74 2509.15 1945.28 2509.33 1945.73 2509.69C1946.19 2510.04 1946.53 2510.55 1946.77 2511.22C1947.01 2511.89 1947.14 2512.69 1947.14 2513.64C1947.14 2514.59 1947.02 2515.39 1946.78 2516.07C1946.54 2516.73 1946.19 2517.24 1945.74 2517.6C1945.29 2517.94 1944.74 2518.12 1944.1 2518.12ZM1944.1 2517.18C1944.74 2517.18 1945.23 2516.87 1945.58 2516.26C1945.94 2515.65 1946.11 2514.77 1946.11 2513.64C1946.11 2512.88 1946.03 2512.24 1945.87 2511.71C1945.71 2511.17 1945.48 2510.77 1945.18 2510.49C1944.88 2510.21 1944.52 2510.07 1944.1 2510.07C1943.47 2510.07 1942.98 2510.38 1942.62 2511.01C1942.27 2511.63 1942.09 2512.5 1942.09 2513.64C1942.09 2514.39 1942.17 2515.03 1942.33 2515.56C1942.49 2516.09 1942.72 2516.49 1943.01 2516.77C1943.32 2517.04 1943.68 2517.18 1944.1 2517.18Z" fill="black"/>
<path d="M2414.08 2512H2413.02C2412.96 2511.7 2412.85 2511.43 2412.69 2511.2C2412.54 2510.97 2412.35 2510.78 2412.13 2510.62C2411.91 2510.46 2411.67 2510.34 2411.4 2510.26C2411.14 2510.18 2410.86 2510.14 2410.57 2510.14C2410.04 2510.14 2409.56 2510.28 2409.13 2510.54C2408.71 2510.81 2408.37 2511.2 2408.11 2511.72C2407.86 2512.24 2407.74 2512.88 2407.74 2513.64C2407.74 2514.39 2407.86 2515.03 2408.11 2515.55C2408.37 2516.07 2408.71 2516.46 2409.13 2516.73C2409.56 2517 2410.04 2517.13 2410.57 2517.13C2410.86 2517.13 2411.14 2517.09 2411.4 2517.01C2411.67 2516.93 2411.91 2516.81 2412.13 2516.66C2412.35 2516.5 2412.54 2516.3 2412.69 2516.07C2412.85 2515.84 2412.96 2515.57 2413.02 2515.27H2414.08C2414 2515.72 2413.86 2516.12 2413.64 2516.47C2413.43 2516.82 2413.17 2517.12 2412.86 2517.37C2412.55 2517.61 2412.2 2517.8 2411.81 2517.93C2411.42 2518.06 2411.01 2518.12 2410.57 2518.12C2409.82 2518.12 2409.16 2517.94 2408.58 2517.57C2408 2517.21 2407.55 2516.69 2407.21 2516.02C2406.88 2515.35 2406.72 2514.56 2406.72 2513.64C2406.72 2512.72 2406.88 2511.92 2407.21 2511.25C2407.55 2510.58 2408 2510.06 2408.58 2509.7C2409.16 2509.34 2409.82 2509.15 2410.57 2509.15C2411.01 2509.15 2411.42 2509.22 2411.81 2509.35C2412.2 2509.47 2412.55 2509.66 2412.86 2509.91C2413.17 2510.15 2413.43 2510.45 2413.64 2510.8C2413.86 2511.15 2414 2511.55 2414.08 2512ZM2415.79 2518V2509.27H2418.74C2419.42 2509.27 2419.98 2509.39 2420.42 2509.62C2420.85 2509.85 2421.18 2510.17 2421.39 2510.57C2421.6 2510.98 2421.7 2511.43 2421.7 2511.95C2421.7 2512.46 2421.6 2512.92 2421.39 2513.32C2421.18 2513.71 2420.85 2514.03 2420.42 2514.25C2419.98 2514.48 2419.43 2514.59 2418.75 2514.59H2416.37V2513.64H2418.72C2419.19 2513.64 2419.56 2513.57 2419.84 2513.43C2420.13 2513.3 2420.34 2513.1 2420.47 2512.85C2420.6 2512.6 2420.66 2512.3 2420.66 2511.95C2420.66 2511.6 2420.6 2511.29 2420.47 2511.03C2420.34 2510.77 2420.13 2510.57 2419.84 2510.43C2419.55 2510.28 2419.17 2510.21 2418.7 2510.21H2416.84V2518H2415.79ZM2419.9 2514.08L2422.04 2518H2420.82L2418.7 2514.08H2419.9ZM2423.82 2518H2422.71L2425.92 2509.27H2427.01L2430.21 2518H2429.11L2426.5 2510.65H2426.43L2423.82 2518ZM2424.23 2514.59H2428.7V2515.53H2424.23V2514.59ZM2431.57 2518V2509.27H2432.63V2513.16H2437.28V2509.27H2438.34V2518H2437.28V2514.1H2432.63V2518H2431.57ZM2446.75 2509.27V2518H2445.69V2510.38H2445.64L2443.51 2511.8V2510.72L2445.69 2509.27H2446.75ZM2452.1 2518.12C2451.46 2518.12 2450.91 2517.94 2450.46 2517.6C2450.01 2517.24 2449.66 2516.73 2449.43 2516.07C2449.19 2515.39 2449.07 2514.59 2449.07 2513.64C2449.07 2512.69 2449.19 2511.89 2449.43 2511.22C2449.67 2510.55 2450.01 2510.04 2450.47 2509.69C2450.92 2509.33 2451.47 2509.15 2452.1 2509.15C2452.74 2509.15 2453.28 2509.33 2453.73 2509.69C2454.19 2510.04 2454.53 2510.55 2454.77 2511.22C2455.01 2511.89 2455.14 2512.69 2455.14 2513.64C2455.14 2514.59 2455.02 2515.39 2454.78 2516.07C2454.54 2516.73 2454.19 2517.24 2453.74 2517.6C2453.29 2517.94 2452.74 2518.12 2452.1 2518.12ZM2452.1 2517.18C2452.74 2517.18 2453.23 2516.87 2453.58 2516.26C2453.94 2515.65 2454.11 2514.77 2454.11 2513.64C2454.11 2512.88 2454.03 2512.24 2453.87 2511.71C2453.71 2511.17 2453.48 2510.77 2453.18 2510.49C2452.88 2510.21 2452.52 2510.07 2452.1 2510.07C2451.47 2510.07 2450.98 2510.38 2450.62 2511.01C2450.27 2511.63 2450.09 2512.5 2450.09 2513.64C2450.09 2514.39 2450.17 2515.03 2450.33 2515.56C2450.49 2516.09 2450.72 2516.49 2451.01 2516.77C2451.32 2517.04 2451.68 2517.18 2452.1 2517.18Z" fill="black"/>
<path d="M429.37 112V97.4545H438.148V99.017H431.131V103.932H437.694V105.494H431.131V110.438H438.262V112H429.37ZM442.346 101.091L444.959 105.551L447.573 101.091H449.505L445.982 106.545L449.505 112H447.573L444.959 107.767L442.346 112H440.414L443.88 106.545L440.414 101.091H442.346ZM455.879 112.227C454.857 112.227 453.976 111.986 453.237 111.503C452.499 111.02 451.93 110.355 451.533 109.507C451.135 108.66 450.936 107.691 450.936 106.602C450.936 105.494 451.14 104.517 451.547 103.669C451.959 102.817 452.532 102.152 453.266 101.673C454.004 101.19 454.866 100.949 455.851 100.949C456.618 100.949 457.309 101.091 457.925 101.375C458.54 101.659 459.044 102.057 459.437 102.568C459.83 103.08 460.074 103.676 460.169 104.358H458.493C458.365 103.861 458.081 103.42 457.641 103.037C457.205 102.649 456.618 102.455 455.879 102.455C455.226 102.455 454.653 102.625 454.16 102.966C453.673 103.302 453.292 103.778 453.017 104.393C452.747 105.004 452.612 105.722 452.612 106.545C452.612 107.388 452.745 108.122 453.01 108.747C453.28 109.372 453.659 109.857 454.146 110.203C454.639 110.549 455.216 110.722 455.879 110.722C456.315 110.722 456.71 110.646 457.065 110.494C457.42 110.343 457.721 110.125 457.967 109.841C458.214 109.557 458.389 109.216 458.493 108.818H460.169C460.074 109.462 459.84 110.042 459.466 110.558C459.097 111.07 458.607 111.477 457.996 111.78C457.39 112.078 456.684 112.227 455.879 112.227ZM464.295 97.4545V112H462.619V97.4545H464.295ZM474.24 107.54V101.091H475.917V112H474.24V110.153H474.127C473.871 110.707 473.473 111.179 472.934 111.567C472.394 111.95 471.712 112.142 470.888 112.142C470.206 112.142 469.6 111.993 469.07 111.695C468.54 111.392 468.123 110.937 467.82 110.331C467.517 109.72 467.365 108.951 467.365 108.023V101.091H469.042V107.909C469.042 108.705 469.264 109.339 469.709 109.812C470.159 110.286 470.732 110.523 471.428 110.523C471.845 110.523 472.268 110.416 472.699 110.203C473.135 109.99 473.499 109.663 473.793 109.223C474.091 108.783 474.24 108.222 474.24 107.54ZM483.106 112.227C482.197 112.227 481.394 111.998 480.698 111.538C480.002 111.074 479.458 110.421 479.065 109.578C478.672 108.731 478.475 107.729 478.475 106.574C478.475 105.428 478.672 104.434 479.065 103.591C479.458 102.748 480.004 102.097 480.705 101.638C481.406 101.179 482.216 100.949 483.134 100.949C483.844 100.949 484.406 101.067 484.817 101.304C485.234 101.536 485.551 101.801 485.769 102.099C485.992 102.393 486.165 102.634 486.288 102.824H486.43V97.4545H488.106V112H486.486V110.324H486.288C486.165 110.523 485.989 110.774 485.762 111.077C485.535 111.375 485.21 111.643 484.789 111.879C484.368 112.111 483.807 112.227 483.106 112.227ZM483.333 110.722C484.005 110.722 484.574 110.546 485.038 110.196C485.502 109.841 485.854 109.351 486.096 108.726C486.337 108.096 486.458 107.369 486.458 106.545C486.458 105.731 486.34 105.018 486.103 104.408C485.866 103.792 485.516 103.314 485.052 102.973C484.588 102.627 484.015 102.455 483.333 102.455C482.623 102.455 482.031 102.637 481.558 103.001C481.089 103.361 480.736 103.851 480.499 104.472C480.267 105.087 480.151 105.778 480.151 106.545C480.151 107.322 480.27 108.027 480.506 108.662C480.748 109.292 481.103 109.794 481.572 110.168C482.045 110.537 482.632 110.722 483.333 110.722ZM495.982 112.227C494.931 112.227 494.024 111.995 493.262 111.531C492.504 111.062 491.92 110.409 491.508 109.571C491.101 108.728 490.897 107.748 490.897 106.631C490.897 105.513 491.101 104.528 491.508 103.676C491.92 102.819 492.493 102.152 493.227 101.673C493.965 101.19 494.827 100.949 495.812 100.949C496.38 100.949 496.941 101.044 497.495 101.233C498.049 101.422 498.553 101.73 499.008 102.156C499.462 102.578 499.825 103.136 500.094 103.832C500.364 104.528 500.499 105.385 500.499 106.403V107.114H492.09V105.665H498.795C498.795 105.049 498.672 104.5 498.425 104.017C498.184 103.534 497.838 103.153 497.388 102.874C496.943 102.594 496.418 102.455 495.812 102.455C495.144 102.455 494.567 102.62 494.079 102.952C493.596 103.278 493.224 103.705 492.964 104.23C492.703 104.756 492.573 105.319 492.573 105.92V106.886C492.573 107.71 492.715 108.409 492.999 108.982C493.288 109.55 493.688 109.983 494.2 110.281C494.711 110.575 495.305 110.722 495.982 110.722C496.423 110.722 496.82 110.66 497.175 110.537C497.535 110.409 497.845 110.22 498.106 109.969C498.366 109.713 498.567 109.396 498.709 109.017L500.329 109.472C500.158 110.021 499.872 110.504 499.469 110.92C499.067 111.332 498.57 111.654 497.978 111.886C497.386 112.114 496.721 112.227 495.982 112.227ZM507.168 112.227C506.259 112.227 505.457 111.998 504.761 111.538C504.065 111.074 503.52 110.421 503.127 109.578C502.734 108.731 502.538 107.729 502.538 106.574C502.538 105.428 502.734 104.434 503.127 103.591C503.52 102.748 504.067 102.097 504.768 101.638C505.468 101.179 506.278 100.949 507.197 100.949C507.907 100.949 508.468 101.067 508.88 101.304C509.297 101.536 509.614 101.801 509.832 102.099C510.054 102.393 510.227 102.634 510.35 102.824H510.492V97.4545H512.168V112H510.549V110.324H510.35C510.227 110.523 510.052 110.774 509.825 111.077C509.597 111.375 509.273 111.643 508.852 111.879C508.43 112.111 507.869 112.227 507.168 112.227ZM507.396 110.722C508.068 110.722 508.636 110.546 509.1 110.196C509.564 109.841 509.917 109.351 510.158 108.726C510.4 108.096 510.521 107.369 510.521 106.545C510.521 105.731 510.402 105.018 510.165 104.408C509.929 103.792 509.578 103.314 509.114 102.973C508.65 102.627 508.077 102.455 507.396 102.455C506.685 102.455 506.093 102.637 505.62 103.001C505.151 103.361 504.799 103.851 504.562 104.472C504.33 105.087 504.214 105.778 504.214 106.545C504.214 107.322 504.332 108.027 504.569 108.662C504.81 109.292 505.165 109.794 505.634 110.168C506.108 110.537 506.695 110.722 507.396 110.722ZM525.528 112.227C524.505 112.227 523.624 111.986 522.886 111.503C522.147 111.02 521.579 110.355 521.181 109.507C520.783 108.66 520.584 107.691 520.584 106.602C520.584 105.494 520.788 104.517 521.195 103.669C521.607 102.817 522.18 102.152 522.914 101.673C523.653 101.19 524.514 100.949 525.499 100.949C526.266 100.949 526.958 101.091 527.573 101.375C528.189 101.659 528.693 102.057 529.086 102.568C529.479 103.08 529.723 103.676 529.817 104.358H528.141C528.013 103.861 527.729 103.42 527.289 103.037C526.853 102.649 526.266 102.455 525.528 102.455C524.874 102.455 524.301 102.625 523.809 102.966C523.321 103.302 522.94 103.778 522.665 104.393C522.396 105.004 522.261 105.722 522.261 106.545C522.261 107.388 522.393 108.122 522.658 108.747C522.928 109.372 523.307 109.857 523.795 110.203C524.287 110.549 524.865 110.722 525.528 110.722C525.963 110.722 526.359 110.646 526.714 110.494C527.069 110.343 527.37 110.125 527.616 109.841C527.862 109.557 528.037 109.216 528.141 108.818H529.817C529.723 109.462 529.488 110.042 529.114 110.558C528.745 111.07 528.255 111.477 527.644 111.78C527.038 112.078 526.333 112.227 525.528 112.227ZM535.478 112.256C534.787 112.256 534.159 112.125 533.596 111.865C533.032 111.6 532.585 111.219 532.254 110.722C531.922 110.22 531.756 109.614 531.756 108.903C531.756 108.278 531.879 107.772 532.126 107.384C532.372 106.991 532.701 106.683 533.113 106.46C533.525 106.238 533.979 106.072 534.477 105.963C534.978 105.849 535.483 105.759 535.989 105.693C536.652 105.608 537.19 105.544 537.602 105.501C538.018 105.454 538.321 105.376 538.511 105.267C538.705 105.158 538.802 104.969 538.802 104.699V104.642C538.802 103.941 538.61 103.397 538.227 103.009C537.848 102.62 537.272 102.426 536.501 102.426C535.7 102.426 535.073 102.601 534.619 102.952C534.164 103.302 533.844 103.676 533.66 104.074L532.069 103.506C532.353 102.843 532.732 102.327 533.205 101.957C533.683 101.583 534.204 101.323 534.768 101.176C535.336 101.025 535.895 100.949 536.444 100.949C536.794 100.949 537.197 100.991 537.651 101.077C538.111 101.157 538.553 101.325 538.979 101.581C539.41 101.837 539.768 102.223 540.052 102.739C540.336 103.255 540.478 103.946 540.478 104.812V112H538.802V110.523H538.717C538.603 110.759 538.414 111.013 538.148 111.283C537.883 111.553 537.531 111.782 537.09 111.972C536.65 112.161 536.112 112.256 535.478 112.256ZM535.734 110.75C536.397 110.75 536.955 110.62 537.41 110.359C537.869 110.099 538.215 109.763 538.447 109.351C538.683 108.939 538.802 108.506 538.802 108.051V106.517C538.731 106.602 538.575 106.68 538.333 106.751C538.096 106.818 537.822 106.877 537.509 106.929C537.201 106.976 536.901 107.019 536.607 107.057C536.318 107.09 536.084 107.118 535.904 107.142C535.468 107.199 535.061 107.291 534.683 107.419C534.308 107.542 534.005 107.729 533.773 107.98C533.546 108.226 533.433 108.562 533.433 108.989C533.433 109.571 533.648 110.011 534.079 110.31C534.514 110.603 535.066 110.75 535.734 110.75ZM543.765 112V97.4545H545.441V102.824H545.583C545.706 102.634 545.876 102.393 546.094 102.099C546.317 101.801 546.634 101.536 547.046 101.304C547.462 101.067 548.026 100.949 548.736 100.949C549.655 100.949 550.464 101.179 551.165 101.638C551.866 102.097 552.413 102.748 552.806 103.591C553.199 104.434 553.395 105.428 553.395 106.574C553.395 107.729 553.199 108.731 552.806 109.578C552.413 110.421 551.868 111.074 551.172 111.538C550.476 111.998 549.674 112.227 548.765 112.227C548.064 112.227 547.503 112.111 547.081 111.879C546.66 111.643 546.336 111.375 546.108 111.077C545.881 110.774 545.706 110.523 545.583 110.324H545.384V112H543.765ZM545.412 106.545C545.412 107.369 545.533 108.096 545.774 108.726C546.016 109.351 546.369 109.841 546.833 110.196C547.297 110.546 547.865 110.722 548.537 110.722C549.238 110.722 549.823 110.537 550.292 110.168C550.765 109.794 551.12 109.292 551.357 108.662C551.598 108.027 551.719 107.322 551.719 106.545C551.719 105.778 551.601 105.087 551.364 104.472C551.132 103.851 550.779 103.361 550.306 103.001C549.837 102.637 549.247 102.455 548.537 102.455C547.855 102.455 547.283 102.627 546.819 102.973C546.354 103.314 546.004 103.792 545.767 104.408C545.531 105.018 545.412 105.731 545.412 106.545ZM556.186 112V97.4545H564.965V99.017H557.948V103.932H564.51V105.494H557.948V110.438H565.078V112H556.186ZM573.338 112L575.725 97.4545H577.145L574.759 112H573.338ZM566.719 107.966L566.946 106.545H577.799L577.571 107.966H566.719ZM568.225 112L570.611 97.4545H572.032L569.645 112H568.225ZM567.571 102.909L567.799 101.489H578.651L578.424 102.909H567.571Z" fill="black"/>
</g>
<defs>
<clipPath id="clip0_9_47">
<rect width="2882" height="2528.17" fill="white"/>
</clipPath>
</defs>
</svg>
