<svg width="3025" height="2630" viewBox="0 0 3025 2630" fill="none" xmlns="http://www.w3.org/2000/svg">
<path d="M1.25 701.023V0.749023H3023.25V2629.18H1271.58V697.749L1.25 701.023Z" stroke="black" stroke-width="1.5"/>
<path d="M1.25 487.75H261.25V116.75H1.25V487.75Z" stroke="black" stroke-width="2.5"/>
<path d="M261.25 257.75H742.492V116.417H1808.92V0.416992" stroke="black" stroke-width="1.5"/>
<path d="M2586.25 628.296V1237.31H3023.25V628.296H2586.25Z" stroke="black" stroke-width="2.5"/>
<path d="M2586.25 805.051H3023.25" stroke="black"/>
<path d="M80.8455 699.652C80.9715 701.068 81.229 702.469 81.6145 703.838C82.9838 708.499 85.4665 712.757 88.8485 716.244C92.6541 720.186 97.1703 723.373 102.159 725.638C109.327 728.743 117.008 730.491 124.813 730.794L124.526 699.717L80.8455 699.652Z" stroke="#1A1818" stroke-miterlimit="10"/>
<path d="M80.8455 699.651C80.7152 701.069 80.4494 702.471 80.0515 703.838C78.6054 708.541 76.0282 712.818 72.5455 716.294C68.6116 720.239 63.9683 723.405 58.8595 725.627C51.4408 728.742 43.5209 730.492 35.4805 730.794L35.7805 699.718L80.8455 699.651Z" stroke="#1A1818" stroke-miterlimit="10"/>
<path d="M1271.97 1238.52C1273.77 1238.38 1275.55 1238.09 1277.3 1237.66C1283.11 1236.18 1288.52 1233.41 1293.1 1229.55C1298.03 1225.41 1302.1 1220.34 1305.07 1214.64C1309 1206.72 1311.24 1198.08 1311.64 1189.25L1272.05 1189.57L1271.97 1238.52Z" stroke="#1A1818" stroke-miterlimit="10"/>
<path d="M1271.97 1238.52C1273.77 1238.65 1275.55 1238.93 1277.3 1239.34C1283.1 1240.75 1288.52 1243.42 1293.17 1247.16C1298.04 1251.07 1302.09 1255.91 1305.06 1261.41C1308.98 1268.95 1311.23 1277.26 1311.64 1285.75L1272.05 1285.44L1271.97 1238.52Z" stroke="#1A1818" stroke-miterlimit="10"/>
<path d="M2586.71 1120.2C2585.29 1120.33 2583.89 1120.59 2582.52 1120.99C2577.85 1122.39 2573.59 1124.93 2570.12 1128.37C2566.16 1132.27 2562.98 1136.88 2560.72 1141.96C2557.62 1149.29 2555.87 1157.13 2555.57 1165.08L2586.65 1164.79L2586.71 1120.2Z" stroke="#1A1818" stroke-miterlimit="10"/>
<path d="M2586.71 1120.2C2585.29 1120.07 2583.89 1119.8 2582.52 1119.39C2577.8 1117.89 2573.52 1115.25 2570.07 1111.7C2566.11 1107.65 2562.95 1102.9 2560.74 1097.69C2557.62 1090.08 2555.87 1081.97 2555.57 1073.75L2586.64 1074.06L2586.71 1120.2Z" stroke="#1A1818" stroke-miterlimit="10"/>
<path d="M2587.11 656.413C2585.19 656.537 2583.28 656.794 2581.39 657.181C2575.31 658.425 2569.54 660.886 2564.43 664.416C2559.3 667.949 2554.94 672.475 2551.59 677.727C2547.44 684.595 2545.02 692.37 2544.54 700.381L2587.02 700.094L2587.11 656.413Z" stroke="#1A1818" stroke-miterlimit="10"/>
<path d="M261.25 378.416C259.327 378.54 257.415 378.797 255.528 379.184C249.445 380.428 243.676 382.889 238.568 386.419C233.439 389.952 229.072 394.478 225.726 399.73C221.573 406.598 219.154 414.373 218.678 422.384L261.161 422.097L261.25 378.416Z" stroke="#1A1818" stroke-miterlimit="10"/>
</svg>
