<svg width="421" height="297" viewBox="0 0 421 297" fill="none" xmlns="http://www.w3.org/2000/svg">
<g clip-path="url(#clip0_2_2)">
<path d="M15.8381 79.4307V0H246.666V102.988H388.5V296L-0.499969 295.374V203.258H192.5L192.5 79.4307H15.8381Z" stroke="black" stroke-width="0.3"/>
<path d="M192.5 169H280.5V203H192.5V185.5V169Z" stroke="black" stroke-width="0.3"/>
<path d="M298.4 169.147H419.816V241.147H298.4V169.147Z" stroke="black" stroke-width="0.3"/>
<path d="M298.474 241.147H419.813V295.917L298.474 295.625V241.147Z" stroke="black" stroke-width="0.3"/>
<path d="M389 166H419.975L420 296L389.239 295.887L389 166Z" fill="white"/>
<path d="M15.8164 31.5747H86.8037V26.0498H116.73V14.8999H146.897V9.3999H247" stroke="black" stroke-width="0.3"/>
<path d="M246.9 75.7499C247.106 75.7333 247.311 75.6999 247.511 75.6499C248.176 75.483 248.795 75.1682 249.321 74.7289C249.885 74.2573 250.35 73.6797 250.691 73.0289C251.14 72.1321 251.396 71.1515 251.443 70.1499L246.91 70.1869L246.9 75.7499Z" stroke="#1A1818" stroke-width="0.3" stroke-miterlimit="10"/>
<path d="M246.9 75.75C247.11 75.7643 247.319 75.7941 247.525 75.839C248.197 75.9885 248.83 76.2766 249.385 76.685C249.948 77.0999 250.423 77.6244 250.779 78.227C251.235 79.0335 251.5 79.9346 251.551 80.86L246.91 80.827L246.9 75.75Z" stroke="#1A1818" stroke-width="0.3" stroke-miterlimit="10"/>
<path d="M246.9 53.9001C247.106 53.8833 247.31 53.8499 247.511 53.8001C248.174 53.6358 248.793 53.3249 249.321 52.8901C249.882 52.4281 250.348 51.8604 250.691 51.2191C251.14 50.3328 251.396 49.3615 251.443 48.3691L246.91 48.4051L246.9 53.9001Z" stroke="#1A1818" stroke-width="0.3" stroke-miterlimit="10"/>
<path d="M246.9 53.9001C247.11 53.9165 247.319 53.9499 247.525 54.0001C248.207 54.1715 248.842 54.493 249.385 54.9411C249.958 55.415 250.432 55.9979 250.779 56.6561C251.239 57.5683 251.502 58.5674 251.551 59.5881L246.91 59.5501L246.9 53.9001Z" stroke="#1A1818" stroke-width="0.3" stroke-miterlimit="10"/>
<path d="M192.32 149.9C192.52 149.883 192.719 149.85 192.914 149.8C193.562 149.635 194.164 149.323 194.674 148.89C195.222 148.425 195.675 147.857 196.006 147.219C196.443 146.33 196.693 145.359 196.738 144.369L192.329 144.405L192.32 149.9Z" stroke="#1A1818" stroke-width="0.3" stroke-miterlimit="10"/>
<path d="M192.32 149.9C192.525 149.916 192.729 149.95 192.929 150C193.595 150.173 194.214 150.495 194.739 150.941C195.299 151.418 195.76 152.001 196.095 152.656C196.544 153.572 196.799 154.57 196.846 155.588L192.329 155.55L192.32 149.9Z" stroke="#1A1818" stroke-width="0.3" stroke-miterlimit="10"/>
<path d="M307.441 169.149C307.424 168.95 307.391 168.752 307.341 168.559C307.175 167.914 306.864 167.317 306.431 166.811C305.965 166.265 305.398 165.816 304.76 165.487C303.87 165.052 302.9 164.805 301.91 164.76L301.946 169.139L307.441 169.149Z" stroke="#1A1818" stroke-width="0.3" stroke-miterlimit="10"/>
<path d="M307.441 169.152C307.458 168.949 307.492 168.749 307.541 168.552C307.708 167.891 308.022 167.276 308.458 166.752C308.92 166.195 309.487 165.734 310.127 165.398C311.017 164.953 311.99 164.698 312.983 164.652L312.947 169.139L307.441 169.152Z" stroke="#1A1818" stroke-width="0.3" stroke-miterlimit="10"/>
<path d="M298.484 279.65C298.295 279.664 298.107 279.693 297.922 279.737C297.313 279.885 296.744 280.166 296.256 280.56C295.74 280.977 295.311 281.491 294.994 282.074C294.581 282.873 294.345 283.752 294.301 284.65L298.475 284.617L298.484 279.65Z" stroke="#1A1818" stroke-width="0.3" stroke-miterlimit="10"/>
<path d="M298.484 279.65C298.29 279.635 298.097 279.604 297.907 279.558C297.278 279.398 296.692 279.099 296.193 278.684C295.663 278.243 295.225 277.701 294.905 277.09C294.481 276.243 294.238 275.316 294.193 274.369L298.475 274.403L298.484 279.65Z" stroke="#1A1818" stroke-width="0.3" stroke-miterlimit="10"/>
<path d="M68.8389 209.148C68.6012 209.131 68.3652 209.096 68.1329 209.043C67.3717 208.867 66.6574 208.53 66.0389 208.053C65.3973 207.557 64.8603 206.939 64.4589 206.235C63.9418 205.279 63.6445 204.22 63.5889 203.135L68.8279 203.174L68.8389 209.148Z" stroke="#1A1818" stroke-width="0.3" stroke-miterlimit="10"/>
<path d="M30.8389 85.1479C30.6014 85.1315 30.3655 85.098 30.1329 85.0479C29.3787 84.8878 28.6658 84.5736 28.0389 84.1249C27.4044 83.669 26.8672 83.091 26.4589 82.4249C25.9446 81.5402 25.6465 80.5466 25.5889 79.5249L30.8279 79.5619L30.8389 85.1479Z" stroke="#1A1818" stroke-width="0.3" stroke-miterlimit="10"/>
<path d="M220.839 175.148C220.601 175.131 220.365 175.096 220.133 175.043C219.372 174.867 218.657 174.53 218.039 174.053C217.397 173.557 216.86 172.939 216.459 172.235C215.942 171.279 215.645 170.22 215.589 169.135L220.828 169.174L220.839 175.148Z" stroke="#1A1818" stroke-width="0.3" stroke-miterlimit="10"/>
<path d="M374.311 240.65H373.311V241.65H374.311V240.65Z" fill="white"/>
<path d="M374.311 294.95H373.311V295.95H374.311V294.95Z" fill="white"/>
<path d="M283 226V227.845" stroke="black" stroke-width="0.5"/>
<path d="M283 229V230.845" stroke="black" stroke-width="0.5"/>
<path d="M283 232V233.845" stroke="black" stroke-width="0.5"/>
<path d="M283 235V236.845" stroke="black" stroke-width="0.5"/>
<path d="M283 238V239.845" stroke="black" stroke-width="0.5"/>
<path d="M283 240V241.845" stroke="black" stroke-width="0.5"/>
<path d="M283 243V244.844" stroke="black" stroke-width="0.5"/>
<path d="M283 246V247.844" stroke="black" stroke-width="0.5"/>
<path d="M283 249V250.845" stroke="black" stroke-width="0.5"/>
<path d="M283 252V253.845" stroke="black" stroke-width="0.5"/>
<path d="M283 255V256.844" stroke="black" stroke-width="0.5"/>
<path d="M283 258V259.844" stroke="black" stroke-width="0.5"/>
<path d="M283 261V262.845" stroke="black" stroke-width="0.5"/>
<path d="M283 264V265.845" stroke="black" stroke-width="0.5"/>
<path d="M283 267V268.844" stroke="black" stroke-width="0.5"/>
<path d="M283 270V271.844" stroke="black" stroke-width="0.5"/>
<path d="M283 273V274.845" stroke="black" stroke-width="0.5"/>
<path d="M283 276V277.845" stroke="black" stroke-width="0.5"/>
<path d="M283 279V280.844" stroke="black" stroke-width="0.5"/>
<path d="M283 282V283.845" stroke="black" stroke-width="0.5"/>
<path d="M283 285V286.845" stroke="black" stroke-width="0.5"/>
<path d="M283 288V289.845" stroke="black" stroke-width="0.5"/>
<path d="M283 291V292.845" stroke="black" stroke-width="0.5"/>
<path d="M283 294V295.601" stroke="black" stroke-width="0.5"/>
<path d="M102.841 225.542V227.387" stroke="black" stroke-width="0.5"/>
<path d="M102.841 228.542V230.387" stroke="black" stroke-width="0.5"/>
<path d="M102.841 228.542V230.387" stroke="black" stroke-width="0.5"/>
<path d="M102.841 231.542V233.387" stroke="black" stroke-width="0.5"/>
<path d="M102.841 234.542V236.387" stroke="black" stroke-width="0.5"/>
<path d="M102.841 237.542V239.387" stroke="black" stroke-width="0.5"/>
<path d="M102.841 240.353V242.197" stroke="black" stroke-width="0.5"/>
<path d="M102.841 240.353V242.197" stroke="black" stroke-width="0.5"/>
<path d="M102.841 243.314V245.159" stroke="black" stroke-width="0.5"/>
<path d="M102.841 246.275V248.12" stroke="black" stroke-width="0.5"/>
<path d="M102.841 249.237V251.082" stroke="black" stroke-width="0.5"/>
<path d="M102.841 252.2V254.044" stroke="black" stroke-width="0.5"/>
<path d="M102.841 255.162V257.006" stroke="black" stroke-width="0.5"/>
<path d="M102.841 258.124V259.968" stroke="black" stroke-width="0.5"/>
<path d="M102.841 261.085V262.93" stroke="black" stroke-width="0.5"/>
<path d="M102.841 264.047V265.892" stroke="black" stroke-width="0.5"/>
<path d="M102.841 267.009V268.854" stroke="black" stroke-width="0.5"/>
<path d="M102.841 269.972V271.816" stroke="black" stroke-width="0.5"/>
<path d="M102.841 272.934V274.778" stroke="black" stroke-width="0.5"/>
<path d="M102.841 275.896V277.74" stroke="black" stroke-width="0.5"/>
<path d="M102.841 278.857V280.702" stroke="black" stroke-width="0.5"/>
<path d="M102.841 281.669V283.514" stroke="black" stroke-width="0.5"/>
<path d="M102.841 284.669V286.514" stroke="black" stroke-width="0.5"/>
<path d="M102.841 287.669V289.514" stroke="black" stroke-width="0.5"/>
<path d="M102.841 290.669V292.514" stroke="black" stroke-width="0.5"/>
<path d="M102.841 293.669V295.27" stroke="black" stroke-width="0.5"/>
<path d="M203.444 224.752H201.6" stroke="black" stroke-width="0.5"/>
<path d="M200.444 224.752H198.6" stroke="black" stroke-width="0.5"/>
<path d="M197.444 224.752H195.6" stroke="black" stroke-width="0.5"/>
<path d="M194.444 224.752H192.6" stroke="black" stroke-width="0.5"/>
<path d="M191.444 224.752H189.6" stroke="black" stroke-width="0.5"/>
<path d="M191.444 224.752H189.6" stroke="black" stroke-width="0.5"/>
<path d="M188.444 224.752H186.6" stroke="black" stroke-width="0.5"/>
<path d="M185.444 224.752H183.6" stroke="black" stroke-width="0.5"/>
<path d="M182.444 224.752H180.6" stroke="black" stroke-width="0.5"/>
<path d="M179.444 224.752H177.6" stroke="black" stroke-width="0.5"/>
<path d="M179.444 224.752H177.6" stroke="black" stroke-width="0.5"/>
<path d="M176.444 224.752H174.6" stroke="black" stroke-width="0.5"/>
<path d="M173.444 224.752H171.6" stroke="black" stroke-width="0.5"/>
<path d="M170.444 224.752H168.6" stroke="black" stroke-width="0.5"/>
<path d="M167.444 224.752H165.6" stroke="black" stroke-width="0.5"/>
<path d="M164.444 224.752H162.6" stroke="black" stroke-width="0.5"/>
<path d="M161.444 224.752H159.6" stroke="black" stroke-width="0.5"/>
<path d="M158.444 224.752H156.6" stroke="black" stroke-width="0.5"/>
<path d="M155.444 224.752H153.6" stroke="black" stroke-width="0.5"/>
<path d="M152.444 224.752H150.6" stroke="black" stroke-width="0.5"/>
<path d="M149.444 224.752H147.6" stroke="black" stroke-width="0.5"/>
<path d="M146.444 224.752H144.6" stroke="black" stroke-width="0.5"/>
<path d="M143.444 224.752H141.6" stroke="black" stroke-width="0.5"/>
<path d="M140.444 224.752H138.6" stroke="black" stroke-width="0.5"/>
<path d="M137.444 224.752H135.6" stroke="black" stroke-width="0.5"/>
<path d="M134.444 224.752H132.6" stroke="black" stroke-width="0.5"/>
<path d="M131.444 224.752H129.6" stroke="black" stroke-width="0.5"/>
<path d="M128.444 224.752H126.6" stroke="black" stroke-width="0.5"/>
<path d="M125.444 224.752H123.844" stroke="black" stroke-width="0.5"/>
<path d="M122.444 224.752H120.844" stroke="black" stroke-width="0.5"/>
<path d="M119.444 224.752H117.844" stroke="black" stroke-width="0.5"/>
<path d="M116.444 224.752H114.844" stroke="black" stroke-width="0.5"/>
<path d="M113.444 224.752H111.844" stroke="black" stroke-width="0.5"/>
<path d="M110.444 224.752H108.844" stroke="black" stroke-width="0.5"/>
<path d="M107.444 224.752H105.844" stroke="black" stroke-width="0.5"/>
<path d="M104.444 224.752H102.844" stroke="black" stroke-width="0.5"/>
<path d="M281.444 224.752H279.6" stroke="black" stroke-width="0.5"/>
<path d="M278.444 224.752H276.6" stroke="black" stroke-width="0.5"/>
<path d="M275.444 224.752H273.6" stroke="black" stroke-width="0.5"/>
<path d="M272.444 224.752H270.6" stroke="black" stroke-width="0.5"/>
<path d="M272.444 224.752H270.6" stroke="black" stroke-width="0.5"/>
<path d="M269.444 224.752H267.6" stroke="black" stroke-width="0.5"/>
<path d="M266.444 224.752H264.6" stroke="black" stroke-width="0.5"/>
<path d="M263.444 224.752H261.6" stroke="black" stroke-width="0.5"/>
<path d="M260.444 224.752H258.6" stroke="black" stroke-width="0.5"/>
<path d="M260.444 224.752H258.6" stroke="black" stroke-width="0.5"/>
<path d="M257.444 224.752H255.6" stroke="black" stroke-width="0.5"/>
<path d="M254.444 224.752H252.6" stroke="black" stroke-width="0.5"/>
<path d="M251.444 224.752H249.6" stroke="black" stroke-width="0.5"/>
<path d="M248.444 224.752H246.6" stroke="black" stroke-width="0.5"/>
<path d="M245.444 224.752H243.6" stroke="black" stroke-width="0.5"/>
<path d="M242.444 224.752H240.6" stroke="black" stroke-width="0.5"/>
<path d="M239.444 224.752H237.6" stroke="black" stroke-width="0.5"/>
<path d="M236.444 224.752H234.6" stroke="black" stroke-width="0.5"/>
<path d="M233.444 224.752H231.6" stroke="black" stroke-width="0.5"/>
<path d="M230.444 224.752H228.6" stroke="black" stroke-width="0.5"/>
<path d="M227.444 224.752H225.6" stroke="black" stroke-width="0.5"/>
<path d="M224.444 224.752H222.6" stroke="black" stroke-width="0.5"/>
<path d="M221.444 224.752H219.6" stroke="black" stroke-width="0.5"/>
<path d="M218.444 224.752H216.6" stroke="black" stroke-width="0.5"/>
<path d="M215.444 224.752H213.6" stroke="black" stroke-width="0.5"/>
<path d="M212.444 224.752H210.6" stroke="black" stroke-width="0.5"/>
<path d="M209.444 224.752H207.6" stroke="black" stroke-width="0.5"/>
<path d="M206.444 224.752H204.844" stroke="black" stroke-width="0.5"/>
<path d="M163.9 292.1H134.1L134.1 295.5L163.9 295.732V292.1Z" fill="#0000FF" fill-opacity="0.1" stroke="black" stroke-width="0.2"/>
<path d="M207.9 292.1H178.1V295.776H207.9V292.1Z" fill="#0000FF" fill-opacity="0.1" stroke="black" stroke-width="0.2"/>
<path d="M192 292V295.5" stroke="black" stroke-width="0.1"/>
<path d="M253.9 292.1H224.1V295.9H253.9V292.1Z" fill="#0000FF" fill-opacity="0.1" stroke="black" stroke-width="0.2"/>
<path d="M298.5 292H283V296H298.5V292Z" fill="#0000FF" fill-opacity="0.1" stroke="black" stroke-width="0.2"/>
<path d="M205.9 169.1L192.5 169V185L205.9 184.9V169.1Z" fill="#0000FF" fill-opacity="0.1" stroke="black" stroke-width="0.2"/>
<path d="M205.9 91.1L192.5 91V106.9H205.9V91.1Z" fill="#0000FF" fill-opacity="0.1" stroke="black" stroke-width="0.2"/>
<path d="M327.9 292.1H313.1V295.9H327.9V292.1Z" fill="#0000FF" fill-opacity="0.1" stroke="black" stroke-width="0.2"/>
<path d="M357.9 292.1H343.1V295.9H357.9V292.1Z" fill="#0000FF" fill-opacity="0.1" stroke="black" stroke-width="0.2"/>
<path d="M328.1 237.1H342.9V240.9H328.1V237.1Z" fill="#0000FF" fill-opacity="0.1" stroke="black" stroke-width="0.2"/>
<path d="M328.1 169.1H342.9V172.9H328.1V169.1Z" fill="#0000FF" fill-opacity="0.1" stroke="black" stroke-width="0.2"/>
<path d="M316.02 293.5H315.756C315.74 293.424 315.713 293.357 315.674 293.3C315.635 293.242 315.588 293.194 315.533 293.155C315.478 293.115 315.418 293.085 315.351 293.065C315.284 293.045 315.214 293.036 315.142 293.036C315.01 293.036 314.89 293.069 314.783 293.136C314.676 293.202 314.592 293.301 314.528 293.431C314.466 293.561 314.435 293.72 314.435 293.909C314.435 294.098 314.466 294.257 314.528 294.387C314.592 294.517 314.676 294.616 314.783 294.683C314.89 294.749 315.01 294.783 315.142 294.783C315.214 294.783 315.284 294.773 315.351 294.753C315.418 294.733 315.478 294.703 315.533 294.664C315.588 294.625 315.635 294.576 315.674 294.518C315.713 294.46 315.74 294.393 315.756 294.318H316.02C316 294.43 315.964 294.529 315.911 294.618C315.859 294.706 315.793 294.781 315.715 294.842C315.637 294.903 315.549 294.95 315.452 294.982C315.355 295.014 315.252 295.03 315.142 295.03C314.956 295.03 314.79 294.984 314.646 294.893C314.501 294.803 314.387 294.673 314.304 294.506C314.221 294.338 314.179 294.139 314.179 293.909C314.179 293.679 314.221 293.48 314.304 293.312C314.387 293.145 314.501 293.016 314.646 292.925C314.79 292.834 314.956 292.788 315.142 292.788C315.252 292.788 315.355 292.804 315.452 292.836C315.549 292.868 315.637 292.915 315.715 292.977C315.793 293.038 315.859 293.113 315.911 293.201C315.964 293.288 316 293.388 316.02 293.5ZM316.447 295V292.818H317.184C317.354 292.818 317.494 292.847 317.604 292.906C317.713 292.963 317.794 293.042 317.847 293.143C317.899 293.244 317.926 293.359 317.926 293.487C317.926 293.616 317.899 293.73 317.847 293.829C317.794 293.929 317.714 294.007 317.605 294.064C317.496 294.12 317.357 294.148 317.188 294.148H316.592V293.909H317.18C317.296 293.909 317.39 293.892 317.461 293.858C317.533 293.824 317.585 293.776 317.617 293.713C317.649 293.65 317.666 293.575 317.666 293.487C317.666 293.4 317.649 293.324 317.617 293.258C317.584 293.193 317.532 293.142 317.46 293.107C317.388 293.071 317.293 293.053 317.176 293.053H316.711V295H316.447ZM317.474 294.02L318.011 295H317.704L317.176 294.02H317.474ZM318.455 295H318.178L318.979 292.818H319.252L320.053 295H319.776L319.124 293.163H319.107L318.455 295ZM318.558 294.148H319.674V294.382H318.558V294.148ZM320.393 295V292.818H320.657V293.79H321.821V292.818H322.085V295H321.821V294.024H320.657V295H320.393ZM323.487 295L324.463 293.07V293.053H323.338V292.818H324.736V293.065L323.764 295H323.487ZM324.946 295.017C324.893 295.017 324.848 294.998 324.81 294.961C324.773 294.923 324.754 294.878 324.754 294.825C324.754 294.773 324.773 294.728 324.81 294.69C324.848 294.652 324.893 294.634 324.946 294.634C324.998 294.634 325.043 294.652 325.081 294.69C325.119 294.728 325.137 294.773 325.137 294.825C325.137 294.86 325.128 294.892 325.111 294.921C325.094 294.95 325.071 294.974 325.041 294.991C325.013 295.009 324.981 295.017 324.946 295.017ZM326.222 295.03C326.097 295.03 325.985 295.005 325.884 294.955C325.784 294.906 325.704 294.837 325.644 294.751C325.583 294.664 325.55 294.565 325.545 294.455H325.8C325.81 294.553 325.855 294.635 325.934 294.7C326.015 294.763 326.111 294.795 326.222 294.795C326.312 294.795 326.391 294.775 326.461 294.733C326.531 294.691 326.586 294.633 326.626 294.56C326.666 294.486 326.687 294.403 326.687 294.31C326.687 294.214 326.666 294.13 326.624 294.055C326.583 293.98 326.526 293.92 326.453 293.877C326.381 293.834 326.298 293.812 326.205 293.811C326.138 293.81 326.07 293.821 325.999 293.842C325.929 293.863 325.871 293.889 325.826 293.922L325.579 293.892L325.711 292.818H326.844V293.053H325.932L325.856 293.696H325.868C325.913 293.661 325.969 293.631 326.037 293.608C326.104 293.584 326.175 293.572 326.248 293.572C326.381 293.572 326.5 293.604 326.605 293.668C326.71 293.732 326.792 293.818 326.852 293.928C326.912 294.038 326.942 294.164 326.942 294.305C326.942 294.445 326.911 294.569 326.849 294.678C326.787 294.787 326.702 294.873 326.593 294.936C326.484 294.999 326.361 295.03 326.222 295.03Z" fill="black"/>
<path d="M346.02 293.5H345.756C345.74 293.424 345.713 293.357 345.674 293.3C345.635 293.242 345.588 293.194 345.533 293.155C345.478 293.115 345.418 293.085 345.351 293.065C345.284 293.045 345.214 293.036 345.142 293.036C345.01 293.036 344.89 293.069 344.783 293.136C344.676 293.202 344.592 293.301 344.528 293.431C344.466 293.561 344.435 293.72 344.435 293.909C344.435 294.098 344.466 294.257 344.528 294.387C344.592 294.517 344.676 294.616 344.783 294.683C344.89 294.749 345.01 294.783 345.142 294.783C345.214 294.783 345.284 294.773 345.351 294.753C345.418 294.733 345.478 294.703 345.533 294.664C345.588 294.625 345.635 294.576 345.674 294.518C345.713 294.46 345.74 294.393 345.756 294.318H346.02C346 294.43 345.964 294.529 345.911 294.618C345.859 294.706 345.793 294.781 345.715 294.842C345.637 294.903 345.549 294.95 345.452 294.982C345.355 295.014 345.252 295.03 345.142 295.03C344.956 295.03 344.79 294.984 344.646 294.893C344.501 294.803 344.387 294.673 344.304 294.506C344.221 294.338 344.179 294.139 344.179 293.909C344.179 293.679 344.221 293.48 344.304 293.312C344.387 293.145 344.501 293.016 344.646 292.925C344.79 292.834 344.956 292.788 345.142 292.788C345.252 292.788 345.355 292.804 345.452 292.836C345.549 292.868 345.637 292.915 345.715 292.977C345.793 293.038 345.859 293.113 345.911 293.201C345.964 293.288 346 293.388 346.02 293.5ZM346.447 295V292.818H347.184C347.354 292.818 347.494 292.847 347.604 292.906C347.713 292.963 347.794 293.042 347.847 293.143C347.899 293.244 347.926 293.359 347.926 293.487C347.926 293.616 347.899 293.73 347.847 293.829C347.794 293.929 347.714 294.007 347.605 294.064C347.496 294.12 347.357 294.148 347.188 294.148H346.592V293.909H347.18C347.296 293.909 347.39 293.892 347.461 293.858C347.533 293.824 347.585 293.776 347.617 293.713C347.649 293.65 347.666 293.575 347.666 293.487C347.666 293.4 347.649 293.324 347.617 293.258C347.584 293.193 347.532 293.142 347.46 293.107C347.388 293.071 347.293 293.053 347.176 293.053H346.711V295H346.447ZM347.474 294.02L348.011 295H347.704L347.176 294.02H347.474ZM348.455 295H348.178L348.979 292.818H349.252L350.053 295H349.776L349.124 293.163H349.107L348.455 295ZM348.558 294.148H349.674V294.382H348.558V294.148ZM350.393 295V292.818H350.657V293.79H351.821V292.818H352.085V295H351.821V294.024H350.657V295H350.393ZM353.487 295L354.463 293.07V293.053H353.338V292.818H354.736V293.065L353.764 295H353.487ZM354.946 295.017C354.893 295.017 354.848 294.998 354.81 294.961C354.773 294.923 354.754 294.878 354.754 294.825C354.754 294.773 354.773 294.728 354.81 294.69C354.848 294.652 354.893 294.634 354.946 294.634C354.998 294.634 355.043 294.652 355.081 294.69C355.119 294.728 355.137 294.773 355.137 294.825C355.137 294.86 355.128 294.892 355.111 294.921C355.094 294.95 355.071 294.974 355.041 294.991C355.013 295.009 354.981 295.017 354.946 295.017ZM356.222 295.03C356.097 295.03 355.985 295.005 355.884 294.955C355.784 294.906 355.704 294.837 355.644 294.751C355.583 294.664 355.55 294.565 355.545 294.455H355.8C355.81 294.553 355.855 294.635 355.934 294.7C356.015 294.763 356.111 294.795 356.222 294.795C356.312 294.795 356.391 294.775 356.461 294.733C356.531 294.691 356.586 294.633 356.626 294.56C356.666 294.486 356.687 294.403 356.687 294.31C356.687 294.214 356.666 294.13 356.624 294.055C356.583 293.98 356.526 293.92 356.453 293.877C356.381 293.834 356.298 293.812 356.205 293.811C356.138 293.81 356.07 293.821 355.999 293.842C355.929 293.863 355.871 293.889 355.826 293.922L355.579 293.892L355.711 292.818H356.844V293.053H355.932L355.856 293.696H355.868C355.913 293.661 355.969 293.631 356.037 293.608C356.104 293.584 356.175 293.572 356.248 293.572C356.381 293.572 356.5 293.604 356.605 293.668C356.71 293.732 356.792 293.818 356.852 293.928C356.912 294.038 356.942 294.164 356.942 294.305C356.942 294.445 356.911 294.569 356.849 294.678C356.787 294.787 356.702 294.873 356.593 294.936C356.484 294.999 356.361 295.03 356.222 295.03Z" fill="black"/>
<path d="M230.228 293.474H230.051C230.041 293.423 230.023 293.379 229.997 293.34C229.971 293.302 229.94 293.27 229.903 293.244C229.867 293.217 229.826 293.197 229.782 293.184C229.737 293.171 229.691 293.164 229.642 293.164C229.554 293.164 229.475 293.187 229.403 293.231C229.332 293.276 229.275 293.341 229.233 293.428C229.192 293.514 229.171 293.621 229.171 293.747C229.171 293.873 229.192 293.979 229.233 294.066C229.275 294.152 229.332 294.218 229.403 294.262C229.475 294.307 229.554 294.329 229.642 294.329C229.691 294.329 229.737 294.322 229.782 294.309C229.826 294.296 229.867 294.276 229.903 294.25C229.94 294.224 229.971 294.191 229.997 294.153C230.023 294.114 230.041 294.07 230.051 294.019H230.228C230.214 294.094 230.19 294.16 230.155 294.219C230.12 294.278 230.077 294.328 230.024 294.369C229.972 294.41 229.914 294.441 229.849 294.462C229.785 294.483 229.716 294.494 229.642 294.494C229.518 294.494 229.408 294.464 229.311 294.403C229.215 294.342 229.139 294.256 229.083 294.144C229.028 294.033 229 293.9 229 293.747C229 293.593 229.028 293.461 229.083 293.349C229.139 293.237 229.215 293.151 229.311 293.09C229.408 293.03 229.518 293 229.642 293C229.716 293 229.785 293.01 229.849 293.032C229.914 293.053 229.972 293.084 230.024 293.125C230.077 293.166 230.12 293.216 230.155 293.274C230.19 293.333 230.214 293.399 230.228 293.474ZM230.512 294.474V293.019H231.004C231.117 293.019 231.211 293.039 231.284 293.078C231.356 293.116 231.41 293.169 231.445 293.236C231.48 293.303 231.498 293.38 231.498 293.465C231.498 293.551 231.48 293.627 231.445 293.693C231.41 293.76 231.357 293.812 231.284 293.85C231.212 293.887 231.119 293.906 231.007 293.906H230.609V293.747H231.001C231.079 293.747 231.141 293.735 231.188 293.713C231.236 293.69 231.271 293.658 231.292 293.616C231.314 293.574 231.325 293.524 231.325 293.465C231.325 293.407 231.314 293.356 231.292 293.313C231.27 293.269 231.235 293.236 231.188 293.212C231.14 293.188 231.077 293.176 230.998 293.176H230.688V294.474H230.512ZM231.197 293.821L231.555 294.474H231.35L230.998 293.821H231.197ZM231.851 294.474H231.667L232.201 293.019H232.382L232.917 294.474H232.732L232.297 293.25H232.286L231.851 294.474ZM231.919 293.906H232.664V294.062H231.919V293.906ZM233.143 294.474V293.019H233.319V293.667H234.095V293.019H234.271V294.474H234.095V293.823H233.319V294.474H233.143ZM235.672 293.019V294.474H235.496V293.204H235.487L235.132 293.44V293.261L235.496 293.019H235.672ZM236.565 294.494C236.458 294.494 236.366 294.465 236.291 294.407C236.216 294.348 236.158 294.263 236.119 294.152C236.079 294.04 236.059 293.905 236.059 293.747C236.059 293.59 236.079 293.455 236.119 293.344C236.159 293.232 236.217 293.147 236.292 293.088C236.368 293.029 236.459 293 236.565 293C236.671 293 236.761 293.029 236.837 293.088C236.912 293.147 236.97 293.232 237.01 293.344C237.05 293.455 237.07 293.59 237.07 293.747C237.07 293.905 237.05 294.04 237.011 294.152C236.971 294.263 236.913 294.348 236.838 294.407C236.763 294.465 236.672 294.494 236.565 294.494ZM236.565 294.338C236.671 294.338 236.753 294.286 236.812 294.184C236.87 294.082 236.9 293.936 236.9 293.747C236.9 293.621 236.886 293.514 236.859 293.425C236.833 293.336 236.794 293.269 236.744 293.223C236.695 293.176 236.635 293.153 236.565 293.153C236.459 293.153 236.377 293.205 236.318 293.309C236.259 293.412 236.229 293.558 236.229 293.747C236.229 293.873 236.243 293.98 236.269 294.068C236.296 294.156 236.334 294.223 236.383 294.269C236.434 294.315 236.494 294.338 236.565 294.338ZM240.786 293.474H240.61C240.6 293.423 240.581 293.379 240.555 293.34C240.53 293.302 240.499 293.27 240.462 293.244C240.425 293.217 240.385 293.197 240.34 293.184C240.296 293.171 240.249 293.164 240.201 293.164C240.113 293.164 240.033 293.187 239.962 293.231C239.891 293.276 239.834 293.341 239.792 293.428C239.75 293.514 239.729 293.621 239.729 293.747C239.729 293.873 239.75 293.979 239.792 294.066C239.834 294.152 239.891 294.218 239.962 294.262C240.033 294.307 240.113 294.329 240.201 294.329C240.249 294.329 240.296 294.322 240.34 294.309C240.385 294.296 240.425 294.276 240.462 294.25C240.499 294.224 240.53 294.191 240.555 294.153C240.581 294.114 240.6 294.07 240.61 294.019H240.786C240.773 294.094 240.749 294.16 240.714 294.219C240.679 294.278 240.635 294.328 240.583 294.369C240.531 294.41 240.473 294.441 240.408 294.462C240.343 294.483 240.274 294.494 240.201 294.494C240.077 294.494 239.967 294.464 239.87 294.403C239.773 294.342 239.697 294.256 239.642 294.144C239.587 294.033 239.559 293.9 239.559 293.747C239.559 293.593 239.587 293.461 239.642 293.349C239.697 293.237 239.773 293.151 239.87 293.09C239.967 293.03 240.077 293 240.201 293C240.274 293 240.343 293.01 240.408 293.032C240.473 293.053 240.531 293.084 240.583 293.125C240.635 293.166 240.679 293.216 240.714 293.274C240.749 293.333 240.773 293.399 240.786 293.474ZM241.071 294.474V293.019H241.562C241.676 293.019 241.769 293.039 241.842 293.078C241.915 293.116 241.969 293.169 242.004 293.236C242.039 293.303 242.057 293.38 242.057 293.465C242.057 293.551 242.039 293.627 242.004 293.693C241.969 293.76 241.915 293.812 241.843 293.85C241.77 293.887 241.678 293.906 241.565 293.906H241.167V293.747H241.559C241.637 293.747 241.7 293.735 241.747 293.713C241.795 293.69 241.829 293.658 241.851 293.616C241.872 293.574 241.883 293.524 241.883 293.465C241.883 293.407 241.872 293.356 241.851 293.313C241.829 293.269 241.794 293.236 241.746 293.212C241.698 293.188 241.635 293.176 241.557 293.176H241.247V294.474H241.071ZM241.755 293.821L242.113 294.474H241.909L241.557 293.821H241.755ZM242.41 294.474H242.225L242.759 293.019H242.941L243.475 294.474H243.29L242.856 293.25H242.844L242.41 294.474ZM242.478 293.906H243.222V294.062H242.478V293.906ZM243.702 294.474V293.019H243.878V293.667H244.653V293.019H244.83V294.474H244.653V293.823H243.878V294.474H243.702ZM246.23 293.019V294.474H246.054V293.204H246.046L245.691 293.44V293.261L246.054 293.019H246.23ZM247.123 294.494C247.016 294.494 246.925 294.465 246.85 294.407C246.774 294.348 246.717 294.263 246.677 294.152C246.637 294.04 246.618 293.905 246.618 293.747C246.618 293.59 246.637 293.455 246.677 293.344C246.717 293.232 246.775 293.147 246.85 293.088C246.926 293.029 247.017 293 247.123 293C247.229 293 247.32 293.029 247.395 293.088C247.471 293.147 247.529 293.232 247.569 293.344C247.609 293.455 247.629 293.59 247.629 293.747C247.629 293.905 247.609 294.04 247.569 294.152C247.529 294.263 247.472 294.348 247.397 294.407C247.321 294.465 247.23 294.494 247.123 294.494ZM247.123 294.338C247.229 294.338 247.312 294.286 247.37 294.184C247.429 294.082 247.458 293.936 247.458 293.747C247.458 293.621 247.445 293.514 247.418 293.425C247.391 293.336 247.353 293.269 247.303 293.223C247.253 293.176 247.193 293.153 247.123 293.153C247.018 293.153 246.936 293.205 246.877 293.309C246.818 293.412 246.788 293.558 246.788 293.747C246.788 293.873 246.801 293.98 246.828 294.068C246.854 294.156 246.892 294.223 246.942 294.269C246.992 294.315 247.053 294.338 247.123 294.338Z" fill="black"/>
<path d="M184.228 293.474H184.051C184.041 293.423 184.023 293.379 183.997 293.34C183.971 293.302 183.94 293.27 183.903 293.244C183.867 293.217 183.826 293.197 183.782 293.184C183.737 293.171 183.691 293.164 183.642 293.164C183.554 293.164 183.475 293.187 183.403 293.231C183.332 293.276 183.275 293.341 183.233 293.428C183.192 293.514 183.171 293.621 183.171 293.747C183.171 293.873 183.192 293.979 183.233 294.066C183.275 294.152 183.332 294.218 183.403 294.262C183.475 294.307 183.554 294.329 183.642 294.329C183.691 294.329 183.737 294.322 183.782 294.309C183.826 294.296 183.867 294.276 183.903 294.25C183.94 294.224 183.971 294.191 183.997 294.153C184.023 294.114 184.041 294.07 184.051 294.019H184.228C184.214 294.094 184.19 294.16 184.155 294.219C184.12 294.278 184.077 294.328 184.024 294.369C183.972 294.41 183.914 294.441 183.849 294.462C183.785 294.483 183.716 294.494 183.642 294.494C183.518 294.494 183.408 294.464 183.311 294.403C183.215 294.342 183.139 294.256 183.083 294.144C183.028 294.033 183 293.9 183 293.747C183 293.593 183.028 293.461 183.083 293.349C183.139 293.237 183.215 293.151 183.311 293.09C183.408 293.03 183.518 293 183.642 293C183.716 293 183.785 293.01 183.849 293.032C183.914 293.053 183.972 293.084 184.024 293.125C184.077 293.166 184.12 293.216 184.155 293.274C184.19 293.333 184.214 293.399 184.228 293.474ZM184.512 294.474V293.019H185.004C185.117 293.019 185.211 293.039 185.284 293.078C185.356 293.116 185.41 293.169 185.445 293.236C185.48 293.303 185.498 293.38 185.498 293.465C185.498 293.551 185.48 293.627 185.445 293.693C185.41 293.76 185.357 293.812 185.284 293.85C185.212 293.887 185.119 293.906 185.007 293.906H184.609V293.747H185.001C185.079 293.747 185.141 293.735 185.188 293.713C185.236 293.69 185.271 293.658 185.292 293.616C185.314 293.574 185.325 293.524 185.325 293.465C185.325 293.407 185.314 293.356 185.292 293.313C185.27 293.269 185.235 293.236 185.188 293.212C185.14 293.188 185.077 293.176 184.998 293.176H184.688V294.474H184.512ZM185.197 293.821L185.555 294.474H185.35L184.998 293.821H185.197ZM185.851 294.474H185.667L186.201 293.019H186.382L186.917 294.474H186.732L186.297 293.25H186.286L185.851 294.474ZM185.919 293.906H186.664V294.062H185.919V293.906ZM187.143 294.474V293.019H187.319V293.667H188.095V293.019H188.271V294.474H188.095V293.823H187.319V294.474H187.143ZM189.672 293.019V294.474H189.496V293.204H189.487L189.132 293.44V293.261L189.496 293.019H189.672ZM190.565 294.494C190.458 294.494 190.366 294.465 190.291 294.407C190.216 294.348 190.158 294.263 190.119 294.152C190.079 294.04 190.059 293.905 190.059 293.747C190.059 293.59 190.079 293.455 190.119 293.344C190.159 293.232 190.217 293.147 190.292 293.088C190.368 293.029 190.459 293 190.565 293C190.671 293 190.761 293.029 190.837 293.088C190.912 293.147 190.97 293.232 191.01 293.344C191.05 293.455 191.07 293.59 191.07 293.747C191.07 293.905 191.05 294.04 191.011 294.152C190.971 294.263 190.913 294.348 190.838 294.407C190.763 294.465 190.672 294.494 190.565 294.494ZM190.565 294.338C190.671 294.338 190.753 294.286 190.812 294.184C190.87 294.082 190.9 293.936 190.9 293.747C190.9 293.621 190.886 293.514 190.859 293.425C190.833 293.336 190.794 293.269 190.744 293.223C190.695 293.176 190.635 293.153 190.565 293.153C190.459 293.153 190.377 293.205 190.318 293.309C190.259 293.412 190.229 293.558 190.229 293.747C190.229 293.873 190.243 293.98 190.269 294.068C190.296 294.156 190.334 294.223 190.383 294.269C190.434 294.315 190.494 294.338 190.565 294.338ZM194.786 293.474H194.61C194.6 293.423 194.581 293.379 194.555 293.34C194.53 293.302 194.499 293.27 194.462 293.244C194.425 293.217 194.385 293.197 194.34 293.184C194.296 293.171 194.249 293.164 194.201 293.164C194.113 293.164 194.033 293.187 193.962 293.231C193.891 293.276 193.834 293.341 193.792 293.428C193.75 293.514 193.729 293.621 193.729 293.747C193.729 293.873 193.75 293.979 193.792 294.066C193.834 294.152 193.891 294.218 193.962 294.262C194.033 294.307 194.113 294.329 194.201 294.329C194.249 294.329 194.296 294.322 194.34 294.309C194.385 294.296 194.425 294.276 194.462 294.25C194.499 294.224 194.53 294.191 194.555 294.153C194.581 294.114 194.6 294.07 194.61 294.019H194.786C194.773 294.094 194.749 294.16 194.714 294.219C194.679 294.278 194.635 294.328 194.583 294.369C194.531 294.41 194.473 294.441 194.408 294.462C194.343 294.483 194.274 294.494 194.201 294.494C194.077 294.494 193.967 294.464 193.87 294.403C193.773 294.342 193.697 294.256 193.642 294.144C193.587 294.033 193.559 293.9 193.559 293.747C193.559 293.593 193.587 293.461 193.642 293.349C193.697 293.237 193.773 293.151 193.87 293.09C193.967 293.03 194.077 293 194.201 293C194.274 293 194.343 293.01 194.408 293.032C194.473 293.053 194.531 293.084 194.583 293.125C194.635 293.166 194.679 293.216 194.714 293.274C194.749 293.333 194.773 293.399 194.786 293.474ZM195.071 294.474V293.019H195.562C195.676 293.019 195.769 293.039 195.842 293.078C195.915 293.116 195.969 293.169 196.004 293.236C196.039 293.303 196.057 293.38 196.057 293.465C196.057 293.551 196.039 293.627 196.004 293.693C195.969 293.76 195.915 293.812 195.843 293.85C195.77 293.887 195.678 293.906 195.565 293.906H195.167V293.747H195.559C195.637 293.747 195.7 293.735 195.747 293.713C195.795 293.69 195.829 293.658 195.851 293.616C195.872 293.574 195.883 293.524 195.883 293.465C195.883 293.407 195.872 293.356 195.851 293.313C195.829 293.269 195.794 293.236 195.746 293.212C195.698 293.188 195.635 293.176 195.557 293.176H195.247V294.474H195.071ZM195.755 293.821L196.113 294.474H195.909L195.557 293.821H195.755ZM196.41 294.474H196.225L196.759 293.019H196.941L197.475 294.474H197.29L196.856 293.25H196.844L196.41 294.474ZM196.478 293.906H197.222V294.062H196.478V293.906ZM197.702 294.474V293.019H197.878V293.667H198.653V293.019H198.83V294.474H198.653V293.823H197.878V294.474H197.702ZM200.23 293.019V294.474H200.054V293.204H200.046L199.691 293.44V293.261L200.054 293.019H200.23ZM201.123 294.494C201.016 294.494 200.925 294.465 200.85 294.407C200.774 294.348 200.717 294.263 200.677 294.152C200.637 294.04 200.618 293.905 200.618 293.747C200.618 293.59 200.637 293.455 200.677 293.344C200.717 293.232 200.775 293.147 200.85 293.088C200.926 293.029 201.017 293 201.123 293C201.229 293 201.32 293.029 201.395 293.088C201.471 293.147 201.529 293.232 201.569 293.344C201.609 293.455 201.629 293.59 201.629 293.747C201.629 293.905 201.609 294.04 201.569 294.152C201.529 294.263 201.472 294.348 201.397 294.407C201.321 294.465 201.23 294.494 201.123 294.494ZM201.123 294.338C201.229 294.338 201.312 294.286 201.37 294.184C201.429 294.082 201.458 293.936 201.458 293.747C201.458 293.621 201.445 293.514 201.418 293.425C201.391 293.336 201.353 293.269 201.303 293.223C201.253 293.176 201.193 293.153 201.123 293.153C201.018 293.153 200.936 293.205 200.877 293.309C200.818 293.412 200.788 293.558 200.788 293.747C200.788 293.873 200.801 293.98 200.828 294.068C200.854 294.156 200.892 294.223 200.942 294.269C200.992 294.315 201.053 294.338 201.123 294.338Z" fill="black"/>
<path d="M238 292V295.833" stroke="black" stroke-width="0.1"/>
<path d="M140.228 293.474H140.051C140.041 293.423 140.023 293.379 139.997 293.34C139.971 293.302 139.94 293.27 139.903 293.244C139.867 293.217 139.826 293.197 139.782 293.184C139.737 293.171 139.691 293.164 139.642 293.164C139.554 293.164 139.475 293.187 139.403 293.231C139.332 293.276 139.275 293.341 139.233 293.428C139.192 293.514 139.171 293.621 139.171 293.747C139.171 293.873 139.192 293.979 139.233 294.066C139.275 294.152 139.332 294.218 139.403 294.262C139.475 294.307 139.554 294.329 139.642 294.329C139.691 294.329 139.737 294.322 139.782 294.309C139.826 294.296 139.867 294.276 139.903 294.25C139.94 294.224 139.971 294.191 139.997 294.153C140.023 294.114 140.041 294.07 140.051 294.019H140.228C140.214 294.094 140.19 294.16 140.155 294.219C140.12 294.278 140.077 294.328 140.024 294.369C139.972 294.41 139.914 294.441 139.849 294.462C139.785 294.483 139.716 294.494 139.642 294.494C139.518 294.494 139.408 294.464 139.311 294.403C139.215 294.342 139.139 294.256 139.083 294.144C139.028 294.033 139 293.9 139 293.747C139 293.593 139.028 293.461 139.083 293.349C139.139 293.237 139.215 293.151 139.311 293.09C139.408 293.03 139.518 293 139.642 293C139.716 293 139.785 293.01 139.849 293.032C139.914 293.053 139.972 293.084 140.024 293.125C140.077 293.166 140.12 293.216 140.155 293.274C140.19 293.333 140.214 293.399 140.228 293.474ZM140.512 294.474V293.019H141.004C141.117 293.019 141.211 293.039 141.284 293.078C141.356 293.116 141.41 293.169 141.445 293.236C141.48 293.303 141.498 293.38 141.498 293.465C141.498 293.551 141.48 293.627 141.445 293.693C141.41 293.76 141.357 293.812 141.284 293.85C141.212 293.887 141.119 293.906 141.007 293.906H140.609V293.747H141.001C141.079 293.747 141.141 293.735 141.188 293.713C141.236 293.69 141.271 293.658 141.292 293.616C141.314 293.574 141.325 293.524 141.325 293.465C141.325 293.407 141.314 293.356 141.292 293.313C141.27 293.269 141.235 293.236 141.188 293.212C141.14 293.188 141.077 293.176 140.998 293.176H140.688V294.474H140.512ZM141.197 293.821L141.555 294.474H141.35L140.998 293.821H141.197ZM141.851 294.474H141.667L142.201 293.019H142.382L142.917 294.474H142.732L142.297 293.25H142.286L141.851 294.474ZM141.919 293.906H142.664V294.062H141.919V293.906ZM143.143 294.474V293.019H143.319V293.667H144.095V293.019H144.271V294.474H144.095V293.823H143.319V294.474H143.143ZM145.672 293.019V294.474H145.496V293.204H145.487L145.132 293.44V293.261L145.496 293.019H145.672ZM146.565 294.494C146.458 294.494 146.366 294.465 146.291 294.407C146.216 294.348 146.158 294.263 146.119 294.152C146.079 294.04 146.059 293.905 146.059 293.747C146.059 293.59 146.079 293.455 146.119 293.344C146.159 293.232 146.217 293.147 146.292 293.088C146.368 293.029 146.459 293 146.565 293C146.671 293 146.761 293.029 146.837 293.088C146.912 293.147 146.97 293.232 147.01 293.344C147.05 293.455 147.07 293.59 147.07 293.747C147.07 293.905 147.05 294.04 147.011 294.152C146.971 294.263 146.913 294.348 146.838 294.407C146.763 294.465 146.672 294.494 146.565 294.494ZM146.565 294.338C146.671 294.338 146.753 294.286 146.812 294.184C146.87 294.082 146.9 293.936 146.9 293.747C146.9 293.621 146.886 293.514 146.859 293.425C146.833 293.336 146.794 293.269 146.744 293.223C146.695 293.176 146.635 293.153 146.565 293.153C146.459 293.153 146.377 293.205 146.318 293.309C146.259 293.412 146.229 293.558 146.229 293.747C146.229 293.873 146.243 293.98 146.269 294.068C146.296 294.156 146.334 294.223 146.383 294.269C146.434 294.315 146.494 294.338 146.565 294.338ZM150.786 293.474H150.61C150.6 293.423 150.581 293.379 150.555 293.34C150.53 293.302 150.499 293.27 150.462 293.244C150.425 293.217 150.385 293.197 150.34 293.184C150.296 293.171 150.249 293.164 150.201 293.164C150.113 293.164 150.033 293.187 149.962 293.231C149.891 293.276 149.834 293.341 149.792 293.428C149.75 293.514 149.729 293.621 149.729 293.747C149.729 293.873 149.75 293.979 149.792 294.066C149.834 294.152 149.891 294.218 149.962 294.262C150.033 294.307 150.113 294.329 150.201 294.329C150.249 294.329 150.296 294.322 150.34 294.309C150.385 294.296 150.425 294.276 150.462 294.25C150.499 294.224 150.53 294.191 150.555 294.153C150.581 294.114 150.6 294.07 150.61 294.019H150.786C150.773 294.094 150.749 294.16 150.714 294.219C150.679 294.278 150.635 294.328 150.583 294.369C150.531 294.41 150.473 294.441 150.408 294.462C150.343 294.483 150.274 294.494 150.201 294.494C150.077 294.494 149.967 294.464 149.87 294.403C149.773 294.342 149.697 294.256 149.642 294.144C149.587 294.033 149.559 293.9 149.559 293.747C149.559 293.593 149.587 293.461 149.642 293.349C149.697 293.237 149.773 293.151 149.87 293.09C149.967 293.03 150.077 293 150.201 293C150.274 293 150.343 293.01 150.408 293.032C150.473 293.053 150.531 293.084 150.583 293.125C150.635 293.166 150.679 293.216 150.714 293.274C150.749 293.333 150.773 293.399 150.786 293.474ZM151.071 294.474V293.019H151.562C151.676 293.019 151.769 293.039 151.842 293.078C151.915 293.116 151.969 293.169 152.004 293.236C152.039 293.303 152.057 293.38 152.057 293.465C152.057 293.551 152.039 293.627 152.004 293.693C151.969 293.76 151.915 293.812 151.843 293.85C151.77 293.887 151.678 293.906 151.565 293.906H151.167V293.747H151.559C151.637 293.747 151.7 293.735 151.747 293.713C151.795 293.69 151.829 293.658 151.851 293.616C151.872 293.574 151.883 293.524 151.883 293.465C151.883 293.407 151.872 293.356 151.851 293.313C151.829 293.269 151.794 293.236 151.746 293.212C151.698 293.188 151.635 293.176 151.557 293.176H151.247V294.474H151.071ZM151.755 293.821L152.113 294.474H151.909L151.557 293.821H151.755ZM152.41 294.474H152.225L152.759 293.019H152.941L153.475 294.474H153.29L152.856 293.25H152.844L152.41 294.474ZM152.478 293.906H153.222V294.062H152.478V293.906ZM153.702 294.474V293.019H153.878V293.667H154.653V293.019H154.83V294.474H154.653V293.823H153.878V294.474H153.702ZM156.23 293.019V294.474H156.054V293.204H156.046L155.691 293.44V293.261L156.054 293.019H156.23ZM157.123 294.494C157.016 294.494 156.925 294.465 156.85 294.407C156.774 294.348 156.717 294.263 156.677 294.152C156.637 294.04 156.618 293.905 156.618 293.747C156.618 293.59 156.637 293.455 156.677 293.344C156.717 293.232 156.775 293.147 156.85 293.088C156.926 293.029 157.017 293 157.123 293C157.229 293 157.32 293.029 157.395 293.088C157.471 293.147 157.529 293.232 157.569 293.344C157.609 293.455 157.629 293.59 157.629 293.747C157.629 293.905 157.609 294.04 157.569 294.152C157.529 294.263 157.472 294.348 157.397 294.407C157.321 294.465 157.23 294.494 157.123 294.494ZM157.123 294.338C157.229 294.338 157.312 294.286 157.37 294.184C157.429 294.082 157.458 293.936 157.458 293.747C157.458 293.621 157.445 293.514 157.418 293.425C157.391 293.336 157.353 293.269 157.303 293.223C157.253 293.176 157.193 293.153 157.123 293.153C157.018 293.153 156.936 293.205 156.877 293.309C156.818 293.412 156.788 293.558 156.788 293.747C156.788 293.873 156.801 293.98 156.828 294.068C156.854 294.156 156.892 294.223 156.942 294.269C156.992 294.315 157.053 294.338 157.123 294.338Z" fill="black"/>
<path d="M148 292V295.5" stroke="black" stroke-width="0.1"/>
<path d="M331.02 238.5H330.756C330.74 238.424 330.713 238.357 330.674 238.3C330.635 238.242 330.588 238.194 330.533 238.155C330.478 238.115 330.418 238.085 330.351 238.065C330.284 238.045 330.214 238.036 330.142 238.036C330.01 238.036 329.89 238.069 329.783 238.136C329.676 238.202 329.592 238.301 329.528 238.431C329.466 238.561 329.435 238.72 329.435 238.909C329.435 239.098 329.466 239.257 329.528 239.387C329.592 239.517 329.676 239.616 329.783 239.683C329.89 239.749 330.01 239.783 330.142 239.783C330.214 239.783 330.284 239.773 330.351 239.753C330.418 239.733 330.478 239.703 330.533 239.664C330.588 239.625 330.635 239.576 330.674 239.518C330.713 239.46 330.74 239.393 330.756 239.318H331.02C331 239.43 330.964 239.529 330.911 239.618C330.859 239.706 330.793 239.781 330.715 239.842C330.637 239.903 330.549 239.95 330.452 239.982C330.355 240.014 330.252 240.03 330.142 240.03C329.956 240.03 329.79 239.984 329.646 239.893C329.501 239.803 329.387 239.673 329.304 239.506C329.221 239.338 329.179 239.139 329.179 238.909C329.179 238.679 329.221 238.48 329.304 238.312C329.387 238.145 329.501 238.016 329.646 237.925C329.79 237.834 329.956 237.788 330.142 237.788C330.252 237.788 330.355 237.804 330.452 237.836C330.549 237.868 330.637 237.915 330.715 237.977C330.793 238.038 330.859 238.113 330.911 238.201C330.964 238.288 331 238.388 331.02 238.5ZM331.447 240V237.818H332.184C332.354 237.818 332.494 237.847 332.604 237.906C332.713 237.963 332.794 238.042 332.847 238.143C332.899 238.244 332.926 238.359 332.926 238.487C332.926 238.616 332.899 238.73 332.847 238.829C332.794 238.929 332.714 239.007 332.605 239.064C332.496 239.12 332.357 239.148 332.188 239.148H331.592V238.909H332.18C332.296 238.909 332.39 238.892 332.461 238.858C332.533 238.824 332.585 238.776 332.617 238.713C332.649 238.65 332.666 238.575 332.666 238.487C332.666 238.4 332.649 238.324 332.617 238.258C332.584 238.193 332.532 238.142 332.46 238.107C332.388 238.071 332.293 238.053 332.176 238.053H331.711V240H331.447ZM332.474 239.02L333.011 240H332.704L332.176 239.02H332.474ZM333.455 240H333.178L333.979 237.818H334.252L335.053 240H334.776L334.124 238.163H334.107L333.455 240ZM333.558 239.148H334.674V239.382H333.558V239.148ZM335.393 240V237.818H335.657V238.79H336.821V237.818H337.085V240H336.821V239.024H335.657V240H335.393ZM339.186 237.818V240H338.922V238.095H338.909L338.377 238.449V238.18L338.922 237.818H339.186ZM340.525 240.03C340.365 240.03 340.228 239.986 340.115 239.899C340.002 239.811 339.916 239.683 339.856 239.516C339.797 239.349 339.767 239.146 339.767 238.909C339.767 238.673 339.797 238.472 339.856 238.305C339.917 238.137 340.003 238.01 340.116 237.922C340.23 237.833 340.366 237.788 340.525 237.788C340.684 237.788 340.82 237.833 340.933 237.922C341.047 238.01 341.134 238.137 341.193 238.305C341.254 238.472 341.284 238.673 341.284 238.909C341.284 239.146 341.254 239.349 341.194 239.516C341.135 239.683 341.048 239.811 340.936 239.899C340.823 239.986 340.686 240.03 340.525 240.03ZM340.525 239.795C340.684 239.795 340.808 239.719 340.896 239.565C340.984 239.412 341.028 239.193 341.028 238.909C341.028 238.72 341.008 238.559 340.968 238.426C340.928 238.294 340.87 238.192 340.795 238.123C340.72 238.053 340.631 238.018 340.525 238.018C340.368 238.018 340.244 238.096 340.156 238.252C340.067 238.407 340.023 238.626 340.023 238.909C340.023 239.098 340.042 239.259 340.082 239.391C340.122 239.523 340.179 239.623 340.254 239.692C340.329 239.761 340.42 239.795 340.525 239.795Z" fill="black"/>
<path d="M331.02 170.5H330.756C330.74 170.424 330.713 170.357 330.674 170.3C330.635 170.242 330.588 170.194 330.533 170.155C330.478 170.115 330.418 170.085 330.351 170.065C330.284 170.045 330.214 170.036 330.142 170.036C330.01 170.036 329.89 170.069 329.783 170.136C329.676 170.202 329.592 170.301 329.528 170.431C329.466 170.561 329.435 170.72 329.435 170.909C329.435 171.098 329.466 171.257 329.528 171.387C329.592 171.517 329.676 171.616 329.783 171.683C329.89 171.749 330.01 171.783 330.142 171.783C330.214 171.783 330.284 171.773 330.351 171.753C330.418 171.733 330.478 171.703 330.533 171.664C330.588 171.625 330.635 171.576 330.674 171.518C330.713 171.46 330.74 171.393 330.756 171.318H331.02C331 171.43 330.964 171.529 330.911 171.618C330.859 171.706 330.793 171.781 330.715 171.842C330.637 171.903 330.549 171.95 330.452 171.982C330.355 172.014 330.252 172.03 330.142 172.03C329.956 172.03 329.79 171.984 329.646 171.893C329.501 171.803 329.387 171.673 329.304 171.506C329.221 171.338 329.179 171.139 329.179 170.909C329.179 170.679 329.221 170.48 329.304 170.312C329.387 170.145 329.501 170.016 329.646 169.925C329.79 169.834 329.956 169.788 330.142 169.788C330.252 169.788 330.355 169.804 330.452 169.836C330.549 169.868 330.637 169.915 330.715 169.977C330.793 170.038 330.859 170.113 330.911 170.201C330.964 170.288 331 170.388 331.02 170.5ZM331.447 172V169.818H332.184C332.354 169.818 332.494 169.847 332.604 169.906C332.713 169.963 332.794 170.042 332.847 170.143C332.899 170.244 332.926 170.359 332.926 170.487C332.926 170.616 332.899 170.73 332.847 170.829C332.794 170.929 332.714 171.007 332.605 171.064C332.496 171.12 332.357 171.148 332.188 171.148H331.592V170.909H332.18C332.296 170.909 332.39 170.892 332.461 170.858C332.533 170.824 332.585 170.776 332.617 170.713C332.649 170.65 332.666 170.575 332.666 170.487C332.666 170.4 332.649 170.324 332.617 170.258C332.584 170.193 332.532 170.142 332.46 170.107C332.388 170.071 332.293 170.053 332.176 170.053H331.711V172H331.447ZM332.474 171.02L333.011 172H332.704L332.176 171.02H332.474ZM333.455 172H333.178L333.979 169.818H334.252L335.053 172H334.776L334.124 170.163H334.107L333.455 172ZM333.558 171.148H334.674V171.382H333.558V171.148ZM335.393 172V169.818H335.657V170.79H336.821V169.818H337.085V172H336.821V171.024H335.657V172H335.393ZM339.186 169.818V172H338.922V170.095H338.909L338.377 170.449V170.18L338.922 169.818H339.186ZM340.525 172.03C340.365 172.03 340.228 171.986 340.115 171.899C340.002 171.811 339.916 171.683 339.856 171.516C339.797 171.349 339.767 171.146 339.767 170.909C339.767 170.673 339.797 170.472 339.856 170.305C339.917 170.137 340.003 170.01 340.116 169.922C340.23 169.833 340.366 169.788 340.525 169.788C340.684 169.788 340.82 169.833 340.933 169.922C341.047 170.01 341.134 170.137 341.193 170.305C341.254 170.472 341.284 170.673 341.284 170.909C341.284 171.146 341.254 171.349 341.194 171.516C341.135 171.683 341.048 171.811 340.936 171.899C340.823 171.986 340.686 172.03 340.525 172.03ZM340.525 171.795C340.684 171.795 340.808 171.719 340.896 171.565C340.984 171.412 341.028 171.193 341.028 170.909C341.028 170.72 341.008 170.559 340.968 170.426C340.928 170.294 340.87 170.192 340.795 170.123C340.72 170.053 340.631 170.018 340.525 170.018C340.368 170.018 340.244 170.096 340.156 170.252C340.067 170.407 340.023 170.626 340.023 170.909C340.023 171.098 340.042 171.259 340.082 171.391C340.122 171.523 340.179 171.623 340.254 171.692C340.329 171.761 340.42 171.795 340.525 171.795Z" fill="black"/>
<path d="M194.742 178.284C194.588 178.284 194.456 178.248 194.346 178.175C194.235 178.103 194.15 178.003 194.09 177.876C194.03 177.749 194 177.604 194 177.44C194 177.274 194.031 177.127 194.092 177C194.154 176.873 194.24 176.773 194.35 176.701C194.461 176.629 194.59 176.592 194.738 176.592C194.853 176.592 194.956 176.614 195.049 176.656C195.141 176.699 195.217 176.759 195.276 176.835C195.335 176.912 195.371 177.001 195.385 177.104H195.134C195.115 177.029 195.072 176.963 195.006 176.906C194.941 176.847 194.853 176.818 194.742 176.818C194.644 176.818 194.558 176.844 194.484 176.895C194.411 176.945 194.354 177.017 194.313 177.109C194.272 177.201 194.252 177.308 194.252 177.432C194.252 177.558 194.272 177.668 194.311 177.762C194.352 177.856 194.409 177.929 194.482 177.98C194.556 178.032 194.642 178.058 194.742 178.058C194.807 178.058 194.867 178.047 194.92 178.024C194.973 178.001 195.018 177.969 195.055 177.926C195.092 177.884 195.118 177.832 195.134 177.773H195.385C195.371 177.869 195.336 177.956 195.28 178.034C195.224 178.11 195.151 178.172 195.059 178.217C194.968 178.262 194.863 178.284 194.742 178.284ZM196.418 178.284C196.27 178.284 196.14 178.249 196.029 178.179C195.918 178.108 195.831 178.01 195.769 177.884C195.707 177.757 195.676 177.609 195.676 177.44C195.676 177.27 195.707 177.121 195.769 176.994C195.831 176.867 195.918 176.768 196.029 176.698C196.14 176.627 196.27 176.592 196.418 176.592C196.565 176.592 196.695 176.627 196.805 176.698C196.917 176.768 197.004 176.867 197.065 176.994C197.128 177.121 197.159 177.27 197.159 177.44C197.159 177.609 197.128 177.757 197.065 177.884C197.004 178.01 196.917 178.108 196.805 178.179C196.695 178.249 196.565 178.284 196.418 178.284ZM196.418 178.058C196.53 178.058 196.622 178.029 196.695 177.972C196.767 177.914 196.821 177.839 196.856 177.745C196.89 177.651 196.908 177.55 196.908 177.44C196.908 177.331 196.89 177.229 196.856 177.135C196.821 177.04 196.767 176.964 196.695 176.906C196.622 176.847 196.53 176.818 196.418 176.818C196.305 176.818 196.213 176.847 196.141 176.906C196.068 176.964 196.015 177.04 195.98 177.135C195.945 177.229 195.928 177.331 195.928 177.44C195.928 177.55 195.945 177.651 195.98 177.745C196.015 177.839 196.068 177.914 196.141 177.972C196.213 178.029 196.305 178.058 196.418 178.058ZM198.208 178.284C198.06 178.284 197.93 178.249 197.819 178.179C197.708 178.108 197.621 178.01 197.559 177.884C197.497 177.757 197.466 177.609 197.466 177.44C197.466 177.27 197.497 177.121 197.559 176.994C197.621 176.867 197.708 176.768 197.819 176.698C197.93 176.627 198.06 176.592 198.208 176.592C198.355 176.592 198.485 176.627 198.595 176.698C198.707 176.768 198.794 176.867 198.855 176.994C198.918 177.121 198.949 177.27 198.949 177.44C198.949 177.609 198.918 177.757 198.855 177.884C198.794 178.01 198.707 178.108 198.595 178.179C198.485 178.249 198.355 178.284 198.208 178.284ZM198.208 178.058C198.32 178.058 198.412 178.029 198.485 177.972C198.557 177.914 198.611 177.839 198.646 177.745C198.68 177.651 198.698 177.55 198.698 177.44C198.698 177.331 198.68 177.229 198.646 177.135C198.611 177.04 198.557 176.964 198.485 176.906C198.412 176.847 198.32 176.818 198.208 176.818C198.095 176.818 198.003 176.847 197.931 176.906C197.858 176.964 197.805 177.04 197.77 177.135C197.735 177.229 197.718 177.331 197.718 177.44C197.718 177.55 197.735 177.651 197.77 177.745C197.805 177.839 197.858 177.914 197.931 177.972C198.003 178.029 198.095 178.058 198.208 178.058ZM199.584 176.068V178.25H199.333V176.068H199.584ZM200.045 178.25V176.614H200.296V178.25H200.045ZM200.173 176.341C200.124 176.341 200.081 176.324 200.046 176.291C200.011 176.257 199.994 176.217 199.994 176.17C199.994 176.124 200.011 176.083 200.046 176.05C200.081 176.017 200.124 176 200.173 176C200.222 176 200.264 176.017 200.298 176.05C200.334 176.083 200.352 176.124 200.352 176.17C200.352 176.217 200.334 176.257 200.298 176.291C200.264 176.324 200.222 176.341 200.173 176.341ZM201.008 177.266V178.25H200.757V176.614H201V176.869H201.021C201.059 176.786 201.118 176.719 201.196 176.669C201.274 176.618 201.375 176.592 201.498 176.592C201.609 176.592 201.706 176.615 201.789 176.661C201.872 176.705 201.937 176.773 201.983 176.865C202.029 176.956 202.052 177.071 202.052 177.21V178.25H201.801V177.227C201.801 177.099 201.767 176.999 201.701 176.927C201.634 176.854 201.542 176.818 201.426 176.818C201.346 176.818 201.274 176.836 201.211 176.87C201.148 176.905 201.099 176.956 201.063 177.023C201.026 177.089 201.008 177.17 201.008 177.266ZM203.172 178.898C203.051 178.898 202.946 178.882 202.859 178.851C202.772 178.82 202.699 178.78 202.641 178.729C202.583 178.68 202.537 178.626 202.503 178.57L202.703 178.429C202.726 178.459 202.755 178.493 202.79 178.531C202.825 178.57 202.872 178.604 202.932 178.632C202.994 178.662 203.073 178.676 203.172 178.676C203.304 178.676 203.413 178.644 203.499 178.58C203.585 178.516 203.628 178.416 203.628 178.28V177.947H203.607C203.588 177.977 203.562 178.014 203.528 178.058C203.495 178.102 203.446 178.14 203.383 178.174C203.321 178.208 203.236 178.224 203.13 178.224C202.997 178.224 202.879 178.193 202.774 178.131C202.669 178.068 202.587 177.977 202.526 177.858C202.465 177.739 202.435 177.594 202.435 177.423C202.435 177.256 202.464 177.11 202.523 176.985C202.582 176.86 202.664 176.764 202.769 176.696C202.875 176.627 202.996 176.592 203.134 176.592C203.24 176.592 203.325 176.61 203.387 176.646C203.451 176.68 203.499 176.72 203.532 176.765C203.566 176.809 203.593 176.845 203.611 176.874H203.637V176.614H203.88V178.297C203.88 178.438 203.848 178.552 203.784 178.64C203.72 178.729 203.635 178.794 203.528 178.835C203.421 178.877 203.303 178.898 203.172 178.898ZM203.164 177.999C203.265 177.999 203.35 177.975 203.419 177.929C203.489 177.883 203.542 177.817 203.578 177.73C203.614 177.643 203.632 177.54 203.632 177.419C203.632 177.301 203.615 177.197 203.579 177.107C203.544 177.017 203.491 176.946 203.421 176.895C203.352 176.844 203.266 176.818 203.164 176.818C203.057 176.818 202.968 176.845 202.897 176.899C202.827 176.953 202.774 177.026 202.739 177.116C202.704 177.207 202.686 177.308 202.686 177.419C202.686 177.533 202.704 177.633 202.74 177.721C202.776 177.807 202.829 177.875 202.899 177.925C202.97 177.974 203.059 177.999 203.164 177.999Z" fill="black"/>
<path d="M194.742 100.284C194.588 100.284 194.456 100.248 194.346 100.175C194.235 100.103 194.15 100.003 194.09 99.8761C194.03 99.7489 194 99.6037 194 99.4403C194 99.2741 194.031 99.1275 194.092 99.0004C194.154 98.8725 194.24 98.7727 194.35 98.701C194.461 98.6286 194.59 98.5923 194.738 98.5923C194.853 98.5923 194.956 98.6136 195.049 98.6562C195.141 98.6989 195.217 98.7585 195.276 98.8352C195.335 98.9119 195.371 99.0014 195.385 99.1037H195.134C195.115 99.0291 195.072 98.9631 195.006 98.9055C194.941 98.8473 194.853 98.8182 194.742 98.8182C194.644 98.8182 194.558 98.8437 194.484 98.8949C194.411 98.9453 194.354 99.0167 194.313 99.109C194.272 99.2006 194.252 99.3082 194.252 99.4318C194.252 99.5582 194.272 99.6683 194.311 99.7621C194.352 99.8558 194.409 99.9286 194.482 99.9805C194.556 100.032 194.642 100.058 194.742 100.058C194.807 100.058 194.867 100.047 194.92 100.024C194.973 100.001 195.018 99.9688 195.055 99.9261C195.092 99.8835 195.118 99.8324 195.134 99.7727H195.385C195.371 99.8693 195.336 99.9563 195.28 100.034C195.224 100.11 195.151 100.172 195.059 100.217C194.968 100.262 194.863 100.284 194.742 100.284ZM196.418 100.284C196.27 100.284 196.14 100.249 196.029 100.179C195.918 100.108 195.831 100.01 195.769 99.8835C195.707 99.7571 195.676 99.6094 195.676 99.4403C195.676 99.2699 195.707 99.1211 195.769 98.994C195.831 98.8668 195.918 98.7681 196.029 98.6978C196.14 98.6275 196.27 98.5923 196.418 98.5923C196.565 98.5923 196.695 98.6275 196.805 98.6978C196.917 98.7681 197.004 98.8668 197.065 98.994C197.128 99.1211 197.159 99.2699 197.159 99.4403C197.159 99.6094 197.128 99.7571 197.065 99.8835C197.004 100.01 196.917 100.108 196.805 100.179C196.695 100.249 196.565 100.284 196.418 100.284ZM196.418 100.058C196.53 100.058 196.622 100.03 196.695 99.9719C196.767 99.9144 196.821 99.8388 196.856 99.745C196.89 99.6513 196.908 99.5497 196.908 99.4403C196.908 99.331 196.89 99.229 196.856 99.1346C196.821 99.0401 196.767 98.9638 196.695 98.9055C196.622 98.8473 196.53 98.8182 196.418 98.8182C196.305 98.8182 196.213 98.8473 196.141 98.9055C196.068 98.9638 196.015 99.0401 195.98 99.1346C195.945 99.229 195.928 99.331 195.928 99.4403C195.928 99.5497 195.945 99.6513 195.98 99.745C196.015 99.8388 196.068 99.9144 196.141 99.9719C196.213 100.03 196.305 100.058 196.418 100.058ZM198.208 100.284C198.06 100.284 197.93 100.249 197.819 100.179C197.708 100.108 197.621 100.01 197.559 99.8835C197.497 99.7571 197.466 99.6094 197.466 99.4403C197.466 99.2699 197.497 99.1211 197.559 98.994C197.621 98.8668 197.708 98.7681 197.819 98.6978C197.93 98.6275 198.06 98.5923 198.208 98.5923C198.355 98.5923 198.485 98.6275 198.595 98.6978C198.707 98.7681 198.794 98.8668 198.855 98.994C198.918 99.1211 198.949 99.2699 198.949 99.4403C198.949 99.6094 198.918 99.7571 198.855 99.8835C198.794 100.01 198.707 100.108 198.595 100.179C198.485 100.249 198.355 100.284 198.208 100.284ZM198.208 100.058C198.32 100.058 198.412 100.03 198.485 99.9719C198.557 99.9144 198.611 99.8388 198.646 99.745C198.68 99.6513 198.698 99.5497 198.698 99.4403C198.698 99.331 198.68 99.229 198.646 99.1346C198.611 99.0401 198.557 98.9638 198.485 98.9055C198.412 98.8473 198.32 98.8182 198.208 98.8182C198.095 98.8182 198.003 98.8473 197.931 98.9055C197.858 98.9638 197.805 99.0401 197.77 99.1346C197.735 99.229 197.718 99.331 197.718 99.4403C197.718 99.5497 197.735 99.6513 197.77 99.745C197.805 99.8388 197.858 99.9144 197.931 99.9719C198.003 100.03 198.095 100.058 198.208 100.058ZM199.584 98.0682V100.25H199.333V98.0682H199.584ZM200.045 100.25V98.6136H200.296V100.25H200.045ZM200.173 98.3409C200.124 98.3409 200.081 98.3242 200.046 98.2908C200.011 98.2575 199.994 98.2173 199.994 98.1705C199.994 98.1236 200.011 98.0835 200.046 98.0501C200.081 98.0167 200.124 98 200.173 98C200.222 98 200.264 98.0167 200.298 98.0501C200.334 98.0835 200.352 98.1236 200.352 98.1705C200.352 98.2173 200.334 98.2575 200.298 98.2908C200.264 98.3242 200.222 98.3409 200.173 98.3409ZM201.008 99.2656V100.25H200.757V98.6136H201V98.8693H201.021C201.059 98.7862 201.118 98.7195 201.196 98.669C201.274 98.6179 201.375 98.5923 201.498 98.5923C201.609 98.5923 201.706 98.6151 201.789 98.6605C201.872 98.7053 201.937 98.7734 201.983 98.8651C202.029 98.956 202.052 99.071 202.052 99.2102V100.25H201.801V99.2273C201.801 99.0987 201.767 98.9986 201.701 98.9268C201.634 98.8544 201.542 98.8182 201.426 98.8182C201.346 98.8182 201.274 98.8356 201.211 98.8704C201.148 98.9052 201.099 98.956 201.063 99.0227C201.026 99.0895 201.008 99.1705 201.008 99.2656ZM203.172 100.898C203.051 100.898 202.946 100.882 202.859 100.851C202.772 100.82 202.699 100.78 202.641 100.729C202.583 100.68 202.537 100.626 202.503 100.57L202.703 100.429C202.726 100.459 202.755 100.493 202.79 100.531C202.825 100.57 202.872 100.604 202.932 100.632C202.994 100.662 203.073 100.676 203.172 100.676C203.304 100.676 203.413 100.644 203.499 100.58C203.585 100.516 203.628 100.416 203.628 100.28V99.9474H203.607C203.588 99.9773 203.562 100.014 203.528 100.058C203.495 100.102 203.446 100.14 203.383 100.174C203.321 100.208 203.236 100.224 203.13 100.224C202.997 100.224 202.879 100.193 202.774 100.131C202.669 100.068 202.587 99.9773 202.526 99.858C202.465 99.7386 202.435 99.5937 202.435 99.4233C202.435 99.2557 202.464 99.1097 202.523 98.9854C202.582 98.8604 202.664 98.7638 202.769 98.6957C202.875 98.6268 202.996 98.5923 203.134 98.5923C203.24 98.5923 203.325 98.6101 203.387 98.6456C203.451 98.6804 203.499 98.7202 203.532 98.7649C203.566 98.8089 203.593 98.8452 203.611 98.8736H203.637V98.6136H203.88V100.297C203.88 100.438 203.848 100.552 203.784 100.64C203.72 100.729 203.635 100.794 203.528 100.835C203.421 100.877 203.303 100.898 203.172 100.898ZM203.164 99.9986C203.265 99.9986 203.35 99.9755 203.419 99.9293C203.489 99.8832 203.542 99.8168 203.578 99.7301C203.614 99.6435 203.632 99.5398 203.632 99.419C203.632 99.3011 203.615 99.1971 203.579 99.1069C203.544 99.0167 203.491 98.946 203.421 98.8949C203.352 98.8437 203.266 98.8182 203.164 98.8182C203.057 98.8182 202.968 98.8452 202.897 98.8991C202.827 98.9531 202.774 99.0256 202.739 99.1165C202.704 99.2074 202.686 99.3082 202.686 99.419C202.686 99.5327 202.704 99.6332 202.74 99.7205C202.776 99.8072 202.829 99.8754 202.899 99.9251C202.97 99.9741 203.059 99.9986 203.164 99.9986Z" fill="black"/>
<path d="M58.9 69.1H16.1V79.5H58.9V69.1Z" stroke="black" stroke-width="0.2"/>
<path d="M34.3892 73.7301L34.1634 73.794C34.1491 73.7564 34.1282 73.7198 34.1005 73.6843C34.0735 73.6481 34.0366 73.6183 33.9897 73.5948C33.9428 73.5714 33.8828 73.5597 33.8097 73.5597C33.7095 73.5597 33.6261 73.5827 33.5593 73.6289C33.4933 73.6744 33.4602 73.7322 33.4602 73.8026C33.4602 73.8651 33.483 73.9144 33.5284 73.9506C33.5739 73.9869 33.6449 74.017 33.7415 74.0412L33.9844 74.1009C34.1307 74.1364 34.2397 74.1907 34.3114 74.2638C34.3832 74.3363 34.419 74.4297 34.419 74.544C34.419 74.6378 34.392 74.7216 34.3381 74.7955C34.2848 74.8693 34.2102 74.9276 34.1143 74.9702C34.0185 75.0128 33.907 75.0341 33.7798 75.0341C33.6129 75.0341 33.4748 74.9979 33.3654 74.9254C33.256 74.853 33.1868 74.7472 33.1577 74.608L33.3963 74.5483C33.419 74.6364 33.462 74.7024 33.5252 74.7464C33.5891 74.7905 33.6726 74.8125 33.7756 74.8125C33.8928 74.8125 33.9858 74.7876 34.0547 74.7379C34.1243 74.6875 34.1591 74.6271 34.1591 74.5568C34.1591 74.5 34.1392 74.4524 34.0994 74.4141C34.0597 74.375 33.9986 74.3459 33.9162 74.3267L33.6435 74.2628C33.4936 74.2273 33.3835 74.1722 33.3132 74.0977C33.2436 74.0224 33.2088 73.9283 33.2088 73.8153C33.2088 73.723 33.2347 73.6413 33.2866 73.5703C33.3391 73.4993 33.4105 73.4435 33.5007 73.4031C33.5916 73.3626 33.6946 73.3423 33.8097 73.3423C33.9716 73.3423 34.0987 73.3778 34.1911 73.4489C34.2841 73.5199 34.3501 73.6136 34.3892 73.7301ZM35.0489 72.8182V75H34.7975V72.8182H35.0489ZM36.1742 75.0341C36.0265 75.0341 35.8968 74.9989 35.7853 74.9286C35.6745 74.8583 35.5879 74.7599 35.5254 74.6335C35.4636 74.5071 35.4327 74.3594 35.4327 74.1903C35.4327 74.0199 35.4636 73.8711 35.5254 73.744C35.5879 73.6168 35.6745 73.5181 35.7853 73.4478C35.8968 73.3775 36.0265 73.3423 36.1742 73.3423C36.3219 73.3423 36.4512 73.3775 36.562 73.4478C36.6735 73.5181 36.7601 73.6168 36.8219 73.744C36.8844 73.8711 36.9157 74.0199 36.9157 74.1903C36.9157 74.3594 36.8844 74.5071 36.8219 74.6335C36.7601 74.7599 36.6735 74.8583 36.562 74.9286C36.4512 74.9989 36.3219 75.0341 36.1742 75.0341ZM36.1742 74.8082C36.2864 74.8082 36.3787 74.7795 36.4512 74.7219C36.5236 74.6644 36.5772 74.5888 36.612 74.495C36.6468 74.4013 36.6642 74.2997 36.6642 74.1903C36.6642 74.081 36.6468 73.979 36.612 73.8846C36.5772 73.7901 36.5236 73.7138 36.4512 73.6555C36.3787 73.5973 36.2864 73.5682 36.1742 73.5682C36.062 73.5682 35.9696 73.5973 35.8972 73.6555C35.8248 73.7138 35.7711 73.7901 35.7363 73.8846C35.7015 73.979 35.6841 74.081 35.6841 74.1903C35.6841 74.2997 35.7015 74.4013 35.7363 74.495C35.7711 74.5888 35.8248 74.6644 35.8972 74.7219C35.9696 74.7795 36.062 74.8082 36.1742 74.8082ZM37.2994 75.6136V73.3636H37.5423V73.6236H37.5722C37.5906 73.5952 37.6162 73.5589 37.6489 73.5149C37.6823 73.4702 37.7298 73.4304 37.7916 73.3956C37.8541 73.3601 37.9387 73.3423 38.0452 73.3423C38.183 73.3423 38.3044 73.3768 38.4095 73.4457C38.5146 73.5146 38.5967 73.6122 38.6556 73.7386C38.7146 73.8651 38.7441 74.0142 38.7441 74.1861C38.7441 74.3594 38.7146 74.5096 38.6556 74.6367C38.5967 74.7631 38.515 74.8612 38.4106 74.9308C38.3062 74.9996 38.1858 75.0341 38.0494 75.0341C37.9443 75.0341 37.8602 75.0167 37.797 74.9819C37.7338 74.9464 37.6851 74.9062 37.651 74.8615C37.6169 74.8161 37.5906 74.7784 37.5722 74.7486H37.5509V75.6136H37.2994ZM37.5466 74.1818C37.5466 74.3054 37.5647 74.4144 37.6009 74.5089C37.6372 74.6026 37.6901 74.6761 37.7597 74.7294C37.8293 74.782 37.9145 74.8082 38.0154 74.8082C38.1205 74.8082 38.2082 74.7805 38.2785 74.7251C38.3495 74.669 38.4028 74.5937 38.4383 74.4993C38.4745 74.4041 38.4926 74.2983 38.4926 74.1818C38.4926 74.0668 38.4749 73.9631 38.4394 73.8707C38.4046 73.7777 38.3517 73.7042 38.2806 73.6502C38.2103 73.5955 38.1219 73.5682 38.0154 73.5682C37.9131 73.5682 37.8271 73.5941 37.7575 73.646C37.6879 73.6971 37.6354 73.7688 37.5999 73.8612C37.5644 73.9528 37.5466 74.0597 37.5466 74.1818ZM39.8137 75.0341C39.656 75.0341 39.52 74.9993 39.4056 74.9297C39.292 74.8594 39.2043 74.7614 39.1425 74.6357C39.0814 74.5092 39.0509 74.3622 39.0509 74.1946C39.0509 74.027 39.0814 73.8793 39.1425 73.7514C39.2043 73.6229 39.2902 73.5227 39.4003 73.451C39.5111 73.3786 39.6404 73.3423 39.7881 73.3423C39.8733 73.3423 39.9575 73.3565 40.0406 73.3849C40.1237 73.4134 40.1993 73.4595 40.2675 73.5234C40.3357 73.5866 40.39 73.6705 40.4305 73.7749C40.471 73.8793 40.4912 74.0078 40.4912 74.1605V74.267H39.2298V74.0497H40.2355C40.2355 73.9574 40.2171 73.875 40.1801 73.8026C40.1439 73.7301 40.0921 73.6729 40.0246 73.631C39.9578 73.5891 39.879 73.5682 39.7881 73.5682C39.6879 73.5682 39.6013 73.593 39.5281 73.6428C39.4557 73.6918 39.3999 73.7557 39.3609 73.8345C39.3218 73.9134 39.3023 73.9979 39.3023 74.0881V74.233C39.3023 74.3565 39.3236 74.4613 39.3662 74.5472C39.4095 74.6325 39.4695 74.6974 39.5463 74.7422C39.623 74.7862 39.7121 74.8082 39.8137 74.8082C39.8797 74.8082 39.9394 74.799 39.9926 74.7805C40.0466 74.7614 40.0931 74.733 40.1322 74.6953C40.1713 74.657 40.2014 74.6094 40.2227 74.5526L40.4656 74.6207C40.4401 74.7031 40.3971 74.7756 40.3367 74.8381C40.2764 74.8999 40.2018 74.9482 40.113 74.983C40.0242 75.017 39.9244 75.0341 39.8137 75.0341Z" fill="black"/>
<path d="M48.3523 24V21.0909H50.108V21.4034H48.7045V22.3864H50.017V22.6989H48.7045V23.6875H50.1307V24H48.3523ZM50.9474 21.8182L51.4702 22.7102L51.9929 21.8182H52.3793L51.6747 22.9091L52.3793 24H51.9929L51.4702 23.1534L50.9474 24H50.5611L51.2543 22.9091L50.5611 21.8182H50.9474ZM53.6541 24.0455C53.4496 24.0455 53.2734 23.9972 53.1257 23.9006C52.978 23.804 52.8643 23.6709 52.7848 23.5014C52.7053 23.3319 52.6655 23.1383 52.6655 22.9205C52.6655 22.6989 52.7062 22.5033 52.7876 22.3338C52.87 22.1634 52.9846 22.0303 53.1314 21.9347C53.2791 21.8381 53.4515 21.7898 53.6484 21.7898C53.8018 21.7898 53.9401 21.8182 54.0632 21.875C54.1863 21.9318 54.2872 22.0114 54.3658 22.1136C54.4444 22.2159 54.4931 22.3352 54.5121 22.4716H54.1768C54.1513 22.3722 54.0945 22.2841 54.0064 22.2074C53.9193 22.1297 53.8018 22.0909 53.6541 22.0909C53.5234 22.0909 53.4089 22.125 53.3104 22.1932C53.2128 22.2604 53.1366 22.3556 53.0817 22.4787C53.0277 22.6009 53.0007 22.7443 53.0007 22.9091C53.0007 23.0777 53.0272 23.2244 53.0803 23.3494C53.1342 23.4744 53.21 23.5715 53.3075 23.6406C53.406 23.7098 53.5215 23.7443 53.6541 23.7443C53.7412 23.7443 53.8203 23.7292 53.8913 23.6989C53.9624 23.6686 54.0225 23.625 54.0717 23.5682C54.121 23.5114 54.156 23.4432 54.1768 23.3636H54.5121C54.4931 23.4924 54.4463 23.6084 54.3714 23.7116C54.2976 23.8139 54.1996 23.8954 54.0774 23.956C53.9562 24.0156 53.8151 24.0455 53.6541 24.0455ZM55.3374 21.0909V24H55.0021V21.0909H55.3374ZM57.3263 23.108V21.8182H57.6616V24H57.3263V23.6307H57.3036C57.2525 23.7415 57.1729 23.8357 57.065 23.9134C56.957 23.9901 56.8207 24.0284 56.6559 24.0284C56.5195 24.0284 56.3983 23.9986 56.2923 23.9389C56.1862 23.8783 56.1029 23.7874 56.0423 23.6662C55.9817 23.544 55.9513 23.3902 55.9513 23.2045V21.8182H56.2866V23.1818C56.2866 23.3409 56.3311 23.4678 56.4201 23.5625C56.5101 23.6572 56.6246 23.7045 56.7638 23.7045C56.8472 23.7045 56.9319 23.6832 57.0181 23.6406C57.1052 23.598 57.1781 23.5327 57.2369 23.4446C57.2965 23.3565 57.3263 23.2443 57.3263 23.108ZM59.0994 24.0455C58.9176 24.0455 58.7571 23.9995 58.6179 23.9077C58.4787 23.8149 58.3698 23.6842 58.2912 23.5156C58.2126 23.3461 58.1733 23.1458 58.1733 22.9148C58.1733 22.6856 58.2126 22.4867 58.2912 22.3182C58.3698 22.1496 58.4792 22.0194 58.6193 21.9276C58.7595 21.8357 58.9214 21.7898 59.1051 21.7898C59.2472 21.7898 59.3594 21.8134 59.4418 21.8608C59.5251 21.9072 59.5885 21.9602 59.6321 22.0199C59.6766 22.0786 59.7112 22.1269 59.7358 22.1648H59.7642V21.0909H60.0994V24H59.7756V23.6648H59.7358C59.7112 23.7045 59.6761 23.7547 59.6307 23.8153C59.5852 23.875 59.5204 23.9285 59.4361 23.9759C59.3518 24.0223 59.2396 24.0455 59.0994 24.0455ZM59.1449 23.7443C59.2794 23.7443 59.393 23.7093 59.4858 23.6392C59.5786 23.5682 59.6491 23.4702 59.6974 23.3452C59.7457 23.2192 59.7699 23.0739 59.7699 22.9091C59.7699 22.7462 59.7462 22.6037 59.6989 22.4815C59.6515 22.3584 59.5814 22.2628 59.4886 22.1946C59.3958 22.1255 59.2813 22.0909 59.1449 22.0909C59.0028 22.0909 58.8845 22.1274 58.7898 22.2003C58.696 22.2723 58.6255 22.3703 58.5781 22.4943C58.5317 22.6174 58.5085 22.7557 58.5085 22.9091C58.5085 23.0644 58.5322 23.2055 58.5795 23.3324C58.6278 23.4583 58.6989 23.5587 58.7926 23.6335C58.8873 23.7074 59.0047 23.7443 59.1449 23.7443ZM61.6747 24.0455C61.4645 24.0455 61.2831 23.9991 61.1307 23.9062C60.9792 23.8125 60.8622 23.6818 60.7798 23.5142C60.6984 23.3456 60.6577 23.1496 60.6577 22.9261C60.6577 22.7027 60.6984 22.5057 60.7798 22.3352C60.8622 22.1638 60.9768 22.0303 61.1236 21.9347C61.2713 21.8381 61.4437 21.7898 61.6406 21.7898C61.7543 21.7898 61.8665 21.8087 61.9773 21.8466C62.0881 21.8845 62.1889 21.946 62.2798 22.0312C62.3707 22.1155 62.4432 22.2273 62.4972 22.3665C62.5511 22.5057 62.5781 22.6771 62.5781 22.8807V23.0227H60.8963V22.733H62.2372C62.2372 22.6098 62.2126 22.5 62.1634 22.4034C62.1151 22.3068 62.0459 22.2306 61.956 22.1747C61.867 22.1188 61.7618 22.0909 61.6406 22.0909C61.5071 22.0909 61.3916 22.1241 61.294 22.1903C61.1974 22.2557 61.1231 22.3409 61.071 22.446C61.0189 22.5511 60.9929 22.6638 60.9929 22.7841V22.9773C60.9929 23.142 61.0213 23.2817 61.0781 23.3963C61.1359 23.5099 61.2159 23.5966 61.3182 23.6562C61.4205 23.715 61.5393 23.7443 61.6747 23.7443C61.7628 23.7443 61.8423 23.732 61.9134 23.7074C61.9853 23.6818 62.0473 23.6439 62.0994 23.5938C62.1515 23.5426 62.1918 23.4792 62.2202 23.4034L62.544 23.4943C62.5099 23.6042 62.4527 23.7008 62.3722 23.7841C62.2917 23.8665 62.1922 23.9309 62.0739 23.9773C61.9555 24.0227 61.8224 24.0455 61.6747 24.0455ZM63.9119 24.0455C63.7301 24.0455 63.5696 23.9995 63.4304 23.9077C63.2912 23.8149 63.1823 23.6842 63.1037 23.5156C63.0251 23.3461 62.9858 23.1458 62.9858 22.9148C62.9858 22.6856 63.0251 22.4867 63.1037 22.3182C63.1823 22.1496 63.2917 22.0194 63.4318 21.9276C63.572 21.8357 63.7339 21.7898 63.9176 21.7898C64.0597 21.7898 64.1719 21.8134 64.2543 21.8608C64.3376 21.9072 64.401 21.9602 64.4446 22.0199C64.4891 22.0786 64.5237 22.1269 64.5483 22.1648H64.5767V21.0909H64.9119V24H64.5881V23.6648H64.5483C64.5237 23.7045 64.4886 23.7547 64.4432 23.8153C64.3977 23.875 64.3329 23.9285 64.2486 23.9759C64.1643 24.0223 64.0521 24.0455 63.9119 24.0455ZM63.9574 23.7443C64.0919 23.7443 64.2055 23.7093 64.2983 23.6392C64.3911 23.5682 64.4616 23.4702 64.5099 23.3452C64.5582 23.2192 64.5824 23.0739 64.5824 22.9091C64.5824 22.7462 64.5587 22.6037 64.5114 22.4815C64.464 22.3584 64.3939 22.2628 64.3011 22.1946C64.2083 22.1255 64.0938 22.0909 63.9574 22.0909C63.8153 22.0909 63.697 22.1274 63.6023 22.2003C63.5085 22.2723 63.438 22.3703 63.3906 22.4943C63.3442 22.6174 63.321 22.7557 63.321 22.9091C63.321 23.0644 63.3447 23.2055 63.392 23.3324C63.4403 23.4583 63.5114 23.5587 63.6051 23.6335C63.6998 23.7074 63.8172 23.7443 63.9574 23.7443ZM67.5838 24.0455C67.3793 24.0455 67.2031 23.9972 67.0554 23.9006C66.9077 23.804 66.794 23.6709 66.7145 23.5014C66.6349 23.3319 66.5952 23.1383 66.5952 22.9205C66.5952 22.6989 66.6359 22.5033 66.7173 22.3338C66.7997 22.1634 66.9143 22.0303 67.0611 21.9347C67.2088 21.8381 67.3812 21.7898 67.5781 21.7898C67.7315 21.7898 67.8698 21.8182 67.9929 21.875C68.116 21.9318 68.2169 22.0114 68.2955 22.1136C68.3741 22.2159 68.4228 22.3352 68.4418 22.4716H68.1065C68.081 22.3722 68.0241 22.2841 67.9361 22.2074C67.849 22.1297 67.7315 22.0909 67.5838 22.0909C67.4531 22.0909 67.3385 22.125 67.2401 22.1932C67.1425 22.2604 67.0663 22.3556 67.0114 22.4787C66.9574 22.6009 66.9304 22.7443 66.9304 22.9091C66.9304 23.0777 66.9569 23.2244 67.0099 23.3494C67.0639 23.4744 67.1397 23.5715 67.2372 23.6406C67.3357 23.7098 67.4512 23.7443 67.5838 23.7443C67.6709 23.7443 67.75 23.7292 67.821 23.6989C67.892 23.6686 67.9522 23.625 68.0014 23.5682C68.0507 23.5114 68.0857 23.4432 68.1065 23.3636H68.4418C68.4228 23.4924 68.3759 23.6084 68.3011 23.7116C68.2273 23.8139 68.1293 23.8954 68.0071 23.956C67.8859 24.0156 67.7448 24.0455 67.5838 24.0455ZM69.5739 24.0511C69.4356 24.0511 69.3101 24.0251 69.1974 23.973C69.0848 23.92 68.9953 23.8438 68.929 23.7443C68.8627 23.6439 68.8295 23.5227 68.8295 23.3807C68.8295 23.2557 68.8542 23.1544 68.9034 23.0767C68.9527 22.9981 69.0185 22.9366 69.1009 22.892C69.1832 22.8475 69.2741 22.8144 69.3736 22.7926C69.474 22.7699 69.5748 22.7519 69.6761 22.7386C69.8087 22.7216 69.9162 22.7088 69.9986 22.7003C70.0819 22.6908 70.1425 22.6752 70.1804 22.6534C70.2192 22.6316 70.2386 22.5937 70.2386 22.5398V22.5284C70.2386 22.3883 70.2003 22.2794 70.1236 22.2017C70.0478 22.1241 69.9328 22.0852 69.7784 22.0852C69.6184 22.0852 69.4929 22.1203 69.402 22.1903C69.3111 22.2604 69.2472 22.3352 69.2102 22.4148L68.892 22.3011C68.9489 22.1686 69.0246 22.0653 69.1193 21.9915C69.215 21.9167 69.3191 21.8646 69.4318 21.8352C69.5455 21.8049 69.6572 21.7898 69.767 21.7898C69.8371 21.7898 69.9176 21.7983 70.0085 21.8153C70.1004 21.8314 70.1889 21.8651 70.2741 21.9162C70.3603 21.9673 70.4318 22.0445 70.4886 22.1477C70.5455 22.2509 70.5739 22.3892 70.5739 22.5625V24H70.2386V23.7045H70.2216C70.1989 23.7519 70.161 23.8026 70.108 23.8565C70.0549 23.9105 69.9844 23.9564 69.8963 23.9943C69.8082 24.0322 69.7008 24.0511 69.5739 24.0511ZM69.625 23.75C69.7576 23.75 69.8693 23.724 69.9602 23.6719C70.0521 23.6198 70.1212 23.5526 70.1676 23.4702C70.215 23.3878 70.2386 23.3011 70.2386 23.2102V22.9034C70.2244 22.9205 70.1932 22.9361 70.1449 22.9503C70.0975 22.9635 70.0426 22.9754 69.9801 22.9858C69.9186 22.9953 69.8584 23.0038 69.7997 23.0114C69.742 23.018 69.6951 23.0237 69.6591 23.0284C69.572 23.0398 69.4905 23.0582 69.4148 23.0838C69.34 23.1084 69.2794 23.1458 69.233 23.196C69.1875 23.2453 69.1648 23.3125 69.1648 23.3977C69.1648 23.5142 69.2079 23.6023 69.294 23.6619C69.3812 23.7206 69.4915 23.75 69.625 23.75ZM71.2312 24V21.0909H71.5664V22.1648H71.5948C71.6194 22.1269 71.6535 22.0786 71.6971 22.0199C71.7416 21.9602 71.805 21.9072 71.8874 21.8608C71.9708 21.8134 72.0835 21.7898 72.2255 21.7898C72.4092 21.7898 72.5711 21.8357 72.7113 21.9276C72.8514 22.0194 72.9608 22.1496 73.0394 22.3182C73.118 22.4867 73.1573 22.6856 73.1573 22.9148C73.1573 23.1458 73.118 23.3461 73.0394 23.5156C72.9608 23.6842 72.8519 23.8149 72.7127 23.9077C72.5735 23.9995 72.413 24.0455 72.2312 24.0455C72.091 24.0455 71.9788 24.0223 71.8945 23.9759C71.8103 23.9285 71.7454 23.875 71.6999 23.8153C71.6545 23.7547 71.6194 23.7045 71.5948 23.6648H71.555V24H71.2312ZM71.5607 22.9091C71.5607 23.0739 71.5849 23.2192 71.6332 23.3452C71.6815 23.4702 71.752 23.5682 71.8448 23.6392C71.9376 23.7093 72.0513 23.7443 72.1857 23.7443C72.3259 23.7443 72.4428 23.7074 72.5366 23.6335C72.6313 23.5587 72.7023 23.4583 72.7496 23.3324C72.7979 23.2055 72.8221 23.0644 72.8221 22.9091C72.8221 22.7557 72.7984 22.6174 72.7511 22.4943C72.7047 22.3703 72.6341 22.2723 72.5394 22.2003C72.4457 22.1274 72.3278 22.0909 72.1857 22.0909C72.0494 22.0909 71.9348 22.1255 71.842 22.1946C71.7492 22.2628 71.6791 22.3584 71.6317 22.4815C71.5844 22.6037 71.5607 22.7462 71.5607 22.9091ZM73.7156 24V21.0909H75.4712V21.4034H74.0678V22.3864H75.3803V22.6989H74.0678V23.6875H75.494V24H73.7156ZM77.146 24L77.6232 21.0909H77.9073L77.43 24H77.146ZM75.8221 23.1932L75.8675 22.9091H78.038L77.9925 23.1932H75.8221ZM76.1232 24L76.6005 21.0909H76.8846L76.4073 24H76.1232ZM75.9925 22.1818L76.038 21.8977H78.2085L78.163 22.1818H75.9925Z" fill="black"/>
<path d="M287.347 294H287.17C287.16 293.949 287.142 293.905 287.116 293.866C287.09 293.828 287.059 293.796 287.022 293.77C286.986 293.743 286.945 293.723 286.901 293.71C286.856 293.697 286.81 293.69 286.761 293.69C286.673 293.69 286.594 293.713 286.522 293.757C286.451 293.802 286.394 293.867 286.352 293.954C286.311 294.04 286.29 294.147 286.29 294.273C286.29 294.399 286.311 294.505 286.352 294.592C286.394 294.678 286.451 294.744 286.522 294.788C286.594 294.833 286.673 294.855 286.761 294.855C286.81 294.855 286.856 294.848 286.901 294.835C286.945 294.822 286.986 294.802 287.022 294.776C287.059 294.75 287.09 294.717 287.116 294.679C287.142 294.64 287.16 294.596 287.17 294.545H287.347C287.333 294.62 287.309 294.686 287.274 294.745C287.239 294.804 287.196 294.854 287.143 294.895C287.091 294.936 287.033 294.967 286.968 294.988C286.904 295.009 286.835 295.02 286.761 295.02C286.637 295.02 286.527 294.99 286.43 294.929C286.334 294.868 286.258 294.782 286.202 294.67C286.147 294.559 286.119 294.426 286.119 294.273C286.119 294.119 286.147 293.987 286.202 293.875C286.258 293.763 286.334 293.677 286.43 293.616C286.527 293.556 286.637 293.526 286.761 293.526C286.835 293.526 286.904 293.536 286.968 293.558C287.033 293.579 287.091 293.61 287.143 293.651C287.196 293.692 287.239 293.742 287.274 293.8C287.309 293.859 287.333 293.925 287.347 294ZM287.631 295V293.545H288.123C288.236 293.545 288.33 293.565 288.403 293.604C288.475 293.642 288.529 293.695 288.564 293.762C288.599 293.829 288.617 293.906 288.617 293.991C288.617 294.077 288.599 294.153 288.564 294.219C288.529 294.286 288.476 294.338 288.403 294.376C288.331 294.413 288.238 294.432 288.126 294.432H287.728V294.273H288.12C288.198 294.273 288.26 294.261 288.307 294.239C288.355 294.216 288.39 294.184 288.411 294.142C288.433 294.1 288.444 294.05 288.444 293.991C288.444 293.933 288.433 293.882 288.411 293.839C288.389 293.795 288.354 293.762 288.307 293.738C288.259 293.714 288.196 293.702 288.117 293.702H287.807V295H287.631ZM288.316 294.347L288.674 295H288.469L288.117 294.347H288.316ZM288.97 295H288.786L289.32 293.545H289.501L290.036 295H289.851L289.416 293.776H289.405L288.97 295ZM289.038 294.432H289.783V294.588H289.038V294.432ZM290.262 295V293.545H290.438V294.193H291.214V293.545H291.39V295H291.214V294.349H290.438V295H290.262ZM292.325 295L292.975 293.713V293.702H292.225V293.545H293.157V293.71L292.51 295H292.325ZM293.297 295.011C293.262 295.011 293.232 294.999 293.207 294.974C293.182 294.949 293.169 294.919 293.169 294.884C293.169 294.848 293.182 294.818 293.207 294.793C293.232 294.768 293.262 294.756 293.297 294.756C293.332 294.756 293.362 294.768 293.387 294.793C293.412 294.818 293.425 294.848 293.425 294.884C293.425 294.907 293.419 294.928 293.407 294.947C293.396 294.967 293.38 294.982 293.361 294.994C293.342 295.006 293.321 295.011 293.297 295.011ZM294.148 295.02C294.065 295.02 293.99 295.003 293.923 294.97C293.856 294.937 293.803 294.892 293.762 294.834C293.722 294.776 293.7 294.71 293.696 294.636H293.867C293.873 294.702 293.903 294.757 293.956 294.8C294.01 294.842 294.074 294.864 294.148 294.864C294.208 294.864 294.261 294.85 294.307 294.822C294.354 294.794 294.391 294.755 294.417 294.707C294.444 294.657 294.458 294.602 294.458 294.54C294.458 294.476 294.444 294.42 294.416 294.37C294.388 294.32 294.35 294.28 294.302 294.251C294.254 294.223 294.199 294.208 294.137 294.207C294.092 294.207 294.047 294.214 294 294.228C293.953 294.242 293.914 294.259 293.884 294.281L293.719 294.261L293.807 293.545H294.563V293.702H293.955L293.904 294.131H293.912C293.942 294.107 293.98 294.087 294.025 294.072C294.069 294.056 294.116 294.048 294.165 294.048C294.254 294.048 294.333 294.07 294.403 294.112C294.473 294.154 294.528 294.212 294.568 294.286C294.608 294.359 294.628 294.443 294.628 294.537C294.628 294.63 294.607 294.713 294.566 294.786C294.525 294.858 294.468 294.915 294.395 294.957C294.323 294.999 294.24 295.02 294.148 295.02Z" fill="black"/>
<path d="M0.5 203V295.5" stroke="black" stroke-width="0.5"/>
</g>
<defs>
<clipPath id="clip0_2_2">
<rect width="421" height="297" fill="white"/>
</clipPath>
</defs>
</svg>
