<svg width="5866" height="3419" viewBox="0 0 5866 3419" fill="none" xmlns="http://www.w3.org/2000/svg">
<rect x="1" y="2602.98" width="678.863" height="541.682" stroke="black" stroke-width="2"/>
<path d="M680.863 3416.5L5865 3411.5" stroke="black"/>
<rect x="1" y="3146.66" width="678.887" height="270.84" stroke="black" stroke-width="2"/>
<path d="M676.91 2601.98L3089 2601.98" stroke="black"/>
<path d="M3089 2604V1956H3255.75V1537H3089V1.5H5864.91V3411.5" stroke="black"/>
<path d="M3258 1537H3482V2604.5H3832V3412.5" stroke="#F41818"/>
<rect x="5570" y="2077.5" width="24" height="1333" stroke="#0000FF" stroke-width="2"/>
<path d="M5159.5 0V445H5303.5H5507V635.5V900.5H5863.5" stroke="black"/>
<rect x="682" y="2.5" width="2406" height="779" stroke="black" stroke-width="2"/>
<path d="M3317.52 1650.81C3317.38 1653.64 3317.06 1656.43 3316.54 1659.19C3314.83 1668.44 3311.45 1677.07 3306.69 1684.46C3301.65 1692.32 3295.39 1698.86 3288.29 1703.67C3278.42 1710.05 3267.56 1713.79 3256.41 1714.63L3255.73 1652.07L3317.52 1650.81Z" stroke="#1A1818" stroke-miterlimit="10"/>
<path d="M938.628 904.183C934.494 903.88 930.415 903.224 926.39 902.191C912.886 898.744 900.261 892.04 889.439 882.613C877.937 872.648 868.345 860.288 861.267 846.298C851.877 826.856 846.318 805.495 845 783.597L936.245 782.799L938.628 904.183Z" stroke="#1A1818" stroke-miterlimit="10"/>
<path d="M751.044 906.747C755.176 906.444 759.293 905.788 763.313 904.755C776.748 901.328 789.244 894.685 799.9 885.319C811.399 875.239 820.925 862.897 827.991 848.945C837.351 829.475 842.845 808.171 844.159 786.354L753.366 785.564L751.044 906.747Z" stroke="#1A1818" stroke-miterlimit="10"/>
<path d="M776 2520C779.248 2520.25 782.448 2520.74 785.6 2521.48C796.176 2523.95 806.016 2528.6 814.4 2535.05C823.312 2541.87 830.688 2550.27 836.064 2559.74C843.184 2572.9 847.264 2587.29 848 2602L776.208 2601.47L776 2520Z" stroke="#1A1818" stroke-miterlimit="10"/>
<path d="M921 2520C917.69 2520.25 914.397 2520.74 911.187 2521.48C900.459 2523.94 890.529 2528.55 882.113 2534.97C873.032 2541.88 865.564 2550.29 860.092 2559.75C852.857 2572.94 848.748 2587.32 848 2602L920.834 2601.47L921 2520Z" stroke="#1A1818" stroke-miterlimit="10"/>
<path d="M3319 1777C3318.8 1774.19 3318.42 1771.39 3317.84 1768.67C3315.92 1759.55 3312.32 1751.12 3307.31 1743.97C3301.92 1736.26 3295.36 1729.92 3287.98 1725.27C3277.68 1719.12 3266.46 1715.64 3255 1715L3255.42 1776.86L3287.21 1776.93L3319 1777Z" stroke="#1A1818" stroke-miterlimit="10"/>
<path d="M1848 2535C1845.51 2535.21 1843.02 2535.61 1840.61 2536.21C1832.52 2538.22 1825.04 2541.99 1818.7 2547.23C1811.86 2552.88 1806.23 2559.75 1802.11 2567.48C1796.66 2578.26 1793.56 2590.01 1793 2602L1847.87 2601.56L1848 2535Z" stroke="#1A1818" stroke-miterlimit="10"/>
<path d="M1741 2535C1743.35 2535.21 1745.66 2535.6 1747.93 2536.21C1755.57 2538.23 1762.68 2542.02 1768.73 2547.3C1775.17 2552.87 1780.5 2559.74 1784.38 2567.47C1789.52 2578.22 1792.47 2589.98 1793 2602L1741.15 2601.56L1741 2535Z" stroke="#1A1818" stroke-miterlimit="10"/>
<path d="M4043.4 1538.82V1557H4041.2V1538.82H4043.4ZM4047.82 1557V1538.82H4053.96C4055.39 1538.82 4056.55 1539.08 4057.46 1539.59C4058.37 1540.1 4059.05 1540.79 4059.48 1541.66C4059.92 1542.53 4060.14 1543.5 4060.14 1544.57C4060.14 1545.64 4059.92 1546.62 4059.48 1547.49C4059.05 1548.37 4058.38 1549.07 4057.48 1549.59C4056.57 1550.1 4055.41 1550.36 4054 1550.36H4049.59V1548.41H4053.93C4054.9 1548.41 4055.69 1548.24 4056.28 1547.9C4056.87 1547.56 4057.3 1547.11 4057.57 1546.53C4057.84 1545.95 4057.97 1545.3 4057.97 1544.57C4057.97 1543.84 4057.84 1543.19 4057.57 1542.62C4057.3 1542.04 4056.87 1541.59 4056.27 1541.27C4055.67 1540.94 4054.88 1540.77 4053.89 1540.77H4050.02V1557H4047.82ZM4069.3 1557H4063.69V1538.82H4069.55C4071.31 1538.82 4072.82 1539.18 4074.07 1539.91C4075.33 1540.63 4076.29 1541.67 4076.96 1543.03C4077.63 1544.38 4077.96 1545.99 4077.96 1547.87C4077.96 1549.77 4077.63 1551.4 4076.95 1552.77C4076.28 1554.13 4075.29 1555.17 4074 1555.91C4072.71 1556.64 4071.14 1557 4069.3 1557ZM4065.89 1555.05H4069.16C4070.66 1555.05 4071.9 1554.76 4072.89 1554.18C4073.88 1553.6 4074.62 1552.77 4075.1 1551.7C4075.59 1550.63 4075.83 1549.35 4075.83 1547.87C4075.83 1546.41 4075.59 1545.14 4075.11 1544.08C4074.63 1543.02 4073.92 1542.2 4072.96 1541.63C4072.01 1541.06 4070.82 1540.77 4069.4 1540.77H4065.89V1555.05ZM4089.43 1557H4087.12L4093.8 1538.82H4096.07L4102.75 1557H4100.44L4095.01 1541.69H4094.87L4089.43 1557ZM4090.29 1549.9H4099.59V1551.85H4090.29V1549.9ZM4113.11 1546.93V1548.89H4105.16V1546.93H4113.11ZM4122.61 1557.25C4121.44 1557.25 4120.4 1557.05 4119.48 1556.64C4118.57 1556.24 4117.84 1555.68 4117.3 1554.97C4116.77 1554.24 4116.48 1553.41 4116.43 1552.45H4118.67C4118.72 1553.04 4118.92 1553.55 4119.27 1553.97C4119.63 1554.39 4120.09 1554.72 4120.67 1554.95C4121.24 1555.18 4121.88 1555.3 4122.58 1555.3C4123.36 1555.3 4124.05 1555.16 4124.65 1554.89C4125.26 1554.61 4125.73 1554.24 4126.07 1553.75C4126.42 1553.27 4126.59 1552.7 4126.59 1552.06C4126.59 1551.4 4126.42 1550.81 4126.09 1550.3C4125.76 1549.78 4125.27 1549.38 4124.64 1549.09C4124 1548.8 4123.22 1548.65 4122.29 1548.65H4120.84V1546.7H4122.29C4123.01 1546.7 4123.65 1546.57 4124.19 1546.31C4124.74 1546.05 4125.17 1545.68 4125.48 1545.21C4125.79 1544.74 4125.95 1544.18 4125.95 1543.54C4125.95 1542.93 4125.81 1542.39 4125.54 1541.93C4125.27 1541.48 4124.88 1541.12 4124.39 1540.87C4123.9 1540.61 4123.32 1540.49 4122.65 1540.49C4122.02 1540.49 4121.43 1540.6 4120.87 1540.83C4120.32 1541.06 4119.87 1541.39 4119.52 1541.82C4119.17 1542.25 4118.98 1542.76 4118.95 1543.36H4116.82C4116.86 1542.41 4117.15 1541.58 4117.68 1540.86C4118.22 1540.14 4118.93 1539.58 4119.8 1539.17C4120.67 1538.77 4121.63 1538.57 4122.68 1538.57C4123.81 1538.57 4124.77 1538.8 4125.58 1539.25C4126.38 1539.7 4127 1540.3 4127.43 1541.04C4127.86 1541.78 4128.08 1542.58 4128.08 1543.43C4128.08 1544.46 4127.81 1545.33 4127.27 1546.05C4126.74 1546.78 4126.01 1547.28 4125.1 1547.55V1547.7C4126.25 1547.89 4127.14 1548.37 4127.79 1549.16C4128.43 1549.94 4128.75 1550.91 4128.75 1552.06C4128.75 1553.05 4128.49 1553.94 4127.95 1554.73C4127.41 1555.51 4126.69 1556.12 4125.76 1556.57C4124.84 1557.02 4123.79 1557.25 4122.61 1557.25Z" fill="black"/>
<path d="M4051.4 3246.82V3265H4049.2V3246.82H4051.4ZM4055.82 3265V3246.82H4061.96C4063.39 3246.82 4064.55 3247.08 4065.46 3247.59C4066.37 3248.1 4067.05 3248.79 4067.48 3249.66C4067.92 3250.53 4068.14 3251.5 4068.14 3252.57C4068.14 3253.64 4067.92 3254.62 4067.48 3255.49C4067.05 3256.37 4066.38 3257.07 4065.48 3257.59C4064.57 3258.1 4063.41 3258.36 4062 3258.36H4057.59V3256.41H4061.93C4062.9 3256.41 4063.69 3256.24 4064.28 3255.9C4064.87 3255.56 4065.3 3255.11 4065.57 3254.53C4065.84 3253.95 4065.97 3253.3 4065.97 3252.57C4065.97 3251.84 4065.84 3251.19 4065.57 3250.62C4065.3 3250.04 4064.87 3249.59 4064.27 3249.27C4063.67 3248.94 4062.88 3248.77 4061.89 3248.77H4058.02V3265H4055.82ZM4077.3 3265H4071.69V3246.82H4077.55C4079.31 3246.82 4080.82 3247.18 4082.07 3247.91C4083.33 3248.63 4084.29 3249.67 4084.96 3251.03C4085.63 3252.38 4085.96 3253.99 4085.96 3255.87C4085.96 3257.77 4085.63 3259.4 4084.95 3260.77C4084.28 3262.13 4083.29 3263.17 4082 3263.91C4080.71 3264.64 4079.14 3265 4077.3 3265ZM4073.89 3263.05H4077.16C4078.66 3263.05 4079.9 3262.76 4080.89 3262.18C4081.88 3261.6 4082.62 3260.77 4083.1 3259.7C4083.59 3258.63 4083.83 3257.35 4083.83 3255.87C4083.83 3254.41 4083.59 3253.14 4083.11 3252.08C4082.63 3251.02 4081.92 3250.2 4080.96 3249.63C4080.01 3249.06 4078.82 3248.77 4077.4 3248.77H4073.89V3263.05ZM4097.43 3265H4095.12L4101.8 3246.82H4104.07L4110.75 3265H4108.44L4103.01 3249.69H4102.87L4097.43 3265ZM4098.29 3257.9H4107.59V3259.85H4098.29V3257.9ZM4121.11 3254.93V3256.89H4113.16V3254.93H4121.11ZM4131.15 3246.82V3265H4128.95V3249.13H4128.84L4124.41 3252.07V3249.84L4128.95 3246.82H4131.15Z" fill="black"/>
<path d="M4045.4 2423.82V2442H4043.2V2423.82H4045.4ZM4049.82 2442V2423.82H4055.96C4057.39 2423.82 4058.55 2424.08 4059.46 2424.59C4060.37 2425.1 4061.05 2425.79 4061.48 2426.66C4061.92 2427.53 4062.14 2428.5 4062.14 2429.57C4062.14 2430.64 4061.92 2431.62 4061.48 2432.49C4061.05 2433.37 4060.38 2434.07 4059.48 2434.59C4058.57 2435.1 4057.41 2435.36 4056 2435.36H4051.59V2433.41H4055.93C4056.9 2433.41 4057.69 2433.24 4058.28 2432.9C4058.87 2432.56 4059.3 2432.11 4059.57 2431.53C4059.84 2430.95 4059.97 2430.3 4059.97 2429.57C4059.97 2428.84 4059.84 2428.19 4059.57 2427.62C4059.3 2427.04 4058.87 2426.59 4058.27 2426.27C4057.67 2425.94 4056.88 2425.77 4055.89 2425.77H4052.02V2442H4049.82ZM4071.3 2442H4065.69V2423.82H4071.55C4073.31 2423.82 4074.82 2424.18 4076.07 2424.91C4077.33 2425.63 4078.29 2426.67 4078.96 2428.03C4079.63 2429.38 4079.96 2430.99 4079.96 2432.87C4079.96 2434.77 4079.63 2436.4 4078.95 2437.77C4078.28 2439.13 4077.29 2440.17 4076 2440.91C4074.71 2441.64 4073.14 2442 4071.3 2442ZM4067.89 2440.05H4071.16C4072.66 2440.05 4073.9 2439.76 4074.89 2439.18C4075.88 2438.6 4076.62 2437.77 4077.1 2436.7C4077.59 2435.63 4077.83 2434.35 4077.83 2432.87C4077.83 2431.41 4077.59 2430.14 4077.11 2429.08C4076.63 2428.02 4075.92 2427.2 4074.96 2426.63C4074.01 2426.06 4072.82 2425.77 4071.4 2425.77H4067.89V2440.05ZM4091.43 2442H4089.12L4095.8 2423.82H4098.07L4104.75 2442H4102.44L4097.01 2426.69H4096.87L4091.43 2442ZM4092.29 2434.9H4101.59V2436.85H4092.29V2434.9ZM4115.11 2431.93V2433.89H4107.16V2431.93H4115.11ZM4117.91 2442V2440.4L4123.91 2433.83C4124.61 2433.06 4125.19 2432.39 4125.65 2431.83C4126.1 2431.25 4126.44 2430.71 4126.66 2430.21C4126.88 2429.7 4127 2429.17 4127 2428.61C4127 2427.97 4126.84 2427.42 4126.54 2426.95C4126.23 2426.48 4125.82 2426.12 4125.29 2425.87C4124.77 2425.61 4124.17 2425.49 4123.52 2425.49C4122.82 2425.49 4122.21 2425.63 4121.69 2425.92C4121.17 2426.21 4120.77 2426.61 4120.49 2427.12C4120.21 2427.64 4120.07 2428.24 4120.07 2428.93H4117.98C4117.98 2427.87 4118.22 2426.93 4118.71 2426.13C4119.21 2425.32 4119.87 2424.69 4120.72 2424.24C4121.57 2423.79 4122.53 2423.57 4123.59 2423.57C4124.65 2423.57 4125.6 2423.79 4126.42 2424.24C4127.24 2424.69 4127.89 2425.3 4128.36 2426.06C4128.82 2426.83 4129.06 2427.68 4129.06 2428.61C4129.06 2429.28 4128.94 2429.94 4128.69 2430.57C4128.46 2431.21 4128.04 2431.91 4127.45 2432.7C4126.86 2433.47 4126.05 2434.42 4125.01 2435.54L4120.92 2439.9V2440.05H4129.38V2442H4117.91Z" fill="black"/>
<g filter="url(#filter0_d_1_9)">
<rect x="4013" y="2402" width="144" height="58" fill="#D9D9D9" fill-opacity="0.48" shape-rendering="crispEdges"/>
<rect x="4014" y="2403" width="142" height="56" stroke="black" stroke-width="2" shape-rendering="crispEdges"/>
</g>
<g filter="url(#filter1_d_1_9)">
<rect x="4014" y="1518" width="144" height="58" fill="#D9D9D9" fill-opacity="0.48" shape-rendering="crispEdges"/>
<rect x="4015" y="1519" width="142" height="56" stroke="black" stroke-width="2" shape-rendering="crispEdges"/>
</g>
<g filter="url(#filter2_d_1_9)">
<rect x="4014" y="700" width="144" height="58" fill="#D9D9D9" fill-opacity="0.48" shape-rendering="crispEdges"/>
<rect x="4015" y="701" width="142" height="56" stroke="black" stroke-width="2" shape-rendering="crispEdges"/>
</g>
<path d="M4040.4 721.818V740H4038.2V721.818H4040.4ZM4044.82 740V721.818H4050.96C4052.39 721.818 4053.55 722.076 4054.46 722.591C4055.37 723.1 4056.05 723.789 4056.48 724.659C4056.92 725.529 4057.14 726.5 4057.14 727.571C4057.14 728.642 4056.92 729.616 4056.48 730.492C4056.05 731.368 4055.38 732.066 4054.48 732.587C4053.57 733.102 4052.41 733.359 4051 733.359H4046.59V731.406H4050.93C4051.9 731.406 4052.69 731.238 4053.28 730.9C4053.87 730.563 4054.3 730.107 4054.57 729.533C4054.84 728.953 4054.97 728.299 4054.97 727.571C4054.97 726.843 4054.84 726.192 4054.57 725.618C4054.3 725.044 4053.87 724.594 4053.27 724.268C4052.67 723.937 4051.88 723.771 4050.89 723.771H4047.02V740H4044.82ZM4066.3 740H4060.69V721.818H4066.55C4068.31 721.818 4069.82 722.182 4071.07 722.91C4072.33 723.632 4073.29 724.671 4073.96 726.026C4074.63 727.376 4074.96 728.991 4074.96 730.874C4074.96 732.768 4074.63 734.398 4073.95 735.765C4073.28 737.127 4072.29 738.174 4071 738.908C4069.71 739.636 4068.14 740 4066.3 740ZM4062.89 738.047H4066.16C4067.66 738.047 4068.9 737.757 4069.89 737.177C4070.88 736.597 4071.62 735.771 4072.1 734.7C4072.59 733.629 4072.83 732.353 4072.83 730.874C4072.83 729.406 4072.59 728.142 4072.11 727.083C4071.63 726.017 4070.92 725.201 4069.96 724.632C4069.01 724.058 4067.82 723.771 4066.4 723.771H4062.89V738.047ZM4086.43 740H4084.12L4090.8 721.818H4093.07L4099.75 740H4097.44L4092.01 724.695H4091.87L4086.43 740ZM4087.29 732.898H4096.59V734.851H4087.29V732.898ZM4110.11 729.933V731.886H4102.16V729.933H4110.11ZM4113.33 736.271V734.46L4121.32 721.818H4122.64V724.624H4121.75L4115.71 734.176V734.318H4126.47V736.271H4113.33ZM4121.89 740V735.721V734.877V721.818H4123.99V740H4121.89Z" fill="black"/>
<g filter="url(#filter3_d_1_9)">
<rect x="4013" y="3226" width="144" height="58" fill="#D9D9D9" fill-opacity="0.48" shape-rendering="crispEdges"/>
<rect x="4014" y="3227" width="142" height="56" stroke="black" stroke-width="2" shape-rendering="crispEdges"/>
</g>
<path d="M4196.23 3147V3128.82H4202.38C4203.8 3128.82 4204.96 3129.06 4205.87 3129.55C4206.79 3130.03 4207.46 3130.69 4207.9 3131.53C4208.34 3132.37 4208.56 3133.32 4208.56 3134.39C4208.56 3135.46 4208.34 3136.41 4207.9 3137.24C4207.46 3138.07 4206.79 3138.72 4205.88 3139.2C4204.98 3139.66 4203.82 3139.9 4202.41 3139.9H4197.44V3137.91H4202.34C4203.31 3137.91 4204.09 3137.77 4204.68 3137.48C4205.28 3137.2 4205.71 3136.8 4205.98 3136.28C4206.25 3135.75 4206.39 3135.12 4206.39 3134.39C4206.39 3133.67 4206.25 3133.03 4205.98 3132.48C4205.71 3131.94 4205.27 3131.52 4204.68 3131.22C4204.08 3130.92 4203.29 3130.77 4202.31 3130.77H4198.43V3147H4196.23ZM4204.79 3138.83L4209.27 3147H4206.71L4202.31 3138.83H4204.79Z" fill="black"/>
<path d="M4218.13 2422.82H4220.34V2434.86C4220.34 2436.1 4220.04 2437.21 4219.46 2438.19C4218.88 2439.16 4218.06 2439.92 4217 2440.49C4215.94 2441.04 4214.69 2441.32 4213.27 2441.32C4211.84 2441.32 4210.6 2441.04 4209.54 2440.49C4208.48 2439.92 4207.66 2439.16 4207.07 2438.19C4206.49 2437.21 4206.2 2436.1 4206.2 2434.86V2422.82H4208.4V2434.68C4208.4 2435.57 4208.6 2436.36 4208.99 2437.05C4209.38 2437.74 4209.94 2438.28 4210.66 2438.67C4211.39 2439.06 4212.26 2439.26 4213.27 2439.26C4214.28 2439.26 4215.15 2439.06 4215.88 2438.67C4216.61 2438.28 4217.16 2437.74 4217.55 2437.05C4217.94 2436.36 4218.13 2435.57 4218.13 2434.68V2422.82Z" fill="black"/>
<path d="M4196.23 3202V3183.82H4202.38C4203.8 3183.82 4204.96 3184.06 4205.87 3184.55C4206.79 3185.03 4207.46 3185.69 4207.9 3186.53C4208.34 3187.37 4208.56 3188.32 4208.56 3189.39C4208.56 3190.46 4208.34 3191.41 4207.9 3192.24C4207.46 3193.07 4206.79 3193.72 4205.88 3194.2C4204.98 3194.66 4203.82 3194.9 4202.41 3194.9H4197.44V3192.91H4202.34C4203.31 3192.91 4204.09 3192.77 4204.68 3192.48C4205.28 3192.2 4205.71 3191.8 4205.98 3191.28C4206.25 3190.75 4206.39 3190.12 4206.39 3189.39C4206.39 3188.67 4206.25 3188.03 4205.98 3187.48C4205.71 3186.94 4205.27 3186.52 4204.68 3186.22C4204.08 3185.92 4203.29 3185.77 4202.31 3185.77H4198.43V3202H4196.23ZM4204.79 3193.83L4209.27 3202H4206.71L4202.31 3193.83H4204.79Z" fill="black"/>
<path d="M4228.13 1544.82H4230.34V1556.86C4230.34 1558.1 4230.04 1559.21 4229.46 1560.19C4228.88 1561.16 4228.06 1561.92 4227 1562.49C4225.94 1563.04 4224.69 1563.32 4223.27 1563.32C4221.84 1563.32 4220.6 1563.04 4219.54 1562.49C4218.48 1561.92 4217.66 1561.16 4217.07 1560.19C4216.49 1559.21 4216.2 1558.1 4216.2 1556.86V1544.82H4218.4V1556.68C4218.4 1557.57 4218.6 1558.36 4218.99 1559.05C4219.38 1559.74 4219.94 1560.28 4220.66 1560.67C4221.39 1561.06 4222.26 1561.26 4223.27 1561.26C4224.28 1561.26 4225.15 1561.06 4225.88 1560.67C4226.61 1560.28 4227.16 1559.74 4227.55 1559.05C4227.94 1558.36 4228.13 1557.57 4228.13 1556.68V1544.82Z" fill="black"/>
<path d="M4208.13 3243.82H4210.34V3255.86C4210.34 3257.1 4210.04 3258.21 4209.46 3259.19C4208.88 3260.16 4208.06 3260.92 4207 3261.49C4205.94 3262.04 4204.69 3262.32 4203.27 3262.32C4201.84 3262.32 4200.6 3262.04 4199.54 3261.49C4198.48 3260.92 4197.66 3260.16 4197.07 3259.19C4196.49 3258.21 4196.2 3257.1 4196.2 3255.86V3243.82H4198.4V3255.68C4198.4 3256.57 4198.6 3257.36 4198.99 3258.05C4199.38 3258.74 4199.94 3259.28 4200.66 3259.67C4201.39 3260.06 4202.26 3260.26 4203.27 3260.26C4204.28 3260.26 4205.15 3260.06 4205.88 3259.67C4206.61 3259.28 4207.16 3258.74 4207.55 3258.05C4207.94 3257.36 4208.13 3256.57 4208.13 3255.68V3243.82Z" fill="black"/>
<path d="M4228.13 718.818H4230.34V730.857C4230.34 732.099 4230.04 733.209 4229.46 734.186C4228.88 735.156 4228.06 735.923 4227 736.485C4225.94 737.041 4224.69 737.32 4223.27 737.32C4221.84 737.32 4220.6 737.041 4219.54 736.485C4218.48 735.923 4217.66 735.156 4217.07 734.186C4216.49 733.209 4216.2 732.099 4216.2 730.857V718.818H4218.4V730.679C4218.4 731.567 4218.6 732.357 4218.99 733.049C4219.38 733.736 4219.94 734.277 4220.66 734.674C4221.39 735.065 4222.26 735.26 4223.27 735.26C4224.28 735.26 4225.15 735.065 4225.88 734.674C4226.61 734.277 4227.16 733.736 4227.55 733.049C4227.94 732.357 4228.13 731.567 4228.13 730.679V718.818Z" fill="black"/>
<g filter="url(#filter4_d_1_9)">
<rect x="4729" y="3226" width="144" height="58" fill="#D9D9D9" fill-opacity="0.48" shape-rendering="crispEdges"/>
<rect x="4730" y="3227" width="142" height="56" stroke="black" stroke-width="2" shape-rendering="crispEdges"/>
</g>
<g filter="url(#filter5_d_1_9)">
<rect x="4721" y="2402" width="144" height="58" fill="#D9D9D9" fill-opacity="0.48" shape-rendering="crispEdges"/>
<rect x="4722" y="2403" width="142" height="56" stroke="black" stroke-width="2" shape-rendering="crispEdges"/>
</g>
<path d="M4759.4 2421.82V2440H4757.2V2421.82H4759.4ZM4763.82 2440V2421.82H4769.96C4771.39 2421.82 4772.55 2422.08 4773.46 2422.59C4774.37 2423.1 4775.05 2423.79 4775.48 2424.66C4775.92 2425.53 4776.14 2426.5 4776.14 2427.57C4776.14 2428.64 4775.92 2429.62 4775.48 2430.49C4775.05 2431.37 4774.38 2432.07 4773.48 2432.59C4772.57 2433.1 4771.41 2433.36 4770 2433.36H4765.59V2431.41H4769.93C4770.9 2431.41 4771.69 2431.24 4772.28 2430.9C4772.87 2430.56 4773.3 2430.11 4773.57 2429.53C4773.84 2428.95 4773.97 2428.3 4773.97 2427.57C4773.97 2426.84 4773.84 2426.19 4773.57 2425.62C4773.3 2425.04 4772.87 2424.59 4772.27 2424.27C4771.67 2423.94 4770.88 2423.77 4769.89 2423.77H4766.02V2440H4763.82ZM4785.3 2440H4779.69V2421.82H4785.55C4787.31 2421.82 4788.82 2422.18 4790.07 2422.91C4791.33 2423.63 4792.29 2424.67 4792.96 2426.03C4793.63 2427.38 4793.96 2428.99 4793.96 2430.87C4793.96 2432.77 4793.63 2434.4 4792.95 2435.77C4792.28 2437.13 4791.29 2438.17 4790 2438.91C4788.71 2439.64 4787.14 2440 4785.3 2440ZM4781.89 2438.05H4785.16C4786.66 2438.05 4787.9 2437.76 4788.89 2437.18C4789.88 2436.6 4790.62 2435.77 4791.1 2434.7C4791.59 2433.63 4791.83 2432.35 4791.83 2430.87C4791.83 2429.41 4791.59 2428.14 4791.11 2427.08C4790.63 2426.02 4789.92 2425.2 4788.96 2424.63C4788.01 2424.06 4786.82 2423.77 4785.4 2423.77H4781.89V2438.05ZM4804.69 2440V2421.82H4811.04C4812.31 2421.82 4813.35 2422.04 4814.18 2422.48C4815 2422.91 4815.61 2423.49 4816.02 2424.22C4816.42 2424.95 4816.62 2425.76 4816.62 2426.65C4816.62 2427.43 4816.48 2428.07 4816.2 2428.58C4815.93 2429.09 4815.57 2429.49 4815.12 2429.79C4814.67 2430.09 4814.19 2430.31 4813.67 2430.45V2430.62C4814.23 2430.66 4814.79 2430.86 4815.35 2431.21C4815.91 2431.57 4816.38 2432.08 4816.76 2432.74C4817.14 2433.4 4817.33 2434.21 4817.33 2435.17C4817.33 2436.08 4817.12 2436.9 4816.71 2437.63C4816.29 2438.36 4815.64 2438.93 4814.75 2439.36C4813.85 2439.79 4812.69 2440 4811.26 2440H4804.69ZM4806.89 2438.05H4811.26C4812.69 2438.05 4813.72 2437.77 4814.32 2437.21C4814.93 2436.65 4815.23 2435.97 4815.23 2435.17C4815.23 2434.55 4815.08 2433.99 4814.76 2433.47C4814.45 2432.94 4814 2432.52 4813.42 2432.21C4812.84 2431.89 4812.16 2431.73 4811.36 2431.73H4806.89V2438.05ZM4806.89 2429.81H4810.97C4811.64 2429.81 4812.23 2429.68 4812.77 2429.42C4813.3 2429.16 4813.73 2428.79 4814.04 2428.32C4814.36 2427.84 4814.52 2427.29 4814.52 2426.65C4814.52 2425.85 4814.25 2425.17 4813.69 2424.61C4813.13 2424.05 4812.25 2423.77 4811.04 2423.77H4806.89V2429.81ZM4828.48 2429.93V2431.89H4820.52V2429.93H4828.48ZM4831.27 2440V2438.4L4837.27 2431.83C4837.98 2431.06 4838.56 2430.39 4839.01 2429.83C4839.47 2429.25 4839.81 2428.71 4840.03 2428.21C4840.25 2427.7 4840.36 2427.17 4840.36 2426.61C4840.36 2425.97 4840.21 2425.42 4839.9 2424.95C4839.6 2424.48 4839.18 2424.12 4838.66 2423.87C4838.13 2423.61 4837.54 2423.49 4836.88 2423.49C4836.18 2423.49 4835.57 2423.63 4835.05 2423.92C4834.54 2424.21 4834.14 2424.61 4833.86 2425.12C4833.58 2425.64 4833.44 2426.24 4833.44 2426.93H4831.34C4831.34 2425.87 4831.59 2424.93 4832.08 2424.13C4832.57 2423.32 4833.24 2422.69 4834.09 2422.24C4834.94 2421.79 4835.89 2421.57 4836.95 2421.57C4838.02 2421.57 4838.96 2421.79 4839.79 2422.24C4840.61 2422.69 4841.25 2423.3 4841.72 2424.06C4842.19 2424.83 4842.42 2425.68 4842.42 2426.61C4842.42 2427.28 4842.3 2427.94 4842.06 2428.57C4841.82 2429.21 4841.41 2429.91 4840.82 2430.7C4840.23 2431.47 4839.42 2432.42 4838.37 2433.54L4834.29 2437.9V2438.05H4842.74V2440H4831.27Z" fill="black"/>
<g filter="url(#filter6_d_1_9)">
<rect x="4725" y="1518" width="144" height="58" fill="#D9D9D9" fill-opacity="0.48" shape-rendering="crispEdges"/>
<rect x="4726" y="1519" width="142" height="56" stroke="black" stroke-width="2" shape-rendering="crispEdges"/>
</g>
<path d="M4758.4 1541.82V1560H4756.2V1541.82H4758.4ZM4762.82 1560V1541.82H4768.96C4770.39 1541.82 4771.55 1542.08 4772.46 1542.59C4773.37 1543.1 4774.05 1543.79 4774.48 1544.66C4774.92 1545.53 4775.14 1546.5 4775.14 1547.57C4775.14 1548.64 4774.92 1549.62 4774.48 1550.49C4774.05 1551.37 4773.38 1552.07 4772.48 1552.59C4771.57 1553.1 4770.41 1553.36 4769 1553.36H4764.59V1551.41H4768.93C4769.9 1551.41 4770.69 1551.24 4771.28 1550.9C4771.87 1550.56 4772.3 1550.11 4772.57 1549.53C4772.84 1548.95 4772.97 1548.3 4772.97 1547.57C4772.97 1546.84 4772.84 1546.19 4772.57 1545.62C4772.3 1545.04 4771.87 1544.59 4771.27 1544.27C4770.67 1543.94 4769.88 1543.77 4768.89 1543.77H4765.02V1560H4762.82ZM4784.3 1560H4778.69V1541.82H4784.55C4786.31 1541.82 4787.82 1542.18 4789.07 1542.91C4790.33 1543.63 4791.29 1544.67 4791.96 1546.03C4792.63 1547.38 4792.96 1548.99 4792.96 1550.87C4792.96 1552.77 4792.63 1554.4 4791.95 1555.77C4791.28 1557.13 4790.29 1558.17 4789 1558.91C4787.71 1559.64 4786.14 1560 4784.3 1560ZM4780.89 1558.05H4784.16C4785.66 1558.05 4786.9 1557.76 4787.89 1557.18C4788.88 1556.6 4789.62 1555.77 4790.1 1554.7C4790.59 1553.63 4790.83 1552.35 4790.83 1550.87C4790.83 1549.41 4790.59 1548.14 4790.11 1547.08C4789.63 1546.02 4788.92 1545.2 4787.96 1544.63C4787.01 1544.06 4785.82 1543.77 4784.4 1543.77H4780.89V1558.05ZM4803.69 1560V1541.82H4810.04C4811.31 1541.82 4812.35 1542.04 4813.18 1542.48C4814 1542.91 4814.61 1543.49 4815.02 1544.22C4815.42 1544.95 4815.62 1545.76 4815.62 1546.65C4815.62 1547.43 4815.48 1548.07 4815.2 1548.58C4814.93 1549.09 4814.57 1549.49 4814.12 1549.79C4813.67 1550.09 4813.19 1550.31 4812.67 1550.45V1550.62C4813.23 1550.66 4813.79 1550.86 4814.35 1551.21C4814.91 1551.57 4815.38 1552.08 4815.76 1552.74C4816.14 1553.4 4816.33 1554.21 4816.33 1555.17C4816.33 1556.08 4816.12 1556.9 4815.71 1557.63C4815.29 1558.36 4814.64 1558.93 4813.75 1559.36C4812.85 1559.79 4811.69 1560 4810.26 1560H4803.69ZM4805.89 1558.05H4810.26C4811.69 1558.05 4812.72 1557.77 4813.32 1557.21C4813.93 1556.65 4814.23 1555.97 4814.23 1555.17C4814.23 1554.55 4814.08 1553.99 4813.76 1553.47C4813.45 1552.94 4813 1552.52 4812.42 1552.21C4811.84 1551.89 4811.16 1551.73 4810.36 1551.73H4805.89V1558.05ZM4805.89 1549.81H4809.97C4810.64 1549.81 4811.23 1549.68 4811.77 1549.42C4812.3 1549.16 4812.73 1548.79 4813.04 1548.32C4813.36 1547.84 4813.52 1547.29 4813.52 1546.65C4813.52 1545.85 4813.25 1545.17 4812.69 1544.61C4812.13 1544.05 4811.25 1543.77 4810.04 1543.77H4805.89V1549.81ZM4827.48 1549.93V1551.89H4819.52V1549.93H4827.48ZM4836.98 1560.25C4835.8 1560.25 4834.76 1560.05 4833.84 1559.64C4832.93 1559.24 4832.21 1558.68 4831.67 1557.97C4831.14 1557.24 4830.85 1556.41 4830.8 1555.45H4833.03C4833.08 1556.04 4833.28 1556.55 4833.64 1556.97C4833.99 1557.39 4834.46 1557.72 4835.03 1557.95C4835.61 1558.18 4836.24 1558.3 4836.94 1558.3C4837.72 1558.3 4838.41 1558.16 4839.02 1557.89C4839.62 1557.61 4840.1 1557.24 4840.44 1556.75C4840.78 1556.27 4840.95 1555.7 4840.95 1555.06C4840.95 1554.4 4840.79 1553.81 4840.46 1553.3C4840.13 1552.78 4839.64 1552.38 4839 1552.09C4838.36 1551.8 4837.58 1551.65 4836.66 1551.65H4835.2V1549.7H4836.66C4837.38 1549.7 4838.01 1549.57 4838.56 1549.31C4839.11 1549.05 4839.54 1548.68 4839.84 1548.21C4840.16 1547.74 4840.31 1547.18 4840.31 1546.54C4840.31 1545.93 4840.18 1545.39 4839.91 1544.93C4839.63 1544.48 4839.25 1544.12 4838.75 1543.87C4838.26 1543.61 4837.68 1543.49 4837.01 1543.49C4836.38 1543.49 4835.79 1543.6 4835.24 1543.83C4834.69 1544.06 4834.24 1544.39 4833.89 1544.82C4833.54 1545.25 4833.35 1545.76 4833.32 1546.36H4831.19C4831.22 1545.41 4831.51 1544.58 4832.05 1543.86C4832.59 1543.14 4833.29 1542.58 4834.16 1542.17C4835.04 1541.77 4836 1541.57 4837.05 1541.57C4838.17 1541.57 4839.14 1541.8 4839.94 1542.25C4840.75 1542.7 4841.37 1543.3 4841.8 1544.04C4842.23 1544.78 4842.45 1545.58 4842.45 1546.43C4842.45 1547.46 4842.18 1548.33 4841.64 1549.05C4841.1 1549.78 4840.38 1550.28 4839.46 1550.55V1550.7C4840.61 1550.89 4841.51 1551.37 4842.15 1552.16C4842.8 1552.94 4843.12 1553.91 4843.12 1555.06C4843.12 1556.05 4842.85 1556.94 4842.31 1557.73C4841.78 1558.51 4841.05 1559.12 4840.13 1559.57C4839.21 1560.02 4838.15 1560.25 4836.98 1560.25Z" fill="black"/>
<path d="M4762.4 3243.82V3262H4760.2V3243.82H4762.4ZM4766.82 3262V3243.82H4772.96C4774.39 3243.82 4775.55 3244.08 4776.46 3244.59C4777.37 3245.1 4778.05 3245.79 4778.48 3246.66C4778.92 3247.53 4779.14 3248.5 4779.14 3249.57C4779.14 3250.64 4778.92 3251.62 4778.48 3252.49C4778.05 3253.37 4777.38 3254.07 4776.48 3254.59C4775.57 3255.1 4774.41 3255.36 4773 3255.36H4768.59V3253.41H4772.93C4773.9 3253.41 4774.69 3253.24 4775.28 3252.9C4775.87 3252.56 4776.3 3252.11 4776.57 3251.53C4776.84 3250.95 4776.97 3250.3 4776.97 3249.57C4776.97 3248.84 4776.84 3248.19 4776.57 3247.62C4776.3 3247.04 4775.87 3246.59 4775.27 3246.27C4774.67 3245.94 4773.88 3245.77 4772.89 3245.77H4769.02V3262H4766.82ZM4788.3 3262H4782.69V3243.82H4788.55C4790.31 3243.82 4791.82 3244.18 4793.07 3244.91C4794.33 3245.63 4795.29 3246.67 4795.96 3248.03C4796.63 3249.38 4796.96 3250.99 4796.96 3252.87C4796.96 3254.77 4796.63 3256.4 4795.95 3257.77C4795.28 3259.13 4794.29 3260.17 4793 3260.91C4791.71 3261.64 4790.14 3262 4788.3 3262ZM4784.89 3260.05H4788.16C4789.66 3260.05 4790.9 3259.76 4791.89 3259.18C4792.88 3258.6 4793.62 3257.77 4794.1 3256.7C4794.59 3255.63 4794.83 3254.35 4794.83 3252.87C4794.83 3251.41 4794.59 3250.14 4794.11 3249.08C4793.63 3248.02 4792.92 3247.2 4791.96 3246.63C4791.01 3246.06 4789.82 3245.77 4788.4 3245.77H4784.89V3260.05ZM4807.69 3262V3243.82H4814.04C4815.31 3243.82 4816.35 3244.04 4817.18 3244.48C4818 3244.91 4818.61 3245.49 4819.02 3246.22C4819.42 3246.95 4819.62 3247.76 4819.62 3248.65C4819.62 3249.43 4819.48 3250.07 4819.2 3250.58C4818.93 3251.09 4818.57 3251.49 4818.12 3251.79C4817.67 3252.09 4817.19 3252.31 4816.67 3252.45V3252.62C4817.23 3252.66 4817.79 3252.86 4818.35 3253.21C4818.91 3253.57 4819.38 3254.08 4819.76 3254.74C4820.14 3255.4 4820.33 3256.21 4820.33 3257.17C4820.33 3258.08 4820.12 3258.9 4819.71 3259.63C4819.29 3260.36 4818.64 3260.93 4817.75 3261.36C4816.85 3261.79 4815.69 3262 4814.26 3262H4807.69ZM4809.89 3260.05H4814.26C4815.69 3260.05 4816.72 3259.77 4817.32 3259.21C4817.93 3258.65 4818.23 3257.97 4818.23 3257.17C4818.23 3256.55 4818.08 3255.99 4817.76 3255.47C4817.45 3254.94 4817 3254.52 4816.42 3254.21C4815.84 3253.89 4815.16 3253.73 4814.36 3253.73H4809.89V3260.05ZM4809.89 3251.81H4813.97C4814.64 3251.81 4815.23 3251.68 4815.77 3251.42C4816.3 3251.16 4816.73 3250.79 4817.04 3250.32C4817.36 3249.84 4817.52 3249.29 4817.52 3248.65C4817.52 3247.85 4817.25 3247.17 4816.69 3246.61C4816.13 3246.05 4815.25 3245.77 4814.04 3245.77H4809.89V3251.81ZM4831.48 3251.93V3253.89H4823.52V3251.93H4831.48ZM4841.52 3243.82V3262H4839.32V3246.13H4839.21L4834.77 3249.07V3246.84L4839.32 3243.82H4841.52Z" fill="black"/>
<g filter="url(#filter7_d_1_9)">
<rect x="4725" y="700" width="144" height="58" fill="#D9D9D9" fill-opacity="0.48" shape-rendering="crispEdges"/>
<rect x="4726" y="701" width="142" height="56" stroke="black" stroke-width="2" shape-rendering="crispEdges"/>
</g>
<path d="M4756.4 718.818V737H4754.2V718.818H4756.4ZM4760.82 737V718.818H4766.96C4768.39 718.818 4769.55 719.076 4770.46 719.591C4771.37 720.1 4772.05 720.789 4772.48 721.659C4772.92 722.529 4773.14 723.5 4773.14 724.571C4773.14 725.642 4772.92 726.616 4772.48 727.492C4772.05 728.368 4771.38 729.066 4770.48 729.587C4769.57 730.102 4768.41 730.359 4767 730.359H4762.59V728.406H4766.93C4767.9 728.406 4768.69 728.238 4769.28 727.9C4769.87 727.563 4770.3 727.107 4770.57 726.533C4770.84 725.953 4770.97 725.299 4770.97 724.571C4770.97 723.843 4770.84 723.192 4770.57 722.618C4770.3 722.044 4769.87 721.594 4769.27 721.268C4768.67 720.937 4767.88 720.771 4766.89 720.771H4763.02V737H4760.82ZM4782.3 737H4776.69V718.818H4782.55C4784.31 718.818 4785.82 719.182 4787.07 719.91C4788.33 720.632 4789.29 721.671 4789.96 723.026C4790.63 724.376 4790.96 725.991 4790.96 727.874C4790.96 729.768 4790.63 731.398 4789.95 732.765C4789.28 734.127 4788.29 735.174 4787 735.908C4785.71 736.636 4784.14 737 4782.3 737ZM4778.89 735.047H4782.16C4783.66 735.047 4784.9 734.757 4785.89 734.177C4786.88 733.597 4787.62 732.771 4788.1 731.7C4788.59 730.629 4788.83 729.353 4788.83 727.874C4788.83 726.406 4788.59 725.142 4788.11 724.083C4787.63 723.017 4786.92 722.201 4785.96 721.632C4785.01 721.058 4783.82 720.771 4782.4 720.771H4778.89V735.047ZM4801.69 737V718.818H4808.04C4809.31 718.818 4810.35 719.037 4811.18 719.475C4812 719.907 4812.61 720.49 4813.02 721.224C4813.42 721.952 4813.62 722.76 4813.62 723.648C4813.62 724.429 4813.48 725.074 4813.2 725.583C4812.93 726.092 4812.57 726.495 4812.12 726.79C4811.67 727.086 4811.19 727.305 4810.67 727.447V727.625C4811.23 727.661 4811.79 727.856 4812.35 728.211C4812.91 728.566 4813.38 729.075 4813.76 729.738C4814.14 730.401 4814.33 731.212 4814.33 732.17C4814.33 733.082 4814.12 733.902 4813.71 734.63C4813.29 735.358 4812.64 735.935 4811.75 736.361C4810.85 736.787 4809.69 737 4808.26 737H4801.69ZM4803.89 735.047H4808.26C4809.69 735.047 4810.72 734.769 4811.32 734.212C4811.93 733.65 4812.23 732.969 4812.23 732.17C4812.23 731.555 4812.08 730.987 4811.76 730.466C4811.45 729.939 4811 729.519 4810.42 729.205C4809.84 728.886 4809.16 728.726 4808.36 728.726H4803.89V735.047ZM4803.89 726.808H4807.97C4808.64 726.808 4809.23 726.678 4809.77 726.418C4810.3 726.157 4810.73 725.79 4811.04 725.317C4811.36 724.843 4811.52 724.287 4811.52 723.648C4811.52 722.849 4811.25 722.171 4810.69 721.615C4810.13 721.052 4809.25 720.771 4808.04 720.771H4803.89V726.808ZM4825.48 726.933V728.886H4817.52V726.933H4825.48ZM4828.7 733.271V731.46L4836.69 718.818H4838V721.624H4837.12L4831.08 731.176V731.318H4841.84V733.271H4828.7ZM4837.26 737V732.721V731.877V718.818H4839.35V737H4837.26Z" fill="black"/>
<path d="M4925.13 2419.82H4927.34V2431.86C4927.34 2433.1 4927.04 2434.21 4926.46 2435.19C4925.88 2436.16 4925.06 2436.92 4924 2437.49C4922.94 2438.04 4921.69 2438.32 4920.27 2438.32C4918.84 2438.32 4917.6 2438.04 4916.54 2437.49C4915.48 2436.92 4914.66 2436.16 4914.07 2435.19C4913.49 2434.21 4913.2 2433.1 4913.2 2431.86V2419.82H4915.4V2431.68C4915.4 2432.57 4915.6 2433.36 4915.99 2434.05C4916.38 2434.74 4916.94 2435.28 4917.66 2435.67C4918.39 2436.06 4919.26 2436.26 4920.27 2436.26C4921.28 2436.26 4922.15 2436.06 4922.88 2435.67C4923.61 2435.28 4924.16 2434.74 4924.55 2434.05C4924.94 2433.36 4925.13 2432.57 4925.13 2431.68V2419.82Z" fill="black"/>
<path d="M4909.2 3265V3246.82H4915.35C4916.77 3246.82 4917.93 3247.06 4918.84 3247.55C4919.75 3248.03 4920.43 3248.69 4920.87 3249.53C4921.31 3250.37 4921.52 3251.32 4921.52 3252.39C4921.52 3253.46 4921.31 3254.41 4920.87 3255.24C4920.43 3256.07 4919.76 3256.72 4918.85 3257.2C4917.95 3257.66 4916.79 3257.9 4915.38 3257.9H4910.41V3255.91H4915.31C4916.28 3255.91 4917.06 3255.77 4917.65 3255.48C4918.25 3255.2 4918.68 3254.8 4918.95 3254.28C4919.22 3253.75 4919.36 3253.12 4919.36 3252.39C4919.36 3251.67 4919.22 3251.03 4918.95 3250.48C4918.68 3249.94 4918.24 3249.52 4917.64 3249.22C4917.05 3248.92 4916.26 3248.77 4915.27 3248.77H4911.4V3265H4909.2ZM4917.76 3256.83L4922.23 3265H4919.68L4915.27 3256.83H4917.76Z" fill="black"/>
<path d="M4912.2 2343V2324.82H4918.35C4919.77 2324.82 4920.93 2325.06 4921.84 2325.55C4922.75 2326.03 4923.43 2326.69 4923.87 2327.53C4924.31 2328.37 4924.52 2329.32 4924.52 2330.39C4924.52 2331.46 4924.31 2332.41 4923.87 2333.24C4923.43 2334.07 4922.76 2334.72 4921.85 2335.2C4920.95 2335.66 4919.79 2335.9 4918.38 2335.9H4913.41V2333.91H4918.31C4919.28 2333.91 4920.06 2333.77 4920.65 2333.48C4921.25 2333.2 4921.68 2332.8 4921.95 2332.28C4922.22 2331.75 4922.36 2331.12 4922.36 2330.39C4922.36 2329.67 4922.22 2329.03 4921.95 2328.48C4921.68 2327.94 4921.24 2327.52 4920.64 2327.22C4920.05 2326.92 4919.26 2326.77 4918.27 2326.77H4914.4V2343H4912.2ZM4920.76 2334.83L4925.23 2343H4922.68L4918.27 2334.83H4920.76Z" fill="black"/>
<path d="M4932.13 1530.82H4934.34V1542.86C4934.34 1544.1 4934.04 1545.21 4933.46 1546.19C4932.88 1547.16 4932.06 1547.92 4931 1548.49C4929.94 1549.04 4928.69 1549.32 4927.27 1549.32C4925.84 1549.32 4924.6 1549.04 4923.54 1548.49C4922.48 1547.92 4921.66 1547.16 4921.07 1546.19C4920.49 1545.21 4920.2 1544.1 4920.2 1542.86V1530.82H4922.4V1542.68C4922.4 1543.57 4922.6 1544.36 4922.99 1545.05C4923.38 1545.74 4923.94 1546.28 4924.66 1546.67C4925.39 1547.06 4926.26 1547.26 4927.27 1547.26C4928.28 1547.26 4929.15 1547.06 4929.88 1546.67C4930.61 1546.28 4931.16 1545.74 4931.55 1545.05C4931.94 1544.36 4932.13 1543.57 4932.13 1542.68V1530.82Z" fill="black"/>
<path d="M4932.13 721.818H4934.34V733.857C4934.34 735.099 4934.04 736.209 4933.46 737.186C4932.88 738.156 4932.06 738.923 4931 739.485C4929.94 740.041 4928.69 740.32 4927.27 740.32C4925.84 740.32 4924.6 740.041 4923.54 739.485C4922.48 738.923 4921.66 738.156 4921.07 737.186C4920.49 736.209 4920.2 735.099 4920.2 733.857V721.818H4922.4V733.679C4922.4 734.567 4922.6 735.357 4922.99 736.049C4923.38 736.736 4923.94 737.277 4924.66 737.674C4925.39 738.065 4926.26 738.26 4927.27 738.26C4928.28 738.26 4929.15 738.065 4929.88 737.674C4930.61 737.277 4931.16 736.736 4931.55 736.049C4931.94 735.357 4932.13 734.567 4932.13 733.679V721.818Z" fill="black"/>
<path d="M5294.2 487V468.818H5300.35C5301.77 468.818 5302.93 469.061 5303.84 469.546C5304.75 470.026 5305.43 470.685 5305.87 471.526C5306.31 472.366 5306.52 473.322 5306.52 474.393C5306.52 475.465 5306.31 476.415 5305.87 477.243C5305.43 478.072 5304.76 478.723 5303.85 479.196C5302.95 479.664 5301.79 479.898 5300.38 479.898H5295.41V477.909H5300.31C5301.28 477.909 5302.06 477.767 5302.65 477.483C5303.25 477.199 5303.68 476.796 5303.95 476.276C5304.22 475.749 5304.36 475.121 5304.36 474.393C5304.36 473.665 5304.22 473.029 5303.95 472.485C5303.68 471.94 5303.24 471.52 5302.64 471.224C5302.05 470.922 5301.26 470.771 5300.27 470.771H5296.4V487H5294.2ZM5302.76 478.832L5307.23 487H5304.68L5300.27 478.832H5302.76Z" fill="black"/>
<path d="M5294.2 3034V3015.82H5300.35C5301.77 3015.82 5302.93 3016.06 5303.84 3016.55C5304.75 3017.03 5305.43 3017.69 5305.87 3018.53C5306.31 3019.37 5306.52 3020.32 5306.52 3021.39C5306.52 3022.46 5306.31 3023.41 5305.87 3024.24C5305.43 3025.07 5304.76 3025.72 5303.85 3026.2C5302.95 3026.66 5301.79 3026.9 5300.38 3026.9H5295.41V3024.91H5300.31C5301.28 3024.91 5302.06 3024.77 5302.65 3024.48C5303.25 3024.2 5303.68 3023.8 5303.95 3023.28C5304.22 3022.75 5304.36 3022.12 5304.36 3021.39C5304.36 3020.67 5304.22 3020.03 5303.95 3019.48C5303.68 3018.94 5303.24 3018.52 5302.64 3018.22C5302.05 3017.92 5301.26 3017.77 5300.27 3017.77H5296.4V3034H5294.2ZM5302.76 3025.83L5307.23 3034H5304.68L5300.27 3025.83H5302.76Z" fill="black"/>
<path d="M5294.2 2196V2177.82H5300.35C5301.77 2177.82 5302.93 2178.06 5303.84 2178.55C5304.75 2179.03 5305.43 2179.69 5305.87 2180.53C5306.31 2181.37 5306.52 2182.32 5306.52 2183.39C5306.52 2184.46 5306.31 2185.41 5305.87 2186.24C5305.43 2187.07 5304.76 2187.72 5303.85 2188.2C5302.95 2188.66 5301.79 2188.9 5300.38 2188.9H5295.41V2186.91H5300.31C5301.28 2186.91 5302.06 2186.77 5302.65 2186.48C5303.25 2186.2 5303.68 2185.8 5303.95 2185.28C5304.22 2184.75 5304.36 2184.12 5304.36 2183.39C5304.36 2182.67 5304.22 2182.03 5303.95 2181.48C5303.68 2180.94 5303.24 2180.52 5302.64 2180.22C5302.05 2179.92 5301.26 2179.77 5300.27 2179.77H5296.4V2196H5294.2ZM5302.76 2187.83L5307.23 2196H5304.68L5300.27 2187.83H5302.76Z" fill="black"/>
<path d="M5294.2 2122V2103.82H5300.35C5301.77 2103.82 5302.93 2104.06 5303.84 2104.55C5304.75 2105.03 5305.43 2105.69 5305.87 2106.53C5306.31 2107.37 5306.52 2108.32 5306.52 2109.39C5306.52 2110.46 5306.31 2111.41 5305.87 2112.24C5305.43 2113.07 5304.76 2113.72 5303.85 2114.2C5302.95 2114.66 5301.79 2114.9 5300.38 2114.9H5295.41V2112.91H5300.31C5301.28 2112.91 5302.06 2112.77 5302.65 2112.48C5303.25 2112.2 5303.68 2111.8 5303.95 2111.28C5304.22 2110.75 5304.36 2110.12 5304.36 2109.39C5304.36 2108.67 5304.22 2108.03 5303.95 2107.48C5303.68 2106.94 5303.24 2106.52 5302.64 2106.22C5302.05 2105.92 5301.26 2105.77 5300.27 2105.77H5296.4V2122H5294.2ZM5302.76 2113.83L5307.23 2122H5304.68L5300.27 2113.83H5302.76Z" fill="black"/>
<path d="M5294.2 1258V1239.82H5300.35C5301.77 1239.82 5302.93 1240.06 5303.84 1240.55C5304.75 1241.03 5305.43 1241.69 5305.87 1242.53C5306.31 1243.37 5306.52 1244.32 5306.52 1245.39C5306.52 1246.46 5306.31 1247.41 5305.87 1248.24C5305.43 1249.07 5304.76 1249.72 5303.85 1250.2C5302.95 1250.66 5301.79 1250.9 5300.38 1250.9H5295.41V1248.91H5300.31C5301.28 1248.91 5302.06 1248.77 5302.65 1248.48C5303.25 1248.2 5303.68 1247.8 5303.95 1247.28C5304.22 1246.75 5304.36 1246.12 5304.36 1245.39C5304.36 1244.67 5304.22 1244.03 5303.95 1243.48C5303.68 1242.94 5303.24 1242.52 5302.64 1242.22C5302.05 1241.92 5301.26 1241.77 5300.27 1241.77H5296.4V1258H5294.2ZM5302.76 1249.83L5307.23 1258H5304.68L5300.27 1249.83H5302.76Z" fill="black"/>
<path d="M266.17 3287V3260.82H275.324C277.148 3260.82 278.652 3261.13 279.837 3261.76C281.021 3262.39 281.903 3263.23 282.483 3264.28C283.063 3265.33 283.352 3266.49 283.352 3267.77C283.352 3268.9 283.152 3269.83 282.751 3270.56C282.359 3271.29 281.839 3271.87 281.192 3272.3C280.553 3272.72 279.858 3273.04 279.108 3273.24V3273.5C279.909 3273.55 280.714 3273.83 281.524 3274.34C282.334 3274.86 283.011 3275.59 283.557 3276.54C284.102 3277.5 284.375 3278.66 284.375 3280.05C284.375 3281.36 284.077 3282.54 283.48 3283.59C282.884 3284.63 281.942 3285.47 280.655 3286.08C279.368 3286.69 277.693 3287 275.631 3287H266.17ZM269.341 3284.19H275.631C277.702 3284.19 279.172 3283.79 280.041 3282.99C280.919 3282.18 281.358 3281.2 281.358 3280.05C281.358 3279.16 281.132 3278.34 280.68 3277.59C280.229 3276.83 279.585 3276.23 278.75 3275.78C277.915 3275.32 276.926 3275.09 275.784 3275.09H269.341V3284.19ZM269.341 3272.32H275.222C276.176 3272.32 277.037 3272.14 277.804 3271.76C278.58 3271.39 279.193 3270.86 279.645 3270.18C280.105 3269.49 280.335 3268.69 280.335 3267.77C280.335 3266.62 279.935 3265.65 279.134 3264.85C278.332 3264.04 277.063 3263.63 275.324 3263.63H269.341V3272.32ZM294.954 3287.46C293.71 3287.46 292.58 3287.23 291.566 3286.76C290.552 3286.28 289.746 3285.59 289.15 3284.7C288.553 3283.8 288.255 3282.7 288.255 3281.43C288.255 3280.3 288.477 3279.39 288.92 3278.69C289.363 3277.98 289.955 3277.43 290.697 3277.03C291.438 3276.63 292.256 3276.33 293.151 3276.13C294.055 3275.93 294.962 3275.77 295.874 3275.65C297.067 3275.49 298.035 3275.38 298.776 3275.3C299.526 3275.22 300.072 3275.08 300.413 3274.88C300.762 3274.68 300.937 3274.34 300.937 3273.86V3273.76C300.937 3272.49 300.592 3271.51 299.901 3270.82C299.219 3270.12 298.184 3269.77 296.795 3269.77C295.354 3269.77 294.225 3270.08 293.407 3270.71C292.589 3271.34 292.013 3272.02 291.681 3272.73L288.817 3271.71C289.329 3270.52 290.011 3269.59 290.863 3268.92C291.724 3268.25 292.661 3267.78 293.675 3267.52C294.698 3267.24 295.704 3267.11 296.692 3267.11C297.323 3267.11 298.048 3267.18 298.866 3267.34C299.692 3267.48 300.489 3267.79 301.256 3268.25C302.032 3268.71 302.675 3269.4 303.187 3270.33C303.698 3271.26 303.954 3272.5 303.954 3274.06V3287H300.937V3284.34H300.783C300.579 3284.77 300.238 3285.22 299.761 3285.71C299.283 3286.19 298.648 3286.61 297.856 3286.95C297.063 3287.29 296.096 3287.46 294.954 3287.46ZM295.414 3284.75C296.607 3284.75 297.613 3284.52 298.431 3284.05C299.258 3283.58 299.88 3282.97 300.298 3282.23C300.724 3281.49 300.937 3280.71 300.937 3279.89V3277.13C300.809 3277.28 300.528 3277.42 300.093 3277.55C299.667 3277.67 299.173 3277.78 298.61 3277.87C298.056 3277.96 297.515 3278.03 296.987 3278.1C296.467 3278.16 296.045 3278.21 295.721 3278.26C294.937 3278.36 294.204 3278.52 293.522 3278.75C292.849 3278.98 292.303 3279.31 291.886 3279.76C291.477 3280.21 291.272 3280.81 291.272 3281.58C291.272 3282.63 291.66 3283.42 292.435 3283.96C293.219 3284.49 294.212 3284.75 295.414 3284.75ZM318 3267.36V3269.92H307.824V3267.36H318ZM310.79 3262.66H313.807V3281.38C313.807 3282.23 313.931 3282.87 314.178 3283.29C314.434 3283.71 314.757 3283.99 315.15 3284.14C315.55 3284.27 315.972 3284.34 316.415 3284.34C316.748 3284.34 317.02 3284.32 317.233 3284.29C317.446 3284.25 317.617 3284.21 317.745 3284.19L318.358 3286.9C318.154 3286.97 317.868 3287.05 317.502 3287.13C317.135 3287.21 316.671 3287.26 316.108 3287.26C315.256 3287.26 314.421 3287.07 313.603 3286.71C312.793 3286.34 312.12 3285.78 311.583 3285.03C311.054 3284.28 310.79 3283.34 310.79 3282.19V3262.66ZM331.078 3267.36V3269.92H320.902V3267.36H331.078ZM323.868 3262.66H326.885V3281.38C326.885 3282.23 327.009 3282.87 327.256 3283.29C327.512 3283.71 327.836 3283.99 328.228 3284.14C328.628 3284.27 329.05 3284.34 329.493 3284.34C329.826 3284.34 330.098 3284.32 330.311 3284.29C330.525 3284.25 330.695 3284.21 330.823 3284.19L331.436 3286.9C331.232 3286.97 330.946 3287.05 330.58 3287.13C330.213 3287.21 329.749 3287.26 329.186 3287.26C328.334 3287.26 327.499 3287.07 326.681 3286.71C325.871 3286.34 325.198 3285.78 324.661 3285.03C324.132 3284.28 323.868 3283.34 323.868 3282.19V3262.66ZM343.639 3287.41C341.747 3287.41 340.115 3286.99 338.743 3286.16C337.379 3285.31 336.326 3284.14 335.585 3282.63C334.852 3281.11 334.485 3279.35 334.485 3277.34C334.485 3275.32 334.852 3273.55 335.585 3272.02C336.326 3270.47 337.358 3269.27 338.679 3268.41C340.008 3267.54 341.559 3267.11 343.332 3267.11C344.355 3267.11 345.365 3267.28 346.362 3267.62C347.359 3267.96 348.267 3268.51 349.085 3269.28C349.903 3270.04 350.555 3271.05 351.041 3272.3C351.527 3273.55 351.77 3275.09 351.77 3276.93V3278.2H336.633V3275.6H348.701C348.701 3274.49 348.48 3273.5 348.037 3272.63C347.602 3271.76 346.98 3271.08 346.17 3270.57C345.369 3270.07 344.423 3269.82 343.332 3269.82C342.13 3269.82 341.091 3270.12 340.213 3270.71C339.343 3271.3 338.674 3272.07 338.206 3273.01C337.737 3273.96 337.502 3274.97 337.502 3276.06V3277.8C337.502 3279.28 337.758 3280.54 338.27 3281.57C338.789 3282.59 339.51 3283.37 340.43 3283.91C341.35 3284.43 342.42 3284.7 343.639 3284.7C344.431 3284.7 345.147 3284.59 345.787 3284.37C346.434 3284.14 346.993 3283.8 347.461 3283.34C347.93 3282.88 348.292 3282.31 348.548 3281.63L351.463 3282.45C351.156 3283.44 350.64 3284.31 349.916 3285.06C349.191 3285.8 348.297 3286.38 347.231 3286.8C346.166 3287.2 344.968 3287.41 343.639 3287.41ZM356.359 3287V3267.36H359.274V3270.33H359.478C359.836 3269.36 360.484 3268.57 361.422 3267.96C362.359 3267.36 363.416 3267.06 364.592 3267.06C364.814 3267.06 365.091 3267.06 365.423 3267.07C365.755 3267.08 366.007 3267.09 366.177 3267.11V3270.18C366.075 3270.15 365.841 3270.11 365.474 3270.06C365.116 3270 364.737 3269.97 364.336 3269.97C363.382 3269.97 362.529 3270.17 361.779 3270.57C361.038 3270.96 360.45 3271.51 360.015 3272.21C359.589 3272.9 359.376 3273.69 359.376 3274.57V3287H356.359ZM372.294 3294.36C371.783 3294.36 371.327 3294.32 370.926 3294.24C370.526 3294.16 370.249 3294.08 370.096 3294.01L370.863 3291.35C371.596 3291.53 372.243 3291.6 372.806 3291.55C373.368 3291.5 373.867 3291.25 374.301 3290.8C374.745 3290.35 375.15 3289.63 375.516 3288.64L376.078 3287.1L368.817 3267.36H372.09L377.51 3283.01H377.715L383.135 3267.36H386.408L378.073 3289.86C377.698 3290.88 377.233 3291.72 376.679 3292.38C376.125 3293.06 375.482 3293.55 374.749 3293.88C374.025 3294.2 373.206 3294.36 372.294 3294.36ZM390.799 3287V3260.82H399.646C401.691 3260.82 403.37 3261.17 404.683 3261.87C405.995 3262.56 406.967 3263.51 407.598 3264.72C408.228 3265.93 408.544 3267.3 408.544 3268.85C408.544 3270.39 408.228 3271.76 407.598 3272.95C406.967 3274.14 406 3275.08 404.696 3275.76C403.392 3276.44 401.725 3276.77 399.697 3276.77H392.538V3273.91H399.595C400.993 3273.91 402.118 3273.7 402.97 3273.3C403.831 3272.89 404.453 3272.31 404.836 3271.56C405.228 3270.8 405.424 3269.89 405.424 3268.85C405.424 3267.8 405.228 3266.88 404.836 3266.1C404.444 3265.31 403.818 3264.71 402.957 3264.28C402.096 3263.85 400.958 3263.63 399.544 3263.63H393.97V3287H390.799ZM403.123 3275.24L409.566 3287H405.885L399.544 3275.24H403.123ZM421.184 3287.41C419.411 3287.41 417.856 3286.99 416.518 3286.14C415.188 3285.3 414.148 3284.12 413.398 3282.6C412.657 3281.09 412.286 3279.31 412.286 3277.28C412.286 3275.24 412.657 3273.45 413.398 3271.93C414.148 3270.4 415.188 3269.22 416.518 3268.37C417.856 3267.53 419.411 3267.11 421.184 3267.11C422.957 3267.11 424.508 3267.53 425.837 3268.37C427.175 3269.22 428.215 3270.4 428.957 3271.93C429.707 3273.45 430.082 3275.24 430.082 3277.28C430.082 3279.31 429.707 3281.09 428.957 3282.6C428.215 3284.12 427.175 3285.3 425.837 3286.14C424.508 3286.99 422.957 3287.41 421.184 3287.41ZM421.184 3284.7C422.531 3284.7 423.638 3284.35 424.508 3283.66C425.377 3282.97 426.021 3282.07 426.438 3280.94C426.856 3279.82 427.065 3278.6 427.065 3277.28C427.065 3275.97 426.856 3274.75 426.438 3273.62C426.021 3272.48 425.377 3271.57 424.508 3270.87C423.638 3270.17 422.531 3269.82 421.184 3269.82C419.837 3269.82 418.729 3270.17 417.86 3270.87C416.991 3271.57 416.347 3272.48 415.93 3273.62C415.512 3274.75 415.303 3275.97 415.303 3277.28C415.303 3278.6 415.512 3279.82 415.93 3280.94C416.347 3282.07 416.991 3282.97 417.86 3283.66C418.729 3284.35 419.837 3284.7 421.184 3284.7ZM442.664 3287.41C440.892 3287.41 439.336 3286.99 437.998 3286.14C436.669 3285.3 435.629 3284.12 434.879 3282.6C434.137 3281.09 433.767 3279.31 433.767 3277.28C433.767 3275.24 434.137 3273.45 434.879 3271.93C435.629 3270.4 436.669 3269.22 437.998 3268.37C439.336 3267.53 440.892 3267.11 442.664 3267.11C444.437 3267.11 445.988 3267.53 447.318 3268.37C448.656 3269.22 449.696 3270.4 450.437 3271.93C451.187 3273.45 451.562 3275.24 451.562 3277.28C451.562 3279.31 451.187 3281.09 450.437 3282.6C449.696 3284.12 448.656 3285.3 447.318 3286.14C445.988 3286.99 444.437 3287.41 442.664 3287.41ZM442.664 3284.7C444.011 3284.7 445.119 3284.35 445.988 3283.66C446.858 3282.97 447.501 3282.07 447.919 3280.94C448.336 3279.82 448.545 3278.6 448.545 3277.28C448.545 3275.97 448.336 3274.75 447.919 3273.62C447.501 3272.48 446.858 3271.57 445.988 3270.87C445.119 3270.17 444.011 3269.82 442.664 3269.82C441.318 3269.82 440.21 3270.17 439.341 3270.87C438.471 3271.57 437.828 3272.48 437.41 3273.62C436.993 3274.75 436.784 3275.97 436.784 3277.28C436.784 3278.6 436.993 3279.82 437.41 3280.94C437.828 3282.07 438.471 3282.97 439.341 3283.66C440.21 3284.35 441.318 3284.7 442.664 3284.7ZM456.168 3287V3267.36H459.082V3270.43H459.338C459.747 3269.38 460.408 3268.57 461.32 3267.99C462.232 3267.4 463.327 3267.11 464.605 3267.11C465.901 3267.11 466.979 3267.4 467.839 3267.99C468.709 3268.57 469.386 3269.38 469.872 3270.43H470.077C470.58 3269.42 471.334 3268.61 472.339 3268.02C473.345 3267.41 474.551 3267.11 475.957 3267.11C477.713 3267.11 479.149 3267.66 480.266 3268.76C481.382 3269.85 481.94 3271.55 481.94 3273.86V3287H478.923V3273.86C478.923 3272.41 478.527 3271.37 477.734 3270.75C476.942 3270.13 476.009 3269.82 474.935 3269.82C473.554 3269.82 472.484 3270.24 471.726 3271.07C470.967 3271.9 470.588 3272.95 470.588 3274.22V3287H467.52V3273.55C467.52 3272.43 467.158 3271.54 466.433 3270.85C465.709 3270.16 464.776 3269.82 463.634 3269.82C462.849 3269.82 462.116 3270.03 461.435 3270.44C460.761 3270.86 460.216 3271.44 459.798 3272.18C459.389 3272.92 459.185 3273.76 459.185 3274.73V3287H456.168Z" fill="black"/>
<path d="M1819.4 393.596V426.323H1815.57L1797.74 400.627H1797.42V426.323H1793.45V393.596H1797.29L1815.19 419.356H1815.51V393.596H1819.4ZM1854.95 409.96C1854.95 413.411 1854.32 416.394 1853.08 418.909C1851.83 421.423 1850.12 423.362 1847.95 424.725C1845.78 426.089 1843.29 426.771 1840.5 426.771C1837.71 426.771 1835.23 426.089 1833.06 424.725C1830.88 423.362 1829.17 421.423 1827.93 418.909C1826.68 416.394 1826.06 413.411 1826.06 409.96C1826.06 406.508 1826.68 403.525 1827.93 401.011C1829.17 398.497 1830.88 396.558 1833.06 395.194C1835.23 393.83 1837.71 393.149 1840.5 393.149C1843.29 393.149 1845.78 393.83 1847.95 395.194C1850.12 396.558 1851.83 398.497 1853.08 401.011C1854.32 403.525 1854.95 406.508 1854.95 409.96ZM1851.11 409.96C1851.11 407.126 1850.64 404.734 1849.69 402.785C1848.75 400.835 1847.48 399.36 1845.87 398.358C1844.27 397.357 1842.48 396.856 1840.5 396.856C1838.52 396.856 1836.73 397.357 1835.12 398.358C1833.52 399.36 1832.25 400.835 1831.3 402.785C1830.36 404.734 1829.89 407.126 1829.89 409.96C1829.89 412.794 1830.36 415.185 1831.3 417.135C1832.25 419.084 1833.52 420.56 1835.12 421.561C1836.73 422.563 1838.52 423.063 1840.5 423.063C1842.48 423.063 1844.27 422.563 1845.87 421.561C1847.48 420.56 1848.75 419.084 1849.69 417.135C1850.64 415.185 1851.11 412.794 1851.11 409.96ZM1887.95 403.823H1883.98C1883.75 402.683 1883.34 401.682 1882.75 400.819C1882.18 399.956 1881.47 399.232 1880.64 398.646C1879.82 398.049 1878.91 397.602 1877.91 397.303C1876.91 397.005 1875.87 396.856 1874.78 396.856C1872.8 396.856 1871 397.357 1869.39 398.358C1867.8 399.36 1866.52 400.835 1865.57 402.785C1864.64 404.734 1864.17 407.126 1864.17 409.96C1864.17 412.794 1864.64 415.185 1865.57 417.135C1866.52 419.084 1867.8 420.56 1869.39 421.561C1871 422.563 1872.8 423.063 1874.78 423.063C1875.87 423.063 1876.91 422.914 1877.91 422.616C1878.91 422.318 1879.82 421.876 1880.64 421.29C1881.47 420.693 1882.18 419.963 1882.75 419.1C1883.34 418.227 1883.75 417.225 1883.98 416.096H1887.95C1887.65 417.769 1887.11 419.265 1886.32 420.587C1885.53 421.908 1884.55 423.031 1883.38 423.958C1882.2 424.875 1880.89 425.572 1879.43 426.052C1877.98 426.531 1876.43 426.771 1874.78 426.771C1871.99 426.771 1869.51 426.089 1867.33 424.725C1865.16 423.362 1863.45 421.423 1862.2 418.909C1860.96 416.394 1860.33 413.411 1860.33 409.96C1860.33 406.508 1860.96 403.525 1862.2 401.011C1863.45 398.497 1865.16 396.558 1867.33 395.194C1869.51 393.83 1871.99 393.149 1874.78 393.149C1876.43 393.149 1877.98 393.388 1879.43 393.868C1880.89 394.347 1882.2 395.05 1883.38 395.977C1884.55 396.893 1885.53 398.012 1886.32 399.333C1887.11 400.643 1887.65 402.14 1887.95 403.823ZM1654.23 480.323V447.596H1673.99V451.112H1658.2V462.17H1672.96V465.686H1658.2V476.808H1674.24V480.323H1654.23ZM1683.43 455.778L1689.31 465.813L1695.19 455.778H1699.54L1691.61 468.051L1699.54 480.323H1695.19L1689.31 470.799L1683.43 480.323H1679.08L1686.88 468.051L1679.08 455.778H1683.43ZM1713.88 480.835C1711.58 480.835 1709.6 480.291 1707.93 479.205C1706.27 478.118 1704.99 476.621 1704.1 474.714C1703.2 472.807 1702.76 470.629 1702.76 468.178C1702.76 465.686 1703.22 463.486 1704.13 461.579C1705.06 459.661 1706.35 458.164 1708 457.088C1709.66 456.002 1711.6 455.458 1713.82 455.458C1715.54 455.458 1717.1 455.778 1718.48 456.417C1719.87 457.056 1721 457.951 1721.89 459.102C1722.77 460.252 1723.32 461.595 1723.53 463.129H1719.76C1719.47 462.01 1718.83 461.019 1717.84 460.156C1716.86 459.283 1715.54 458.846 1713.88 458.846C1712.41 458.846 1711.12 459.23 1710.01 459.997C1708.91 460.753 1708.06 461.824 1707.44 463.209C1706.83 464.583 1706.53 466.197 1706.53 468.051C1706.53 469.947 1706.83 471.598 1707.42 473.004C1708.03 474.411 1708.88 475.503 1709.98 476.28C1711.09 477.058 1712.39 477.447 1713.88 477.447C1714.86 477.447 1715.75 477.276 1716.55 476.936C1717.35 476.595 1718.02 476.105 1718.58 475.465C1719.13 474.826 1719.53 474.059 1719.76 473.164H1723.53C1723.32 474.613 1722.79 475.918 1721.95 477.079C1721.12 478.23 1720.02 479.146 1718.64 479.828C1717.28 480.499 1715.69 480.835 1713.88 480.835ZM1732.82 447.596V480.323H1729.04V447.596H1732.82ZM1755.19 470.288V455.778H1758.96V480.323H1755.19V476.169H1754.94C1754.36 477.415 1753.47 478.475 1752.25 479.349C1751.04 480.212 1749.5 480.643 1747.65 480.643C1746.12 480.643 1744.75 480.307 1743.56 479.636C1742.37 478.954 1741.43 477.932 1740.75 476.568C1740.06 475.194 1739.72 473.463 1739.72 471.375V455.778H1743.49V471.119C1743.49 472.909 1744 474.336 1745 475.401C1746.01 476.467 1747.3 477 1748.86 477C1749.8 477 1750.75 476.76 1751.72 476.28C1752.7 475.801 1753.52 475.066 1754.19 474.075C1754.86 473.084 1755.19 471.822 1755.19 470.288ZM1775.14 480.835C1773.09 480.835 1771.29 480.318 1769.72 479.285C1768.16 478.241 1766.93 476.77 1766.05 474.874C1765.16 472.967 1764.72 470.714 1764.72 468.115C1764.72 465.536 1765.16 463.299 1766.05 461.403C1766.93 459.507 1768.16 458.042 1769.74 457.008C1771.31 455.975 1773.14 455.458 1775.2 455.458C1776.8 455.458 1778.06 455.725 1778.99 456.257C1779.93 456.779 1780.64 457.376 1781.13 458.047C1781.63 458.708 1782.02 459.251 1782.3 459.677H1782.62V447.596H1786.39V480.323H1782.75V476.552H1782.3C1782.02 477 1781.63 477.564 1781.12 478.246C1780.6 478.917 1779.87 479.519 1778.93 480.052C1777.98 480.574 1776.72 480.835 1775.14 480.835ZM1775.65 477.447C1777.16 477.447 1778.44 477.053 1779.49 476.264C1780.53 475.465 1781.32 474.363 1781.87 472.957C1782.41 471.54 1782.68 469.904 1782.68 468.051C1782.68 466.218 1782.42 464.615 1781.88 463.241C1781.35 461.856 1780.56 460.78 1779.52 460.013C1778.47 459.235 1777.18 458.846 1775.65 458.846C1774.05 458.846 1772.72 459.256 1771.66 460.077C1770.6 460.886 1769.81 461.989 1769.27 463.384C1768.75 464.769 1768.49 466.325 1768.49 468.051C1768.49 469.798 1768.76 471.385 1769.29 472.813C1769.83 474.23 1770.63 475.359 1771.69 476.2C1772.75 477.031 1774.07 477.447 1775.65 477.447ZM1804.11 480.835C1801.75 480.835 1799.71 480.313 1797.99 479.269C1796.29 478.214 1794.97 476.744 1794.04 474.858C1793.13 472.962 1792.67 470.757 1792.67 468.242C1792.67 465.728 1793.13 463.512 1794.04 461.595C1794.97 459.666 1796.26 458.164 1797.91 457.088C1799.57 456.002 1801.51 455.458 1803.73 455.458C1805.01 455.458 1806.27 455.671 1807.51 456.098C1808.76 456.524 1809.9 457.216 1810.92 458.175C1811.94 459.123 1812.76 460.38 1813.36 461.946C1813.97 463.512 1814.27 465.441 1814.27 467.731V469.329H1795.35V466.069H1810.44C1810.44 464.684 1810.16 463.448 1809.61 462.362C1809.07 461.275 1808.29 460.417 1807.28 459.789C1806.27 459.16 1805.09 458.846 1803.73 458.846C1802.23 458.846 1800.93 459.219 1799.83 459.965C1798.74 460.7 1797.91 461.659 1797.32 462.841C1796.73 464.024 1796.44 465.291 1796.44 466.644V468.818C1796.44 470.671 1796.76 472.243 1797.4 473.532C1798.05 474.81 1798.95 475.785 1800.1 476.456C1801.25 477.117 1802.59 477.447 1804.11 477.447C1805.1 477.447 1806 477.308 1806.8 477.031C1807.61 476.744 1808.3 476.318 1808.89 475.753C1809.48 475.178 1809.93 474.464 1810.25 473.612L1813.89 474.634C1813.51 475.87 1812.86 476.957 1811.96 477.894C1811.05 478.821 1809.93 479.546 1808.6 480.068C1807.27 480.579 1805.77 480.835 1804.11 480.835ZM1829.28 480.835C1827.23 480.835 1825.43 480.318 1823.86 479.285C1822.3 478.241 1821.07 476.77 1820.19 474.874C1819.3 472.967 1818.86 470.714 1818.86 468.115C1818.86 465.536 1819.3 463.299 1820.19 461.403C1821.07 459.507 1822.3 458.042 1823.88 457.008C1825.46 455.975 1827.28 455.458 1829.34 455.458C1830.94 455.458 1832.2 455.725 1833.13 456.257C1834.07 456.779 1834.78 457.376 1835.27 458.047C1835.77 458.708 1836.16 459.251 1836.44 459.677H1836.76V447.596H1840.53V480.323H1836.89V476.552H1836.44C1836.16 477 1835.77 477.564 1835.26 478.246C1834.75 478.917 1834.02 479.519 1833.07 480.052C1832.12 480.574 1830.86 480.835 1829.28 480.835ZM1829.79 477.447C1831.3 477.447 1832.58 477.053 1833.63 476.264C1834.67 475.465 1835.46 474.363 1836.01 472.957C1836.55 471.54 1836.82 469.904 1836.82 468.051C1836.82 466.218 1836.56 464.615 1836.02 463.241C1835.49 461.856 1834.7 460.78 1833.66 460.013C1832.61 459.235 1831.33 458.846 1829.79 458.846C1828.19 458.846 1826.86 459.256 1825.8 460.077C1824.74 460.886 1823.95 461.989 1823.42 463.384C1822.89 464.769 1822.63 466.325 1822.63 468.051C1822.63 469.798 1822.9 471.385 1823.43 472.813C1823.97 474.23 1824.77 475.359 1825.83 476.2C1826.89 477.031 1828.21 477.447 1829.79 477.447ZM1870.59 480.835C1868.29 480.835 1866.31 480.291 1864.64 479.205C1862.98 478.118 1861.7 476.621 1860.81 474.714C1859.91 472.807 1859.47 470.629 1859.47 468.178C1859.47 465.686 1859.92 463.486 1860.84 461.579C1861.77 459.661 1863.06 458.164 1864.71 457.088C1866.37 456.002 1868.31 455.458 1870.52 455.458C1872.25 455.458 1873.81 455.778 1875.19 456.417C1876.58 457.056 1877.71 457.951 1878.59 459.102C1879.48 460.252 1880.03 461.595 1880.24 463.129H1876.47C1876.18 462.01 1875.54 461.019 1874.55 460.156C1873.57 459.283 1872.25 458.846 1870.59 458.846C1869.12 458.846 1867.83 459.23 1866.72 459.997C1865.62 460.753 1864.77 461.824 1864.15 463.209C1863.54 464.583 1863.24 466.197 1863.24 468.051C1863.24 469.947 1863.54 471.598 1864.13 473.004C1864.74 474.411 1865.59 475.503 1866.69 476.28C1867.8 477.058 1869.1 477.447 1870.59 477.447C1871.57 477.447 1872.46 477.276 1873.26 476.936C1874.06 476.595 1874.73 476.105 1875.29 475.465C1875.84 474.826 1876.23 474.059 1876.47 473.164H1880.24C1880.03 474.613 1879.5 475.918 1878.66 477.079C1877.83 478.23 1876.72 479.146 1875.35 479.828C1873.99 480.499 1872.4 480.835 1870.59 480.835ZM1892.98 480.899C1891.42 480.899 1890.01 480.606 1888.74 480.02C1887.47 479.423 1886.47 478.566 1885.72 477.447C1884.98 476.318 1884.6 474.954 1884.6 473.356C1884.6 471.95 1884.88 470.81 1885.43 469.936C1885.99 469.052 1886.73 468.36 1887.66 467.859C1888.58 467.358 1889.6 466.985 1890.72 466.74C1891.85 466.485 1892.99 466.282 1894.13 466.133C1895.62 465.941 1896.83 465.797 1897.75 465.702C1898.69 465.595 1899.37 465.419 1899.8 465.174C1900.24 464.929 1900.46 464.503 1900.46 463.896V463.768C1900.46 462.191 1900.02 460.966 1899.16 460.093C1898.31 459.219 1897.01 458.782 1895.28 458.782C1893.48 458.782 1892.07 459.176 1891.04 459.965C1890.02 460.753 1889.3 461.595 1888.89 462.49L1885.31 461.211C1885.95 459.72 1886.8 458.558 1887.86 457.727C1888.94 456.886 1890.11 456.3 1891.38 455.97C1892.66 455.629 1893.91 455.458 1895.15 455.458C1895.94 455.458 1896.84 455.554 1897.87 455.746C1898.9 455.927 1899.9 456.305 1900.85 456.881C1901.82 457.456 1902.63 458.324 1903.27 459.485C1903.91 460.647 1904.23 462.202 1904.23 464.151V480.323H1900.46V477H1900.26C1900.01 477.532 1899.58 478.102 1898.99 478.709C1898.39 479.317 1897.59 479.833 1896.6 480.259C1895.61 480.686 1894.4 480.899 1892.98 480.899ZM1893.55 477.511C1895.04 477.511 1896.3 477.218 1897.32 476.632C1898.36 476.046 1899.13 475.29 1899.66 474.363C1900.19 473.436 1900.46 472.461 1900.46 471.438V467.987C1900.3 468.178 1899.94 468.354 1899.4 468.514C1898.87 468.663 1898.25 468.796 1897.55 468.914C1896.85 469.02 1896.18 469.116 1895.52 469.201C1894.87 469.276 1894.34 469.34 1893.94 469.393C1892.96 469.521 1892.04 469.729 1891.19 470.016C1890.35 470.293 1889.66 470.714 1889.14 471.279C1888.63 471.833 1888.37 472.589 1888.37 473.548C1888.37 474.858 1888.86 475.849 1889.83 476.52C1890.81 477.181 1892.05 477.511 1893.55 477.511ZM1911.62 480.323V447.596H1915.39V459.677H1915.71C1915.99 459.251 1916.37 458.708 1916.86 458.047C1917.36 457.376 1918.08 456.779 1919 456.257C1919.94 455.725 1921.21 455.458 1922.81 455.458C1924.87 455.458 1926.7 455.975 1928.27 457.008C1929.85 458.042 1931.08 459.507 1931.96 461.403C1932.85 463.299 1933.29 465.536 1933.29 468.115C1933.29 470.714 1932.85 472.967 1931.96 474.874C1931.08 476.77 1929.85 478.241 1928.29 479.285C1926.72 480.318 1924.92 480.835 1922.87 480.835C1921.29 480.835 1920.03 480.574 1919.08 480.052C1918.14 479.519 1917.41 478.917 1916.89 478.246C1916.38 477.564 1915.99 477 1915.71 476.552H1915.26V480.323H1911.62ZM1915.33 468.051C1915.33 469.904 1915.6 471.54 1916.14 472.957C1916.69 474.363 1917.48 475.465 1918.52 476.264C1919.57 477.053 1920.85 477.447 1922.36 477.447C1923.94 477.447 1925.25 477.031 1926.31 476.2C1927.37 475.359 1928.17 474.23 1928.7 472.813C1929.25 471.385 1929.52 469.798 1929.52 468.051C1929.52 466.325 1929.25 464.769 1928.72 463.384C1928.2 461.989 1927.4 460.886 1926.34 460.077C1925.28 459.256 1923.96 458.846 1922.36 458.846C1920.83 458.846 1919.54 459.235 1918.49 460.013C1917.45 460.78 1916.66 461.856 1916.13 463.241C1915.6 464.615 1915.33 466.218 1915.33 468.051ZM1939.57 480.323V447.596H1959.32V451.112H1943.53V462.17H1958.3V465.686H1943.53V476.808H1959.58V480.323H1939.57ZM1978.16 480.323L1983.53 447.596H1986.73L1981.36 480.323H1978.16ZM1963.27 471.247L1963.78 468.051H1988.2L1987.69 471.247H1963.27ZM1966.66 480.323L1972.03 447.596H1975.22L1969.85 480.323H1966.66ZM1965.19 459.869L1965.7 456.673H1990.12L1989.6 459.869H1965.19ZM2008.34 463.96C2008.34 459.933 2008.86 456.231 2009.91 452.854C2010.96 449.466 2012.46 446.35 2014.41 443.505H2017.74C2016.97 444.56 2016.25 445.86 2015.58 447.404C2014.92 448.938 2014.34 450.627 2013.84 452.47C2013.34 454.302 2012.94 456.199 2012.66 458.159C2012.38 460.119 2012.24 462.053 2012.24 463.96C2012.24 466.495 2012.49 469.068 2012.98 471.678C2013.47 474.288 2014.13 476.712 2014.96 478.949C2015.79 481.186 2016.71 483.008 2017.74 484.414H2014.41C2012.46 481.57 2010.96 478.459 2009.91 475.082C2008.86 471.694 2008.34 467.987 2008.34 463.96ZM2022.47 473.612V470.352L2036.85 447.596H2039.22V452.646H2037.62L2026.75 469.84V470.096H2046.12V473.612H2022.47ZM2037.88 480.323V472.621V471.103V447.596H2041.65V480.323H2037.88ZM2062.79 480.771C2060.38 480.771 2058.33 480.116 2056.63 478.805C2054.94 477.484 2053.64 475.572 2052.75 473.068C2051.85 470.554 2051.41 467.518 2051.41 463.96C2051.41 460.423 2051.85 457.403 2052.75 454.899C2053.66 452.385 2054.96 450.467 2056.65 449.146C2058.35 447.814 2060.4 447.149 2062.79 447.149C2065.17 447.149 2067.21 447.814 2068.91 449.146C2070.61 450.467 2071.91 452.385 2072.8 454.899C2073.71 457.403 2074.16 460.423 2074.16 463.96C2074.16 467.518 2073.72 470.554 2072.82 473.068C2071.93 475.572 2070.63 477.484 2068.94 478.805C2067.24 480.116 2065.19 480.771 2062.79 480.771ZM2062.79 477.255C2065.17 477.255 2067.03 476.105 2068.35 473.803C2069.67 471.502 2070.33 468.221 2070.33 463.96C2070.33 461.126 2070.02 458.713 2069.42 456.721C2068.82 454.729 2067.96 453.21 2066.83 452.166C2065.71 451.122 2064.36 450.6 2062.79 450.6C2060.42 450.6 2058.57 451.767 2057.24 454.1C2055.91 456.422 2055.24 459.709 2055.24 463.96C2055.24 466.794 2055.54 469.201 2056.14 471.183C2056.73 473.164 2057.59 474.672 2058.71 475.705C2059.84 476.738 2061.2 477.255 2062.79 477.255ZM2088.35 463.96C2088.35 467.987 2087.83 471.694 2086.77 475.082C2085.73 478.459 2084.23 481.57 2082.28 484.414H2078.96C2079.72 483.36 2080.44 482.06 2081.1 480.515C2081.77 478.981 2082.36 477.298 2082.86 475.465C2083.36 473.622 2083.75 471.721 2084.02 469.761C2084.31 467.79 2084.45 465.856 2084.45 463.96C2084.45 461.424 2084.21 458.851 2083.72 456.241C2083.23 453.631 2082.57 451.208 2081.74 448.97C2080.91 446.733 2079.98 444.911 2078.96 443.505H2082.28C2084.23 446.35 2085.73 449.466 2086.77 452.854C2087.83 456.231 2088.35 459.933 2088.35 463.96Z" fill="black"/>
<path d="M276.347 2865.91C276.151 2864.25 275.356 2862.97 273.962 2862.05C272.568 2861.14 270.858 2860.68 268.832 2860.68C267.351 2860.68 266.055 2860.92 264.945 2861.4C263.845 2861.88 262.984 2862.54 262.364 2863.38C261.754 2864.22 261.449 2865.17 261.449 2866.24C261.449 2867.13 261.661 2867.9 262.086 2868.54C262.522 2869.17 263.077 2869.7 263.752 2870.12C264.427 2870.54 265.135 2870.88 265.876 2871.15C266.616 2871.41 267.297 2871.63 267.918 2871.79L271.315 2872.7C272.187 2872.93 273.156 2873.25 274.223 2873.65C275.301 2874.05 276.33 2874.6 277.31 2875.3C278.301 2875.99 279.118 2876.87 279.761 2877.95C280.403 2879.03 280.724 2880.35 280.724 2881.92C280.724 2883.73 280.251 2885.36 279.303 2886.82C278.367 2888.28 276.995 2889.44 275.187 2890.3C273.39 2891.16 271.206 2891.59 268.636 2891.59C266.241 2891.59 264.166 2891.2 262.413 2890.43C260.67 2889.66 259.298 2888.58 258.296 2887.19C257.305 2885.81 256.744 2884.2 256.614 2882.38H260.795C260.904 2883.64 261.329 2884.68 262.07 2885.51C262.821 2886.33 263.768 2886.94 264.912 2887.34C266.066 2887.73 267.308 2887.93 268.636 2887.93C270.183 2887.93 271.571 2887.68 272.802 2887.18C274.032 2886.67 275.007 2885.96 275.726 2885.05C276.445 2884.14 276.804 2883.07 276.804 2881.85C276.804 2880.74 276.494 2879.84 275.873 2879.14C275.252 2878.44 274.435 2877.88 273.423 2877.44C272.41 2877.01 271.315 2876.62 270.139 2876.3L266.023 2875.12C263.409 2874.37 261.34 2873.3 259.815 2871.9C258.291 2870.51 257.528 2868.69 257.528 2866.43C257.528 2864.56 258.035 2862.93 259.048 2861.53C260.071 2860.13 261.443 2859.04 263.164 2858.26C264.896 2857.48 266.829 2857.09 268.963 2857.09C271.119 2857.09 273.036 2857.47 274.713 2858.25C276.39 2859.01 277.719 2860.06 278.699 2861.38C279.69 2862.71 280.213 2864.22 280.267 2865.91H276.347ZM297.774 2865.91V2869.18H284.771V2865.91H297.774ZM288.561 2859.9H292.416V2883.81C292.416 2884.9 292.574 2885.72 292.89 2886.26C293.217 2886.8 293.631 2887.16 294.132 2887.34C294.643 2887.52 295.182 2887.6 295.749 2887.6C296.173 2887.6 296.522 2887.58 296.794 2887.54C297.066 2887.48 297.284 2887.44 297.448 2887.41L298.232 2890.87C297.97 2890.97 297.606 2891.07 297.137 2891.16C296.669 2891.27 296.075 2891.33 295.357 2891.33C294.268 2891.33 293.2 2891.09 292.155 2890.62C291.12 2890.16 290.26 2889.44 289.574 2888.48C288.899 2887.53 288.561 2886.32 288.561 2884.86V2859.9ZM313.497 2891.52C311.232 2891.52 309.244 2890.98 307.535 2889.91C305.836 2888.83 304.507 2887.32 303.549 2885.38C302.601 2883.44 302.128 2881.18 302.128 2878.59C302.128 2875.97 302.601 2873.69 303.549 2871.74C304.507 2869.79 305.836 2868.28 307.535 2867.2C309.244 2866.12 311.232 2865.58 313.497 2865.58C315.762 2865.58 317.744 2866.12 319.443 2867.2C321.153 2868.28 322.481 2869.79 323.429 2871.74C324.387 2873.69 324.866 2875.97 324.866 2878.59C324.866 2881.18 324.387 2883.44 323.429 2885.38C322.481 2887.32 321.153 2888.83 319.443 2889.91C317.744 2890.98 315.762 2891.52 313.497 2891.52ZM313.497 2888.06C315.218 2888.06 316.633 2887.62 317.744 2886.74C318.855 2885.85 319.677 2884.69 320.211 2883.26C320.744 2881.82 321.011 2880.26 321.011 2878.59C321.011 2876.91 320.744 2875.35 320.211 2873.9C319.677 2872.45 318.855 2871.28 317.744 2870.38C316.633 2869.49 315.218 2869.05 313.497 2869.05C311.776 2869.05 310.361 2869.49 309.25 2870.38C308.139 2871.28 307.317 2872.45 306.783 2873.9C306.25 2875.35 305.983 2876.91 305.983 2878.59C305.983 2880.26 306.25 2881.82 306.783 2883.26C307.317 2884.69 308.139 2885.85 309.25 2886.74C310.361 2887.62 311.776 2888.06 313.497 2888.06ZM330.751 2891V2865.91H334.475V2869.7H334.737C335.194 2868.46 336.022 2867.45 337.22 2866.68C338.418 2865.9 339.768 2865.52 341.271 2865.52C341.554 2865.52 341.908 2865.52 342.333 2865.53C342.757 2865.54 343.079 2865.56 343.297 2865.58V2869.5C343.166 2869.47 342.866 2869.42 342.398 2869.36C341.941 2869.28 341.456 2869.24 340.944 2869.24C339.725 2869.24 338.636 2869.5 337.677 2870.01C336.73 2870.51 335.978 2871.21 335.423 2872.1C334.878 2872.98 334.606 2873.99 334.606 2875.12V2891H330.751ZM355.25 2891.59C353.66 2891.59 352.217 2891.29 350.921 2890.69C349.625 2890.08 348.596 2889.2 347.834 2888.06C347.071 2886.91 346.69 2885.51 346.69 2883.88C346.69 2882.44 346.973 2881.28 347.54 2880.38C348.106 2879.48 348.863 2878.77 349.81 2878.26C350.758 2877.75 351.803 2877.37 352.947 2877.12C354.101 2876.85 355.261 2876.65 356.426 2876.49C357.951 2876.3 359.187 2876.15 360.134 2876.05C361.092 2875.94 361.789 2875.76 362.225 2875.51C362.671 2875.26 362.895 2874.83 362.895 2874.21V2874.08C362.895 2872.46 362.454 2871.21 361.572 2870.32C360.7 2869.43 359.377 2868.98 357.602 2868.98C355.762 2868.98 354.319 2869.38 353.273 2870.19C352.228 2870.99 351.493 2871.86 351.068 2872.77L347.409 2871.46C348.062 2869.94 348.934 2868.75 350.023 2867.9C351.122 2867.04 352.32 2866.44 353.616 2866.11C354.923 2865.76 356.208 2865.58 357.471 2865.58C358.277 2865.58 359.203 2865.68 360.248 2865.88C361.305 2866.06 362.323 2866.45 363.303 2867.04C364.294 2867.62 365.116 2868.51 365.77 2869.7C366.423 2870.89 366.75 2872.48 366.75 2874.47V2891H362.895V2887.6H362.699C362.437 2888.15 362.002 2888.73 361.392 2889.35C360.782 2889.97 359.971 2890.5 358.958 2890.93C357.945 2891.37 356.709 2891.59 355.25 2891.59ZM355.838 2888.12C357.363 2888.12 358.648 2887.83 359.693 2887.23C360.749 2886.63 361.544 2885.85 362.078 2884.91C362.622 2883.96 362.895 2882.96 362.895 2881.92V2878.39C362.731 2878.59 362.372 2878.76 361.817 2878.93C361.272 2879.08 360.64 2879.22 359.922 2879.34C359.214 2879.45 358.522 2879.54 357.847 2879.63C357.183 2879.71 356.644 2879.77 356.23 2879.83C355.228 2879.96 354.291 2880.17 353.42 2880.46C352.56 2880.75 351.863 2881.18 351.329 2881.75C350.807 2882.32 350.545 2883.09 350.545 2884.07C350.545 2885.41 351.041 2886.43 352.032 2887.11C353.034 2887.79 354.302 2888.12 355.838 2888.12ZM383.914 2900.93C382.052 2900.93 380.451 2900.69 379.112 2900.21C377.772 2899.74 376.656 2899.12 375.763 2898.35C374.881 2897.59 374.178 2896.77 373.656 2895.9L376.727 2893.74C377.075 2894.2 377.516 2894.72 378.05 2895.31C378.583 2895.91 379.313 2896.43 380.239 2896.86C381.175 2897.31 382.4 2897.53 383.914 2897.53C385.94 2897.53 387.611 2897.04 388.929 2896.06C390.247 2895.08 390.906 2893.55 390.906 2891.46V2886.36H390.579C390.296 2886.82 389.893 2887.38 389.37 2888.06C388.858 2888.72 388.118 2889.32 387.148 2889.84C386.19 2890.35 384.894 2890.61 383.261 2890.61C381.235 2890.61 379.416 2890.13 377.805 2889.17C376.204 2888.21 374.935 2886.82 373.999 2884.99C373.073 2883.16 372.61 2880.94 372.61 2878.32C372.61 2875.75 373.062 2873.52 373.966 2871.61C374.87 2869.69 376.128 2868.21 377.739 2867.17C379.351 2866.11 381.213 2865.58 383.326 2865.58C384.96 2865.58 386.255 2865.85 387.214 2866.4C388.183 2866.93 388.924 2867.54 389.435 2868.23C389.958 2868.9 390.361 2869.46 390.644 2869.89H391.036V2865.91H394.761V2891.72C394.761 2893.88 394.271 2895.63 393.29 2896.98C392.321 2898.34 391.014 2899.34 389.37 2899.97C387.737 2900.61 385.918 2900.93 383.914 2900.93ZM383.783 2887.14C385.33 2887.14 386.637 2886.79 387.704 2886.08C388.771 2885.38 389.582 2884.36 390.138 2883.03C390.693 2881.7 390.971 2880.11 390.971 2878.26C390.971 2876.45 390.699 2874.86 390.154 2873.47C389.61 2872.09 388.804 2871.01 387.737 2870.22C386.669 2869.44 385.352 2869.05 383.783 2869.05C382.15 2869.05 380.789 2869.46 379.7 2870.29C378.621 2871.11 377.81 2872.23 377.266 2873.62C376.732 2875.01 376.465 2876.56 376.465 2878.26C376.465 2880 376.737 2881.54 377.282 2882.88C377.837 2884.21 378.654 2885.26 379.732 2886.02C380.821 2886.77 382.172 2887.14 383.783 2887.14ZM412.337 2891.52C409.92 2891.52 407.834 2890.99 406.081 2889.92C404.339 2888.84 402.994 2887.34 402.046 2885.41C401.11 2883.47 400.641 2881.22 400.641 2878.65C400.641 2876.08 401.11 2873.82 402.046 2871.86C402.994 2869.88 404.311 2868.35 405.999 2867.25C407.698 2866.14 409.68 2865.58 411.945 2865.58C413.252 2865.58 414.543 2865.8 415.817 2866.24C417.091 2866.67 418.251 2867.38 419.296 2868.36C420.342 2869.33 421.175 2870.61 421.795 2872.21C422.416 2873.82 422.727 2875.79 422.727 2878.13V2879.76H403.386V2876.43H418.806C418.806 2875.01 418.523 2873.75 417.957 2872.64C417.401 2871.53 416.606 2870.65 415.572 2870.01C414.548 2869.37 413.339 2869.05 411.945 2869.05C410.41 2869.05 409.081 2869.43 407.96 2870.19C406.849 2870.94 405.994 2871.92 405.395 2873.13C404.796 2874.34 404.496 2875.63 404.496 2877.02V2879.24C404.496 2881.13 404.823 2882.74 405.477 2884.06C406.141 2885.36 407.061 2886.36 408.237 2887.05C409.413 2887.72 410.78 2888.06 412.337 2888.06C413.35 2888.06 414.265 2887.92 415.082 2887.63C415.909 2887.34 416.623 2886.91 417.222 2886.33C417.821 2885.74 418.283 2885.01 418.61 2884.14L422.335 2885.18C421.942 2886.45 421.284 2887.56 420.358 2888.52C419.432 2889.46 418.289 2890.21 416.928 2890.74C415.566 2891.26 414.036 2891.52 412.337 2891.52Z" fill="black"/>
<path d="M5522.31 262.818V289H5519.24L5504.97 268.443H5504.72V289H5501.55V262.818H5504.61L5518.93 283.426H5519.19V262.818H5522.31ZM5550.74 275.909C5550.74 278.67 5550.24 281.057 5549.25 283.068C5548.25 285.08 5546.88 286.631 5545.14 287.722C5543.4 288.812 5541.42 289.358 5539.19 289.358C5536.95 289.358 5534.97 288.812 5533.23 287.722C5531.49 286.631 5530.12 285.08 5529.12 283.068C5528.13 281.057 5527.63 278.67 5527.63 275.909C5527.63 273.148 5528.13 270.761 5529.12 268.75C5530.12 266.739 5531.49 265.188 5533.23 264.097C5534.97 263.006 5536.95 262.46 5539.19 262.46C5541.42 262.46 5543.4 263.006 5545.14 264.097C5546.88 265.188 5548.25 266.739 5549.25 268.75C5550.24 270.761 5550.74 273.148 5550.74 275.909ZM5547.67 275.909C5547.67 273.642 5547.29 271.729 5546.54 270.169C5545.79 268.609 5544.77 267.429 5543.48 266.628C5542.2 265.827 5540.77 265.426 5539.19 265.426C5537.6 265.426 5536.16 265.827 5534.88 266.628C5533.6 267.429 5532.58 268.609 5531.82 270.169C5531.07 271.729 5530.7 273.642 5530.7 275.909C5530.7 278.176 5531.07 280.089 5531.82 281.649C5532.58 283.209 5533.6 284.389 5534.88 285.19C5536.16 285.991 5537.6 286.392 5539.19 286.392C5540.77 286.392 5542.2 285.991 5543.48 285.19C5544.77 284.389 5545.79 283.209 5546.54 281.649C5547.29 280.089 5547.67 278.176 5547.67 275.909ZM5577.14 271H5573.97C5573.78 270.088 5573.45 269.287 5572.99 268.597C5572.53 267.906 5571.96 267.327 5571.3 266.858C5570.64 266.381 5569.91 266.023 5569.11 265.784C5568.31 265.545 5567.48 265.426 5566.61 265.426C5565.02 265.426 5563.59 265.827 5562.3 266.628C5561.02 267.429 5560 268.609 5559.24 270.169C5558.49 271.729 5558.12 273.642 5558.12 275.909C5558.12 278.176 5558.49 280.089 5559.24 281.649C5560 283.209 5561.02 284.389 5562.3 285.19C5563.59 285.991 5565.02 286.392 5566.61 286.392C5567.48 286.392 5568.31 286.273 5569.11 286.034C5569.91 285.795 5570.64 285.442 5571.3 284.973C5571.96 284.496 5572.53 283.912 5572.99 283.222C5573.45 282.523 5573.78 281.722 5573.97 280.818H5577.14C5576.9 282.156 5576.47 283.354 5575.84 284.411C5575.21 285.467 5574.42 286.366 5573.48 287.108C5572.55 287.841 5571.49 288.399 5570.33 288.783C5569.17 289.166 5567.93 289.358 5566.61 289.358C5564.37 289.358 5562.39 288.812 5560.65 287.722C5558.91 286.631 5557.54 285.08 5556.55 283.068C5555.55 281.057 5555.05 278.67 5555.05 275.909C5555.05 273.148 5555.55 270.761 5556.55 268.75C5557.54 266.739 5558.91 265.188 5560.65 264.097C5562.39 263.006 5564.37 262.46 5566.61 262.46C5567.93 262.46 5569.17 262.652 5570.33 263.036C5571.49 263.419 5572.55 263.982 5573.48 264.723C5574.42 265.456 5575.21 266.351 5575.84 267.408C5576.47 268.456 5576.9 269.653 5577.14 271ZM5390.17 333V306.818H5405.97V309.631H5393.34V318.477H5405.15V321.29H5393.34V330.188H5406.18V333H5390.17ZM5413.53 313.364L5418.23 321.392L5422.94 313.364H5426.41L5420.07 323.182L5426.41 333H5422.94L5418.23 325.381L5413.53 333H5410.05L5416.29 323.182L5410.05 313.364H5413.53ZM5437.89 333.409C5436.05 333.409 5434.46 332.974 5433.13 332.105C5431.8 331.236 5430.78 330.038 5430.06 328.513C5429.35 326.987 5428.99 325.244 5428.99 323.284C5428.99 321.29 5429.36 319.53 5430.09 318.004C5430.83 316.47 5431.86 315.273 5433.18 314.412C5434.51 313.543 5436.06 313.108 5437.84 313.108C5439.22 313.108 5440.46 313.364 5441.57 313.875C5442.68 314.386 5443.58 315.102 5444.29 316.023C5445 316.943 5445.44 318.017 5445.61 319.244H5442.59C5442.36 318.349 5441.85 317.557 5441.06 316.866C5440.27 316.168 5439.22 315.818 5437.89 315.818C5436.71 315.818 5435.68 316.125 5434.79 316.739C5433.92 317.344 5433.23 318.2 5432.74 319.308C5432.25 320.408 5432.01 321.699 5432.01 323.182C5432.01 324.699 5432.25 326.02 5432.72 327.145C5433.21 328.27 5433.89 329.143 5434.77 329.766C5435.65 330.388 5436.69 330.699 5437.89 330.699C5438.67 330.699 5439.38 330.562 5440.02 330.29C5440.66 330.017 5441.2 329.625 5441.65 329.114C5442.09 328.602 5442.4 327.989 5442.59 327.273H5445.61C5445.44 328.432 5445.02 329.476 5444.34 330.405C5443.68 331.325 5442.8 332.058 5441.7 332.604C5440.61 333.141 5439.34 333.409 5437.89 333.409ZM5453.04 306.818V333H5450.02V306.818H5453.04ZM5470.94 324.972V313.364H5473.95V333H5470.94V329.676H5470.73C5470.27 330.673 5469.56 331.521 5468.58 332.22C5467.61 332.911 5466.39 333.256 5464.9 333.256C5463.68 333.256 5462.58 332.987 5461.63 332.45C5460.68 331.905 5459.93 331.087 5459.38 329.996C5458.83 328.896 5458.56 327.511 5458.56 325.841V313.364H5461.58V325.636C5461.58 327.068 5461.98 328.21 5462.78 329.062C5463.59 329.915 5464.62 330.341 5465.87 330.341C5466.62 330.341 5467.39 330.149 5468.16 329.766C5468.95 329.382 5469.6 328.794 5470.13 328.001C5470.67 327.209 5470.94 326.199 5470.94 324.972ZM5486.89 333.409C5485.26 333.409 5483.81 332.996 5482.56 332.169C5481.31 331.334 5480.33 330.158 5479.62 328.641C5478.91 327.115 5478.56 325.312 5478.56 323.233C5478.56 321.17 5478.91 319.381 5479.62 317.864C5480.33 316.347 5481.31 315.175 5482.57 314.348C5483.84 313.521 5485.29 313.108 5486.95 313.108C5488.22 313.108 5489.23 313.321 5489.98 313.747C5490.73 314.165 5491.3 314.642 5491.69 315.179C5492.09 315.707 5492.4 316.142 5492.62 316.483H5492.88V306.818H5495.89V333H5492.98V329.983H5492.62C5492.4 330.341 5492.09 330.793 5491.68 331.338C5491.27 331.875 5490.68 332.357 5489.92 332.783C5489.17 333.2 5488.16 333.409 5486.89 333.409ZM5487.3 330.699C5488.51 330.699 5489.54 330.384 5490.37 329.753C5491.21 329.114 5491.84 328.232 5492.28 327.107C5492.71 325.973 5492.93 324.665 5492.93 323.182C5492.93 321.716 5492.72 320.433 5492.29 319.334C5491.86 318.226 5491.23 317.365 5490.4 316.751C5489.56 316.129 5488.53 315.818 5487.3 315.818C5486.03 315.818 5484.96 316.146 5484.11 316.803C5483.26 317.45 5482.63 318.332 5482.2 319.449C5481.79 320.557 5481.58 321.801 5481.58 323.182C5481.58 324.58 5481.79 325.849 5482.22 326.991C5482.65 328.125 5483.29 329.028 5484.13 329.702C5484.99 330.366 5486.04 330.699 5487.3 330.699ZM5510.07 333.409C5508.18 333.409 5506.55 332.991 5505.18 332.156C5503.81 331.312 5502.76 330.136 5502.02 328.628C5501.29 327.111 5500.92 325.347 5500.92 323.335C5500.92 321.324 5501.29 319.551 5502.02 318.017C5502.76 316.474 5503.79 315.273 5505.11 314.412C5506.44 313.543 5507.99 313.108 5509.77 313.108C5510.79 313.108 5511.8 313.278 5512.8 313.619C5513.79 313.96 5514.7 314.514 5515.52 315.281C5516.34 316.04 5516.99 317.045 5517.47 318.298C5517.96 319.551 5518.2 321.094 5518.2 322.926V324.205H5503.07V321.597H5515.13C5515.13 320.489 5514.91 319.5 5514.47 318.631C5514.04 317.761 5513.41 317.075 5512.6 316.572C5511.8 316.07 5510.86 315.818 5509.77 315.818C5508.56 315.818 5507.52 316.116 5506.65 316.713C5505.78 317.301 5505.11 318.068 5504.64 319.014C5504.17 319.96 5503.94 320.974 5503.94 322.057V323.795C5503.94 325.278 5504.19 326.536 5504.7 327.567C5505.22 328.589 5505.94 329.369 5506.86 329.906C5507.78 330.435 5508.85 330.699 5510.07 330.699C5510.87 330.699 5511.58 330.588 5512.22 330.366C5512.87 330.136 5513.43 329.795 5513.89 329.344C5514.36 328.884 5514.73 328.312 5514.98 327.631L5517.9 328.449C5517.59 329.438 5517.07 330.307 5516.35 331.057C5515.63 331.798 5514.73 332.378 5513.66 332.795C5512.6 333.205 5511.4 333.409 5510.07 333.409ZM5530.21 333.409C5528.57 333.409 5527.13 332.996 5525.87 332.169C5524.62 331.334 5523.64 330.158 5522.93 328.641C5522.23 327.115 5521.87 325.312 5521.87 323.233C5521.87 321.17 5522.23 319.381 5522.93 317.864C5523.64 316.347 5524.63 315.175 5525.89 314.348C5527.15 313.521 5528.61 313.108 5530.26 313.108C5531.54 313.108 5532.55 313.321 5533.29 313.747C5534.04 314.165 5534.61 314.642 5535 315.179C5535.4 315.707 5535.71 316.142 5535.93 316.483H5536.19V306.818H5539.21V333H5536.29V329.983H5535.93C5535.71 330.341 5535.4 330.793 5534.99 331.338C5534.58 331.875 5534 332.357 5533.24 332.783C5532.48 333.2 5531.47 333.409 5530.21 333.409ZM5530.62 330.699C5531.83 330.699 5532.85 330.384 5533.68 329.753C5534.52 329.114 5535.15 328.232 5535.59 327.107C5536.02 325.973 5536.24 324.665 5536.24 323.182C5536.24 321.716 5536.03 320.433 5535.6 319.334C5535.18 318.226 5534.55 317.365 5533.71 316.751C5532.88 316.129 5531.84 315.818 5530.62 315.818C5529.34 315.818 5528.27 316.146 5527.42 316.803C5526.58 317.45 5525.94 318.332 5525.52 319.449C5525.1 320.557 5524.89 321.801 5524.89 323.182C5524.89 324.58 5525.1 325.849 5525.53 326.991C5525.96 328.125 5526.6 329.028 5527.45 329.702C5528.3 330.366 5529.36 330.699 5530.62 330.699ZM5563.25 333.409C5561.41 333.409 5559.83 332.974 5558.5 332.105C5557.17 331.236 5556.15 330.038 5555.43 328.513C5554.71 326.987 5554.36 325.244 5554.36 323.284C5554.36 321.29 5554.72 319.53 5555.46 318.004C5556.2 316.47 5557.23 315.273 5558.55 314.412C5559.88 313.543 5561.43 313.108 5563.2 313.108C5564.58 313.108 5565.83 313.364 5566.94 313.875C5568.04 314.386 5568.95 315.102 5569.66 316.023C5570.37 316.943 5570.81 318.017 5570.98 319.244H5567.96C5567.73 318.349 5567.22 317.557 5566.42 316.866C5565.64 316.168 5564.58 315.818 5563.25 315.818C5562.08 315.818 5561.05 316.125 5560.16 316.739C5559.28 317.344 5558.6 318.2 5558.1 319.308C5557.62 320.408 5557.37 321.699 5557.37 323.182C5557.37 324.699 5557.61 326.02 5558.09 327.145C5558.58 328.27 5559.26 329.143 5560.13 329.766C5561.02 330.388 5562.06 330.699 5563.25 330.699C5564.04 330.699 5564.75 330.562 5565.39 330.29C5566.03 330.017 5566.57 329.625 5567.01 329.114C5567.46 328.602 5567.77 327.989 5567.96 327.273H5570.98C5570.81 328.432 5570.38 329.476 5569.71 330.405C5569.05 331.325 5568.16 332.058 5567.06 332.604C5565.97 333.141 5564.7 333.409 5563.25 333.409ZM5581.16 333.46C5579.92 333.46 5578.79 333.226 5577.78 332.757C5576.76 332.28 5575.96 331.594 5575.36 330.699C5574.76 329.795 5574.47 328.705 5574.47 327.426C5574.47 326.301 5574.69 325.389 5575.13 324.69C5575.57 323.983 5576.17 323.429 5576.91 323.028C5577.65 322.628 5578.47 322.33 5579.36 322.134C5580.27 321.929 5581.17 321.767 5582.09 321.648C5583.28 321.494 5584.25 321.379 5584.99 321.303C5585.74 321.217 5586.28 321.077 5586.62 320.881C5586.97 320.685 5587.15 320.344 5587.15 319.858V319.756C5587.15 318.494 5586.8 317.514 5586.11 316.815C5585.43 316.116 5584.39 315.767 5583.01 315.767C5581.57 315.767 5580.44 316.082 5579.62 316.713C5578.8 317.344 5578.22 318.017 5577.89 318.733L5575.03 317.71C5575.54 316.517 5576.22 315.588 5577.07 314.923C5577.93 314.25 5578.87 313.781 5579.89 313.517C5580.91 313.244 5581.91 313.108 5582.9 313.108C5583.53 313.108 5584.26 313.185 5585.08 313.338C5585.9 313.483 5586.7 313.786 5587.47 314.246C5588.24 314.706 5588.89 315.401 5589.4 316.33C5589.91 317.259 5590.16 318.503 5590.16 320.062V333H5587.15V330.341H5586.99C5586.79 330.767 5586.45 331.223 5585.97 331.709C5585.49 332.195 5584.86 332.608 5584.07 332.949C5583.27 333.29 5582.31 333.46 5581.16 333.46ZM5581.62 330.75C5582.82 330.75 5583.82 330.516 5584.64 330.047C5585.47 329.578 5586.09 328.973 5586.51 328.232C5586.93 327.49 5587.15 326.71 5587.15 325.892V323.131C5587.02 323.284 5586.74 323.425 5586.3 323.553C5585.88 323.672 5585.38 323.778 5584.82 323.872C5584.27 323.957 5583.73 324.034 5583.2 324.102C5582.68 324.162 5582.26 324.213 5581.93 324.256C5581.15 324.358 5580.41 324.524 5579.73 324.754C5579.06 324.976 5578.51 325.312 5578.1 325.764C5577.69 326.207 5577.48 326.812 5577.48 327.58C5577.48 328.628 5577.87 329.42 5578.65 329.957C5579.43 330.486 5580.42 330.75 5581.62 330.75ZM5596.08 333V306.818H5599.1V316.483H5599.35C5599.57 316.142 5599.88 315.707 5600.27 315.179C5600.67 314.642 5601.25 314.165 5601.99 313.747C5602.74 313.321 5603.75 313.108 5605.03 313.108C5606.68 313.108 5608.14 313.521 5609.4 314.348C5610.66 315.175 5611.65 316.347 5612.35 317.864C5613.06 319.381 5613.42 321.17 5613.42 323.233C5613.42 325.312 5613.06 327.115 5612.35 328.641C5611.65 330.158 5610.67 331.334 5609.41 332.169C5608.16 332.996 5606.72 333.409 5605.08 333.409C5603.82 333.409 5602.81 333.2 5602.05 332.783C5601.29 332.357 5600.71 331.875 5600.3 331.338C5599.89 330.793 5599.57 330.341 5599.35 329.983H5599V333H5596.08ZM5599.05 323.182C5599.05 324.665 5599.26 325.973 5599.7 327.107C5600.13 328.232 5600.77 329.114 5601.6 329.753C5602.44 330.384 5603.46 330.699 5604.67 330.699C5605.93 330.699 5606.99 330.366 5607.83 329.702C5608.68 329.028 5609.32 328.125 5609.75 326.991C5610.18 325.849 5610.4 324.58 5610.4 323.182C5610.4 321.801 5610.19 320.557 5609.76 319.449C5609.34 318.332 5608.71 317.45 5607.85 316.803C5607.01 316.146 5605.95 315.818 5604.67 315.818C5603.44 315.818 5602.41 316.129 5601.58 316.751C5600.74 317.365 5600.11 318.226 5599.69 319.334C5599.26 320.433 5599.05 321.716 5599.05 323.182ZM5618.44 333V306.818H5634.24V309.631H5621.61V318.477H5633.42V321.29H5621.61V330.188H5634.45V333H5618.44ZM5649.31 333L5653.61 306.818H5656.17L5651.87 333H5649.31ZM5637.4 325.739L5637.81 323.182H5657.34L5656.93 325.739H5637.4ZM5640.11 333L5644.4 306.818H5646.96L5642.67 333H5640.11ZM5638.93 316.636L5639.34 314.08H5658.88L5658.47 316.636H5638.93ZM5673.46 319.909C5673.46 316.687 5673.87 313.726 5674.71 311.024C5675.55 308.314 5676.75 305.821 5678.31 303.545H5680.97C5680.36 304.389 5679.78 305.429 5679.25 306.665C5678.72 307.892 5678.25 309.243 5677.85 310.717C5677.45 312.183 5677.14 313.7 5676.91 315.268C5676.69 316.837 5676.58 318.384 5676.58 319.909C5676.58 321.938 5676.77 323.996 5677.16 326.084C5677.56 328.172 5678.08 330.111 5678.75 331.901C5679.41 333.69 5680.16 335.148 5680.97 336.273H5678.31C5676.75 333.997 5675.55 331.509 5674.71 328.807C5673.87 326.097 5673.46 323.131 5673.46 319.909ZM5684.76 327.631V325.023L5696.27 306.818H5698.16V310.858H5696.88L5688.19 324.614V324.818H5703.68V327.631H5684.76ZM5697.08 333V326.838V325.624V306.818H5700.1V333H5697.08ZM5717.01 333.358C5715.09 333.358 5713.44 332.834 5712.09 331.786C5710.73 330.729 5709.7 329.199 5708.98 327.196C5708.27 325.185 5707.91 322.756 5707.91 319.909C5707.91 317.08 5708.27 314.663 5708.98 312.661C5709.71 310.649 5710.75 309.115 5712.1 308.058C5713.47 306.993 5715.1 306.46 5717.01 306.46C5718.92 306.46 5720.55 306.993 5721.91 308.058C5723.27 309.115 5724.31 310.649 5725.03 312.661C5725.75 314.663 5726.11 317.08 5726.11 319.909C5726.11 322.756 5725.76 325.185 5725.04 327.196C5724.32 329.199 5723.29 330.729 5721.93 331.786C5720.58 332.834 5718.94 333.358 5717.01 333.358ZM5717.01 330.545C5718.92 330.545 5720.4 329.625 5721.46 327.784C5722.52 325.943 5723.05 323.318 5723.05 319.909C5723.05 317.642 5722.8 315.712 5722.32 314.118C5721.84 312.524 5721.15 311.31 5720.25 310.474C5719.35 309.639 5718.27 309.222 5717.01 309.222C5715.12 309.222 5713.64 310.155 5712.58 312.021C5711.51 313.879 5710.98 316.509 5710.98 319.909C5710.98 322.176 5711.22 324.102 5711.69 325.688C5712.17 327.273 5712.86 328.479 5713.75 329.305C5714.66 330.132 5715.74 330.545 5717.01 330.545ZM5737.47 319.909C5737.47 323.131 5737.04 326.097 5736.2 328.807C5735.37 331.509 5734.17 333.997 5732.61 336.273H5729.95C5730.56 335.429 5731.13 334.389 5731.66 333.153C5732.2 331.926 5732.67 330.58 5733.07 329.114C5733.47 327.639 5733.78 326.118 5734 324.55C5734.23 322.973 5734.35 321.426 5734.35 319.909C5734.35 317.881 5734.15 315.822 5733.76 313.734C5733.37 311.646 5732.84 309.707 5732.17 307.918C5731.51 306.128 5730.77 304.67 5729.95 303.545H5732.61C5734.17 305.821 5735.37 308.314 5736.2 311.024C5737.04 313.726 5737.47 316.687 5737.47 319.909Z" fill="black"/>
<path d="M5294.2 1190V1171.82H5300.35C5301.77 1171.82 5302.93 1172.06 5303.84 1172.55C5304.75 1173.03 5305.43 1173.69 5305.87 1174.53C5306.31 1175.37 5306.52 1176.32 5306.52 1177.39C5306.52 1178.46 5306.31 1179.41 5305.87 1180.24C5305.43 1181.07 5304.76 1181.72 5303.85 1182.2C5302.95 1182.66 5301.79 1182.9 5300.38 1182.9H5295.41V1180.91H5300.31C5301.28 1180.91 5302.06 1180.77 5302.65 1180.48C5303.25 1180.2 5303.68 1179.8 5303.95 1179.28C5304.22 1178.75 5304.36 1178.12 5304.36 1177.39C5304.36 1176.67 5304.22 1176.03 5303.95 1175.48C5303.68 1174.94 5303.24 1174.52 5302.64 1174.22C5302.05 1173.92 5301.26 1173.77 5300.27 1173.77H5296.4V1190H5294.2ZM5302.76 1181.83L5307.23 1190H5304.68L5300.27 1181.83H5302.76Z" fill="black"/>
<defs>
<filter id="filter0_d_1_9" x="4009" y="2402" width="152" height="66" filterUnits="userSpaceOnUse" color-interpolation-filters="sRGB">
<feFlood flood-opacity="0" result="BackgroundImageFix"/>
<feColorMatrix in="SourceAlpha" type="matrix" values="0 0 0 0 0 0 0 0 0 0 0 0 0 0 0 0 0 0 127 0" result="hardAlpha"/>
<feOffset dy="4"/>
<feGaussianBlur stdDeviation="2"/>
<feComposite in2="hardAlpha" operator="out"/>
<feColorMatrix type="matrix" values="0 0 0 0 0 0 0 0 0 0 0 0 0 0 0 0 0 0 0.25 0"/>
<feBlend mode="normal" in2="BackgroundImageFix" result="effect1_dropShadow_1_9"/>
<feBlend mode="normal" in="SourceGraphic" in2="effect1_dropShadow_1_9" result="shape"/>
</filter>
<filter id="filter1_d_1_9" x="4010" y="1518" width="152" height="66" filterUnits="userSpaceOnUse" color-interpolation-filters="sRGB">
<feFlood flood-opacity="0" result="BackgroundImageFix"/>
<feColorMatrix in="SourceAlpha" type="matrix" values="0 0 0 0 0 0 0 0 0 0 0 0 0 0 0 0 0 0 127 0" result="hardAlpha"/>
<feOffset dy="4"/>
<feGaussianBlur stdDeviation="2"/>
<feComposite in2="hardAlpha" operator="out"/>
<feColorMatrix type="matrix" values="0 0 0 0 0 0 0 0 0 0 0 0 0 0 0 0 0 0 0.25 0"/>
<feBlend mode="normal" in2="BackgroundImageFix" result="effect1_dropShadow_1_9"/>
<feBlend mode="normal" in="SourceGraphic" in2="effect1_dropShadow_1_9" result="shape"/>
</filter>
<filter id="filter2_d_1_9" x="4010" y="700" width="152" height="66" filterUnits="userSpaceOnUse" color-interpolation-filters="sRGB">
<feFlood flood-opacity="0" result="BackgroundImageFix"/>
<feColorMatrix in="SourceAlpha" type="matrix" values="0 0 0 0 0 0 0 0 0 0 0 0 0 0 0 0 0 0 127 0" result="hardAlpha"/>
<feOffset dy="4"/>
<feGaussianBlur stdDeviation="2"/>
<feComposite in2="hardAlpha" operator="out"/>
<feColorMatrix type="matrix" values="0 0 0 0 0 0 0 0 0 0 0 0 0 0 0 0 0 0 0.25 0"/>
<feBlend mode="normal" in2="BackgroundImageFix" result="effect1_dropShadow_1_9"/>
<feBlend mode="normal" in="SourceGraphic" in2="effect1_dropShadow_1_9" result="shape"/>
</filter>
<filter id="filter3_d_1_9" x="4009" y="3226" width="152" height="66" filterUnits="userSpaceOnUse" color-interpolation-filters="sRGB">
<feFlood flood-opacity="0" result="BackgroundImageFix"/>
<feColorMatrix in="SourceAlpha" type="matrix" values="0 0 0 0 0 0 0 0 0 0 0 0 0 0 0 0 0 0 127 0" result="hardAlpha"/>
<feOffset dy="4"/>
<feGaussianBlur stdDeviation="2"/>
<feComposite in2="hardAlpha" operator="out"/>
<feColorMatrix type="matrix" values="0 0 0 0 0 0 0 0 0 0 0 0 0 0 0 0 0 0 0.25 0"/>
<feBlend mode="normal" in2="BackgroundImageFix" result="effect1_dropShadow_1_9"/>
<feBlend mode="normal" in="SourceGraphic" in2="effect1_dropShadow_1_9" result="shape"/>
</filter>
<filter id="filter4_d_1_9" x="4725" y="3226" width="152" height="66" filterUnits="userSpaceOnUse" color-interpolation-filters="sRGB">
<feFlood flood-opacity="0" result="BackgroundImageFix"/>
<feColorMatrix in="SourceAlpha" type="matrix" values="0 0 0 0 0 0 0 0 0 0 0 0 0 0 0 0 0 0 127 0" result="hardAlpha"/>
<feOffset dy="4"/>
<feGaussianBlur stdDeviation="2"/>
<feComposite in2="hardAlpha" operator="out"/>
<feColorMatrix type="matrix" values="0 0 0 0 0 0 0 0 0 0 0 0 0 0 0 0 0 0 0.25 0"/>
<feBlend mode="normal" in2="BackgroundImageFix" result="effect1_dropShadow_1_9"/>
<feBlend mode="normal" in="SourceGraphic" in2="effect1_dropShadow_1_9" result="shape"/>
</filter>
<filter id="filter5_d_1_9" x="4717" y="2402" width="152" height="66" filterUnits="userSpaceOnUse" color-interpolation-filters="sRGB">
<feFlood flood-opacity="0" result="BackgroundImageFix"/>
<feColorMatrix in="SourceAlpha" type="matrix" values="0 0 0 0 0 0 0 0 0 0 0 0 0 0 0 0 0 0 127 0" result="hardAlpha"/>
<feOffset dy="4"/>
<feGaussianBlur stdDeviation="2"/>
<feComposite in2="hardAlpha" operator="out"/>
<feColorMatrix type="matrix" values="0 0 0 0 0 0 0 0 0 0 0 0 0 0 0 0 0 0 0.25 0"/>
<feBlend mode="normal" in2="BackgroundImageFix" result="effect1_dropShadow_1_9"/>
<feBlend mode="normal" in="SourceGraphic" in2="effect1_dropShadow_1_9" result="shape"/>
</filter>
<filter id="filter6_d_1_9" x="4721" y="1518" width="152" height="66" filterUnits="userSpaceOnUse" color-interpolation-filters="sRGB">
<feFlood flood-opacity="0" result="BackgroundImageFix"/>
<feColorMatrix in="SourceAlpha" type="matrix" values="0 0 0 0 0 0 0 0 0 0 0 0 0 0 0 0 0 0 127 0" result="hardAlpha"/>
<feOffset dy="4"/>
<feGaussianBlur stdDeviation="2"/>
<feComposite in2="hardAlpha" operator="out"/>
<feColorMatrix type="matrix" values="0 0 0 0 0 0 0 0 0 0 0 0 0 0 0 0 0 0 0.25 0"/>
<feBlend mode="normal" in2="BackgroundImageFix" result="effect1_dropShadow_1_9"/>
<feBlend mode="normal" in="SourceGraphic" in2="effect1_dropShadow_1_9" result="shape"/>
</filter>
<filter id="filter7_d_1_9" x="4721" y="700" width="152" height="66" filterUnits="userSpaceOnUse" color-interpolation-filters="sRGB">
<feFlood flood-opacity="0" result="BackgroundImageFix"/>
<feColorMatrix in="SourceAlpha" type="matrix" values="0 0 0 0 0 0 0 0 0 0 0 0 0 0 0 0 0 0 127 0" result="hardAlpha"/>
<feOffset dy="4"/>
<feGaussianBlur stdDeviation="2"/>
<feComposite in2="hardAlpha" operator="out"/>
<feColorMatrix type="matrix" values="0 0 0 0 0 0 0 0 0 0 0 0 0 0 0 0 0 0 0.25 0"/>
<feBlend mode="normal" in2="BackgroundImageFix" result="effect1_dropShadow_1_9"/>
<feBlend mode="normal" in="SourceGraphic" in2="effect1_dropShadow_1_9" result="shape"/>
</filter>
</defs>
</svg>
