<svg width="751" height="422" viewBox="0 0 751 422" fill="none" xmlns="http://www.w3.org/2000/svg">
<g clip-path="url(#clip0_61_85)">
<path d="M67 395.517C66.9286 396.646 66.7809 397.769 66.558 398.878C66.082 401.256 63.843 410.62 54.758 416.367C50.8303 418.804 46.3602 420.23 41.747 420.517L41.913 395.569L67 395.517Z" stroke="#1A1818" stroke-miterlimit="10"/>
<path d="M67 395.513C67.0678 396.641 67.208 397.764 67.42 398.874C67.872 401.252 70 410.613 78.633 416.363C82.329 418.789 86.589 420.218 91 420.513L90.842 395.565L67 395.513Z" stroke="#1A1818" stroke-miterlimit="10"/>
<path d="M58 1.51697C57.9286 2.64598 57.7809 3.7689 57.558 4.87799C57.082 7.25599 54.843 16.6199 45.758 22.3669C41.8303 24.8037 37.3602 26.2295 32.747 26.517L32.913 1.56897L58 1.51697Z" stroke="#1A1818" stroke-miterlimit="10"/>
<path d="M58 1.51294C58.0678 2.64112 58.208 3.76378 58.42 4.87394C58.872 7.25194 61 16.6129 69.633 22.3629C73.329 24.7885 77.589 26.2181 82 26.5129L81.842 1.56494L58 1.51294Z" stroke="#1A1818" stroke-miterlimit="10"/>
<path d="M700.144 395.517C700.073 396.646 699.925 397.769 699.702 398.878C699.226 401.256 696.987 410.62 687.902 416.367C683.974 418.804 679.504 420.23 674.891 420.517L675.057 395.569L700.144 395.517Z" stroke="#1A1818" stroke-miterlimit="10"/>
<path d="M700.144 395.513C700.212 396.641 700.352 397.764 700.564 398.874C701.016 401.252 703.144 410.613 711.777 416.363C715.473 418.789 719.733 420.218 724.144 420.513L723.986 395.565L700.144 395.513Z" stroke="#1A1818" stroke-miterlimit="10"/>
<path d="M22 236H88V395H22V236Z" stroke="black"/>
<path d="M22 15.5129H0V29.5129H22V15.5129Z" fill="black"/>
<path d="M21.5 16.0129H0.5V29.0129H21.5V16.0129Z" stroke="black"/>
<path d="M725 376H624V395" stroke="black"/>
<path d="M607 376H624V395H607V376Z" stroke="black"/>
<path d="M590 376H607V395H590V376Z" stroke="black"/>
<path d="M11 76.5V2H724V395H22V208.5H92V141" stroke="black"/>
<line x1="11" y1="77.5" x2="16" y2="77.5" stroke="#FFBF1A"/>
<line x1="18" y1="77.5" x2="23" y2="77.5" stroke="#FFBF1A"/>
<line x1="26" y1="77.5" x2="31" y2="77.5" stroke="#FFBF1A"/>
<line x1="33" y1="77.5" x2="38" y2="77.5" stroke="#FFBF1A"/>
<line x1="41" y1="77.5" x2="46" y2="77.5" stroke="#FFBF1A"/>
<line x1="49" y1="77.5" x2="54" y2="77.5" stroke="#FFBF1A"/>
<line x1="57" y1="77.5" x2="62" y2="77.5" stroke="#FFBF1A"/>
<line x1="65" y1="77.5" x2="70" y2="77.5" stroke="#FFBF1A"/>
<line x1="73" y1="77.5" x2="78" y2="77.5" stroke="#FFBF1A"/>
<line x1="80" y1="77.5" x2="85" y2="77.5" stroke="#FFBF1A"/>
<line x1="87" y1="77.5" x2="92" y2="77.5" stroke="#FFBF1A"/>
<line x1="92" y1="84.5" x2="92" y2="79.5" stroke="#FFBF1A"/>
<line x1="92" y1="92.5" x2="92" y2="87.5" stroke="#FFBF1A"/>
<line x1="92" y1="99.5" x2="92" y2="94.5" stroke="#FFBF1A"/>
<line x1="92" y1="107.5" x2="92" y2="102.5" stroke="#FFBF1A"/>
<line x1="92" y1="115.5" x2="92" y2="110.5" stroke="#FFBF1A"/>
<line x1="92" y1="123.5" x2="92" y2="118.5" stroke="#FFBF1A"/>
<line x1="92" y1="131.5" x2="92" y2="126.5" stroke="#FFBF1A"/>
<line x1="92" y1="138.5" x2="92" y2="133.5" stroke="#FFBF1A"/>
</g>
<defs>
<clipPath id="clip0_61_85">
<rect width="750.545" height="421.051" fill="white"/>
</clipPath>
</defs>
</svg>
