<svg width="751" height="422" viewBox="0 0 751 422" fill="none" xmlns="http://www.w3.org/2000/svg">
<path d="M55.771 395.515C55.7257 396.215 55.632 396.91 55.4906 397.597C55.1885 399.07 53.7678 404.87 48.003 408.43C45.5107 409.939 42.6743 410.822 39.747 411L39.8523 395.548L55.771 395.515Z" stroke="#1A1818" stroke-miterlimit="10"/>
<path d="M55.771 395.513C55.814 396.212 55.903 396.907 56.0375 397.595C56.3244 399.068 57.6747 404.866 63.1526 408.427C65.4979 409.929 68.201 410.815 71 410.998L70.8997 395.545L55.771 395.513Z" stroke="#1A1818" stroke-miterlimit="10"/>
<path d="M703.771 395.515C703.726 396.215 703.632 396.91 703.491 397.597C703.189 399.07 701.768 404.87 696.003 408.43C693.511 409.939 690.674 410.822 687.747 411L687.852 395.548L703.771 395.515Z" stroke="#1A1818" stroke-miterlimit="10"/>
<path d="M703.771 395.513C703.814 396.212 703.903 396.907 704.038 397.595C704.324 399.068 705.675 404.866 711.153 408.427C713.498 409.929 716.201 410.815 719 410.998L718.9 395.545L703.771 395.513Z" stroke="#1A1818" stroke-miterlimit="10"/>
<path d="M44.2583 2.51575C44.2144 3.30535 44.1238 4.09068 43.9868 4.86634C43.6945 6.52945 42.3192 13.0783 36.7388 17.0976C34.3263 18.8018 31.5806 19.7989 28.747 20L28.849 2.55212L44.2583 2.51575Z" stroke="#1A1818" stroke-miterlimit="10"/>
<path d="M44.2583 2.51295C44.2999 3.30197 44.3861 4.08712 44.5163 4.86353C44.7939 6.52663 46.101 13.0734 51.4037 17.0948C53.6739 18.7912 56.2906 19.791 59 19.9972L58.903 2.54932L44.2583 2.51295Z" stroke="#1A1818" stroke-miterlimit="10"/>
<path d="M22 236H88V395H22V236Z" stroke="black"/>
<path d="M22 15.5129H0V29.5129H22V15.5129Z" fill="black"/>
<path d="M21.5 16.0129H0.5V29.0129H21.5V16.0129Z" stroke="black"/>
<path d="M725 376H607V395" stroke="black"/>
<path d="M607 376H627V395H607V376Z" stroke="black"/>
<path d="M627 376H647V395H627V376Z" stroke="black"/>
<path d="M11 76.5V2H724V395H22V208.5H92V141" stroke="black"/>
<line x1="11" y1="77.5" x2="16" y2="77.5" stroke="#FFBF1A"/>
<line x1="18" y1="77.5" x2="23" y2="77.5" stroke="#FFBF1A"/>
<line x1="26" y1="77.5" x2="31" y2="77.5" stroke="#FFBF1A"/>
<line x1="33" y1="77.5" x2="38" y2="77.5" stroke="#FFBF1A"/>
<line x1="41" y1="77.5" x2="46" y2="77.5" stroke="#FFBF1A"/>
<line x1="49" y1="77.5" x2="54" y2="77.5" stroke="#FFBF1A"/>
<line x1="57" y1="77.5" x2="62" y2="77.5" stroke="#FFBF1A"/>
<line x1="65" y1="77.5" x2="70" y2="77.5" stroke="#FFBF1A"/>
<line x1="73" y1="77.5" x2="78" y2="77.5" stroke="#FFBF1A"/>
<line x1="80" y1="77.5" x2="85" y2="77.5" stroke="#FFBF1A"/>
<line x1="87" y1="77.5" x2="92" y2="77.5" stroke="#FFBF1A"/>
<line x1="92" y1="84.5" x2="92" y2="79.5" stroke="#FFBF1A"/>
<line x1="92" y1="92.5" x2="92" y2="87.5" stroke="#FFBF1A"/>
<line x1="92" y1="99.5" x2="92" y2="94.5" stroke="#FFBF1A"/>
<line x1="92" y1="107.5" x2="92" y2="102.5" stroke="#FFBF1A"/>
<line x1="92" y1="115.5" x2="92" y2="110.5" stroke="#FFBF1A"/>
<line x1="92" y1="123.5" x2="92" y2="118.5" stroke="#FFBF1A"/>
<line x1="92" y1="131.5" x2="92" y2="126.5" stroke="#FFBF1A"/>
<line x1="92" y1="138.5" x2="92" y2="133.5" stroke="#FFBF1A"/>
</svg>
